<?xml version="1.0" standalone="no"?>
<!DOCTYPE svg PUBLIC "-//W3C//DTD SVG 1.1//EN" "http://www.w3.org/Graphics/SVG/1.1/DTD/svg11.dtd" >
<svg xmlns="http://www.w3.org/2000/svg" xmlns:xlink="http://www.w3.org/1999/xlink" version="1.1">
<metadata>
Created by FontForge 20170731 at Fri Jan 15 08:43:48 2021
 By Aleksey,,,
Copyright (c) Joshua Darden &#38; Phil's Fonts, Inc, 2005. All rights reserved.
</metadata>
<defs>
<font id="Freight-BigMedium" horiz-adv-x="757" >
  <font-face 
    font-family="Freight"
    font-weight="500"
    font-stretch="normal"
    units-per-em="2048"
    panose-1="2 0 6 3 9 0 0 2 0 4"
    ascent="1638"
    descent="-410"
    x-height="864"
    cap-height="1280"
    bbox="-180 -571 2042 1769"
    underline-thickness="40"
    underline-position="-312"
    unicode-range="U+0020-FB02"
  />
<missing-glyph horiz-adv-x="1024" 
 />
    <glyph glyph-name=".notdef" horiz-adv-x="1024" 
 />
    <glyph glyph-name=".null" horiz-adv-x="0" 
 />
    <glyph glyph-name=".null" horiz-adv-x="0" 
 />
    <glyph glyph-name="nonmarkingreturn" horiz-adv-x="682" 
 />
    <glyph glyph-name="space" unicode=" " horiz-adv-x="266" 
 />
    <glyph glyph-name="exclam" unicode="!" horiz-adv-x="512" 
d="M156 1204q-4 20 -1.5 39t10.5 34t31 24.5t60 9.5h4q37 0 60 -9.5t31 -24.5t10.5 -34t-1.5 -39l-92 -842q0 -6 -9 -6t-9 6zM258 -31q-53 0 -89 36.5t-36 84.5t36 82.5t89 34.5t87 -34.5t34 -82.5q0 -49 -34.5 -85t-86.5 -36z" />
    <glyph glyph-name="quotedbl" unicode="&#x22;" horiz-adv-x="651" 
d="M549 1323h2l123 -55l-334 -443h-10zM215 1323h4l123 -55l-336 -443h-10z" />
    <glyph glyph-name="numbersign" unicode="#" horiz-adv-x="1011" 
d="M614 412l119 452h-334l-118 -452h333zM254 395h-285v17h289l119 452h-285v17h289l108 413h23l-109 -413h334l109 413h22l-108 -413h282v-17h-286l-119 -452h283v-17h-287l-107 -405h-22l106 405h-334l-106 -405h-23z" />
    <glyph glyph-name="dollar" unicode="$" horiz-adv-x="931" 
d="M289 -16q-121 14 -244 51l-8 311h14l131 -258q48 -38 117 -65q-1 1 35.5 137.5t72.5 272t35 134.5q-12 6 -22 8q-83 29 -142 60.5t-105.5 75.5t-69.5 102.5t-23 132.5q0 63 27.5 126.5t76.5 116t127 85.5t170 33q64 0 152 -15l59 224h21l-60 -228q46 -9 111 -28l74 26
l4 -332h-11l-131 248q-50 35 -59 41l-127 -485q95 -33 163 -67.5t123 -81.5t82 -109t27 -140q0 -70 -33 -139t-91.5 -125t-147.5 -90.5t-191 -34.5q-46 0 -139 11l-82 -318h-20zM623 1253q-75 33 -142 33q-103 0 -173 -72.5t-70 -173.5q0 -106 63.5 -167.5t192.5 -106.5z
M317 16q59 -20 129 -20q117 0 202 77.5t85 202.5q0 103 -69.5 169t-202.5 114z" />
    <glyph glyph-name="percent" unicode="%" horiz-adv-x="1083" 
d="M270 811q104 0 168 68t64 170q0 101 -64.5 171t-167.5 70q-102 0 -165.5 -70t-63.5 -171q0 -102 63 -170t166 -68zM270 791q-115 0 -184.5 75t-69.5 183q0 109 69.5 185.5t184.5 76.5q116 0 186 -76.5t70 -185.5q0 -108 -70 -183t-186 -75zM811 -6q104 0 167.5 67.5
t63.5 169.5q0 101 -64 171.5t-167 70.5q-102 0 -165.5 -70.5t-63.5 -171.5q0 -102 62.5 -169.5t166.5 -67.5zM811 -27q-115 0 -184.5 74.5t-69.5 181.5q0 110 69.5 187.5t184.5 77.5q116 0 186 -77.5t70 -187.5q0 -107 -70 -181.5t-186 -74.5zM965 1311h24l-876 -1340h-25z
" />
    <glyph glyph-name="ampersand" unicode="&#x26;" horiz-adv-x="1474" 
d="M594 864q111 54 111 219q0 78 -43.5 144.5t-122.5 66.5q-75 0 -120.5 -58.5t-45.5 -137.5q0 -81 51 -131t170 -103zM514 121q94 0 179 41.5t177 132.5q-68 161 -189.5 290t-270.5 187q-120 -73 -165.5 -156.5t-45.5 -189.5q0 -129 90 -217t225 -88zM424 -29
q-188 0 -299 110t-111 269q0 155 100.5 266t276.5 166q-83 43 -132.5 107t-49.5 141q0 106 105.5 194.5t228.5 88.5q146 0 232.5 -68t86.5 -155q0 -79 -62 -139t-184 -95q100 -48 218.5 -174t177.5 -240q93 122 135.5 194t42.5 120q0 75 -180 94l-23 2l-6 12h526l-6 -12
l-20 -2q-82 -8 -144.5 -51t-146.5 -156l-168 -219q85 -182 149.5 -255t145.5 -73q106 0 182 97l14 -11q-35 -43 -62 -72t-68 -65t-85 -55t-88 -19q-111 0 -187.5 75.5t-143.5 229.5q-121 -144 -230 -224.5t-225 -80.5z" />
    <glyph glyph-name="quotesingle" unicode="'" horiz-adv-x="323" 
d="M215 1323h4l123 -55l-336 -443h-10z" />
    <glyph glyph-name="parenleft" unicode="(" horiz-adv-x="647" 
d="M639 -571q-70 38 -140 97t-142 147.5t-127 191.5t-89.5 237t-34.5 275q0 143 34.5 278t89.5 238t127 191.5t142.5 146.5t139.5 94l10 -16q-68 -38 -137 -97t-139 -146.5t-123.5 -188.5t-87 -232t-33.5 -268q0 -139 33.5 -270.5t87 -232t124 -187.5t139 -145.5
t136.5 -96.5z" />
    <glyph glyph-name="parenright" unicode=")" horiz-adv-x="647" 
d="M-2 -555q68 38 136.5 96.5t139 145.5t124 187.5t87 232t33.5 270.5q0 137 -33.5 268t-87 232t-123.5 188.5t-139 146.5t-137 97l10 16q69 -36 139.5 -94t142.5 -146.5t127 -191.5t89.5 -238t34.5 -278q0 -141 -34.5 -275t-89.5 -237t-127 -191.5t-142 -147.5t-140 -97z
" />
    <glyph glyph-name="asterisk" unicode="*" horiz-adv-x="620" 
d="M293 727l4 231q0 7 -5 9q-2 1 -3 -2l-125 -191l-139 -6q-8 0 -5 6l46 133l217 62q6 6 0 12l-217 70l-50 129q-3 6 4 6l144 -4l123 -197q1 -3 3.5 -3t4.5 2t2 5l2 238l107 78q4 4 8 0l41 -129l-150 -189q-4 -4 -1.5 -9t7.5 -3l226 80l108 -80q5 0 5 -2t-5 -2l-108 -80
l-226 82q-5 2 -7.5 -3t1.5 -9l146 -189l-41 -127q-6 -5 -9 -2z" />
    <glyph glyph-name="plus" unicode="+" horiz-adv-x="886" 
d="M432 475h-418l4 21h414v417h23v-417h413l4 -21h-415l-2 -426h-23v426z" />
    <glyph glyph-name="comma" unicode="," horiz-adv-x="362" 
d="M45 -231q74 36 121 96.5t47 124.5q0 52 -27 85t-62.5 35t-70.5 -20q-8 17 -9 37t6.5 39.5t22 36t39 27t54.5 10.5q74 0 119 -44t45 -124q0 -86 -84.5 -180.5t-192.5 -131.5z" />
    <glyph glyph-name="hyphen" unicode="-" horiz-adv-x="573" 
d="M43 520h494l-7 -82h-493z" />
    <glyph glyph-name="period" unicode="." horiz-adv-x="407" 
d="M205 -25q-53 0 -89 36.5t-36 86.5q0 48 36 83.5t89 35.5t88 -35.5t35 -83.5q0 -51 -35 -87t-88 -36z" />
    <glyph glyph-name="slash" unicode="/" horiz-adv-x="509" 
d="M463 1290h20l-430 -1796h-20z" />
    <glyph glyph-name="zero" unicode="0" horiz-adv-x="1114" 
d="M561 -6q87 0 153.5 66.5t100 173t33.5 233.5q0 139 -33.5 252t-101.5 182.5t-160 69.5q-84 0 -150.5 -66t-101.5 -170.5t-35 -224.5q0 -234 74.5 -375t220.5 -141zM555 -23q-213 0 -353.5 140t-140.5 362q0 223 143 367.5t355 144.5q101 0 191.5 -37.5t157.5 -103.5
t106 -161.5t39 -205.5q0 -223 -142.5 -364.5t-355.5 -141.5z" />
    <glyph glyph-name="one" unicode="1" horiz-adv-x="690" 
d="M119 12l69 2q51 2 69.5 8.5t18.5 24.5v842l-213 33l7 10l374 49v-938q0 -13 21 -19t90 -10l61 -2l7 -12h-510z" />
    <glyph glyph-name="two" unicode="2" horiz-adv-x="907" 
d="M31 16q225 181 334.5 286t153.5 183t44 166q0 97 -60.5 159t-148.5 62q-91 0 -152 -43.5t-122 -148.5l-14 8q78 146 168.5 223.5t211.5 77.5q116 0 194.5 -76t78.5 -184q0 -50 -21 -99.5t-46 -87.5t-91 -100t-109.5 -99t-147.5 -123q-55 -46 -85 -70v-5h500q54 0 151 246
l9 21l14 -4l-90 -408h-766z" />
    <glyph glyph-name="three" unicode="3" horiz-adv-x="817" 
d="M260 -412q-113 0 -181.5 43.5t-68.5 100.5q0 41 29 69.5t72 28.5q63 0 102 -56.5t27 -133.5q5 -1 18 -4.5t21 -4.5q31 -8 65 -8q104 0 188 89.5t84 219.5q0 153 -87 245.5t-230 92.5q-72 0 -168 -30l-6 12q35 23 85.5 55t78 50t65.5 44t58.5 44.5t44 44t34.5 48.5
t19 52.5t8 62.5q0 97 -57.5 157t-151.5 60q-95 0 -161.5 -43.5t-116.5 -144.5l-15 8q146 299 371 299q122 0 204.5 -75.5t82.5 -182.5q0 -40 -11 -75.5t-33.5 -66t-46 -55t-60.5 -50t-64.5 -42.5t-69.5 -41q-9 -5 -14 -8v-4q177 7 282 -95.5t105 -256.5q0 -85 -38.5 -166.5
t-104.5 -144t-160 -100.5t-199 -38z" />
    <glyph glyph-name="four" unicode="4" horiz-adv-x="970" 
d="M545 150v604h-2l-412 -604h414zM545 20h-527v7l644 942h38v-819h246l-45 -130h-201v-397h-155v397z" />
    <glyph glyph-name="five" unicode="5" horiz-adv-x="794" 
d="M199 -412q-126 0 -188 38t-62 106q0 42 28 70t72 28q58 0 100 -60.5t50 -131.5q57 -15 84 -15q103 0 185.5 93.5t82.5 230.5q0 161 -130 270t-349 139l153 602h523l-46 -172h-497l-68 -270q276 -49 419.5 -171t143.5 -302q0 -89 -38.5 -172t-104 -145.5t-159.5 -100
t-199 -37.5z" />
    <glyph glyph-name="six" unicode="6" horiz-adv-x="1007" 
d="M532 -2q112 0 180 96t68 266q0 148 -87 254.5t-210 106.5q-135 0 -225 -90q-7 -7 -16 -64t-9 -96q0 -99 17 -182.5t51.5 -149.5t93.5 -103.5t137 -37.5zM520 -23q-141 0 -248 67t-162 178.5t-55 248.5q0 174 67.5 327t187 265t286 184t360.5 90l2 -16q-145 -24 -265 -86
t-203.5 -151.5t-139.5 -193t-88 -222.5l2 -4q65 58 151 95.5t175 37.5q152 0 257 -103t105 -276q0 -131 -62 -233.5t-159.5 -155t-210.5 -52.5z" />
    <glyph glyph-name="seven" unicode="7" horiz-adv-x="862" 
d="M756 786l-2 9h-299q-75 0 -118 -1.5t-88 -7t-69 -15.5t-47.5 -29t-36.5 -45.5t-24 -65.5l-6 -21l-21 2l41 346h754l2 -8l-539 -1327h-133z" />
    <glyph glyph-name="eight" unicode="8" horiz-adv-x="970" 
d="M575 715q134 103 134 266q0 71 -26.5 140.5t-83 120t-130.5 50.5q-99 0 -155 -73.5t-56 -169.5q0 -59 25.5 -110.5t72.5 -92t99 -71t120 -60.5zM504 -6q124 0 191 71t67 181q0 53 -21.5 101.5t-55 85.5t-84 72t-97.5 59.5t-107 49.5q-174 -101 -174 -305
q0 -75 33.5 -146.5t99.5 -120t148 -48.5zM485 -29q-181 0 -304.5 96.5t-123.5 241.5q0 116 87.5 201.5t234.5 116.5v4q-66 35 -109 63.5t-84.5 67t-61.5 85.5t-20 103q0 60 26 123t72.5 117t121.5 88.5t163 34.5q164 0 274.5 -95t110.5 -237q0 -90 -75 -161t-201 -111v-4
q75 -37 124.5 -68t97.5 -75t71.5 -99t23.5 -123q0 -146 -124.5 -257.5t-303.5 -111.5z" />
    <glyph glyph-name="nine" unicode="9" horiz-adv-x="1007" 
d="M522 256q134 0 226 92q7 7 15.5 64t8.5 96q0 98 -17 181t-51.5 149t-93.5 103.5t-137 37.5q-112 0 -180 -95.5t-68 -265.5q0 -148 87 -255t210 -107zM47 -344q145 24 265 86.5t203.5 152.5t139.5 193.5t88 222.5l-2 2q-65 -58 -150.5 -95.5t-174.5 -37.5
q-152 0 -257.5 104.5t-105.5 276.5q0 130 62 232t159.5 154t210.5 52q206 0 335.5 -142t129.5 -349q0 -234 -115.5 -423t-319.5 -303.5t-466 -141.5z" />
    <glyph glyph-name="colon" unicode=":" horiz-adv-x="403" 
d="M205 598q-53 0 -89 37t-36 86q0 48 36 82.5t89 34.5t88 -34.5t35 -82.5q0 -49 -35.5 -86t-87.5 -37zM205 -25q-53 0 -89 36.5t-36 84.5t36 82.5t89 34.5t88 -34.5t35 -82.5q0 -49 -35 -85t-88 -36z" />
    <glyph glyph-name="semicolon" unicode=";" horiz-adv-x="362" 
d="M188 598q-53 0 -89 36.5t-36 84.5t36 83.5t89 35.5t88 -35.5t35 -83.5q0 -49 -35 -85t-88 -36zM45 -229q74 36 121 95.5t47 123.5q0 52 -27 84t-62.5 33.5t-70.5 -17.5q-23 46 8.5 97t104.5 51t118.5 -45t45.5 -123q0 -87 -84 -179t-193 -129z" />
    <glyph glyph-name="less" unicode="&#x3c;" horiz-adv-x="860" 
d="M10 471v23l815 401l11 -23l-793 -387v-4l793 -391l-11 -22z" />
    <glyph glyph-name="equal" unicode="=" horiz-adv-x="876" 
d="M31 672h815l-6 -21h-803zM37 313h803l6 -20h-815z" />
    <glyph glyph-name="greater" unicode="&#x3e;" horiz-adv-x="860" 
d="M25 90l792 391v4l-792 387l10 23l815 -401v-23l-815 -403z" />
    <glyph glyph-name="question" unicode="?" horiz-adv-x="612" 
d="M281 365q-58 49 -110 120.5t-52 112.5q0 30 3.5 52t16.5 41t24.5 31.5t41 29.5t52 28t71.5 33q126 55 166.5 83.5t40.5 74.5q0 33 -15.5 63.5t-49 58t-96.5 44t-149 16.5q-79 0 -149 -20q-25 41 -25 102q0 38 30.5 57t106.5 19q87 0 159.5 -34.5t117.5 -91t69.5 -124
t24.5 -137.5q0 -105 -35.5 -153t-148.5 -103q-5 -2 -16 -7q-43 -19 -63.5 -29t-45.5 -27t-35 -36.5t-10 -44.5q0 -30 14.5 -59t30.5 -47t51 -53h-20zM289 -29q-53 0 -89 36.5t-36 84.5t36 82.5t89 34.5t87 -34.5t34 -82.5q0 -49 -34.5 -85t-86.5 -36z" />
    <glyph glyph-name="at" unicode="@" horiz-adv-x="1568" 
d="M604 221q47 0 132 96t167 250q58 109 58 142q0 48 -48.5 92.5t-113.5 44.5q-46 0 -88 -39q-69 -66 -131 -205t-62 -242q0 -66 23.5 -102.5t62.5 -36.5zM795 -211q-162 0 -300.5 52t-236 143.5t-152.5 221.5t-55 283q0 167 63.5 320t170 263.5t253.5 176.5t308 66
q192 0 345.5 -80.5t240 -225t86.5 -325.5q0 -111 -41.5 -216.5t-107 -181t-150.5 -121.5t-170 -46q-105 0 -161.5 45.5t-56.5 111.5q0 90 39 173h-4q-121 -174 -197 -252t-149 -78t-122.5 50t-49.5 128q0 119 94.5 266.5t212.5 251.5q73 64 129 96.5t117 32.5
q41 0 64.5 -58.5t23.5 -131.5h2l80 243l154 -8l-129 -323l-92 -246q-44 -112 -17 -169.5t135 -57.5q67 0 134.5 38.5t120.5 103.5t86.5 157.5t33.5 191.5q0 264 -184.5 438t-466.5 174q-157 0 -300.5 -64.5t-247 -173.5t-165 -258t-61.5 -311q0 -197 91.5 -352.5
t256.5 -242.5t375 -87q215 0 399 111.5t262 278.5l19 -9q-84 -172 -270.5 -285.5t-409.5 -113.5z" />
    <glyph glyph-name="A" unicode="A" horiz-adv-x="1277" 
d="M375 561l-78 -223q-19 -57 -29 -89.5t-18.5 -69.5t-9 -55.5t4 -39t15.5 -29.5t31.5 -18.5t46.5 -13.5t65 -7l43 -4l7 -12h-463l6 12l33 4q35 4 55 9.5t44 25.5t39.5 44.5t42 83t51.5 124t67 182.5l223 629l-23 62q91 34 134 133h20l338 -1039q35 -111 58.5 -161t51.5 -70
t78 -23l58 -4l6 -12h-582l6 12l66 4q76 4 89 54.5t-22 154.5l-104 336h-350zM719 582l-154 499h-4l-178 -499h336z" />
    <glyph glyph-name="B" unicode="B" horiz-adv-x="1191" 
d="M512 717q154 4 233.5 76.5t79.5 191.5q0 136 -77.5 203t-241.5 67h-84v-538h90zM543 20q17 0 26 3q6 1 13 2h-2q76 2 138.5 30t101.5 72.5t60 100t21 114.5q0 153 -98.5 252.5t-255.5 99.5q-75 0 -125 -6v-631zM55 12l74 8q98 8 98 33v1180q0 8 -7 12.5t-33 8.5t-78 8
l-52 6l-6 12h494q112 0 200 -15.5t143.5 -41t91 -62t50 -74.5t14.5 -81q0 -232 -401 -291v-6q223 -12 348 -111.5t125 -245.5q0 -158 -146 -255t-419 -97h-502z" />
    <glyph glyph-name="C" unicode="C" horiz-adv-x="1398" 
d="M780 -31q-209 0 -373.5 81.5t-258 234.5t-93.5 352q0 195 91.5 348.5t261.5 240.5t391 87q94 0 196 -28.5t158 -61.5l121 59l6 -401h-12l-191 336q-42 33 -117.5 53t-166.5 20q-123 0 -223.5 -51.5t-165 -139.5t-99.5 -202.5t-35 -243.5q0 -144 42 -268.5t113 -210
t167 -134t203 -48.5q87 0 156 20t124.5 63t97.5 96t89 132l51 88h12l-74 -325l-67 -15q-62 -28 -183 -55t-221 -27z" />
    <glyph glyph-name="D" unicode="D" horiz-adv-x="1363" 
d="M559 23q133 2 239 52.5t171.5 134t100 189t34.5 222.5q0 103 -19.5 195t-63.5 174.5t-108.5 142t-160.5 94.5t-213 35h-117v-1194zM55 12l74 8q98 8 98 33v1180q0 8 -7 12.5t-33 8.5t-78 8l-52 6l-6 12l518 6q185 4 329 -41.5t233.5 -130t135.5 -197.5t46 -249
q0 -110 -31.5 -209.5t-97.5 -183.5t-160 -145t-225.5 -95.5t-288.5 -34.5h-461z" />
    <glyph glyph-name="E" unicode="E" horiz-adv-x="1212" 
d="M55 12l66 8q106 9 106 33v1180q0 8 -7 12.5t-33 8.5t-78 8l-52 6l-6 12h983l29 -397l-12 -2l-11 26q-53 151 -85 205q-60 101 -172 132q-64 18 -154 18h-207v-592l94 2q166 8 231 40t101 134l10 28l14 -2l-43 -434l-14 2l-2 29q-3 47 -15 77t-31 49t-60 29.5t-84 15
t-121 7.5l-80 4v-620l252 -11q48 1 90 8.5t75 17.5t63.5 30.5t51.5 36.5t44 46.5t36.5 50.5t32 58t28 59t27.5 64l13 27l12 -2l-74 -416h-1024z" />
    <glyph glyph-name="F" unicode="F" horiz-adv-x="1150" 
d="M55 12l82 8q90 8 90 33v1180q0 8 -5 12.5t-29.5 9t-75.5 7.5l-60 6l-6 12h998l34 -397l-12 -2l-10 26q-15 45 -25 70.5t-25 62t-28 57.5t-32.5 48t-39.5 41.5t-48 31.5t-59.5 25t-72 13.5t-88.5 5.5h-221v-605l94 2q87 4 136.5 11t90.5 26t63.5 50t41.5 85l10 29l14 -2
l-43 -432l-14 2l-2 29q-3 47 -15 77t-31 49t-60 29.5t-84 15t-121 7.5l-80 4v-592q0 -8 7 -12.5t34 -9t78 -7.5l100 -6l6 -12h-598z" />
    <glyph glyph-name="G" unicode="G" horiz-adv-x="1435" 
d="M764 -29q-153 0 -284 48t-224.5 133.5t-147 210.5t-53.5 274q0 146 53.5 271t149.5 214.5t235 140t304 50.5q97 0 199 -25.5t149 -56.5l108 51l11 -401h-13l-180 336q-93 73 -280 73q-99 0 -183.5 -33.5t-146 -93t-105 -139.5t-65 -174t-21.5 -197q0 -144 42.5 -269
t113.5 -209.5t166 -132.5t199 -48q167 0 264 76v440q0 8 -9 12.5t-37 9t-79 7.5l-80 6l-6 12h577l-6 -12l-74 -8q-98 -8 -98 -33v-410l94 6l2 -8q-132 -47 -295.5 -84t-279.5 -37z" />
    <glyph glyph-name="H" unicode="H" horiz-adv-x="1503" 
d="M55 12l74 8q98 8 98 33v1180q0 8 -7 12.5t-33 8.5t-78 8l-52 6l-6 12h557l-6 -12l-82 -8q-98 -8 -98 -33v-565h659v571q0 8 -7 12.5t-33 8.5t-78 8l-60 6l-6 12h557l-6 -12l-74 -8q-98 -8 -98 -33v-1180q0 -8 7.5 -12.5t33.5 -8.5t78 -8l51 -6l6 -12h-557l6 12l82 8
q98 8 98 33v588h-659v-594q0 -8 7.5 -12.5t33.5 -8.5t78 -8l59 -6l6 -12h-557z" />
    <glyph glyph-name="I" unicode="I" horiz-adv-x="690" 
d="M68 12l82 8q98 8 98 33v1180q0 8 -7.5 12.5t-33.5 8.5t-78 8l-59 6l-7 12h566l-6 -12l-82 -8q-99 -8 -99 -33v-1180q0 -8 7.5 -12.5t33.5 -8.5t78 -8l60 -6l6 -12h-566z" />
    <glyph glyph-name="J" unicode="J" horiz-adv-x="649" 
d="M29 -340q-72 0 -117 35.5t-45 91.5q0 48 34 82.5t87 34.5q56 0 88 -37.5t27.5 -89t-44.5 -88.5q78 -7 123 91.5t45 272.5v1180q0 8 -7 12.5t-33.5 9t-77.5 7.5l-60 6l-6 12h565l-6 -12l-82 -8q-98 -8 -98 -33v-1207q0 -29 -23 -74.5t-64 -94t-89.5 -92t-107 -71.5
t-109.5 -28z" />
    <glyph glyph-name="K" unicode="K" horiz-adv-x="1378" 
d="M55 12l82 8q90 8 90 33v1180q0 8 -5 12.5t-29.5 9t-75.5 7.5l-60 6l-6 12h578l-6 -12l-103 -8q-98 -8 -98 -33v-682l315 321q219 223 259 298q32 60 -15 80q-27 12 -94 18l-82 6l-2 12h514l-6 -12l-25 -2q-29 -3 -48.5 -5.5t-43.5 -11.5t-37.5 -15t-41 -27.5t-44 -36.5
t-56.5 -54t-67.5 -67.5t-88.5 -91t-109 -111.5l-11 -12l391 -646q72 -115 99.5 -140t93.5 -32l47 -4l6 -12h-559l4 12l60 4q38 2 55 13t15 38.5t-21 68.5t-60 112l-266 450l-182 -184v-467q0 -8 7.5 -12.5t33.5 -8.5t78 -8l80 -6l6 -12h-578z" />
    <glyph glyph-name="L" unicode="L" horiz-adv-x="1138" 
d="M55 12l82 8q90 8 90 33v1180q0 8 -5 12.5t-29.5 9t-75.5 7.5l-60 6l-6 12h598l-6 -12l-123 -8q-98 -8 -98 -33v-1198l201 -11q80 0 141 19.5t97 40t74.5 79.5t53 89.5t51.5 119.5q4 9 6.5 14.5t6 14t6.5 15.5l12 26h12l-65 -436h-969z" />
    <glyph glyph-name="M" unicode="M" horiz-adv-x="1675" 
d="M47 12l39 2q96 7 127 26t31 54l28 1141q-29 19 -118 29l-56 4l-6 12h379l375 -1020h2l397 1020h389l-6 -12l-102 -8q-96 -8 -96 -33l20 -1180q0 -11 21 -16.5t94 -12.5l59 -6l6 -12h-559l6 12l99 8q84 7 84 33l-23 1139h-2l-463 -1192h-16l-428 1139q-11 34 -39 73
l-21 -1122q0 -66 201 -76l37 -2l6 -12h-471z" />
    <glyph glyph-name="N" unicode="N" horiz-adv-x="1382" 
d="M242 1126h-2l2 -1032q0 -59 170 -78l39 -4l6 -12h-430l6 12l41 4q65 6 104 28.5t39 53.5l6 1047q-5 5 -21 23t-29 30t-33.5 27.5t-47 25.5t-57.5 15l-27 4l-6 12h367l784 -985l2 2l-2 887q0 59 -170 78l-39 4l-6 12h430l-6 -12l-41 -4q-65 -6 -104 -28.5t-39 -53.5
l-7 -1192h-16z" />
    <glyph glyph-name="O" unicode="O" horiz-adv-x="1495" 
d="M752 -6q218 0 345.5 175.5t127.5 477.5q0 282 -136.5 461.5t-347.5 179.5q-214 0 -342.5 -177.5t-128.5 -477.5q0 -282 135 -460.5t347 -178.5zM737 -29q-195 0 -350.5 84t-243.5 236t-88 344q0 126 55 249t148 217t224.5 152t273.5 58q194 0 350 -84.5t245 -238
t89 -347.5q0 -127 -55 -249t-148 -214.5t-225 -149.5t-275 -57z" />
    <glyph glyph-name="P" unicode="P" horiz-adv-x="1134" 
d="M584 645q136 0 215.5 80t79.5 221q0 159 -77 238.5t-251 75.5l-129 -3v-591q65 -21 162 -21zM27 12l102 8q98 8 98 33v1180q0 8 -7 12.5t-33 8.5t-78 8l-80 6l-6 12h583q242 0 360.5 -79.5t118.5 -225.5q0 -154 -140.5 -254t-360.5 -100q-76 0 -162 12v-586q0 -8 7 -12.5
t34 -9t78 -7.5l100 -6l6 -12h-627z" />
    <glyph glyph-name="Q" unicode="Q" horiz-adv-x="1495" 
d="M752 -6q218 0 345.5 175.5t127.5 477.5q0 183 -62 329.5t-172.5 229t-249.5 82.5q-214 0 -342.5 -178t-128.5 -477q0 -282 135 -460.5t347 -178.5zM1290 -367q-77 0 -137 6.5t-128.5 27.5t-120.5 56.5t-101 98.5t-82 149q-142 2 -265.5 52.5t-211.5 137.5t-138.5 210
t-50.5 264q0 126 55 249t148 217t224.5 152t273.5 58q194 0 350 -85t245 -238.5t89 -346.5q0 -210 -139.5 -389t-358.5 -250q48 -117 109 -189.5t133 -104.5t161.5 -38.5t194.5 8.5l4 -12q-38 -12 -119 -22.5t-135 -10.5z" />
    <glyph glyph-name="R" unicode="R" horiz-adv-x="1325" 
d="M588 668q138 0 214.5 73t76.5 211q0 151 -92.5 233t-272.5 75l-92 -5v-555q88 -32 166 -32zM27 12l102 8q98 14 98 33v1180q0 8 -7 12.5t-33 8.5t-78 8l-80 6l-6 12h550q512 0 512 -340q0 -110 -88.5 -198t-226.5 -113l287 -432q68 -103 115.5 -139.5t130.5 -43.5l26 -2
l8 -12h-387l-14 27l-375 608q-37 8 -139 47v-635q0 -14 104 -27q10 -1 15 -2l80 -6l6 -12h-607z" />
    <glyph glyph-name="S" unicode="S" horiz-adv-x="1011" 
d="M485 -29q-83 0 -194.5 21t-206.5 51l-8 305h12l53 -119q105 -237 344 -237q128 0 207.5 83t79.5 212q0 114 -71.5 181t-221.5 120q-85 29 -145.5 60.5t-111.5 75t-77 102t-26 132.5q0 65 27 127t76.5 112t127.5 81t170 31q129 0 283 -47l74 26l4 -334h-11l-131 254
q-97 80 -219 80q-104 0 -174 -66.5t-70 -166.5q0 -57 20.5 -101t62.5 -77t88.5 -55.5t115.5 -47.5q195 -65 290 -157.5t95 -243.5q0 -71 -33 -142t-91.5 -129t-147.5 -94.5t-191 -36.5z" />
    <glyph glyph-name="T" unicode="T" horiz-adv-x="1345" 
d="M375 12l102 8q98 8 98 33v1209h-88q-67 -4 -129 -34t-111.5 -79t-86.5 -101t-68 -112l-14 -25h-15l76 369h1084l55 -369h-12l-13 25q-70 157 -165 238.5t-228 87.5h-90v-1215q0 -8 7.5 -12.5t33.5 -8.5t78 -8l80 -6l6 -12h-606z" />
    <glyph glyph-name="U" unicode="U" horiz-adv-x="1402" 
d="M729 -29q-277 0 -394.5 110.5t-117.5 369.5v784q0 8 -7.5 12.5t-33.5 8.5t-78 8l-80 6l-6 12h606l-6 -12l-102 -8q-98 -8 -98 -33v-733q0 -235 94.5 -346t292.5 -111q185 0 289 123t104 362l-2 662q0 61 -172 80l-39 4l-6 12h430l-6 -12l-41 -4q-65 -6 -103.5 -29.5
t-38.5 -54.5l-4 -664q-2 -130 -28 -227t-81 -171t-148 -111.5t-224 -37.5z" />
    <glyph glyph-name="V" unicode="V" horiz-adv-x="1286" 
d="M248 1014q-59 161 -73 187q-24 46 -61 57q-20 6 -59 8l-59 4l-6 12h575l-6 -12l-80 -2q-33 -2 -52 -4t-31.5 -10.5t-16.5 -16.5t0 -31t10.5 -43t22.5 -63l315 -860h4l260 708q20 55 31 89t19.5 68.5t9.5 53.5t-4.5 38t-16.5 28t-32.5 18.5t-47 13.5t-65.5 9l-43 4l-6 12
h460l-6 -12l-33 -4q-60 -5 -91.5 -26.5t-67 -90.5t-92.5 -225l-351 -955h-16z" />
    <glyph glyph-name="W" unicode="W" horiz-adv-x="2025" 
d="M250 1014q-5 14 -15 39q-16 42 -23 60.5t-19.5 46t-18.5 37.5t-17 25.5t-20 20t-23 11t-29 8t-36 2.5l-59 4l-6 12h575l-6 -12l-66 -2q-59 -3 -78.5 -14.5t-18 -43t27.5 -108.5l311 -879h4l283 709l-31 84q-60 155 -82 189q-29 46 -78 56q-18 4 -45 5l-59 4l-6 12h571
l-6 -12l-61 -2q-24 -1 -39.5 -2.5t-28.5 -6t-20 -8t-9.5 -15t-2.5 -19.5t5 -29t10.5 -37t16.5 -49l319 -875h5l260 711q27 72 41 115.5t19.5 82t-1 58t-28 36t-52.5 23.5t-84 13l-43 4l-6 12h461l-6 -12l-33 -4q-36 -3 -58.5 -11.5t-44 -26t-43 -58.5t-44 -94.5
t-58.5 -149.5l-354 -955h-21l-350 936h-2l-371 -936h-20z" />
    <glyph glyph-name="X" unicode="X" horiz-adv-x="1329" 
d="M-8 12l37 2q97 7 158.5 61t181.5 226l213 307l-273 406q-14 22 -34 53.5t-30 46.5l-25 37.5t-22.5 32.5t-19 24.5t-19 20.5t-17.5 14.5t-19 11.5t-19.5 5.5t-23.5 3.5l-60 4l-10 12h568l-3 -12l-79 -2q-65 0 -71 -31q-7 -43 93 -195l193 -292h2l159 235q54 78 77.5 128
t18 80.5t-31 45t-78.5 23.5l-57 8l-6 12h483l-6 -12l-37 -2q-93 -4 -155.5 -59.5t-182.5 -227.5l-174 -248l389 -581q63 -90 78 -105q26 -24 73 -29h3l55 -4l8 -12h-563l4 12l80 2q67 1 78.5 28t-25.5 81l-309 467h-2q1 0 -13 -19.5t-40 -57.5t-47 -69q-32 -44 -101 -147
q-70 -103 -88.5 -160.5t6.5 -83t97 -33.5l57 -8l6 -12h-483z" />
    <glyph glyph-name="Y" unicode="Y" horiz-adv-x="1280" 
d="M342 12l102 8q99 8 99 33v520l-301 537q-50 90 -85.5 120t-99.5 34l-59 4l-6 12h575l-6 -12l-47 -2q-90 -4 -99 -40.5t44 -127.5l260 -471h4l176 336q31 61 48.5 99t28.5 73t9 54t-15 35t-37 24t-63 14l-47 6l-6 12h438l-6 -12l-55 -6q-64 -5 -119 -63t-141 -222
l-197 -371v-559q0 -8 7.5 -12.5t33.5 -8.5t78 -8l80 -6l6 -12h-606z" />
    <glyph glyph-name="Z" unicode="Z" horiz-adv-x="1185" 
d="M61 6l805 1249v5h-213q-109 0 -194 -19t-138.5 -47.5t-94.5 -75t-62.5 -87.5t-42.5 -99l-8 -21h-13l35 369h967v-10l-803 -1243v-4l250 -3q79 0 143.5 9t112.5 23.5t88.5 41.5t68 54t54.5 69.5t44.5 79t41.5 92.5l12 27h16l-65 -416h-1004v6z" />
    <glyph glyph-name="bracketleft" unicode="[" horiz-adv-x="626" 
d="M109 1280h499v-20h-477v-1745h477v-21h-499v1786z" />
    <glyph glyph-name="backslash" unicode="\" horiz-adv-x="475" 
d="M-12 1290h20l430 -1796h-20z" />
    <glyph glyph-name="bracketright" unicode="]" horiz-adv-x="626" 
d="M18 -485h478v1745h-478v20h500v-1786h-500v21z" />
    <glyph glyph-name="asciicircum" unicode="^" 
d="M375 1386h8l297 -403h-12l-287 227h-4l-289 -227h-10z" />
    <glyph glyph-name="underscore" unicode="_" horiz-adv-x="913" 
d="M45 2h823l6 -59h-835z" />
    <glyph glyph-name="grave" unicode="`" 
d="M80 1389h192l193 -383h-10z" />
    <glyph glyph-name="a" unicode="a" horiz-adv-x="845" 
d="M360 80q47 0 86 16t80 60l13 323q-94 -19 -158 -46t-96 -60.5t-45 -66.5t-13 -73q0 -65 40.5 -109t92.5 -44zM670 -20q-129 0 -144 151v2q-66 -70 -128 -110.5t-132 -40.5q-89 0 -150 57t-61 137q0 52 21.5 94t73.5 83.5t149 78.5t240 68l2 63q8 281 -203 281
q-52 0 -103 -22.5t-51 -39.5q0 -6 13.5 -22.5t27 -41t13.5 -48.5q0 -36 -28 -62t-71 -26q-42 0 -70 24t-28 60q0 52 69 106.5t166.5 88.5t178.5 34q102 0 159.5 -27.5t84 -98.5t18.5 -198l-21 -391q-6 -108 72 -108q15 0 32 9t25.5 16t28.5 26l10 -6q-92 -137 -194 -137z
" />
    <glyph glyph-name="b" unicode="b" horiz-adv-x="989" 
d="M522 -2q111 0 173.5 117t62.5 291q0 155 -76 261.5t-201 106.5q-118 0 -217 -106v-455q35 -91 107 -153t151 -62zM94 1192q0 41 -16.5 58.5t-67.5 31.5l-47 12l2 9l299 77v-673l4 -5q75 86 152.5 133.5t169.5 47.5q154 0 257 -118.5t103 -305.5q0 -120 -43.5 -216
t-113 -153t-149 -87t-159.5 -30q-120 0 -260 60h-2l-117 -72h-12v1231z" />
    <glyph glyph-name="c" unicode="c" horiz-adv-x="833" 
d="M449 -27q-178 0 -294 126t-116 315q0 131 55.5 240t161.5 175t242 66q130 0 218.5 -49.5t88.5 -136.5q0 -43 -31 -75t-72 -32q-43 0 -73.5 29.5t-30.5 68.5q0 30 10 54t20.5 38t10.5 19q0 20 -42 44t-89 24q-121 0 -202 -113t-81 -287q0 -176 89.5 -280.5t226.5 -104.5
q92 0 151.5 34.5t114.5 127.5l16 -8q-76 -138 -164 -206.5t-210 -68.5z" />
    <glyph glyph-name="d" unicode="d" horiz-adv-x="1013" 
d="M508 84q123 0 215 106v463q-33 89 -104 147t-150 58q-76 0 -131 -55.5t-82 -146t-27 -203.5q0 -101 33.5 -184.5t97.5 -134t148 -50.5zM723 154l-4 2q-152 -183 -320 -183q-154 0 -257 119t-103 307q0 97 28.5 178.5t75 136.5t107 94t124.5 57t128 18q134 0 217 -41h2h2
v350q0 42 -16 61t-66 29l-68 12l2 9l320 77v-1261q0 -34 6.5 -44.5t26.5 -15.5l98 -20l-2 -8l-299 -64z" />
    <glyph glyph-name="e" unicode="e" horiz-adv-x="866" 
d="M629 610q0 71 -14.5 127.5t-52.5 96.5t-95 40q-83 0 -146 -79t-85 -189zM451 -27q-179 0 -295.5 126t-116.5 315q0 131 55.5 241t158 175t230.5 65q156 0 244 -76t88 -205l-4 -28l-580 2q-6 -31 -6 -111q0 -173 89.5 -278t226.5 -105q94 0 160 35t120 127l15 -8
q-77 -136 -169.5 -205.5t-215.5 -69.5z" />
    <glyph glyph-name="f" unicode="f" horiz-adv-x="598" 
d="M49 12l35 2q67 6 76 11q10 5 10 18v741l-160 2l39 78h119l4 60q10 108 50 193t97.5 136t123 77t132.5 26q73 0 108.5 -28.5t35.5 -70.5q0 -37 -30.5 -65.5t-72.5 -28.5q-44 0 -81 38.5t-48 94.5l-4 13l-26 4q-69 -30 -92 -109t-23 -239v-101h244l-37 -80h-207v-743
q0 -9 7 -14t30 -8.5t67 -4.5l68 -2l6 -12h-477z" />
    <glyph glyph-name="g" unicode="g" horiz-adv-x="923" 
d="M428 315q78 0 127 71.5t49 188.5q0 67 -8.5 118t-27.5 93.5t-55 65t-87 22.5q-75 0 -119.5 -73.5t-44.5 -196.5q0 -135 44 -212t122 -77zM461 -467q133 0 221 75.5t88 180.5q0 168 -266 176q-91 0 -213 -12q-55 -21 -95 -76t-40 -117q0 -101 87 -164t218 -63zM348 -506
q-158 0 -245 56t-87 159q0 54 41 106t95.5 86.5t113.5 55.5v4q-104 11 -166.5 54t-62.5 104q0 75 72.5 132.5t158.5 70.5v6q-75 26 -129.5 96.5t-54.5 159.5q0 131 99 219t245 88q128 0 238 -82l247 49l-20 -104l-195 28l-2 -6q34 -31 56 -77.5t22 -98.5q0 -127 -100.5 -214
t-251.5 -87q-69 0 -123 14q-121 -24 -121 -104q0 -48 40.5 -66t129.5 -18q26 0 107 3t120 3q147 0 224.5 -60t77.5 -173q0 -174 -146.5 -289t-382.5 -115z" />
    <glyph glyph-name="h" unicode="h" horiz-adv-x="1011" 
d="M16 12l35 2q67 6 76 13q8 6 8 18v1145q0 42 -15.5 59.5t-66.5 30.5l-47 12l2 8l299 78v-657l4 -4q7 5 36.5 29.5t43 35t43 32t51 32t51 23.5t59.5 18.5t60 5.5q99 0 158 -59q66 -66 66 -203v-588q0 -7 3.5 -11t26.5 -8.5t72 -9.5l27 -2l6 -12h-439l7 12l36 2q51 4 69 11
t18 20v557q0 90 -44 131t-137 41q-126 0 -217 -84v-274v-375q0 -12 19 -17.5t86 -9.5l28 -2l6 -12h-436z" />
    <glyph glyph-name="i" unicode="i" horiz-adv-x="475" 
d="M223 1063q-56 0 -86.5 37t-30.5 76q0 43 30.5 79.5t86.5 36.5q55 0 86 -36.5t31 -79.5q0 -39 -31 -76t-86 -37zM33 12l37 2q68 7 78 13q8 6 8 18v586q0 94 -14.5 121t-69.5 39l-47 10l2 8l301 80v-848q0 -12 18 -17.5t84 -9.5l29 -2l6 -12h-438z" />
    <glyph glyph-name="j" unicode="j" horiz-adv-x="454" 
d="M219 1063q-56 0 -87.5 37t-31.5 76q0 43 31.5 79.5t87.5 36.5q55 0 85 -36.5t30 -79.5q0 -39 -30.5 -76t-84.5 -37zM-33 -510q-69 0 -108 31t-39 78q0 43 29 70.5t71 27.5q49 0 90 -42.5t60 -107.5q42 13 61 77.5t19 189.5v817q0 94 -14.5 121t-69.5 39l-48 10l2 8
l302 80v-946q0 -80 -33 -163t-84 -146t-115 -103.5t-123 -40.5z" />
    <glyph glyph-name="k" unicode="k" horiz-adv-x="968" 
d="M16 12l35 2q67 6 76 13q8 6 8 18v1145q0 42 -15.5 59.5t-66.5 30.5l-47 12l2 8l299 78v-979l199 195q149 142 149 199q0 49 -110 57l-27 2l-4 12h393l-6 -12l-41 -4q-20 -1 -37 -5.5t-37 -16.5t-34 -21.5t-40.5 -34t-42.5 -41t-54 -55t-62 -62.5l-41 -39l250 -411
q35 -54 49 -74t34.5 -39.5t38.5 -24.5t52 -10l22 -2l7 -12h-318l-10 25l-250 426l-80 -76v-334q0 -12 19 -17.5t86 -9.5l28 -2l6 -12h-436z" />
    <glyph glyph-name="l" unicode="l" horiz-adv-x="464" 
d="M25 12l34 2q68 7 78 13q8 6 8 18v1075q0 92 -15 120t-69 40l-45 12l2 8l299 78v-1337q0 -12 17.5 -16.5t85.5 -10.5l29 -2l6 -12h-435z" />
    <glyph glyph-name="m" unicode="m" horiz-adv-x="1527" 
d="M33 12l37 2q68 7 78 13q8 6 8 18v584q0 94 -14.5 122t-69.5 40l-47 10l2 8l303 80l-6 -168l6 -2q3 3 23 23.5t26.5 26.5t26.5 24.5t32 26.5t32.5 22.5t37.5 21t39 15t45 11.5t47 3q100 0 162 -62q43 -47 51 -116l2 -2q31 32 49 50.5t52.5 46.5t63.5 43.5t69 27.5t81 12
q103 0 162 -59q64 -64 64 -213v-578q0 -7 3.5 -11t26.5 -8.5t72 -9.5l27 -2l6 -12h-436l6 12l37 2q51 4 67.5 11t16.5 20v555q0 94 -37 134t-129 40q-62 0 -119.5 -27t-69.5 -61l-6 -18v-625q0 -7 4 -11t27 -8.5t72 -9.5l28 -2l6 -12h-434l6 12l37 2q51 4 66.5 11t15.5 20
v555q0 94 -36.5 134t-127.5 40q-102 0 -196 -80v-266v-387q0 -12 18 -17.5t82 -9.5l31 -2l4 -12h-436z" />
    <glyph glyph-name="n" unicode="n" horiz-adv-x="1032" 
d="M33 12l37 2q68 7 78 13q8 6 8 18v584q0 94 -14.5 122t-69.5 40l-47 10l2 8l303 80l-6 -170l6 -2q7 5 36.5 29.5t43 35t43 32t51 32t51 23.5t59.5 18.5t60 5.5q101 0 160 -59q63 -63 63 -205v-586q0 -7 4 -10.5t27 -8.5t73 -10l27 -2l6 -12h-436l6 12l37 2q51 4 66.5 11
t15.5 20v555q0 91 -43.5 132.5t-136.5 41.5q-124 0 -215 -84v-274v-375q0 -12 18 -17.5t82 -9.5l31 -2l4 -12h-436z" />
    <glyph glyph-name="o" unicode="o" horiz-adv-x="1019" 
d="M512 -10q81 0 142 63t90.5 159.5t29.5 207.5q0 127 -27.5 230.5t-82.5 158.5q-70 70 -158 70q-65 0 -116 -37t-81.5 -99t-46.5 -135t-16 -151q0 -290 106 -396q71 -71 160 -71zM510 -27q-204 0 -337.5 131t-133.5 326t134.5 330t336.5 135q204 0 337.5 -131t133.5 -326
q0 -198 -134 -331.5t-337 -133.5z" />
    <glyph glyph-name="p" unicode="p" horiz-adv-x="1017" 
d="M551 -2q111 0 174 117t63 291q0 153 -76.5 259.5t-201.5 106.5t-215 -104v-457q35 -91 105 -152t151 -61zM0 -506l37 2q69 7 79 13q7 6 7 16v1106q0 64 -8 95t-24 43.5t-52 21.5l-47 10l2 8l303 80l-2 -182l4 -5q153 181 319 181q154 0 257.5 -118.5t103.5 -305.5
q0 -97 -28.5 -178.5t-75 -137t-107 -95t-124.5 -57.5t-128 -18q-124 0 -219 43h-2v-495q0 -8 6 -12.5t29 -8t67 -4.5l70 -2l6 -12h-479z" />
    <glyph glyph-name="q" unicode="q" horiz-adv-x="1005" 
d="M508 84q123 0 215 106v455q-35 91 -105 152t-149 61q-76 0 -131 -54.5t-82 -144t-27 -200.5q0 -156 77 -265.5t202 -109.5zM551 -506l70 2q44 1 67 4.5t29 8t6 12.5v633l-4 2q-152 -183 -320 -183q-154 0 -257 119t-103 307q0 97 28.5 178.5t75 136.5t107 94t124.5 57
t128 18q159 0 268 -62h2l111 84h12v-1380q0 -15 14.5 -19.5t56.5 -8.5h5t5 -0.5t5 -0.5l37 -2l6 -12h-479z" />
    <glyph glyph-name="r" unicode="r" horiz-adv-x="743" 
d="M33 12l37 2q68 7 78 13q8 6 8 18v584q0 94 -14.5 122t-69.5 40l-47 10l2 8l303 80l-6 -324h4q87 328 274 328q54 0 93.5 -34t39.5 -79q0 -46 -30.5 -80t-81.5 -34q-47 0 -83 33t-40 96q-56 -11 -91.5 -77.5t-80.5 -221.5v-455q0 -9 7 -14t30 -8.5t67 -4.5l64 -2l6 -12
h-475z" />
    <glyph glyph-name="s" unicode="s" horiz-adv-x="729" 
d="M332 -27q-154 0 -269 47l-18 256l12 3l43 -93q85 -194 246 -194q90 0 141.5 49t51.5 123t-55 122.5t-162 86.5q-55 19 -92.5 37.5t-76 49t-58 75t-19.5 102.5q0 115 84 185.5t215 70.5q102 0 186 -35l66 23l10 -246l-12 -2l-113 180q-70 61 -141 61q-80 0 -122 -41.5
t-42 -111.5q0 -69 48.5 -106t160.5 -78q51 -19 85 -34.5t71 -39.5t58.5 -51t35.5 -66.5t14 -87.5q0 -117 -93.5 -201t-254.5 -84z" />
    <glyph glyph-name="t" unicode="t" horiz-adv-x="657" 
d="M365 -27q-212 0 -209 213l10 594l-162 2l8 23l101 76l223 176l6 -2l-2 -187l309 -2l-37 -78h-272l-14 -591q0 -57 35 -90t106 -33q102 0 174 65l10 -8q-158 -158 -286 -158z" />
    <glyph glyph-name="u" unicode="u" horiz-adv-x="980" 
d="M692 147h-2q-39 -36 -67.5 -59t-74 -53.5t-95.5 -46t-101 -15.5q-99 0 -159 60q-62 62 -62 205v587q0 7 -3.5 10.5t-28 8.5t-72.5 8l-29 2l-6 12h313l-2 -602q0 -91 44 -131.5t138 -40.5q122 0 203 78v281v301q0 59 -19 77t-83 23l-29 2l-6 12h311v-723q0 -33 6 -43.5
t25 -15.5l100 -21l-2 -10l-299 -86v180z" />
    <glyph glyph-name="v" unicode="v" horiz-adv-x="944" 
d="M145 723q-34 83 -50.5 103t-61.5 24l-39 2l-6 12h444l-4 -12l-35 -2q-59 -4 -70 -27t13 -80l219 -528l154 403q23 60 33 98.5t9.5 64.5t-17 39.5t-41 20t-68.5 9.5l-29 2l-6 12h352l-6 -12l-29 -2q-15 -1 -26 -3t-21 -4t-18.5 -9.5t-14.5 -12t-14 -19t-13.5 -24
t-15 -32.5t-16 -39.5t-20 -50.5t-23.5 -60l-240 -616h-24z" />
    <glyph glyph-name="w" unicode="w" horiz-adv-x="1480" 
d="M160 690q-41 106 -62 131t-73 29l-37 2l-6 12h454l-4 -12l-35 -2q-64 -5 -77 -20t8 -72l217 -553l182 428l-45 106q-28 69 -49 88t-76 23l-29 2l-8 12h447l-4 -12l-35 -2q-56 -4 -69 -24.5t7 -67.5l238 -555l145 399q49 139 33.5 190t-119.5 58l-28 2l-7 12h353l-6 -12
l-29 -2q-65 -4 -91 -43.5t-82 -201.5q-1 -3 -1.5 -5t-1.5 -5t-2 -5l-224 -610h-28l-277 630l-266 -630h-31z" />
    <glyph glyph-name="x" unicode="x" horiz-adv-x="933" 
d="M6 12l49 6q53 8 99.5 48t128.5 157l116 164l-213 309q-72 101 -94 122q-30 28 -65 32l-25 2l-6 12h436l-6 -12l-45 -4q-33 -3 -43 -19t2.5 -47.5t48.5 -81.5l125 -182h2l102 154q64 97 61.5 134t-67.5 42l-43 4l-6 12h344l-6 -12l-49 -4q-51 -5 -97 -46t-132 -163
l-97 -137l234 -334q73 -100 96 -121q32 -29 64 -33l26 -2l6 -12h-440l6 12l39 4q33 3 44 19t-0.5 47.5t-47.5 81.5l-143 209h-2l-119 -180q-63 -97 -65.5 -134.5t57.5 -42.5l55 -4l6 -12h-342z" />
    <glyph glyph-name="y" unicode="y" horiz-adv-x="944" 
d="M186 -524q-50 0 -86.5 30t-36.5 74q0 42 30.5 71.5t72.5 29.5q93 0 123 -97q34 7 61 53.5t56 133.5l69 213h-4l-324 739q-39 84 -56 103.5t-62 23.5l-39 2l-6 12h448l-6 -12l-35 -2q-59 -4 -69 -27t16 -80l223 -526l146 406q21 62 29.5 97t10 62.5t-14.5 39.5t-39.5 18.5
t-69.5 9.5l-29 2l-6 12h352l-6 -12l-31 -2q-67 -4 -94 -43.5t-86 -208.5l-221 -600l-80 -248q-43 -140 -98 -207t-138 -67z" />
    <glyph glyph-name="z" unicode="z" horiz-adv-x="856" 
d="M39 10l545 834l-111 2q-58 0 -101.5 -6.5t-77.5 -23t-56.5 -33.5t-45 -51.5t-36.5 -61.5t-37 -78l-21 -43h-10v315h705v-10l-547 -834l108 -2q84 0 148.5 17.5t113 53.5t82 77t70.5 102l29 47h10l-64 -315h-704v10z" />
    <glyph glyph-name="braceleft" unicode="{" horiz-adv-x="616" 
d="M594 -547q-178 8 -299 91.5t-121 217.5q0 90 35 237.5t35 211.5q0 86 -69.5 121.5t-223.5 48.5l-4 8l4 8q64 7 111 17t91.5 28.5t67.5 50.5t23 76q0 65 -35 211.5t-35 237.5q0 133 120.5 216t299.5 91l4 -12q-159 -20 -224 -71.5t-65 -151.5q0 -67 36 -215t36 -234
q0 -100 -93 -163t-255 -87v-2q162 -24 255 -87t93 -163q0 -86 -36 -233.5t-36 -214.5q0 -100 65.5 -153t223.5 -73z" />
    <glyph glyph-name="bar" unicode="|" horiz-adv-x="313" 
d="M147 1290h19v-1796h-19v1796z" />
    <glyph glyph-name="braceright" unicode="}" horiz-adv-x="616" 
d="M-43 -535q160 20 224.5 73t64.5 153q0 67 -36 214.5t-36 233.5q0 100 93 163t255 87v2q-162 24 -255 87t-93 163q0 86 36 234t36 215q0 99 -64.5 151t-224.5 72l4 12q179 -8 299.5 -91t120.5 -216q0 -91 -35 -237.5t-35 -211.5q0 -44 23 -76t67.5 -50.5t91.5 -28.5
t111 -17l4 -8l-4 -8q-154 -13 -223.5 -48.5t-69.5 -121.5q0 -64 35 -211.5t35 -237.5q0 -134 -121 -217.5t-299 -91.5z" />
    <glyph glyph-name="asciitilde" unicode="~" 
d="M539 307q-52 0 -124 31.5t-136.5 62.5t-96.5 31q-25 0 -37.5 -2t-27.5 -12t-22 -32.5t-11 -61.5h-12q12 121 43.5 169t103.5 48q51 0 122.5 -31.5t136 -62.5t97.5 -31q47 0 70.5 19t30.5 89h12q-12 -119 -44.5 -168t-104.5 -49z" />
    <glyph glyph-name="nbspace" unicode="&#xa0;" horiz-adv-x="266" 
 />
    <glyph glyph-name="exclamdown" unicode="&#xa1;" horiz-adv-x="512" 
d="M254 1059q-53 0 -87 34.5t-34 82.5q0 49 34 84.5t87 35.5t89 -36t36 -84t-36 -82.5t-89 -34.5zM252 -43q-63 0 -79.5 28t-10.5 78l82 842q0 6 9 6t9 -6l84 -842q2 -27 0.5 -51t-24 -39.5t-66.5 -15.5h-4z" />
    <glyph glyph-name="cent" unicode="&#xa2;" horiz-adv-x="835" 
d="M621 840q-42 39 -113 39q-121 0 -202 -113t-81 -287q0 -136 54 -230t147 -132zM389 -23q-155 20 -252.5 143t-97.5 294q0 131 55.5 240t161.5 175t242 66q64 0 133 -16l96 358h21l-99 -365q156 -54 156 -163q0 -43 -31 -75t-72 -32q-40 0 -68 24.5t-34 61.5l-156 -577
q56 -17 97 -17q92 0 151.5 34.5t114.5 127.5l16 -8q-76 -138 -164 -206.5t-210 -68.5q-25 0 -39 2l-80 -297h-21z" />
    <glyph glyph-name="sterling" unicode="&#xa3;" horiz-adv-x="1091" 
d="M354 117q-66 42 -110.5 62t-89.5 20q-51 0 -84 -28.5t-33 -78.5q0 -46 34 -72t89 -26q48 0 99.5 33.5t94.5 89.5zM123 596l6 20h207q-19 82 -19 146q0 81 23 159t67.5 145t106 118t144.5 80.5t176 29.5q98 0 152 -38t54 -109q0 -39 -35 -71t-79 -32q-36 0 -61 20
t-33.5 48.5t-5.5 59.5t18 53q-28 35 -90 35q-104 0 -183 -79.5t-79 -228.5q0 -54 19 -171.5t24 -164.5h262l6 -20h-266q6 -50 6 -102q0 -127 -94 -285q24 -6 93.5 -26t103.5 -29t88 -18t97 -9q61 0 95.5 20t56 73.5t33.5 156.5h18q-5 -174 -84 -287t-200 -113
q-73 0 -148 21.5t-119 44.5t-108 61q-113 -127 -215 -127q-65 0 -103.5 31.5t-38.5 83.5q0 65 54.5 110.5t158.5 45.5q55 0 177 -27q12 35 12 72q0 48 -11 94t-36 115t-33 94h-217z" />
    <glyph glyph-name="currency" unicode="&#xa4;" horiz-adv-x="1009" 
d="M606 -29q-170 0 -306.5 132t-172.5 354h-129l6 20h119q-6 77 -6 125q0 69 8 121h-127l6 20h125q24 129 84 235.5t140 174t172.5 104.5t185.5 37q128 0 198 -39.5t70 -111.5q0 -39 -31 -69t-74 -30q-36 0 -62 19.5t-36.5 47.5t-9 58.5t15.5 51.5q-38 47 -100 47
q-148 0 -254.5 -145.5t-126.5 -379.5h410l6 -20h-416q-2 -25 -2 -80q0 -61 10 -166h402l6 -20h-400q35 -169 142 -266t231 -97q105 0 176.5 37.5t134.5 136.5l17 -10q-83 -141 -183 -214t-229 -73z" />
    <glyph glyph-name="yen" unicode="&#xa5;" horiz-adv-x="1239" 
d="M322 12l102 8q98 8 98 33v293h-377l7 21h370v245h-370l-7 21h365l-268 479q-57 91 -89.5 119.5t-95.5 32.5l-59 4l-6 12h575l-6 -12l-47 -2q-92 -4 -101.5 -40t46.5 -128l246 -443h4l174 336q30 58 47 96.5t23 68.5t2.5 46.5t-22 29t-41 18.5t-63.5 12l-47 6l-6 12h438
l-6 -12l-55 -6q-34 -3 -55.5 -10.5t-49.5 -34t-58.5 -76t-76.5 -135.5q-20 -38 -53 -101t-45 -86q-96 -184 -98 -186h375l-7 -21h-368v-245h368l7 -21h-375v-299q0 -8 7.5 -12.5t33.5 -8.5t78 -8l79 -6l7 -12h-607z" />
    <glyph glyph-name="section" unicode="&#xa7;" horiz-adv-x="772" 
d="M582 336q71 59 71 141q0 69 -45 120.5t-145 111.5q-22 13 -67 39.5t-65 38.5t-50 31.5t-50.5 35.5t-37.5 33q-72 -60 -72 -139q0 -69 45 -120.5t145 -111.5q23 -14 81.5 -48t80.5 -47.5t55 -38t54 -46.5zM326 -88q-108 0 -172 35t-64 100q0 35 22.5 63.5t61.5 28.5
q33 0 55 -18t29 -43.5t4 -53t-16 -47.5q16 -22 49.5 -34.5t66.5 -12.5q79 0 127 56t48 114q0 30 -14 58t-33 49t-57.5 47.5t-68 44t-83.5 47.5q-60 36 -102 66t-84.5 70.5t-64.5 86.5t-22 97q0 150 174 229q-57 65 -57 147q0 109 89 189t232 80q107 0 166.5 -35t59.5 -100
q0 -37 -27 -65t-67 -28q-33 0 -55 18t-29 43.5t-4 53t16 47.5q-38 47 -96 47q-78 0 -125 -54.5t-47 -113.5q0 -30 14 -58.5t33 -49.5t57.5 -48t67.5 -44t84 -47q59 -33 101.5 -62t84.5 -67.5t64 -84t22 -96.5q0 -149 -174 -241q57 -65 57 -146q0 -108 -90.5 -188t-232.5 -80
z" />
    <glyph glyph-name="dieresis" unicode="&#xa8;" 
d="M563 1042q-52 0 -80 35t-28 72q0 38 28.5 76.5t79.5 38.5t80 -38.5t29 -76.5q0 -37 -28.5 -72t-80.5 -35zM195 1042q-52 0 -80.5 35t-28.5 72q0 38 29 76.5t80 38.5t79.5 -38.5t28.5 -76.5q0 -37 -28 -72t-80 -35z" />
    <glyph glyph-name="copyright" unicode="&#xa9;" horiz-adv-x="1441" 
d="M739 233q-191 0 -312.5 111t-121.5 291q0 177 123.5 291t323.5 114q57 0 118 -15t93 -34l73 31l4 -240h-8l-114 201q-56 45 -170 45q-147 0 -230.5 -110.5t-83.5 -272.5q0 -175 91 -287t223 -112q102 0 164 46t116 144l31 51h8l-45 -200l-41 -11q-34 -16 -107 -29.5
t-135 -13.5zM721 -10q176 0 325.5 87.5t236.5 237.5t87 326q0 177 -87 327.5t-236.5 238t-325.5 87.5t-325.5 -87.5t-236.5 -238t-87 -327.5q0 -176 87 -326t236.5 -237.5t325.5 -87.5zM721 -29q-137 0 -261 53t-213.5 142.5t-142.5 213.5t-53 261q0 182 89.5 336.5t244 245
t336.5 90.5t336.5 -90.5t244 -245t89.5 -336.5q0 -137 -53 -261t-142.5 -213.5t-213.5 -142.5t-261 -53z" />
    <glyph glyph-name="ordfeminine" unicode="&#xaa;" horiz-adv-x="659" 
d="M291 674q47 0 123 76l10 221q-63 -16 -109 -35.5t-71 -37.5t-39.5 -39.5t-18.5 -37t-4 -33.5q0 -53 29.5 -83.5t79.5 -30.5zM184 586q-64 0 -107.5 43t-43.5 102q0 70 93 139t298 119v47q0 114 -48.5 163.5t-123.5 49.5q-29 0 -51.5 -7.5t-32.5 -16.5t-10 -17
q0 -2 18.5 -37t18.5 -53q0 -30 -24.5 -52t-59.5 -22q-34 0 -56 22t-22 54q0 40 54.5 82.5t133.5 70t148 27.5q89 0 148.5 -53t55.5 -157l-12 -328q-3 -94 53 -94q40 0 70 47l10 -4q-28 -48 -70 -86.5t-94 -38.5q-54 0 -81 33.5t-33 111.5h-2q-109 -145 -230 -145z" />
    <glyph glyph-name="guillemotleft" unicode="&#xab;" horiz-adv-x="890" 
d="M25 446v17l444 328l6 -9l-262 -327l262 -330l-6 -8zM414 446v17l444 350l6 -8l-262 -350l262 -351l-6 -8z" />
    <glyph glyph-name="registered" unicode="&#xae;" horiz-adv-x="1441" 
d="M700 657q83 0 128.5 43.5t45.5 128.5q0 90 -55.5 136.5t-163.5 40.5l-55 -2v-326q58 -21 100 -21zM362 270l62 6q19 2 39 8.5t20 12.5v696q0 3 -2 5t-10 4t-21.5 4t-37.5 4l-47 4l-5 12h330q307 0 307 -205q0 -67 -51 -118t-137 -68l172 -258q39 -60 66.5 -78.5
t80.5 -26.5l17 -2l4 -12h-231l-9 16l-225 365q-41 9 -84 23v-369q0 -6 23.5 -11.5t48.5 -7.5l47 -4l4 -12h-365zM721 -10q176 0 325.5 87.5t236.5 237.5t87 326q0 177 -87 327.5t-236.5 238t-325.5 87.5t-325.5 -87.5t-236.5 -238t-87 -327.5q0 -176 87 -326t236.5 -237.5
t325.5 -87.5zM721 -29q-137 0 -261 53t-213.5 142.5t-142.5 213.5t-53 261q0 182 89.5 336.5t244 245t336.5 90.5t336.5 -90.5t244 -245t89.5 -336.5q0 -137 -53 -261t-142.5 -213.5t-213.5 -142.5t-261 -53z" />
    <glyph glyph-name="macron" unicode="&#xaf;" horiz-adv-x="755" 
d="M127 1118h516l-14 -51h-516z" />
    <glyph glyph-name="degree" unicode="&#xb0;" horiz-adv-x="581" 
d="M291 813q104 0 168.5 68t64.5 170q0 101 -65 171t-168 70q-102 0 -166 -70t-64 -171q0 -102 63 -170t167 -68zM291 793q-114 0 -184 75t-70 183q0 109 69.5 185.5t184.5 76.5t184.5 -76.5t69.5 -185.5q0 -108 -69.5 -183t-184.5 -75z" />
    <glyph glyph-name="plusminus" unicode="&#xb1;" horiz-adv-x="675" 
d="M88 12l70 2q52 2 74 8.5t22 24.5v868q0 9 -5 13.5t-27.5 8.5t-69.5 7l-62 2l-6 12h510l-6 -12l-70 -2q-52 -2 -74 -8.5t-22 -24.5v-868q0 -9 5 -13.5t27.5 -8.5t69.5 -7l62 -2l6 -12h-510z" />
    <glyph glyph-name="acute" unicode="&#xb4;" 
d="M485 1389h193l-375 -383h-10z" />
    <glyph glyph-name="paragraph" unicode="&#xb6;" horiz-adv-x="882" 
d="M760 528q-78 -10 -207 -10q-230 0 -366 101.5t-136 287.5q0 184 128 278.5t376 94.5h225v-1346h-20v594z" />
    <glyph glyph-name="periodcentered" unicode="&#xb7;" horiz-adv-x="413" 
d="M205 336q-53 0 -89 36.5t-36 86.5q0 48 36 83.5t89 35.5t88 -35.5t35 -83.5q0 -51 -35 -87t-88 -36z" />
    <glyph glyph-name="cedilla" unicode="&#xb8;" 
d="M184 -532q153 32 230.5 74t77.5 112q0 63 -48.5 90t-124.5 27q-66 0 -137 -23v14l205 230h21l-113 -127q129 25 223 -20.5t94 -131.5q0 -42 -17 -76.5t-51 -59.5t-71 -44t-90.5 -33.5t-95.5 -23.5t-99 -19z" />
    <glyph glyph-name="ordmasculine" unicode="&#xba;" horiz-adv-x="802" 
d="M399 596q61 0 107 52t67 128t21 160q0 99 -18 180t-54 117q-52 55 -121 55q-51 0 -90.5 -31t-61.5 -82.5t-33 -109.5t-11 -121q0 -221 74 -295q53 -53 120 -53zM399 582q-161 0 -268.5 102.5t-107.5 251.5q0 150 109 258.5t269 108.5q163 0 269 -104.5t106 -254.5
q0 -153 -106 -257.5t-271 -104.5z" />
    <glyph glyph-name="guillemotright" unicode="&#xbb;" horiz-adv-x="890" 
d="M420 125l262 330l-262 327l6 9l444 -328v-17l-444 -329zM31 104l262 351l-262 350l6 8l444 -350v-17l-444 -350z" />
    <glyph glyph-name="questiondown" unicode="&#xbf;" horiz-adv-x="612" 
d="M324 1073q-53 0 -87 34.5t-34 82.5q0 49 34.5 85t86.5 36q53 0 89 -36.5t36 -84.5t-36 -82.5t-89 -34.5zM424 -29q-87 0 -159.5 34.5t-117.5 91t-69.5 124t-24.5 137.5q0 105 36 153t149 103q5 2 16 7q43 19 63.5 29t45.5 27t35 36.5t10 44.5q0 30 -14.5 59t-31 47.5
t-51.5 53.5h21q56 -43 109 -118t53 -116q0 -30 -3.5 -52t-16.5 -41t-24.5 -31.5t-41 -29.5t-52 -28t-71.5 -33q-123 -54 -165 -84t-42 -74q0 -33 15 -63.5t48.5 -58t96.5 -44t149 -16.5q77 0 150 21q24 -39 24 -103q0 -38 -30.5 -57t-106.5 -19z" />
    <glyph glyph-name="Agrave" unicode="&#xc0;" horiz-adv-x="1277" 
d="M375 561l-78 -223q-19 -57 -29 -89.5t-18.5 -69.5t-9 -55.5t4 -39t15.5 -29.5t31.5 -18.5t46.5 -13.5t65 -7l43 -4l7 -12h-463l6 12l33 4q35 4 55 9.5t44 25.5t39.5 44.5t42 83t51.5 124t67 182.5l223 629l-23 62q91 34 134 133h20l338 -1039q35 -111 58.5 -161t51.5 -70
t78 -23l58 -4l6 -12h-582l6 12l66 4q76 4 89 54.5t-22 154.5l-104 336h-350zM719 582l-154 499h-4l-178 -499h336zM313 1731h192l193 -383h-10z" />
    <glyph glyph-name="Aacute" unicode="&#xc1;" horiz-adv-x="1277" 
d="M375 561l-78 -223q-19 -57 -29 -89.5t-18.5 -69.5t-9 -55.5t4 -39t15.5 -29.5t31.5 -18.5t46.5 -13.5t65 -7l43 -4l7 -12h-463l6 12l33 4q35 4 55 9.5t44 25.5t39.5 44.5t42 83t51.5 124t67 182.5l223 629l-23 62q91 34 134 133h20l338 -1039q35 -111 58.5 -161t51.5 -70
t78 -23l58 -4l6 -12h-582l6 12l66 4q76 4 89 54.5t-22 154.5l-104 336h-350zM719 582l-154 499h-4l-178 -499h336zM759 1731h193l-375 -383h-10z" />
    <glyph glyph-name="Acircumflex" unicode="&#xc2;" horiz-adv-x="1277" 
d="M375 561l-78 -223q-19 -57 -29 -89.5t-18.5 -69.5t-9 -55.5t4 -39t15.5 -29.5t31.5 -18.5t46.5 -13.5t65 -7l43 -4l7 -12h-463l6 12l33 4q35 4 55 9.5t44 25.5t39.5 44.5t42 83t51.5 124t67 182.5l223 629l-23 62q91 34 134 133h20l338 -1039q35 -111 58.5 -161t51.5 -70
t78 -23l58 -4l6 -12h-582l6 12l66 4q76 4 89 54.5t-22 154.5l-104 336h-350zM719 582l-154 499h-4l-178 -499h336zM656 1728h8l297 -403h-12l-287 227h-4l-289 -227h-10z" />
    <glyph glyph-name="Atilde" unicode="&#xc3;" horiz-adv-x="1277" 
d="M375 561l-78 -223q-19 -57 -29 -89.5t-18.5 -69.5t-9 -55.5t4 -39t15.5 -29.5t31.5 -18.5t46.5 -13.5t65 -7l43 -4l7 -12h-463l6 12l33 4q35 4 55 9.5t44 25.5t39.5 44.5t42 83t51.5 124t67 182.5l223 629l-23 62q91 34 134 133h20l338 -1039q35 -111 58.5 -161t51.5 -70
t78 -23l58 -4l6 -12h-582l6 12l66 4q76 4 89 54.5t-22 154.5l-104 336h-350zM719 582l-154 499h-4l-178 -499h336zM803 1360q-52 0 -124 31t-136.5 62.5t-96.5 31.5q-25 0 -38 -2.5t-27.5 -12.5t-21.5 -32.5t-11 -61.5h-12q12 121 43.5 169t103.5 48q51 0 122.5 -31.5
t136 -62.5t97.5 -31q47 0 70.5 19.5t30.5 89.5h12q-12 -119 -44.5 -168t-104.5 -49z" />
    <glyph glyph-name="Adieresis" unicode="&#xc4;" horiz-adv-x="1277" 
d="M375 561l-78 -223q-19 -57 -29 -89.5t-18.5 -69.5t-9 -55.5t4 -39t15.5 -29.5t31.5 -18.5t46.5 -13.5t65 -7l43 -4l7 -12h-463l6 12l33 4q35 4 55 9.5t44 25.5t39.5 44.5t42 83t51.5 124t67 182.5l223 629l-23 62q91 34 134 133h20l338 -1039q35 -111 58.5 -161t51.5 -70
t78 -23l58 -4l6 -12h-582l6 12l66 4q76 4 89 54.5t-22 154.5l-104 336h-350zM719 582l-154 499h-4l-178 -499h336zM827 1384q-52 0 -80 35t-28 72q0 38 28.5 76.5t79.5 38.5t80 -38.5t29 -76.5q0 -37 -28.5 -72t-80.5 -35zM459 1384q-52 0 -80.5 35t-28.5 72q0 38 29 76.5
t80 38.5t79.5 -38.5t28.5 -76.5q0 -37 -28 -72t-80 -35z" />
    <glyph glyph-name="Aring" unicode="&#xc5;" horiz-adv-x="1277" 
d="M643 1276q73 0 117.5 48t44.5 118q0 69 -44.5 117.5t-117.5 48.5t-117.5 -48.5t-44.5 -117.5q0 -70 44.5 -118t117.5 -48zM373 555l-76 -217q-19 -57 -29 -89.5t-18.5 -69.5t-9 -55.5t4 -39t15.5 -29.5t31.5 -18.5t46.5 -13.5t65 -7l43 -4l7 -12h-463l6 12l33 4
q35 4 55 9.5t44 25.5t39.5 44.5t42 83t51.5 124t67 182.5l278 781q-70 17 -107.5 65t-37.5 113q0 77 49.5 129.5t132.5 52.5t132.5 -52.5t49.5 -129.5q0 -64 -34 -111.5t-95 -64.5q-1 1 21.5 -66.5t64.5 -196.5t76 -235q159 -490 162 -500q35 -111 58.5 -161t51.5 -70
t78 -23l58 -4l6 -12h-582l6 12l66 4q76 4 89 54.5t-22 154.5l-102 330h-354zM719 582l-154 499h-4l-178 -499h336z" />
    <glyph glyph-name="AE" unicode="&#xc6;" horiz-adv-x="1757" 
d="M813 582v649h-4l-379 -649h383zM-102 12l75 8q59 8 124 78.5t175 259.5l473 807q33 46 12 67t-126 25l-80 5l-6 18h1034l29 -397l-13 -2l-10 26q-9 24 -21 62t-19 58.5t-19 51t-21.5 47t-25 39t-32 34.5t-40 25.5t-51.5 20t-63.5 11t-78.5 4.5h-206v-590l73 2
q113 5 168 19.5t87 48.5t57 106l10 28l14 -2l-43 -434l-14 2l-2 29q-3 40 -8.5 66t-20.5 46t-33 31t-54 18.5t-73.5 10.5t-101.5 6l-59 4v-620l211 -11q48 1 90 8.5t75 17.5t63.5 30.5t51.5 36.5t44 46.5t36.5 50.5t32 58t28 59t27.5 64l12 27l13 -2l-74 -416h-1012l6 12
l103 8q98 8 98 33v502h-399l-127 -219q-94 -166 -90 -236t108 -82l51 -6l6 -12h-471z" />
    <glyph glyph-name="Ccedilla" unicode="&#xc7;" horiz-adv-x="1398" 
d="M770 -31q-155 2 -287 50t-226.5 133.5t-148 210t-53.5 274.5q0 195 91.5 348.5t261.5 240.5t391 87q94 0 196 -28.5t158 -61.5l121 59l6 -401h-12l-191 336q-42 33 -117.5 53t-166.5 20q-123 0 -223.5 -51.5t-165 -139.5t-99.5 -202.5t-35 -243.5q0 -144 42 -268.5
t113 -210t167 -134t203 -48.5q87 0 156 20t124.5 63t97.5 96t89 132l51 88h12l-74 -325l-67 -15q-61 -29 -177 -55.5t-216 -26.5l-93 -104q129 25 223.5 -20.5t94.5 -131.5q0 -42 -17 -76.5t-51 -59.5t-71 -44t-90.5 -33.5t-95.5 -23.5t-99 -19l-4 11q153 32 230 74t77 112
q0 117 -172 117q-66 0 -137 -23v14z" />
    <glyph glyph-name="Egrave" unicode="&#xc8;" horiz-adv-x="1212" 
d="M55 12l66 8q106 9 106 33v1180q0 8 -7 12.5t-33 8.5t-78 8l-52 6l-6 12h983l29 -397l-12 -2l-11 26q-53 151 -85 205q-60 101 -172 132q-64 18 -154 18h-207v-592l94 2q166 8 231 40t101 134l10 28l14 -2l-43 -434l-14 2l-2 29q-3 47 -15 77t-31 49t-60 29.5t-84 15
t-121 7.5l-80 4v-620l252 -11q48 1 90 8.5t75 17.5t63.5 30.5t51.5 36.5t44 46.5t36.5 50.5t32 58t28 59t27.5 64l13 27l12 -2l-74 -416h-1024zM291 1731h192l193 -383h-10z" />
    <glyph glyph-name="Eacute" unicode="&#xc9;" horiz-adv-x="1212" 
d="M55 12l66 8q106 9 106 33v1180q0 8 -7 12.5t-33 8.5t-78 8l-52 6l-6 12h983l29 -397l-12 -2l-11 26q-53 151 -85 205q-60 101 -172 132q-64 18 -154 18h-207v-592l94 2q166 8 231 40t101 134l10 28l14 -2l-43 -434l-14 2l-2 29q-3 47 -15 77t-31 49t-60 29.5t-84 15
t-121 7.5l-80 4v-620l252 -11q48 1 90 8.5t75 17.5t63.5 30.5t51.5 36.5t44 46.5t36.5 50.5t32 58t28 59t27.5 64l13 27l12 -2l-74 -416h-1024zM737 1731h193l-375 -383h-10z" />
    <glyph glyph-name="Ecircumflex" unicode="&#xca;" horiz-adv-x="1212" 
d="M55 12l66 8q106 9 106 33v1180q0 8 -7 12.5t-33 8.5t-78 8l-52 6l-6 12h983l29 -397l-12 -2l-11 26q-53 151 -85 205q-60 101 -172 132q-64 18 -154 18h-207v-592l94 2q166 8 231 40t101 134l10 28l14 -2l-43 -434l-14 2l-2 29q-3 47 -15 77t-31 49t-60 29.5t-84 15
t-121 7.5l-80 4v-620l252 -11q48 1 90 8.5t75 17.5t63.5 30.5t51.5 36.5t44 46.5t36.5 50.5t32 58t28 59t27.5 64l13 27l12 -2l-74 -416h-1024zM606 1728h8l297 -403h-12l-287 227h-4l-289 -227h-10z" />
    <glyph glyph-name="Edieresis" unicode="&#xcb;" horiz-adv-x="1212" 
d="M55 12l66 8q106 9 106 33v1180q0 8 -7 12.5t-33 8.5t-78 8l-52 6l-6 12h983l29 -397l-12 -2l-11 26q-53 151 -85 205q-60 101 -172 132q-64 18 -154 18h-207v-592l94 2q166 8 231 40t101 134l10 28l14 -2l-43 -434l-14 2l-2 29q-3 47 -15 77t-31 49t-60 29.5t-84 15
t-121 7.5l-80 4v-620l252 -11q48 1 90 8.5t75 17.5t63.5 30.5t51.5 36.5t44 46.5t36.5 50.5t32 58t28 59t27.5 64l13 27l12 -2l-74 -416h-1024zM784 1384q-52 0 -80 35t-28 72q0 38 28.5 76.5t79.5 38.5t80 -38.5t29 -76.5q0 -37 -28.5 -72t-80.5 -35zM416 1384
q-52 0 -80.5 35t-28.5 72q0 38 29 76.5t80 38.5t79.5 -38.5t28.5 -76.5q0 -37 -28 -72t-80 -35z" />
    <glyph glyph-name="Igrave" unicode="&#xcc;" horiz-adv-x="690" 
d="M68 12l82 8q98 8 98 33v1180q0 8 -7.5 12.5t-33.5 8.5t-78 8l-59 6l-7 12h566l-6 -12l-82 -8q-99 -8 -99 -33v-1180q0 -8 7.5 -12.5t33.5 -8.5t78 -8l60 -6l6 -12h-566zM41 1731h192l193 -383h-10z" />
    <glyph glyph-name="Iacute" unicode="&#xcd;" horiz-adv-x="690" 
d="M68 12l82 8q98 8 98 33v1180q0 8 -7.5 12.5t-33.5 8.5t-78 8l-59 6l-7 12h566l-6 -12l-82 -8q-99 -8 -99 -33v-1180q0 -8 7.5 -12.5t33.5 -8.5t78 -8l60 -6l6 -12h-566zM446 1731h193l-375 -383h-10z" />
    <glyph glyph-name="Icircumflex" unicode="&#xce;" horiz-adv-x="690" 
d="M68 12l82 8q98 8 98 33v1180q0 8 -7.5 12.5t-33.5 8.5t-78 8l-59 6l-7 12h566l-6 -12l-82 -8q-99 -8 -99 -33v-1180q0 -8 7.5 -12.5t33.5 -8.5t78 -8l60 -6l6 -12h-566zM346 1728h8l297 -403h-12l-287 227h-4l-289 -227h-10z" />
    <glyph glyph-name="Idieresis" unicode="&#xcf;" horiz-adv-x="690" 
d="M68 12l82 8q98 8 98 33v1180q0 8 -7.5 12.5t-33.5 8.5t-78 8l-59 6l-7 12h566l-6 -12l-82 -8q-99 -8 -99 -33v-1180q0 -8 7.5 -12.5t33.5 -8.5t78 -8l60 -6l6 -12h-566zM536 1384q-52 0 -80 35t-28 72q0 38 28.5 76.5t79.5 38.5t80 -38.5t29 -76.5q0 -37 -28.5 -72
t-80.5 -35zM168 1384q-52 0 -80.5 35t-28.5 72q0 38 29 76.5t80 38.5t79.5 -38.5t28.5 -76.5q0 -37 -28 -72t-80 -35z" />
    <glyph glyph-name="Eth" unicode="&#xd0;" horiz-adv-x="1363" 
d="M737 655l6 -24h-321v-563l137 -45q133 2 239 52.5t171.5 134t100 189t34.5 222.5q0 103 -19.5 195t-63.5 174.5t-108.5 142t-160.5 94.5t-213 35h-117v-607h315zM31 631l6 24h190v578q0 14 -103 27q-10 1 -15 2l-80 6l-6 12l546 6q185 4 329 -41.5t233.5 -130
t135.5 -197.5t46 -249q0 -110 -31.5 -209.5t-97.5 -183.5t-160 -145t-225.5 -95.5t-288.5 -34.5h-490l7 12l102 8q98 8 98 33v578h-196z" />
    <glyph glyph-name="Ntilde" unicode="&#xd1;" horiz-adv-x="1382" 
d="M242 1126h-2l2 -1032q0 -59 170 -78l39 -4l6 -12h-430l6 12l41 4q65 6 104 28.5t39 53.5l6 1047q-5 5 -21 23t-29 30t-33.5 27.5t-47 25.5t-57.5 15l-27 4l-6 12h367l784 -985l2 2l-2 887q0 59 -170 78l-39 4l-6 12h430l-6 -12l-41 -4q-65 -6 -104 -28.5t-39 -53.5
l-7 -1192h-16zM901 1360q-52 0 -124 31t-136.5 62.5t-96.5 31.5q-25 0 -38 -2.5t-27.5 -12.5t-21.5 -32.5t-11 -61.5h-12q12 121 43.5 169t103.5 48q51 0 122.5 -31.5t136 -62.5t97.5 -31q47 0 70.5 19.5t30.5 89.5h12q-12 -119 -44.5 -168t-104.5 -49z" />
    <glyph glyph-name="Ograve" unicode="&#xd2;" horiz-adv-x="1495" 
d="M752 -6q218 0 345.5 175.5t127.5 477.5q0 282 -136.5 461.5t-347.5 179.5q-214 0 -342.5 -177.5t-128.5 -477.5q0 -282 135 -460.5t347 -178.5zM737 -29q-195 0 -350.5 84t-243.5 236t-88 344q0 126 55 249t148 217t224.5 152t273.5 58q194 0 350 -84.5t245 -238
t89 -347.5q0 -127 -55 -249t-148 -214.5t-225 -149.5t-275 -57zM438 1731h192l193 -383h-10z" />
    <glyph glyph-name="Oacute" unicode="&#xd3;" horiz-adv-x="1495" 
d="M752 -6q218 0 345.5 175.5t127.5 477.5q0 282 -136.5 461.5t-347.5 179.5q-214 0 -342.5 -177.5t-128.5 -477.5q0 -282 135 -460.5t347 -178.5zM737 -29q-195 0 -350.5 84t-243.5 236t-88 344q0 126 55 249t148 217t224.5 152t273.5 58q194 0 350 -84.5t245 -238
t89 -347.5q0 -127 -55 -249t-148 -214.5t-225 -149.5t-275 -57zM864 1731h193l-375 -383h-10z" />
    <glyph glyph-name="Ocircumflex" unicode="&#xd4;" horiz-adv-x="1495" 
d="M752 -6q218 0 345.5 175.5t127.5 477.5q0 282 -136.5 461.5t-347.5 179.5q-214 0 -342.5 -177.5t-128.5 -477.5q0 -282 135 -460.5t347 -178.5zM737 -29q-195 0 -350.5 84t-243.5 236t-88 344q0 126 55 249t148 217t224.5 152t273.5 58q194 0 350 -84.5t245 -238
t89 -347.5q0 -127 -55 -249t-148 -214.5t-225 -149.5t-275 -57zM752 1728h8l297 -403h-12l-287 227h-4l-289 -227h-10z" />
    <glyph glyph-name="Otilde" unicode="&#xd5;" horiz-adv-x="1495" 
d="M752 -6q218 0 345.5 175.5t127.5 477.5q0 282 -136.5 461.5t-347.5 179.5q-214 0 -342.5 -177.5t-128.5 -477.5q0 -282 135 -460.5t347 -178.5zM737 -29q-195 0 -350.5 84t-243.5 236t-88 344q0 126 55 249t148 217t224.5 152t273.5 58q194 0 350 -84.5t245 -238
t89 -347.5q0 -127 -55 -249t-148 -214.5t-225 -149.5t-275 -57zM918 1360q-52 0 -124 31t-136.5 62.5t-96.5 31.5q-25 0 -38 -2.5t-27.5 -12.5t-21.5 -32.5t-11 -61.5h-12q12 121 43.5 169t103.5 48q51 0 122.5 -31.5t136 -62.5t97.5 -31q47 0 70.5 19.5t30.5 89.5h12
q-12 -119 -44.5 -168t-104.5 -49z" />
    <glyph glyph-name="Odieresis" unicode="&#xd6;" horiz-adv-x="1495" 
d="M752 -6q218 0 345.5 175.5t127.5 477.5q0 282 -136.5 461.5t-347.5 179.5q-214 0 -342.5 -177.5t-128.5 -477.5q0 -282 135 -460.5t347 -178.5zM737 -29q-195 0 -350.5 84t-243.5 236t-88 344q0 126 55 249t148 217t224.5 152t273.5 58q194 0 350 -84.5t245 -238
t89 -347.5q0 -127 -55 -249t-148 -214.5t-225 -149.5t-275 -57zM942 1384q-52 0 -80 35t-28 72q0 38 28.5 76.5t79.5 38.5t80 -38.5t29 -76.5q0 -37 -28.5 -72t-80.5 -35zM574 1384q-52 0 -80.5 35t-28.5 72q0 38 29 76.5t80 38.5t79.5 -38.5t28.5 -76.5q0 -37 -28 -72
t-80 -35z" />
    <glyph glyph-name="Oslash" unicode="&#xd8;" horiz-adv-x="1495" 
d="M1042 1159q-126 129 -301 129q-214 0 -342.5 -178t-128.5 -477q0 -324 174 -508zM459 111q123 -117 293 -117q218 0 345.5 175.5t127.5 477.5q0 312 -168 498zM1102 1227q158 -86 248 -238.5t90 -347.5q0 -127 -55 -249t-148 -214.5t-225 -149.5t-275 -57q-176 0 -319 70
l-109 -191h-22l114 199q-162 83 -254 235.5t-92 350.5q0 126 55 249t148 217t224.5 152t273.5 58q183 0 329 -76l103 176h22q-5 -9 -25 -42.5t-28 -49.5q-53 -92 -55 -92z" />
    <glyph glyph-name="Ugrave" unicode="&#xd9;" horiz-adv-x="1402" 
d="M729 -29q-277 0 -394.5 110.5t-117.5 369.5v784q0 8 -7.5 12.5t-33.5 8.5t-78 8l-80 6l-6 12h606l-6 -12l-102 -8q-98 -8 -98 -33v-733q0 -235 94.5 -346t292.5 -111q185 0 289 123t104 362l-2 662q0 61 -172 80l-39 4l-6 12h430l-6 -12l-41 -4q-65 -6 -103.5 -29.5
t-38.5 -54.5l-4 -664q-2 -130 -28 -227t-81 -171t-148 -111.5t-224 -37.5zM428 1731h192l193 -383h-10z" />
    <glyph glyph-name="Uacute" unicode="&#xda;" horiz-adv-x="1402" 
d="M729 -29q-277 0 -394.5 110.5t-117.5 369.5v784q0 8 -7.5 12.5t-33.5 8.5t-78 8l-80 6l-6 12h606l-6 -12l-102 -8q-98 -8 -98 -33v-733q0 -235 94.5 -346t292.5 -111q185 0 289 123t104 362l-2 662q0 61 -172 80l-39 4l-6 12h430l-6 -12l-41 -4q-65 -6 -103.5 -29.5
t-38.5 -54.5l-4 -664q-2 -130 -28 -227t-81 -171t-148 -111.5t-224 -37.5zM833 1731h193l-375 -383h-10z" />
    <glyph glyph-name="Ucircumflex" unicode="&#xdb;" horiz-adv-x="1402" 
d="M729 -29q-277 0 -394.5 110.5t-117.5 369.5v784q0 8 -7.5 12.5t-33.5 8.5t-78 8l-80 6l-6 12h606l-6 -12l-102 -8q-98 -8 -98 -33v-733q0 -235 94.5 -346t292.5 -111q185 0 289 123t104 362l-2 662q0 61 -172 80l-39 4l-6 12h430l-6 -12l-41 -4q-65 -6 -103.5 -29.5
t-38.5 -54.5l-4 -664q-2 -130 -28 -227t-81 -171t-148 -111.5t-224 -37.5zM723 1728h8l297 -403h-12l-287 227h-4l-289 -227h-10z" />
    <glyph glyph-name="Udieresis" unicode="&#xdc;" horiz-adv-x="1402" 
d="M729 -29q-277 0 -394.5 110.5t-117.5 369.5v784q0 8 -7.5 12.5t-33.5 8.5t-78 8l-80 6l-6 12h606l-6 -12l-102 -8q-98 -8 -98 -33v-733q0 -235 94.5 -346t292.5 -111q185 0 289 123t104 362l-2 662q0 61 -172 80l-39 4l-6 12h430l-6 -12l-41 -4q-65 -6 -103.5 -29.5
t-38.5 -54.5l-4 -664q-2 -130 -28 -227t-81 -171t-148 -111.5t-224 -37.5zM973 1384q-52 0 -80 35t-28 72q0 38 28.5 76.5t79.5 38.5t80 -38.5t29 -76.5q0 -37 -28.5 -72t-80.5 -35zM605 1384q-52 0 -80.5 35t-28.5 72q0 38 29 76.5t80 38.5t79.5 -38.5t28.5 -76.5
q0 -37 -28 -72t-80 -35z" />
    <glyph glyph-name="Yacute" unicode="&#xdd;" horiz-adv-x="1280" 
d="M342 12l102 8q99 8 99 33v520l-301 537q-50 90 -85.5 120t-99.5 34l-59 4l-6 12h575l-6 -12l-47 -2q-90 -4 -99 -40.5t44 -127.5l260 -471h4l176 336q31 61 48.5 99t28.5 73t9 54t-15 35t-37 24t-63 14l-47 6l-6 12h438l-6 -12l-55 -6q-64 -5 -119 -63t-141 -222
l-197 -371v-559q0 -8 7.5 -12.5t33.5 -8.5t78 -8l80 -6l6 -12h-606zM821 1731h193l-375 -383h-10z" />
    <glyph glyph-name="Thorn" unicode="&#xde;" horiz-adv-x="1134" 
d="M584 338q134 0 214.5 88.5t80.5 232.5q0 162 -78 250t-250 84l-129 -2v-633q61 -20 162 -20zM27 12l102 8q98 8 98 33v1180q0 8 -7 12.5t-33 8.5t-78 8l-80 6l-6 12h606l-6 -12l-103 -8q-98 -8 -98 -33v-211h113q46 0 71 -2q238 0 358.5 -89.5t120.5 -238.5
q0 -157 -141.5 -266t-359.5 -109q-81 0 -162 15v-279q0 -8 7 -12.5t34 -9t78 -7.5l100 -6l6 -12h-627z" />
    <glyph glyph-name="germandbls" unicode="&#xdf;" horiz-adv-x="1054" 
d="M645 846q63 -32 126.5 -85t118.5 -119t89.5 -146t34.5 -156q0 -143 -97.5 -251.5t-234.5 -108.5q-91 0 -153 44.5t-62 108.5q0 54 31.5 86.5t81.5 32.5q69 0 91.5 -52.5t-10 -101t-94.5 -37.5q7 -23 39.5 -44t81.5 -21q81 0 127.5 59t46.5 166q0 158 -104 316t-295 272v8
q135 24 200.5 92t65.5 199q0 94 -55.5 159.5t-134.5 65.5q-106 0 -151.5 -76t-45.5 -258v-997h-301l6 12l37 2q68 7 78 13q8 6 8 18v737l-160 2l39 78h119l4 54q19 207 125 324.5t268 117.5q153 0 243.5 -70.5t90.5 -187.5q0 -100 -71 -164.5t-183 -91.5z" />
    <glyph glyph-name="agrave" unicode="&#xe0;" horiz-adv-x="845" 
d="M360 80q47 0 86 16t80 60l13 323q-94 -19 -158 -46t-96 -60.5t-45 -66.5t-13 -73q0 -65 40.5 -109t92.5 -44zM670 -20q-129 0 -144 151v2q-66 -70 -128 -110.5t-132 -40.5q-89 0 -150 57t-61 137q0 52 21.5 94t73.5 83.5t149 78.5t240 68l2 63q8 281 -203 281
q-52 0 -103 -22.5t-51 -39.5q0 -6 13.5 -22.5t27 -41t13.5 -48.5q0 -36 -28 -62t-71 -26q-42 0 -70 24t-28 60q0 52 69 106.5t166.5 88.5t178.5 34q102 0 159.5 -27.5t84 -98.5t18.5 -198l-21 -391q-6 -108 72 -108q15 0 32 9t25.5 16t28.5 26l10 -6q-92 -137 -194 -137z
M137 1389h192l193 -383h-10z" />
    <glyph glyph-name="aacute" unicode="&#xe1;" horiz-adv-x="845" 
d="M360 80q47 0 86 16t80 60l13 323q-94 -19 -158 -46t-96 -60.5t-45 -66.5t-13 -73q0 -65 40.5 -109t92.5 -44zM670 -20q-129 0 -144 151v2q-66 -70 -128 -110.5t-132 -40.5q-89 0 -150 57t-61 137q0 52 21.5 94t73.5 83.5t149 78.5t240 68l2 63q8 281 -203 281
q-52 0 -103 -22.5t-51 -39.5q0 -6 13.5 -22.5t27 -41t13.5 -48.5q0 -36 -28 -62t-71 -26q-42 0 -70 24t-28 60q0 52 69 106.5t166.5 88.5t178.5 34q102 0 159.5 -27.5t84 -98.5t18.5 -198l-21 -391q-6 -108 72 -108q15 0 32 9t25.5 16t28.5 26l10 -6q-92 -137 -194 -137z
M542 1389h193l-375 -383h-10z" />
    <glyph glyph-name="acircumflex" unicode="&#xe2;" horiz-adv-x="845" 
d="M360 80q47 0 86 16t80 60l13 323q-94 -19 -158 -46t-96 -60.5t-45 -66.5t-13 -73q0 -65 40.5 -109t92.5 -44zM670 -20q-129 0 -144 151v2q-66 -70 -128 -110.5t-132 -40.5q-89 0 -150 57t-61 137q0 52 21.5 94t73.5 83.5t149 78.5t240 68l2 63q8 281 -203 281
q-52 0 -103 -22.5t-51 -39.5q0 -6 13.5 -22.5t27 -41t13.5 -48.5q0 -36 -28 -62t-71 -26q-42 0 -70 24t-28 60q0 52 69 106.5t166.5 88.5t178.5 34q102 0 159.5 -27.5t84 -98.5t18.5 -198l-21 -391q-6 -108 72 -108q15 0 32 9t25.5 16t28.5 26l10 -6q-92 -137 -194 -137z
M412 1386h8l297 -403h-12l-287 227h-4l-289 -227h-10z" />
    <glyph glyph-name="atilde" unicode="&#xe3;" horiz-adv-x="845" 
d="M360 80q47 0 86 16t80 60l13 323q-94 -19 -158 -46t-96 -60.5t-45 -66.5t-13 -73q0 -65 40.5 -109t92.5 -44zM670 -20q-129 0 -144 151v2q-66 -70 -128 -110.5t-132 -40.5q-89 0 -150 57t-61 137q0 52 21.5 94t73.5 83.5t149 78.5t240 68l2 63q8 281 -203 281
q-52 0 -103 -22.5t-51 -39.5q0 -6 13.5 -22.5t27 -41t13.5 -48.5q0 -36 -28 -62t-71 -26q-42 0 -70 24t-28 60q0 52 69 106.5t166.5 88.5t178.5 34q102 0 159.5 -27.5t84 -98.5t18.5 -198l-21 -391q-6 -108 72 -108q15 0 32 9t25.5 16t28.5 26l10 -6q-92 -137 -194 -137z
M576 1018q-52 0 -124 31t-136.5 62.5t-96.5 31.5q-25 0 -38 -2.5t-27.5 -12.5t-21.5 -32.5t-11 -61.5h-12q12 121 43.5 169t103.5 48q51 0 122.5 -31.5t136 -62.5t97.5 -31q47 0 70.5 19.5t30.5 89.5h12q-12 -119 -44.5 -168t-104.5 -49z" />
    <glyph glyph-name="adieresis" unicode="&#xe4;" horiz-adv-x="845" 
d="M360 80q47 0 86 16t80 60l13 323q-94 -19 -158 -46t-96 -60.5t-45 -66.5t-13 -73q0 -65 40.5 -109t92.5 -44zM670 -20q-129 0 -144 151v2q-66 -70 -128 -110.5t-132 -40.5q-89 0 -150 57t-61 137q0 52 21.5 94t73.5 83.5t149 78.5t240 68l2 63q8 281 -203 281
q-52 0 -103 -22.5t-51 -39.5q0 -6 13.5 -22.5t27 -41t13.5 -48.5q0 -36 -28 -62t-71 -26q-42 0 -70 24t-28 60q0 52 69 106.5t166.5 88.5t178.5 34q102 0 159.5 -27.5t84 -98.5t18.5 -198l-21 -391q-6 -108 72 -108q15 0 32 9t25.5 16t28.5 26l10 -6q-92 -137 -194 -137z
M579 1042q-52 0 -80 35t-28 72q0 38 28.5 76.5t79.5 38.5t80 -38.5t29 -76.5q0 -37 -28.5 -72t-80.5 -35zM211 1042q-52 0 -80.5 35t-28.5 72q0 38 29 76.5t80 38.5t79.5 -38.5t28.5 -76.5q0 -37 -28 -72t-80 -35z" />
    <glyph glyph-name="aring" unicode="&#xe5;" horiz-adv-x="845" 
d="M360 80q47 0 86 16t80 60l13 323q-94 -19 -158 -46t-96 -60.5t-45 -66.5t-13 -73q0 -65 40.5 -109t92.5 -44zM670 -20q-129 0 -144 151v2q-66 -70 -128 -110.5t-132 -40.5q-89 0 -150 57t-61 137q0 52 21.5 94t73.5 83.5t149 78.5t240 68l2 63q8 281 -203 281
q-52 0 -103 -22.5t-51 -39.5q0 -6 13.5 -22.5t27 -41t13.5 -48.5q0 -36 -28 -62t-71 -26q-42 0 -70 24t-28 60q0 52 69 106.5t166.5 88.5t178.5 34q102 0 159.5 -27.5t84 -98.5t18.5 -198l-21 -391q-6 -108 72 -108q15 0 32 9t25.5 16t28.5 26l10 -6q-92 -137 -194 -137z
M416 1038q73 0 117.5 48t44.5 118q0 69 -44.5 117.5t-117.5 48.5t-117.5 -48.5t-44.5 -117.5q0 -70 44.5 -118t117.5 -48zM416 1020q-83 0 -132.5 53t-49.5 131q0 77 49.5 131t132.5 54t132.5 -54t49.5 -131q0 -78 -49.5 -131t-132.5 -53z" />
    <glyph glyph-name="ae" unicode="&#xe6;" horiz-adv-x="1357" 
d="M1120 612q0 71 -14.5 127t-52.5 95.5t-95 39.5q-83 0 -146 -79t-85 -189zM358 72q51 0 91.5 27t123.5 110q-41 97 -41 213q0 10 5 55q-79 -19 -135.5 -41.5t-90 -45t-53 -51t-25.5 -54.5t-6 -60q0 -64 41 -108.5t90 -44.5zM266 -27q-88 0 -149.5 58.5t-61.5 138.5
q0 52 20.5 95t71 86t149 80t243.5 67l2 65q8 281 -203 281q-52 0 -103 -22.5t-51 -39.5q0 -6 13.5 -22.5t27 -41t13.5 -48.5q0 -36 -28 -62t-71 -26q-42 0 -70 24t-28 60q0 53 67 107t167.5 88t195.5 34q81 0 131.5 -26.5t75.5 -90.5q120 117 297 117q156 0 244 -76t88 -205
q0 -4 -0.5 -8t-1.5 -9.5t-2 -10.5q-104 2 -285 2h-295q-6 -31 -6 -111q0 -174 89.5 -278.5t225.5 -104.5q94 0 160.5 35t120.5 127l14 -8q-77 -136 -169.5 -205.5t-215.5 -69.5q-120 0 -213.5 59.5t-142.5 155.5q-121 -121 -187 -168t-133 -47z" />
    <glyph glyph-name="ccedilla" unicode="&#xe7;" horiz-adv-x="833" 
d="M485 -25q-14 -2 -36 -2q-178 0 -294 126t-116 315q0 131 55.5 240t161.5 175t242 66q130 0 218.5 -49.5t88.5 -136.5q0 -43 -31 -75t-72 -32q-43 0 -73.5 29.5t-30.5 68.5q0 30 10 54t20.5 38t10.5 19q0 20 -42 44t-89 24q-121 0 -202 -113t-81 -287q0 -176 89.5 -280.5
t226.5 -104.5q92 0 151.5 34.5t114.5 127.5l16 -8q-66 -120 -141 -187t-174 -84l-100 -112q129 25 223 -20.5t94 -131.5q0 -42 -17 -76.5t-51 -59.5t-71 -44t-90.5 -33.5t-95.5 -23.5t-99 -19l-4 11q153 32 230 74t77 112q0 117 -172 117q-66 0 -137 -23v14z" />
    <glyph glyph-name="egrave" unicode="&#xe8;" horiz-adv-x="866" 
d="M629 610q0 71 -14.5 127.5t-52.5 96.5t-95 40q-83 0 -146 -79t-85 -189zM451 -27q-179 0 -295.5 126t-116.5 315q0 131 55.5 241t158 175t230.5 65q156 0 244 -76t88 -205l-4 -28l-580 2q-6 -31 -6 -111q0 -173 89.5 -278t226.5 -105q94 0 160 35t120 127l15 -8
q-77 -136 -169.5 -205.5t-215.5 -69.5zM172 1389h192l193 -383h-10z" />
    <glyph glyph-name="eacute" unicode="&#xe9;" horiz-adv-x="866" 
d="M629 610q0 71 -14.5 127.5t-52.5 96.5t-95 40q-83 0 -146 -79t-85 -189zM451 -27q-179 0 -295.5 126t-116.5 315q0 131 55.5 241t158 175t230.5 65q156 0 244 -76t88 -205l-4 -28l-580 2q-6 -31 -6 -111q0 -173 89.5 -278t226.5 -105q94 0 160 35t120 127l15 -8
q-77 -136 -169.5 -205.5t-215.5 -69.5zM577 1389h193l-375 -383h-10z" />
    <glyph glyph-name="ecircumflex" unicode="&#xea;" horiz-adv-x="866" 
d="M629 610q0 71 -14.5 127.5t-52.5 96.5t-95 40q-83 0 -146 -79t-85 -189zM451 -27q-179 0 -295.5 126t-116.5 315q0 131 55.5 241t158 175t230.5 65q156 0 244 -76t88 -205l-4 -28l-580 2q-6 -31 -6 -111q0 -173 89.5 -278t226.5 -105q94 0 160 35t120 127l15 -8
q-77 -136 -169.5 -205.5t-215.5 -69.5zM465 1386h8l297 -403h-12l-287 227h-4l-289 -227h-10z" />
    <glyph glyph-name="edieresis" unicode="&#xeb;" horiz-adv-x="866" 
d="M629 610q0 71 -14.5 127.5t-52.5 96.5t-95 40q-83 0 -146 -79t-85 -189zM451 -27q-179 0 -295.5 126t-116.5 315q0 131 55.5 241t158 175t230.5 65q156 0 244 -76t88 -205l-4 -28l-580 2q-6 -31 -6 -111q0 -173 89.5 -278t226.5 -105q94 0 160 35t120 127l15 -8
q-77 -136 -169.5 -205.5t-215.5 -69.5zM635 1042q-52 0 -80 35t-28 72q0 38 28.5 76.5t79.5 38.5t80 -38.5t29 -76.5q0 -37 -28.5 -72t-80.5 -35zM267 1042q-52 0 -80.5 35t-28.5 72q0 38 29 76.5t80 38.5t79.5 -38.5t28.5 -76.5q0 -37 -28 -72t-80 -35z" />
    <glyph glyph-name="igrave" unicode="&#xec;" horiz-adv-x="475" 
d="M33 12l37 2q68 7 78 13q8 6 8 18v586q0 94 -14.5 121t-69.5 39l-47 10l2 8l301 80v-848q0 -12 18 -17.5t84 -9.5l29 -2l6 -12h-438zM-59 1389h192l193 -383h-10z" />
    <glyph glyph-name="iacute" unicode="&#xed;" horiz-adv-x="475" 
d="M33 12l37 2q68 7 78 13q8 6 8 18v586q0 94 -14.5 121t-69.5 39l-47 10l2 8l301 80v-848q0 -12 18 -17.5t84 -9.5l29 -2l6 -12h-438zM366 1389h193l-375 -383h-10z" />
    <glyph glyph-name="icircumflex" unicode="&#xee;" horiz-adv-x="475" 
d="M252 1386h8l256 -403h-12l-246 227h-4l-248 -227h-10zM33 12l37 2q68 7 78 13q8 6 8 18v586q0 94 -14.5 121t-69.5 39l-47 10l2 8l301 80v-848q0 -12 18 -17.5t84 -9.5l29 -2l6 -12h-438z" />
    <glyph glyph-name="idieresis" unicode="&#xef;" horiz-adv-x="475" 
d="M33 12l37 2q68 7 78 13q8 6 8 18v586q0 94 -14.5 121t-69.5 39l-47 10l2 8l301 80v-848q0 -12 18 -17.5t84 -9.5l29 -2l6 -12h-438zM444 1042q-52 0 -80 35t-28 72q0 38 28.5 76.5t79.5 38.5t80 -38.5t29 -76.5q0 -37 -28.5 -72t-80.5 -35zM76 1042q-52 0 -80.5 35
t-28.5 72q0 38 29 76.5t80 38.5t79.5 -38.5t28.5 -76.5q0 -37 -28 -72t-80 -35z" />
    <glyph glyph-name="eth" unicode="&#xf0;" horiz-adv-x="985" 
d="M494 -10q116 0 180.5 111t64.5 319q0 213 -67 336t-183 123t-179.5 -112.5t-63.5 -309.5q0 -226 64.5 -346.5t183.5 -120.5zM412 1133q0 1 -32.5 -9.5t-100.5 -33.5q-67 -24 -136 -43l4 24l238 78q-126 80 -291 106l2 15q206 -20 369 -94l254 81l4 -24q-20 -6 -57.5 -18
t-55.5 -17q-24 -8 -53 -17.5t-44.5 -14.5t-16.5 -5q148 -74 252 -189.5t151 -237.5t47 -245q0 -223 -126.5 -369.5t-327.5 -146.5q-199 0 -326 129t-127 328q0 201 128.5 333t324.5 132q82 0 147 -12q-91 158 -227 250z" />
    <glyph glyph-name="ntilde" unicode="&#xf1;" horiz-adv-x="1032" 
d="M33 12l37 2q68 7 78 13q8 6 8 18v584q0 94 -14.5 122t-69.5 40l-47 10l2 8l303 80l-6 -170l6 -2q7 5 36.5 29.5t43 35t43 32t51 32t51 23.5t59.5 18.5t60 5.5q101 0 160 -59q63 -63 63 -205v-586q0 -7 4 -10.5t27 -8.5t73 -10l27 -2l6 -12h-436l6 12l37 2q51 4 66.5 11
t15.5 20v555q0 91 -43.5 132.5t-136.5 41.5q-124 0 -215 -84v-274v-375q0 -12 18 -17.5t82 -9.5l31 -2l4 -12h-436zM695 1018q-52 0 -124 31t-136.5 62.5t-96.5 31.5q-25 0 -38 -2.5t-27.5 -12.5t-21.5 -32.5t-11 -61.5h-12q12 121 43.5 169t103.5 48q51 0 122.5 -31.5
t136 -62.5t97.5 -31q47 0 70.5 19.5t30.5 89.5h12q-12 -119 -44.5 -168t-104.5 -49z" />
    <glyph glyph-name="ograve" unicode="&#xf2;" horiz-adv-x="1019" 
d="M512 -10q81 0 142 63t90.5 159.5t29.5 207.5q0 127 -27.5 230.5t-82.5 158.5q-70 70 -158 70q-65 0 -116 -37t-81.5 -99t-46.5 -135t-16 -151q0 -290 106 -396q71 -71 160 -71zM510 -27q-204 0 -337.5 131t-133.5 326t134.5 330t336.5 135q204 0 337.5 -131t133.5 -326
q0 -198 -134 -331.5t-337 -133.5zM191 1389h192l193 -383h-10z" />
    <glyph glyph-name="oacute" unicode="&#xf3;" horiz-adv-x="1019" 
d="M512 -10q81 0 142 63t90.5 159.5t29.5 207.5q0 127 -27.5 230.5t-82.5 158.5q-70 70 -158 70q-65 0 -116 -37t-81.5 -99t-46.5 -135t-16 -151q0 -290 106 -396q71 -71 160 -71zM510 -27q-204 0 -337.5 131t-133.5 326t134.5 330t336.5 135q204 0 337.5 -131t133.5 -326
q0 -198 -134 -331.5t-337 -133.5zM637 1389h193l-375 -383h-10z" />
    <glyph glyph-name="ocircumflex" unicode="&#xf4;" horiz-adv-x="1019" 
d="M512 -10q81 0 142 63t90.5 159.5t29.5 207.5q0 127 -27.5 230.5t-82.5 158.5q-70 70 -158 70q-65 0 -116 -37t-81.5 -99t-46.5 -135t-16 -151q0 -290 106 -396q71 -71 160 -71zM510 -27q-204 0 -337.5 131t-133.5 326t134.5 330t336.5 135q204 0 337.5 -131t133.5 -326
q0 -198 -134 -331.5t-337 -133.5zM506 1386h8l297 -403h-12l-287 227h-4l-289 -227h-10z" />
    <glyph glyph-name="otilde" unicode="&#xf5;" horiz-adv-x="1019" 
d="M512 -10q81 0 142 63t90.5 159.5t29.5 207.5q0 127 -27.5 230.5t-82.5 158.5q-70 70 -158 70q-65 0 -116 -37t-81.5 -99t-46.5 -135t-16 -151q0 -290 106 -396q71 -71 160 -71zM510 -27q-204 0 -337.5 131t-133.5 326t134.5 330t336.5 135q204 0 337.5 -131t133.5 -326
q0 -198 -134 -331.5t-337 -133.5zM670 1018q-52 0 -124 31t-136.5 62.5t-96.5 31.5q-25 0 -38 -2.5t-27.5 -12.5t-21.5 -32.5t-11 -61.5h-12q12 121 43.5 169t103.5 48q51 0 122.5 -31.5t136 -62.5t97.5 -31q47 0 70.5 19.5t30.5 89.5h12q-12 -119 -44.5 -168t-104.5 -49z
" />
    <glyph glyph-name="odieresis" unicode="&#xf6;" horiz-adv-x="1019" 
d="M512 -10q81 0 142 63t90.5 159.5t29.5 207.5q0 127 -27.5 230.5t-82.5 158.5q-70 70 -158 70q-65 0 -116 -37t-81.5 -99t-46.5 -135t-16 -151q0 -290 106 -396q71 -71 160 -71zM510 -27q-204 0 -337.5 131t-133.5 326t134.5 330t336.5 135q204 0 337.5 -131t133.5 -326
q0 -198 -134 -331.5t-337 -133.5zM694 1042q-52 0 -80 35t-28 72q0 38 28.5 76.5t79.5 38.5t80 -38.5t29 -76.5q0 -37 -28.5 -72t-80.5 -35zM326 1042q-52 0 -80.5 35t-28.5 72q0 38 29 76.5t80 38.5t79.5 -38.5t28.5 -76.5q0 -37 -28 -72t-80 -35z" />
    <glyph glyph-name="divide" unicode="&#xf7;" horiz-adv-x="1114" 
d="M555 -2q203 0 340 139t137 348q0 206 -137 348t-336 142q-201 0 -339 -142.5t-138 -351.5q0 -207 135 -345t338 -138zM555 -20q-213 0 -353.5 142.5t-140.5 358.5q0 217 142.5 364.5t355.5 147.5q210 0 352 -146t142 -362q0 -218 -142 -361.5t-356 -143.5z" />
    <glyph glyph-name="oslash" unicode="&#xf8;" horiz-adv-x="1019" 
d="M319 102q20 -28 33 -41q71 -71 160 -71q81 0 142 63t90.5 159.5t29.5 207.5q0 218 -74 340zM690 778q-20 25 -26 31q-70 70 -158 70q-65 0 -116 -37t-81.5 -99t-46.5 -135t-16 -151q0 -223 63 -336zM260 37q-104 61 -162.5 163.5t-58.5 229.5q0 195 134.5 330t336.5 135
q125 0 219 -49l195 336h22l-201 -344q110 -58 173 -163t63 -237q0 -198 -134 -331.5t-337 -133.5q-125 0 -234 56l-167 -291h-23z" />
    <glyph glyph-name="ugrave" unicode="&#xf9;" horiz-adv-x="980" 
d="M692 147h-2q-39 -36 -67.5 -59t-74 -53.5t-95.5 -46t-101 -15.5q-99 0 -159 60q-62 62 -62 205v587q0 7 -3.5 10.5t-28 8.5t-72.5 8l-29 2l-6 12h313l-2 -602q0 -91 44 -131.5t138 -40.5q122 0 203 78v281v301q0 59 -19 77t-83 23l-29 2l-6 12h311v-723q0 -33 6 -43.5
t25 -15.5l100 -21l-2 -10l-299 -86v180zM191 1389h192l193 -383h-10z" />
    <glyph glyph-name="uacute" unicode="&#xfa;" horiz-adv-x="980" 
d="M692 147h-2q-39 -36 -67.5 -59t-74 -53.5t-95.5 -46t-101 -15.5q-99 0 -159 60q-62 62 -62 205v587q0 7 -3.5 10.5t-28 8.5t-72.5 8l-29 2l-6 12h313l-2 -602q0 -91 44 -131.5t138 -40.5q122 0 203 78v281v301q0 59 -19 77t-83 23l-29 2l-6 12h311v-723q0 -33 6 -43.5
t25 -15.5l100 -21l-2 -10l-299 -86v180zM596 1389h193l-375 -383h-10z" />
    <glyph glyph-name="ucircumflex" unicode="&#xfb;" horiz-adv-x="980" 
d="M692 147h-2q-39 -36 -67.5 -59t-74 -53.5t-95.5 -46t-101 -15.5q-99 0 -159 60q-62 62 -62 205v587q0 7 -3.5 10.5t-28 8.5t-72.5 8l-29 2l-6 12h313l-2 -602q0 -91 44 -131.5t138 -40.5q122 0 203 78v281v301q0 59 -19 77t-83 23l-29 2l-6 12h311v-723q0 -33 6 -43.5
t25 -15.5l100 -21l-2 -10l-299 -86v180zM486 1386h8l297 -403h-12l-287 227h-4l-289 -227h-10z" />
    <glyph glyph-name="udieresis" unicode="&#xfc;" horiz-adv-x="980" 
d="M692 147h-2q-39 -36 -67.5 -59t-74 -53.5t-95.5 -46t-101 -15.5q-99 0 -159 60q-62 62 -62 205v587q0 7 -3.5 10.5t-28 8.5t-72.5 8l-29 2l-6 12h313l-2 -602q0 -91 44 -131.5t138 -40.5q122 0 203 78v281v301q0 59 -19 77t-83 23l-29 2l-6 12h311v-723q0 -33 6 -43.5
t25 -15.5l100 -21l-2 -10l-299 -86v180zM692 1042q-52 0 -80 35t-28 72q0 38 28.5 76.5t79.5 38.5t80 -38.5t29 -76.5q0 -37 -28.5 -72t-80.5 -35zM324 1042q-52 0 -80.5 35t-28.5 72q0 38 29 76.5t80 38.5t79.5 -38.5t28.5 -76.5q0 -37 -28 -72t-80 -35z" />
    <glyph glyph-name="yacute" unicode="&#xfd;" horiz-adv-x="944" 
d="M186 -524q-50 0 -86.5 30t-36.5 74q0 42 30.5 71.5t72.5 29.5q93 0 123 -97q34 7 61 53.5t56 133.5l69 213h-4l-324 739q-39 84 -56 103.5t-62 23.5l-39 2l-6 12h448l-6 -12l-35 -2q-59 -4 -69 -27t16 -80l223 -526l146 406q21 62 29.5 97t10 62.5t-14.5 39.5t-39.5 18.5
t-69.5 9.5l-29 2l-6 12h352l-6 -12l-31 -2q-67 -4 -94 -43.5t-86 -208.5l-221 -600l-80 -248q-43 -140 -98 -207t-138 -67zM594 1319h182l-354 -365h-10z" />
    <glyph glyph-name="thorn" unicode="&#xfe;" horiz-adv-x="989" 
d="M522 -2q74 0 128.5 56t81 146.5t26.5 202.5q0 156 -76 262.5t-201 106.5q-120 0 -217 -104v-457q35 -90 106.5 -151.5t151.5 -61.5zM-29 -506l37 2q68 7 78 13q8 6 8 18v1661q0 41 -16.5 58.5t-67.5 31.5l-47 12l2 10l299 78v-671l4 -5q75 86 152.5 133.5t169.5 47.5
q154 0 257 -119t103 -307q0 -96 -28.5 -178t-76 -137t-108.5 -94t-125 -57t-127 -18q-122 0 -217 43h-4v-495q0 -8 6.5 -12.5t30.5 -8t68 -4.5l69 -2l6 -12h-479z" />
    <glyph glyph-name="ydieresis" unicode="&#xff;" horiz-adv-x="944" 
d="M186 -524q-50 0 -86.5 30t-36.5 74q0 42 30.5 71.5t72.5 29.5q93 0 123 -97q34 7 61 53.5t56 133.5l69 213h-4l-324 739q-39 84 -56 103.5t-62 23.5l-39 2l-6 12h448l-6 -12l-35 -2q-59 -4 -69 -27t16 -80l223 -526l146 406q21 62 29.5 97t10 62.5t-14.5 39.5t-39.5 18.5
t-69.5 9.5l-29 2l-6 12h352l-6 -12l-31 -2q-67 -4 -94 -43.5t-86 -208.5l-221 -600l-80 -248q-43 -140 -98 -207t-138 -67zM676 1042q-52 0 -80 35t-28 72q0 38 28.5 76.5t79.5 38.5t80 -38.5t29 -76.5q0 -37 -28.5 -72t-80.5 -35zM308 1042q-52 0 -80.5 35t-28.5 72
q0 38 29 76.5t80 38.5t79.5 -38.5t28.5 -76.5q0 -37 -28 -72t-80 -35z" />
    <glyph glyph-name="dotlessi" unicode="&#x131;" horiz-adv-x="475" 
d="M33 12l37 2q68 7 78 13q8 6 8 18v586q0 94 -14.5 121t-69.5 39l-47 10l2 8l301 80v-848q0 -12 18 -17.5t84 -9.5l29 -2l6 -12h-438z" />
    <glyph glyph-name="Lslash" unicode="&#x141;" horiz-adv-x="1138" 
d="M23 516l4 25l200 65v627q0 8 -7 12.5t-33 8.5t-78 8l-80 6l-6 12h626l-6 -12l-123 -8q-98 -8 -98 -33v-557l207 67l4 -24l-211 -68v-616l201 -11q97 0 163 20t114 78.5t69 98.5t64 144q5 11 7.5 17t7 16t7.5 18l12 26h16l-65 -436h-998l7 12l102 8q98 8 98 33v529z" />
    <glyph glyph-name="lslash" unicode="&#x142;" horiz-adv-x="464" 
d="M2 485l4 23l139 45v565q0 92 -15 120t-69 40l-45 12l2 10l299 78v-770l142 47l4 -22l-146 -47v-545q0 -12 17.5 -16.5t85.5 -10.5l29 -2l6 -12h-435l5 12l34 2q68 7 78 13q8 6 8 18v485z" />
    <glyph glyph-name="OE" unicode="&#x152;" horiz-adv-x="1910" 
d="M946 27v1194l-137 36q-133 -2 -239 -51t-171.5 -132t-100 -187t-34.5 -221q0 -103 19.5 -195t63.5 -174.5t108.5 -142t160.5 -94.5t213 -35zM799 0q-185 -2 -329 43.5t-233.5 129.5t-135.5 196.5t-46 248.5q0 139 51 258t149 209.5t253 142.5t350 52h875l28 -397l-12 -2
l-10 26q-53 150 -85 204q-62 102 -176 132q-64 17 -151 17h-186v-590l73 2q166 8 231 40t101 134l10 28l15 -2l-43 -434l-15 2l-2 29q-3 47 -15 77t-31 49t-60 29.5t-84 15t-121 7.5l-59 4v-620l231 -11q85 2 152 24.5t108.5 51t80.5 85.5t57.5 95.5t50.5 114.5l12 27l12 -2
l-73 -416h-973z" />
    <glyph glyph-name="oe" unicode="&#x153;" horiz-adv-x="1603" 
d="M1366 612q0 71 -14.5 127t-52.5 95.5t-95 39.5q-83 0 -146 -79t-85 -189zM512 -10q81 0 142 62t90.5 158.5t29.5 209.5q0 265 -106 383q-72 76 -162 76q-86 0 -146.5 -63t-87 -157.5t-26.5 -209.5q0 -268 106 -386q64 -73 160 -73zM510 -27q-204 0 -337.5 130.5
t-133.5 324.5q0 127 60.5 234t169 170t241.5 63q115 0 211 -44.5t158 -123.5q129 168 342 168q154 0 242.5 -76t88.5 -205q0 -4 -0.5 -8t-1.5 -9.5t-2 -10.5q-104 2 -284 2h-295q-6 -31 -6 -111q0 -174 89.5 -278.5t225.5 -104.5q94 0 160.5 35t120.5 127l14 -8
q-77 -136 -170.5 -205.5t-216.5 -69.5q-105 0 -178 41.5t-136 120.5q-65 -76 -158.5 -119t-203.5 -43z" />
    <glyph glyph-name="Scaron" unicode="&#x160;" horiz-adv-x="1011" 
d="M485 -29q-83 0 -194.5 21t-206.5 51l-8 305h12l53 -119q105 -237 344 -237q128 0 207.5 83t79.5 212q0 114 -71.5 181t-221.5 120q-85 29 -145.5 60.5t-111.5 75t-77 102t-26 132.5q0 65 27 127t76.5 112t127.5 81t170 31q129 0 283 -47l74 26l4 -334h-11l-131 254
q-97 80 -219 80q-104 0 -174 -66.5t-70 -166.5q0 -57 20.5 -101t62.5 -77t88.5 -55.5t115.5 -47.5q195 -65 290 -157.5t95 -243.5q0 -71 -33 -142t-91.5 -129t-147.5 -94.5t-191 -36.5zM230 1769h10l289 -227h4l289 227h10l-297 -403h-8z" />
    <glyph glyph-name="scaron" unicode="&#x161;" horiz-adv-x="729" 
d="M332 -27q-154 0 -269 47l-18 256l12 3l43 -93q85 -194 246 -194q90 0 141.5 49t51.5 123t-55 122.5t-162 86.5q-55 19 -92.5 37.5t-76 49t-58 75t-19.5 102.5q0 115 84 185.5t215 70.5q102 0 186 -35l66 23l10 -246l-12 -2l-113 180q-70 61 -141 61q-80 0 -122 -41.5
t-42 -111.5q0 -69 48.5 -106t160.5 -78q51 -19 85 -34.5t71 -39.5t58.5 -51t35.5 -66.5t14 -87.5q0 -117 -93.5 -201t-254.5 -84zM66 1347h10l289 -227h4l289 227h10l-297 -403h-8z" />
    <glyph glyph-name="Ydieresis" unicode="&#x178;" horiz-adv-x="1280" 
d="M342 12l102 8q99 8 99 33v520l-301 537q-50 90 -85.5 120t-99.5 34l-59 4l-6 12h575l-6 -12l-47 -2q-90 -4 -99 -40.5t44 -127.5l260 -471h4l176 336q31 61 48.5 99t28.5 73t9 54t-15 35t-37 24t-63 14l-47 6l-6 12h438l-6 -12l-55 -6q-64 -5 -119 -63t-141 -222
l-197 -371v-559q0 -8 7.5 -12.5t33.5 -8.5t78 -8l80 -6l6 -12h-606zM817 1384q-52 0 -80 35t-28 72q0 38 28.5 76.5t79.5 38.5t80 -38.5t29 -76.5q0 -37 -28.5 -72t-80.5 -35zM449 1384q-52 0 -80.5 35t-28.5 72q0 38 29 76.5t80 38.5t79.5 -38.5t28.5 -76.5q0 -37 -28 -72
t-80 -35z" />
    <glyph glyph-name="Zcaron" unicode="&#x17d;" horiz-adv-x="1185" 
d="M61 6l805 1249v5h-213q-109 0 -194 -19t-138.5 -47.5t-94.5 -75t-62.5 -87.5t-42.5 -99l-8 -21h-13l35 369h967v-10l-803 -1243v-4l250 -3q79 0 143.5 9t112.5 23.5t88.5 41.5t68 54t54.5 69.5t44.5 79t41.5 92.5l12 27h16l-65 -416h-1004v6zM311 1748h10l289 -227h4
l289 227h10l-297 -403h-8z" />
    <glyph glyph-name="zcaron" unicode="&#x17e;" horiz-adv-x="856" 
d="M39 10l545 834l-111 2q-58 0 -101.5 -6.5t-77.5 -23t-56.5 -33.5t-45 -51.5t-36.5 -61.5t-37 -78l-21 -43h-10v315h705v-10l-547 -834l108 -2q84 0 148.5 17.5t113 53.5t82 77t70.5 102l29 47h10l-64 -315h-704v10zM127 1347h10l289 -227h4l289 227h10l-297 -403h-8z" />
    <glyph glyph-name="florin" unicode="&#x192;" horiz-adv-x="1019" 
d="M152 -145q-69 0 -115.5 31.5t-46.5 84.5q0 36 28 67.5t72 31.5q36 0 65.5 -26.5t35.5 -64.5t-19 -81q3 -1 9 -4.5t9 -4.5q19 -8 35 -8q21 0 38 11t34.5 40.5t33 72.5t35.5 116.5t40 162.5t47 220l47 252l-230 4l31 69l221 2q64 258 187 381q106 99 237 99q78 0 124 -32.5
t46 -86.5q0 -40 -34 -71t-72 -31q-44 0 -70 28.5t-20.5 71.5t45.5 78l-19 12q-23 10 -45 10q-32 0 -59 -24t-47 -60.5t-40 -101.5t-34 -124t-33 -151l250 -2v-71h-264l-62 -256q-51 -218 -108 -352t-139 -216q-72 -77 -213 -77z" />
    <glyph glyph-name="circumflex" unicode="&#x2c6;" 
d="M375 1386h8l297 -403h-12l-287 227h-4l-289 -227h-10z" />
    <glyph glyph-name="caron" unicode="&#x2c7;" 
d="M78 1386h10l289 -227h4l289 227h10l-297 -403h-8z" />
    <glyph glyph-name="breve" unicode="&#x2d8;" 
d="M379 995q-50 0 -89.5 22t-65 54t-47 86t-33 98.5t-25.5 112.5h12q45 -135 103.5 -195.5t148.5 -60.5q88 0 148 61t104 195h12q-12 -56 -21.5 -94t-25 -85.5t-35 -78.5t-45.5 -59.5t-61.5 -42t-79.5 -13.5z" />
    <glyph glyph-name="dotaccent" unicode="&#x2d9;" 
d="M379 1075q-52 0 -80.5 35t-28.5 72q0 40 28.5 77t80.5 37t80 -36.5t28 -77.5q0 -37 -28 -72t-80 -35z" />
    <glyph glyph-name="ring" unicode="&#x2da;" 
d="M379 1038q73 0 117.5 48t44.5 118q0 69 -44.5 117.5t-117.5 48.5t-117.5 -48.5t-44.5 -117.5q0 -70 44.5 -118t117.5 -48zM379 1020q-83 0 -132.5 53t-49.5 131q0 77 49.5 131t132.5 54t132.5 -54t49.5 -131q0 -78 -49.5 -131t-132.5 -53z" />
    <glyph glyph-name="ogonek" unicode="&#x2db;" 
d="M381 -485q-84 0 -141.5 55t-57.5 135q0 58 32.5 113.5t85 97t100 69.5t94.5 48h32q-235 -113 -235 -281q0 -73 46 -118.5t120 -45.5q58 0 131 58l8 -8q-33 -46 -94 -84.5t-121 -38.5z" />
    <glyph glyph-name="tilde" unicode="&#x2dc;" 
d="M539 1018q-52 0 -124 31t-136.5 62.5t-96.5 31.5q-25 0 -38 -2.5t-27.5 -12.5t-21.5 -32.5t-11 -61.5h-12q12 121 43.5 169t103.5 48q51 0 122.5 -31.5t136 -62.5t97.5 -31q47 0 70.5 19.5t30.5 89.5h12q-12 -119 -44.5 -168t-104.5 -49z" />
    <glyph glyph-name="hungarumlaut" unicode="&#x2dd;" 
d="M633 1389h180l-346 -383h-21zM322 1389h180l-346 -383h-21z" />
    <glyph glyph-name="pi" unicode="&#x3c0;" horiz-adv-x="1441" 
d="M770 610q80 0 128 51.5t48 137.5q0 97 -45 147.5t-151 50.5h-78v-372q51 -15 98 -15zM434 256l62 6q59 6 59 21v698q0 6 -5.5 7.5t-33.5 3.5q-20 2 -33 3l-47 4l-4 13h350q144 0 216.5 -53.5t72.5 -143.5q0 -93 -85.5 -156t-215.5 -63q-53 0 -98 10v-327q0 -12 71 -19
l60 -4l4 -12h-375zM721 -10q176 0 325.5 87.5t236.5 237.5t87 326q0 177 -87 327.5t-236.5 238t-325.5 87.5t-325.5 -87.5t-236.5 -238t-87 -327.5q0 -176 87 -326t236.5 -237.5t325.5 -87.5zM721 -29q-137 0 -261 53t-213.5 142.5t-142.5 213.5t-53 261q0 182 89.5 336.5
t244 245t336.5 90.5t336.5 -90.5t244 -245t89.5 -336.5q0 -137 -53 -261t-142.5 -213.5t-213.5 -142.5t-261 -53z" />
    <glyph glyph-name="endash" unicode="&#x2013;" horiz-adv-x="870" 
d="M14 520h848l-6 -82h-848z" />
    <glyph glyph-name="emdash" unicode="&#x2014;" horiz-adv-x="1835" 
d="M14 520h1813l-6 -82h-1813z" />
    <glyph glyph-name="quoteleft" unicode="&#x2018;" horiz-adv-x="370" 
d="M209 848q-72 0 -118 49.5t-46 128.5q0 93 72.5 174t204.5 127l8 -8q-74 -36 -121 -96.5t-47 -124.5q0 -38 17.5 -65t42.5 -40t50 -19.5t42 -8.5l18 -2q0 -47 -31 -81t-92 -34z" />
    <glyph glyph-name="quoteright" unicode="&#x2019;" horiz-adv-x="370" 
d="M41 860q74 36 121 95.5t47 125.5q0 38 -17.5 65t-42.5 39t-50 18t-42.5 8t-17.5 3q0 47 31 82t92 35q72 0 118 -50.5t46 -129.5q0 -93 -72.5 -173t-204.5 -126z" />
    <glyph glyph-name="quotesinglbase" unicode="&#x201a;" horiz-adv-x="370" 
d="M41 -229q74 36 121 95.5t47 125.5q0 38 -17.5 65t-42.5 39t-50 18t-42.5 8t-17.5 3q0 47 31 82t92 35q72 0 118 -51t46 -130q0 -93 -72.5 -173t-204.5 -126z" />
    <glyph glyph-name="quotedblleft" unicode="&#x201c;" horiz-adv-x="729" 
d="M209 848q-72 0 -118 49.5t-46 128.5q0 93 72.5 174t204.5 127l8 -8q-74 -36 -121 -96.5t-47 -124.5q0 -38 17.5 -65t42.5 -40t50 -19.5t42 -8.5l18 -2q0 -47 -31 -81t-92 -34zM567 848q-72 0 -118 49.5t-46 128.5q0 93 72.5 174t204.5 127l8 -8q-74 -36 -121 -96.5
t-47 -124.5q0 -38 17.5 -65t42.5 -40t50 -19.5t42 -8.5l18 -2q0 -47 -31 -81t-92 -34z" />
    <glyph glyph-name="quotedblright" unicode="&#x201d;" horiz-adv-x="729" 
d="M399 860q74 36 121 95.5t47 125.5q0 38 -17.5 65t-42.5 39t-50 18t-42.5 8t-17.5 3q0 47 31 82t92 35q72 0 118 -50.5t46 -129.5q0 -93 -72 -173t-204 -126zM41 860q74 36 121 95.5t47 125.5q0 38 -17.5 65t-42.5 39t-50 18t-42.5 8t-17.5 3q0 47 31 82t92 35
q72 0 118 -50.5t46 -129.5q0 -93 -72.5 -173t-204.5 -126z" />
    <glyph glyph-name="quotedblbase" unicode="&#x201e;" horiz-adv-x="729" 
d="M399 -229q74 36 121 95.5t47 125.5q0 38 -17.5 65t-42.5 39t-50 18t-42.5 8t-17.5 3q0 47 31 82t92 35q72 0 118 -51t46 -130q0 -93 -72 -173t-204 -126zM41 -229q74 36 121 95.5t47 125.5q0 38 -17.5 65t-42.5 39t-50 18t-42.5 8t-17.5 3q0 47 31 82t92 35q72 0 118 -51
t46 -130q0 -93 -72.5 -173t-204.5 -126z" />
    <glyph glyph-name="dagger" unicode="&#x2020;" horiz-adv-x="886" 
d="M432 848h-414l-2 20h416v412h23v-412h415l-2 -20h-413v-1167h-23v1167z" />
    <glyph glyph-name="daggerdbl" unicode="&#x2021;" horiz-adv-x="886" 
d="M432 74h-416l2 20h414v770h-414l-2 21h416v395h23v-395h415l-2 -21h-413v-770h413l2 -20h-415v-393h-23v393z" />
    <glyph glyph-name="bullet" unicode="&#x2022;" horiz-adv-x="870" 
d="M434 80q-44 0 -145.5 42.5t-130.5 74.5q-31 36 -74 135t-43 143q0 43 43 145.5t74 133.5t133 72.5t145 41.5t147.5 -41.5t131.5 -72.5q31 -27 72.5 -131.5t41.5 -147.5q0 -45 -41 -145.5t-73 -132.5q-28 -33 -131.5 -75t-149.5 -42z" />
    <glyph glyph-name="ellipsis" unicode="&#x2026;" horiz-adv-x="1234" 
d="M618 -25q-53 0 -88.5 36.5t-35.5 86.5q0 48 35.5 83.5t88.5 35.5t88 -35.5t35 -83.5q0 -51 -35 -87t-88 -36zM186 -25q-53 0 -89 36.5t-36 86.5q0 48 36 83.5t89 35.5t88 -35.5t35 -83.5q0 -51 -35 -87t-88 -36zM1051 -25q-53 0 -89 36.5t-36 86.5q0 48 36 83.5t89 35.5
t88 -35.5t35 -83.5q0 -51 -35 -87t-88 -36z" />
    <glyph glyph-name="perthousand" unicode="&#x2030;" horiz-adv-x="1673" 
d="M270 809q104 0 168 69t64 171q0 101 -64.5 172t-167.5 71q-102 0 -165.5 -71t-63.5 -172q0 -102 63 -171t166 -69zM270 791q-115 0 -184.5 75t-69.5 183q0 109 69.5 185.5t184.5 76.5q116 0 186 -76.5t70 -185.5q0 -108 -70 -183t-186 -75zM811 -8q104 0 167.5 67.5
t63.5 169.5q0 103 -64 174.5t-167 71.5q-102 0 -165.5 -71.5t-63.5 -174.5q0 -102 62.5 -169.5t166.5 -67.5zM811 -27q-115 0 -184.5 74.5t-69.5 181.5q0 110 69.5 187.5t184.5 77.5q116 0 186 -77.5t70 -187.5q0 -107 -70 -181.5t-186 -74.5zM1401 -8q104 0 167.5 67.5
t63.5 169.5q0 103 -64 174.5t-167 71.5q-102 0 -166 -71.5t-64 -174.5q0 -102 63 -169.5t167 -67.5zM1401 -27q-115 0 -184.5 74.5t-69.5 181.5q0 110 69.5 187.5t184.5 77.5q116 0 186 -77.5t70 -187.5q0 -107 -70 -181.5t-186 -74.5zM965 1311h24l-876 -1340h-25z" />
    <glyph glyph-name="guilsinglleft" unicode="&#x2039;" horiz-adv-x="516" 
d="M25 446v17l444 350l6 -8l-262 -350l262 -351l-6 -8z" />
    <glyph glyph-name="guilsinglright" unicode="&#x203a;" horiz-adv-x="516" 
d="M41 104l262 351l-262 350l6 8l445 -350v-17l-445 -350z" />
    <glyph glyph-name="fraction" unicode="&#x2044;" horiz-adv-x="940" 
d="M936 1313h29l-961 -1340h-29z" />
    <glyph glyph-name="Euro" unicode="&#x20ac;" horiz-adv-x="1009" 
d="M606 -29q-170 0 -306.5 132t-172.5 354h-129l6 20h119q-6 77 -6 125q0 69 8 121h-127l6 20h125q24 129 84 235.5t140 174t172.5 104.5t185.5 37q128 0 198 -39.5t70 -111.5q0 -39 -31 -69t-74 -30q-36 0 -62 19.5t-36.5 47.5t-9 58.5t15.5 51.5q-38 47 -100 47
q-148 0 -254.5 -145.5t-126.5 -379.5h410l6 -20h-416q-2 -25 -2 -80q0 -61 10 -166h402l6 -20h-400q35 -169 142 -266t231 -97q105 0 176.5 37.5t134.5 136.5l17 -10q-83 -141 -183 -214t-229 -73z" />
    <glyph glyph-name="trademark" unicode="&#x2122;" horiz-adv-x="831" 
d="M385 965h10q26 0 32.5 7t6.5 36l6 243q-10 18 -34 21l-15 2l-2 6h117l84 -229h2l86 229h123l-2 -6l-25 -2q-24 -3 -24 -8l6 -291v-1.5t1 -1t2 -0.5h3.5h5t7 -1t9.5 -2l17 -2l2 -7h-164v7l25 2q20 3 20 8l-4 280h-2l-113 -297h-8l-108 285h-3l-4 -242q0 -24 8.5 -30
t38.5 -6h11l2 -7h-119zM119 965l22 2q25 3 25 8v299h-21q-22 -1 -42.5 -17t-31.5 -31.5t-26 -41.5l-4 -8h-4l16 104h297l10 -102h-2l-4 8q-43 88 -98 88h-20v-301q0 -3 4 -3q10 0 24 -3l17 -2v-7h-164z" />
    <glyph glyph-name="Omega" unicode="&#x2126;" horiz-adv-x="1130" 
d="M47 12l37 2q68 7 78 13q8 6 8 18v739l-160 2l39 78h119l4 35q16 112 59.5 198.5t105 137.5t131.5 76.5t146 25.5q79 0 126.5 -31t47.5 -85q0 -40 -28.5 -69.5t-71.5 -29.5q-61 0 -99 50t-30 114l-61 19q-88 -34 -122 -119.5t-34 -241.5v-80h360l5 60q10 108 49.5 193
t97 136t123.5 77t135 26t104 -28.5t35 -70.5q0 -37 -28.5 -65.5t-69.5 -28.5q-47 0 -84.5 38.5t-48.5 94.5l-2 13l-27 4q-69 -30 -91.5 -108.5t-22.5 -239.5v-101h243l-37 -80h-206v-743q0 -9 6.5 -14t29 -8.5t66.5 -4.5l70 -2l4 -12h-478l7 12l36 2q4 0 11 1q47 4 60 8.5
t13 21.5v741h-360v-745q0 -9 6 -14t28.5 -8.5t65.5 -4.5l64 -2l6 -12h-471z" />
    <glyph glyph-name="Delta" unicode="&#x2206;" horiz-adv-x="909" 
d="M315 -23q-80 0 -139 16t-90 43t-45 55.5t-14 58.5q0 49 32.5 82.5t85.5 33.5q49 0 79 -31.5t30 -74.5q0 -32 -19.5 -61t-64.5 -38q38 -65 147 -65q114 0 160.5 70.5t46.5 246.5v922q0 8 -7 12.5t-33.5 9t-77.5 7.5l-80 6l-7 12h607l-6 -12l-103 -8q-98 -8 -98 -33v-963
q0 -36 -35 -85.5t-90 -95t-131 -77t-148 -31.5z" />
    <glyph glyph-name="radical" unicode="&#x221a;" horiz-adv-x="1558" 
d="M1409 1378v-1337q0 -12 17.5 -16.5t86.5 -10.5l27 -2l6 -12h-434l6 12l35 2q67 6 76 13q8 6 8 18v741h-360v-745q0 -9 6.5 -14t28.5 -8.5t65 -4.5l65 -2l5 -12h-472l7 12l36 2q4 0 11 1q47 4 60 8.5t13 21.5v741h-360v-745q0 -9 6 -14t28.5 -8.5t65.5 -4.5l64 -2l6 -12
h-471l6 12l37 2q68 7 78 13q8 6 8 18v739l-160 2l39 78h119l4 35q16 112 59.5 198.5t105 137.5t131.5 76.5t146 25.5q79 0 126.5 -31t47.5 -85q0 -40 -28.5 -69.5t-71.5 -29.5q-61 0 -99 48.5t-30 115.5l-61 19q-88 -34 -122 -119.5t-34 -241.5v-80h360l5 58
q10 108 52.5 193.5t105.5 137t136.5 78.5t151.5 27q56 0 107 -23zM1237 1147h-6q-65 0 -104 48.5t-31 111.5l-60 16q-92 -34 -125.5 -118t-33.5 -242v-99h360v283z" />
    <glyph glyph-name="approxequal" unicode="&#x2248;" horiz-adv-x="1564" 
d="M47 12l37 2q68 7 78 13q8 6 8 18v739l-160 2l39 78h119l4 35q16 112 59.5 198.5t105 137.5t131.5 76.5t146 25.5q79 0 126.5 -31t47.5 -85q0 -40 -28.5 -69.5t-71.5 -29.5q-60 0 -98.5 51t-30.5 113l-61 19q-88 -34 -122 -119.5t-34 -241.5v-80h360l5 58q10 109 53 194.5
t106.5 137t137 78t151.5 26.5q79 0 127.5 -33t48.5 -88q0 -39 -28.5 -67.5t-69.5 -28.5q-63 0 -103 51t-32 115l-62 16q-90 -34 -124.5 -119t-34.5 -241v-99h370l162 23v-846q0 -12 18.5 -17.5t85.5 -9.5l29 -2l6 -12h-436l6 14l37 2q66 6 75 13q7 6 7 18v739h-360v-745
q0 -9 6.5 -14t28.5 -8.5t65 -4.5l65 -2l5 -12h-472l7 12l36 2q4 0 11 1q47 4 60 8.5t13 21.5v741h-360v-745q0 -9 6 -14t28.5 -8.5t65.5 -4.5l64 -2l6 -12h-471z" />
    <glyph glyph-name="apple" unicode="&#xf8ff;" horiz-adv-x="1552" 
d="M905 346l393 -213l-211 395l422 129l-422 125l211 394l-393 -211l-127 424l-131 -424l-391 211l211 -394l-426 -127l426 -131l-211 -391l391 213l127 -426zM602 236l-383 -140l139 383l-370 176l370 170l-139 387l383 -141l176 371l170 -371l387 141l-141 -387l369 -168
l-369 -174l141 -387l-387 142l-174 -371z" />
    <glyph glyph-name="fi" unicode="&#xfb01;" horiz-adv-x="1032" 
d="M47 12l37 2q68 7 78 13q8 6 8 18v739l-160 2l39 78h119l4 58q10 108 53 194t106.5 137.5t137 78t149.5 26.5q80 0 129.5 -33t49.5 -88q0 -39 -29 -67.5t-72 -28.5q-62 0 -100.5 51t-30.5 115l-63 16q-89 -34 -124.5 -120t-35.5 -240v-99h371l164 23v-846q0 -12 18 -17.5
t84 -9.5l29 -2l4 -12h-437l7 12l36 2q4 0 11 1q47 4 60 8.5t13 21.5v741h-360v-745q0 -9 6 -14t28.5 -8.5t65.5 -4.5l64 -2l6 -12h-471z" />
    <glyph glyph-name="fl" unicode="&#xfb02;" horiz-adv-x="1024" 
d="M877 1378v-1337q0 -12 17 -16.5t85 -10.5l29 -2l4 -12h-437l7 12l34 2q68 7 78 13q8 6 8 18v741h-360v-745q0 -9 6 -14t28.5 -8.5t65.5 -4.5l64 -2l6 -12h-471l6 12l37 2q68 7 78 13q8 6 8 18v739l-160 2l39 78h119l4 58q10 108 52.5 194t106 137.5t136.5 78t149 26.5
q63 0 105 -25zM702 1149q-6 -2 -24 -2q-61 0 -103 49.5t-30 110.5l-45 16q-89 -34 -123.5 -119.5t-34.5 -240.5v-99h360v285z" />
    </font>
</defs>
</svg>
