<?xml version="1.0" standalone="no"?>
<!DOCTYPE svg PUBLIC "-//W3C//DTD SVG 1.1//EN" "http://www.w3.org/Graphics/SVG/1.1/DTD/svg11.dtd" >
<svg xmlns="http://www.w3.org/2000/svg" xmlns:xlink="http://www.w3.org/1999/xlink" version="1.1">
<metadata>
Created by FontForge 20170731 at Fri Jan 15 08:43:48 2021
 By Aleksey,,,
Copyright (c) Joshua Darden &#38; Phil's Fonts, Inc, 2005. All rights reserved.
</metadata>
<defs>
<font id="Freight-BigBook" horiz-adv-x="757" >
  <font-face 
    font-family="Freight"
    font-weight="400"
    font-stretch="normal"
    units-per-em="2048"
    panose-1="2 0 6 3 9 0 0 2 0 4"
    ascent="1638"
    descent="-410"
    x-height="864"
    cap-height="1280"
    bbox="-174 -571 2021 1749"
    underline-thickness="40"
    underline-position="-312"
    unicode-range="U+0020-FB02"
  />
<missing-glyph horiz-adv-x="1024" 
 />
    <glyph glyph-name=".notdef" horiz-adv-x="1024" 
 />
    <glyph glyph-name=".null" horiz-adv-x="0" 
 />
    <glyph glyph-name=".null" horiz-adv-x="0" 
 />
    <glyph glyph-name="nonmarkingreturn" horiz-adv-x="682" 
 />
    <glyph glyph-name="space" unicode=" " horiz-adv-x="266" 
 />
    <glyph glyph-name="exclam" unicode="!" horiz-adv-x="481" 
d="M156 1194q-4 21 -2 41.5t8.5 37.5t26.5 27.5t53 10.5h4q43 0 64 -18t21.5 -44t-1.5 -55l-76 -832q0 -6 -8 -6t-8 6zM244 -31q-46 0 -78.5 32.5t-32.5 74.5t32 71t79 29q46 0 75 -29t29 -71q0 -43 -29 -75t-75 -32z" />
    <glyph glyph-name="quotedbl" unicode="&#x22;" horiz-adv-x="610" 
d="M528 1323h2l93 -43l-328 -455h-6zM268 1309l-28 14l59 -29l-297 -469h-6z" />
    <glyph glyph-name="numbersign" unicode="#" horiz-adv-x="1011" 
d="M614 412l119 452h-334l-118 -452h333zM254 395h-285v17h289l119 452h-285v17h289l108 413h23l-109 -413h334l109 413h22l-108 -413h282v-17h-286l-119 -452h283v-17h-287l-107 -405h-22l106 405h-334l-106 -405h-23z" />
    <glyph glyph-name="dollar" unicode="$" horiz-adv-x="911" 
d="M279 -16q-148 26 -222 53l-20 297h14l82 -172q58 -94 156 -139l151 577l-18 6q-73 24 -128 52t-102.5 68.5t-72.5 98t-25 129.5q0 68 27 131.5t75.5 112.5t122.5 79t160 30q71 0 144 -17l59 226h20l-59 -230q28 -7 88 -29l82 27l18 -311h-12l-135 241q-21 18 -51 35
l-129 -489q68 -24 120 -47.5t104 -58.5t85.5 -75t54.5 -95.5t21 -121.5q0 -76 -34 -147t-92 -125t-142.5 -86.5t-180.5 -32.5q-51 0 -141 11l-84 -318h-20zM614 1257q-67 31 -137 31q-113 0 -186.5 -72t-73.5 -176q0 -54 18.5 -96.5t58 -74.5t82 -54.5t107.5 -48.5zM307 14
q59 -20 135 -20q133 0 221.5 80.5t88.5 210.5q0 115 -73 185.5t-220 123.5q-35 -144 -76 -289q-41 -150 -76 -291z" />
    <glyph glyph-name="percent" unicode="%" horiz-adv-x="1083" 
d="M270 811q104 0 168 68t64 170q0 101 -64.5 171t-167.5 70q-102 0 -165.5 -70t-63.5 -171q0 -102 63 -170t166 -68zM270 791q-115 0 -184.5 75t-69.5 183q0 109 69.5 185.5t184.5 76.5q116 0 186 -76.5t70 -185.5q0 -108 -70 -183t-186 -75zM811 -6q104 0 167.5 67.5
t63.5 169.5q0 101 -64 171.5t-167 70.5q-102 0 -165.5 -70.5t-63.5 -171.5q0 -102 62.5 -169.5t166.5 -67.5zM811 -27q-115 0 -184.5 74.5t-69.5 181.5q0 110 69.5 187.5t184.5 77.5q116 0 186 -77.5t70 -187.5q0 -107 -70 -181.5t-186 -74.5zM965 1311h24l-876 -1340h-25z
" />
    <glyph glyph-name="ampersand" unicode="&#x26;" horiz-adv-x="1433" 
d="M561 850q81 40 111 96.5t30 136.5q0 79 -50 145t-130 66q-76 0 -127 -59.5t-51 -140.5q0 -84 49.5 -138t167.5 -106zM479 92q103 0 186 53.5t191 169.5q-74 156 -189 278t-251 181q-248 -132 -248 -362q0 -140 87.5 -230t223.5 -90zM389 -29q-167 0 -271 107t-104 258
q0 149 101.5 267.5t281.5 178.5q-188 101 -188 248q0 101 98 192t217 91q144 0 227 -69.5t83 -153.5q0 -76 -62 -140.5t-190 -105.5q105 -57 213.5 -171.5t173.5 -230.5q107 137 154.5 213t47.5 113q0 31 -40 51.5t-138 30.5l-22 2l-6 12h495l-6 -12l-24 -2q-84 -7 -130 -41
t-129 -139l-192 -246q109 -213 166 -284.5t133 -71.5q99 0 176 104l14 -8q-4 -4 -11 -13q-32 -39 -53 -61t-58 -54.5t-76.5 -48.5t-81.5 -16q-96 0 -167.5 71t-156.5 257q-51 -62 -88.5 -104t-87 -88t-93 -73t-97.5 -45t-109 -18z" />
    <glyph glyph-name="quotesingle" unicode="'" horiz-adv-x="303" 
d="M268 1309l-28 14l59 -29l-297 -469h-6z" />
    <glyph glyph-name="parenleft" unicode="(" horiz-adv-x="647" 
d="M639 -571q-70 38 -140 97t-142 147.5t-127 191.5t-89.5 237t-34.5 275q0 143 34.5 278t89.5 238t127 191.5t142.5 146.5t139.5 94l10 -16q-68 -38 -137 -97t-139 -146.5t-123.5 -188.5t-87 -232t-33.5 -268q0 -139 33.5 -270.5t87 -232t124 -187.5t139 -145.5
t136.5 -96.5z" />
    <glyph glyph-name="parenright" unicode=")" horiz-adv-x="647" 
d="M-2 -555q68 38 136.5 96.5t139 145.5t124 187.5t87 232t33.5 270.5q0 137 -33.5 268t-87 232t-123.5 188.5t-139 146.5t-137 97l10 16q69 -36 139.5 -94t142.5 -146.5t127 -191.5t89.5 -238t34.5 -278q0 -141 -34.5 -275t-89.5 -237t-127 -191.5t-142 -147.5t-140 -97z
" />
    <glyph glyph-name="asterisk" unicode="*" horiz-adv-x="620" 
d="M303 758l-6 215q0 7 -5 8q-2 1 -3 -2l-125 -172l-125 -14q-7 0 -4 6l49 116l199 68q6 6 0 12l-199 76l-53 113q-3 6 4 6l129 -10l123 -181q2 -7 8 0l2 5l12 223l92 78q7 7 7 0l30 -121l-133 -183q-4 -4 -1.5 -9t7.5 -3l213 66l105 -66q5 0 5 -2t-5 -2l-105 -63l-213 65
q-5 2 -7.5 -3t1.5 -9l127 -182l-26 -117q-6 -6 -9 -2z" />
    <glyph glyph-name="plus" unicode="+" horiz-adv-x="886" 
d="M432 475h-418l4 21h414v417h23v-417h413l4 -21h-415l-2 -426h-23v426z" />
    <glyph glyph-name="comma" unicode="," horiz-adv-x="331" 
d="M45 -213q65 34 110.5 89t45.5 124q0 68 -48.5 96.5t-99.5 -6.5q-22 45 6 90t93 45q64 0 105.5 -42.5t41.5 -114.5q0 -85 -72.5 -168.5t-173.5 -120.5z" />
    <glyph glyph-name="hyphen" unicode="-" horiz-adv-x="573" 
d="M43 520h494l-7 -61h-493z" />
    <glyph glyph-name="period" unicode="." horiz-adv-x="376" 
d="M190 -25q-46 0 -78 31.5t-32 75.5q0 42 32 73t78 31t76.5 -31t30.5 -73q0 -44 -30.5 -75.5t-76.5 -31.5z" />
    <glyph glyph-name="slash" unicode="/" horiz-adv-x="509" 
d="M463 1290h20l-430 -1796h-20z" />
    <glyph glyph-name="zero" unicode="0" horiz-adv-x="1083" 
d="M547 -8q134 0 221.5 138t87.5 337q0 143 -37.5 257t-110.5 180.5t-169 66.5q-132 0 -222 -137t-90 -324q0 -238 83.5 -378t236.5 -140zM541 -23q-205 0 -342.5 141.5t-137.5 360.5q0 218 140 365t344 147q132 0 241.5 -66t172.5 -183t63 -259q0 -221 -137.5 -363.5
t-343.5 -142.5z" />
    <glyph glyph-name="one" unicode="1" horiz-adv-x="659" 
d="M119 14l69 2q51 2 69.5 8.5t18.5 24.5v844l-213 29l7 10l344 49v-936q0 -9 7.5 -13.5t31.5 -8.5t71 -7l62 -2l6 -14h-479z" />
    <glyph glyph-name="two" unicode="2" horiz-adv-x="870" 
d="M31 16q229 186 338 292t152.5 184t43.5 167q0 102 -58 164t-151 62q-90 0 -153 -44t-123 -149l-14 8q153 289 370 289q112 0 188 -71.5t76 -176.5q0 -40 -11.5 -79t-28.5 -74t-54 -79t-70 -79.5t-94.5 -91t-110 -97t-134.5 -112.5v-2l493 -2q54 0 144 235l8 21l14 -2
l-84 -379h-735z" />
    <glyph glyph-name="three" unicode="3" horiz-adv-x="804" 
d="M240 -412q-111 0 -170.5 42.5t-59.5 99.5q0 41 25.5 67.5t66.5 26.5q60 0 93.5 -54.5t19.5 -129.5q22 -9 33 -11q24 -8 61 -8q59 0 114.5 22t100.5 63.5t72 107t27 145.5q0 143 -82.5 231.5t-227.5 88.5q-66 0 -172 -39l-8 12q193 125 235 157q112 85 141 166
q15 40 15 87q0 100 -59.5 160.5t-157.5 60.5q-176 0 -270 -187l-14 9q139 284 364 284q114 0 192 -75.5t78 -180.5q0 -47 -17.5 -90.5t-42 -76t-67 -68t-76 -58t-85.5 -53.5v-2q177 7 279 -93t102 -255q0 -114 -65.5 -217t-184 -167.5t-260.5 -64.5z" />
    <glyph glyph-name="four" unicode="4" horiz-adv-x="950" 
d="M545 133v641h-2l-426 -641h428zM545 20h-527v7l629 942h33v-836l246 -2l-41 -111h-205v-397h-135v397z" />
    <glyph glyph-name="five" unicode="5" horiz-adv-x="772" 
d="M172 -412q-223 0 -223 131q0 37 25.5 62.5t66.5 25.5q51 0 85.5 -51.5t39.5 -117.5q62 -15 90 -15q119 0 214 102.5t95 247.5q0 162 -132 273.5t-353 144.5l147 567h498l-37 -141h-475l-76 -295q260 -43 404.5 -166t144.5 -301q0 -90 -40.5 -175t-108.5 -149.5
t-164 -103.5t-201 -39z" />
    <glyph glyph-name="six" unicode="6" horiz-adv-x="978" 
d="M512 -2q123 0 195.5 95.5t72.5 266.5q0 151 -82.5 255t-208.5 104q-160 0 -266 -129q-5 -12 -9.5 -51t-4.5 -68q0 -134 34.5 -240t104 -169.5t164.5 -63.5zM506 -23q-203 0 -327 142t-124 362q0 163 66 313t181.5 263t277 187.5t346.5 92.5l2 -14q-122 -19 -227 -68.5
t-182.5 -117t-138 -153.5t-98 -175t-57.5 -184l2 -4q70 76 160.5 123t185.5 47q154 0 254.5 -106t100.5 -271q0 -97 -35.5 -180t-94.5 -138.5t-135 -87t-157 -31.5z" />
    <glyph glyph-name="seven" unicode="7" horiz-adv-x="837" 
d="M752 815l-2 10h-420q-133 0 -184 -31.5t-78 -134.5l-7 -18l-16 2l37 315h733l2 -8l-528 -1327h-119z" />
    <glyph glyph-name="eight" unicode="8" horiz-adv-x="940" 
d="M553 711q156 100 156 274q0 80 -31 149.5t-90 113.5t-133 44q-100 0 -165 -73t-65 -170q0 -61 25.5 -112.5t75 -92.5t101.5 -71t126 -62zM489 -6q126 0 200.5 72.5t74.5 185.5q0 65 -30 122.5t-86 103.5t-114.5 80t-136.5 69q-94 -42 -149 -126t-55 -192
q0 -132 81.5 -223.5t214.5 -91.5zM471 -29q-177 0 -295.5 96t-118.5 242q0 110 89.5 199.5t232.5 126.5v4q-65 35 -109 64t-85 68t-61 85.5t-20 101.5q0 86 47 167t133.5 134.5t188.5 53.5q156 0 262.5 -94t106.5 -234q0 -84 -74.5 -159.5t-196.5 -120.5v-3q72 -36 123 -69
t97 -77t69 -99t23 -121q0 -147 -121.5 -256t-290.5 -109z" />
    <glyph glyph-name="nine" unicode="9" horiz-adv-x="978" 
d="M487 256q163 0 267 127q16 48 16 121q0 134 -35 240.5t-105 170.5t-165 64q-120 0 -194 -96.5t-74 -264.5q0 -152 82 -257t208 -105zM49 -346q122 21 227.5 70.5t182.5 116.5t137.5 151.5t98 173t57.5 184.5l-2 2q-71 -77 -160 -124.5t-184 -47.5q-154 0 -254.5 109
t-100.5 276q0 127 61 228t156.5 153.5t204.5 52.5q199 0 324 -144t125 -363q0 -163 -66 -311.5t-181.5 -261.5t-277 -187t-346.5 -92z" />
    <glyph glyph-name="colon" unicode=":" horiz-adv-x="372" 
d="M190 598q-46 0 -78 33t-32 76q0 42 31.5 72t78.5 30q46 0 76.5 -30t30.5 -72q0 -43 -30.5 -76t-76.5 -33zM190 -25q-46 0 -78 31.5t-32 73.5t31.5 72t78.5 30q46 0 76.5 -30t30.5 -72t-30.5 -73.5t-76.5 -31.5z" />
    <glyph glyph-name="semicolon" unicode=";" horiz-adv-x="331" 
d="M174 598q-46 0 -78.5 32.5t-32.5 74.5t32 73t79 31q46 0 76.5 -31t30.5 -73q0 -43 -30.5 -75t-76.5 -32zM45 -211q65 34 110.5 88t45.5 123q0 68 -48.5 96.5t-99.5 -6.5q-22 45 6 89t93 44q64 0 105.5 -42.5t41.5 -114.5q0 -83 -72 -165.5t-174 -119.5z" />
    <glyph glyph-name="less" unicode="&#x3c;" horiz-adv-x="860" 
d="M10 471v23l815 401l11 -23l-793 -387v-4l793 -391l-11 -22z" />
    <glyph glyph-name="equal" unicode="=" horiz-adv-x="876" 
d="M31 672h815l-6 -21h-803zM37 313h803l6 -20h-815z" />
    <glyph glyph-name="greater" unicode="&#x3e;" horiz-adv-x="860" 
d="M25 90l792 391v4l-792 387l10 23l815 -401v-23l-815 -403z" />
    <glyph glyph-name="question" unicode="?" horiz-adv-x="612" 
d="M285 365q-59 48 -112.5 119.5t-53.5 117.5q0 79 40.5 117t168.5 96q122 53 164.5 84t42.5 76q0 33 -16 65.5t-50 64.5t-98.5 51.5t-149.5 19.5q-75 0 -149 -21q-21 27 -21 86q0 35 30.5 52.5t106.5 17.5q160 0 265.5 -114t105.5 -265q0 -54 -8 -87.5t-34 -61.5t-57 -46
t-95 -49q-101 -45 -129 -66q-41 -33 -41 -79q0 -72 106 -178h-16zM293 -29q-46 0 -77.5 32.5t-31.5 74.5t31 72t78 30q46 0 76 -30t30 -72q0 -43 -30 -75t-76 -32z" />
    <glyph glyph-name="at" unicode="@" horiz-adv-x="1568" 
d="M596 227q56 0 142 98t173 259q54 106 54 139q0 49 -49.5 99t-106.5 50q-53 0 -100 -47q-78 -74 -142.5 -213t-64.5 -250q0 -60 26.5 -97.5t67.5 -37.5zM795 -211q-162 0 -300.5 52t-236 143.5t-152.5 221.5t-55 283q0 167 63.5 320t170 263.5t253.5 176.5t308 66
q192 0 345.5 -80.5t240 -225t86.5 -325.5q0 -110 -41.5 -215t-107 -180t-150.5 -120.5t-170 -45.5q-101 0 -155 47t-54 125q0 89 49 190h-4q-129 -187 -207.5 -268.5t-151.5 -81.5q-68 0 -116 50t-48 122q0 69 29.5 146t79 148t101 129.5t108.5 111.5q114 106 211 106
q47 0 74.5 -49t25.5 -131h2l78 233l131 -8l-143 -366l-68 -176q-40 -98 -36 -157.5t40 -84.5t109 -25q69 0 139 38.5t126.5 104t92 160t35.5 197.5q0 264 -184.5 438t-466.5 174q-157 0 -300.5 -64.5t-247 -173.5t-165 -258t-61.5 -311q0 -197 91.5 -352.5t256.5 -242.5
t375 -87q215 0 399 111.5t262 278.5l19 -9q-84 -172 -270.5 -285.5t-409.5 -113.5z" />
    <glyph glyph-name="A" unicode="A" horiz-adv-x="1280" 
d="M377 561l-98 -276q-17 -50 -25.5 -76t-16 -58t-7.5 -46.5t4.5 -32t15.5 -24t30.5 -14.5t44 -11.5t62.5 -6.5l43 -4l6 -12h-444l6 12l33 4q35 4 55 9.5t43.5 23t38 40t38.5 73.5t46 109.5t59 160.5l254 707l-20 57q64 23 104 107h19l372 -1088q40 -122 70.5 -158.5
t99.5 -40.5l58 -4l6 -12h-537l6 12l66 4q64 5 84.5 36.5t-0.5 103.5l-135 405h-381zM750 582l-86 262q-53 162 -89 262h-2l-188 -524h365z" />
    <glyph glyph-name="B" unicode="B" horiz-adv-x="1150" 
d="M492 717q161 4 245 77t84 193q0 268 -323 268h-107v-540zM535 18q4 1 9.5 2t9.5 1.5t7 1.5q9 1 20 2h-1q81 4 144 32t99.5 73t55 99t18.5 115q0 152 -105.5 251t-271.5 99q-96 0 -129 -6v-633zM55 12l74 8q98 8 98 33v1180q0 8 -7 12.5t-33 8.5t-78 8l-52 6l-6 12h486
q237 0 352 -74t115 -198q0 -236 -388 -293v-6q221 -12 340 -110.5t119 -244.5q0 -162 -139.5 -258t-392.5 -96h-494z" />
    <glyph glyph-name="C" unicode="C" horiz-adv-x="1374" 
d="M766 -31q-154 0 -285.5 48t-225.5 134t-147 211t-53 273q0 195 90 349t255 241.5t378 87.5q96 0 189 -27t161 -63l111 53l16 -377h-12l-170 311q-44 34 -123.5 57t-173.5 23q-126 0 -229 -50t-170.5 -137t-104 -203t-36.5 -249q0 -293 150.5 -476t385.5 -183
q71 0 130.5 13.5t105.5 38t87.5 63.5t74 83.5t67.5 104.5l51 86h12l-73 -311l-70 -15q-63 -33 -175.5 -59.5t-215.5 -26.5z" />
    <glyph glyph-name="D" unicode="D" horiz-adv-x="1333" 
d="M545 23q137 2 246 52.5t176.5 134t103 189t35.5 222.5q0 134 -35 248t-104 203t-182.5 139.5t-260.5 50.5h-133v-1203zM55 12l74 8q98 8 98 33v1180q0 8 -7 12.5t-33 8.5t-78 8l-52 6l-6 12l504 6q347 4 537 -164.5t190 -453.5q0 -144 -53 -266.5t-152 -212t-248 -139.5
t-333 -50h-447z" />
    <glyph glyph-name="E" unicode="E" horiz-adv-x="1181" 
d="M51 12l74 8q102 8 102 33v1180q0 8 -7 12.5t-33 8.5t-78 8l-56 6l-6 12h946l39 -365h-10l-12 29q-31 87 -58.5 140.5t-68 97t-95.5 62t-133 18.5h-264v-582h166q74 4 115 11t73 25.5t48.5 48t31.5 81.5l11 28l12 -2l-41 -413l-12 2l-2 26q-3 46 -11 73t-22 46.5t-45 29
t-68.5 13.5t-103.5 6l-152 4v-630l297 -9q71 2 128.5 20.5t96.5 46.5t73.5 75t56.5 90t49 108l12 29l12 -2l-84 -387h-987z" />
    <glyph glyph-name="F" unicode="F" horiz-adv-x="1112" 
d="M51 12l82 8q94 8 94 33v1180q0 8 -6 12t-31 8.5t-77 8.5l-60 6l-6 12h957l40 -373l-12 -2l-10 27q-21 60 -36 97t-38.5 79.5t-49 67t-62 46.5t-85 31t-110.5 9h-250v-594h146q74 4 115 11t73 25.5t48.5 48t31.5 81.5l10 26l12 -2l-41 -412l-12 3l-2 26q-3 46 -11 73
t-22 46.5t-45 29t-68.5 13.5t-103.5 6l-131 4v-598q0 -8 7 -12.5t34 -9t78 -7.5l100 -6l6 -14h-571z" />
    <glyph glyph-name="G" unicode="G" horiz-adv-x="1404" 
d="M758 -29q-203 0 -362.5 81t-250 231.5t-90.5 345.5t90 350.5t255.5 244.5t377.5 89q98 0 190 -25.5t156 -60.5l105 49l8 -373h-12l-156 307q-45 35 -122 57.5t-175 22.5q-164 0 -287.5 -87.5t-186 -232.5t-62.5 -325q0 -144 42 -266.5t115 -206.5t172.5 -131t212.5 -47
q80 0 158 20t119 52v444q0 8 -9 12.5t-37 9t-79 7.5l-80 6l-6 12h547l-7 -12l-73 -8q-99 -8 -99 -33v-412l115 12l2 -8q-139 -50 -297 -87.5t-274 -37.5z" />
    <glyph glyph-name="H" unicode="H" horiz-adv-x="1472" 
d="M55 12l74 8q98 8 98 33v1180q0 8 -7 12.5t-33 8.5t-78 8l-52 6l-6 12h527l-7 -12l-82 -8q-98 -8 -98 -33v-565h690v571q0 8 -7 12.5t-33 8.5t-78 8l-60 6l-6 12h526l-6 -12l-74 -8q-98 -8 -98 -33v-1180q0 -8 7.5 -12.5t33.5 -8.5t78 -8l51 -6l6 -12h-526l6 12l82 8
q98 8 98 33v588h-690v-594q0 -8 7.5 -12.5t33.5 -8.5t78 -8l59 -6l6 -12h-526z" />
    <glyph glyph-name="I" unicode="I" horiz-adv-x="659" 
d="M68 12l82 8q98 8 98 33v1180q0 8 -7.5 12.5t-33.5 8.5t-78 8l-59 6l-7 12h535l-6 -12l-82 -8q-98 -8 -98 -33v-1180q0 -8 7 -12.5t33 -8.5t78 -8l60 -6l6 -12h-535z" />
    <glyph glyph-name="J" unicode="J" horiz-adv-x="618" 
d="M20 -340q-68 0 -110.5 31t-42.5 82q0 44 30 74t76 30q49 0 78 -33t25 -78t-41 -77q88 -11 140 83t52 281v1180q0 8 -7 12.5t-33.5 9t-77.5 7.5l-60 6l-6 12h535l-7 -12l-82 -8q-98 -8 -98 -33v-1207q0 -31 -32.5 -90t-82.5 -119.5t-120.5 -105.5t-135.5 -45z" />
    <glyph glyph-name="K" unicode="K" horiz-adv-x="1347" 
d="M55 12l78 8q94 8 94 33v1180q0 8 -6 12t-31 8.5t-77 8.5l-56 6l-6 12h537l-6 -12l-93 -8q-98 -8 -98 -33v-684l336 340q210 214 251 281q35 58 -3 78q-26 13 -105 20l-79 6l-5 12h500l-6 -12l-25 -2q-104 -11 -153 -45.5t-240 -230.5q-24 -25 -38.5 -39.5t-38.5 -39.5
t-46 -47l-30 -30l399 -660q48 -78 70.5 -105.5t43.5 -37t70 -15.5l47 -4l7 -12h-523l6 12l60 4q36 2 54 12.5t20 32.5t-9 51.5t-36 73.5l-318 537l-209 -209v-467q0 -8 7.5 -12.5t33.5 -8.5t78 -8l70 -6l6 -12h-537z" />
    <glyph glyph-name="L" unicode="L" horiz-adv-x="1110" 
d="M55 12l78 8q94 8 94 33v1180q0 8 -6 12t-31 8.5t-77 8.5l-56 6l-6 12h567l-6 -12l-123 -8q-98 -8 -98 -33v-1198l242 -11q45 0 83.5 6t70 20.5t56.5 30t48 43t39.5 50t36 61.5t31.5 67t32 75l12 26h13l-80 -397h-926z" />
    <glyph glyph-name="M" unicode="M" horiz-adv-x="1669" 
d="M47 12l47 2q83 6 117.5 23.5t34.5 48.5l28 1147q-30 20 -131 31l-55 4l-6 12h358l406 -1059h2l424 1059h352l-6 -12l-102 -8q-91 -8 -91 -33l21 -1180q0 -11 21 -16.5t94 -12.5l59 -6l6 -12h-530l6 12l98 8q84 7 84 33l-22 1139h-2l-478 -1192h-14l-440 1139
q-10 31 -37 69l-21 -1126q0 -26 48.5 -45t150.5 -23l37 -2l6 -12h-471z" />
    <glyph glyph-name="N" unicode="N" horiz-adv-x="1400" 
d="M264 1147h-2l2 -1063q0 -54 170 -68l39 -4l6 -12h-430l6 12l41 4q68 6 107 24.5t39 47.5l4 1077q-22 23 -40 38.5t-59.5 35.5t-91.5 27l-26 4l-6 12h344l804 -1026h3l-3 942q0 47 -170 66l-38 4l-7 12h430l-6 -12l-41 -4q-145 -13 -145 -70l-4 -1204h-14z" />
    <glyph glyph-name="O" unicode="O" horiz-adv-x="1464" 
d="M737 -6q227 0 359.5 174t132.5 473q0 188 -65 336.5t-179.5 230.5t-257.5 82q-225 0 -358 -177.5t-133 -477.5q0 -284 140 -462.5t361 -178.5zM729 -29q-191 0 -344.5 84t-241.5 236.5t-88 345.5q0 129 56 253t147.5 216.5t217 148.5t257.5 56q192 0 346 -84.5
t242 -238.5t88 -349q0 -130 -56 -253t-148 -214t-217.5 -146t-258.5 -55z" />
    <glyph glyph-name="P" unicode="P" horiz-adv-x="1103" 
d="M569 643q148 0 230 80t82 227q0 158 -80 237t-264 75l-146 -2v-594q71 -23 178 -23zM27 12l102 8q98 8 98 33v1180q0 8 -7 12.5t-33 8.5t-78 8l-80 6l-6 12h569q230 0 346.5 -78.5t116.5 -226.5q0 -157 -135.5 -255.5t-350.5 -98.5q-78 0 -178 14v-588q0 -8 7 -12.5
t34 -9t78 -7.5l100 -6l6 -12h-596z" />
    <glyph glyph-name="Q" unicode="Q" horiz-adv-x="1464" 
d="M737 -6q227 0 359.5 174t132.5 473q0 282 -142.5 465.5t-359.5 183.5q-224 0 -357.5 -178t-133.5 -477q0 -284 140 -462.5t361 -178.5zM1276 -367q-70 0 -127.5 6.5t-124.5 28t-119 57t-101.5 98.5t-82.5 148q-190 3 -342 88.5t-238 236.5t-86 341q0 129 56 253
t147.5 216.5t217 148.5t257.5 56q192 0 346 -85t242 -239t88 -348q0 -217 -142 -397t-354 -242q48 -117 108 -189t132 -103.5t161 -38t195 8.5l4 -12q-39 -12 -113.5 -22.5t-123.5 -10.5z" />
    <glyph glyph-name="R" unicode="R" horiz-adv-x="1280" 
d="M575 659q136 0 215.5 78.5t79.5 218.5q0 146 -97 228.5t-279 75.5l-103 -5v-563q95 -33 184 -33zM27 12l102 8q98 14 98 33v1180q0 8 -7 12.5t-33 8.5t-78 8l-80 6l-6 12h526q241 0 368 -84t127 -244q0 -114 -90.5 -201.5t-228.5 -117.5l299 -457q61 -93 105.5 -125
t117.5 -37l27 -2l8 -12h-336l-14 27l-377 606q-58 6 -164 41v-627q0 -14 104 -27q3 -1 5 -1t5 -0.5t5 -0.5l80 -6l6 -12h-576z" />
    <glyph glyph-name="S" unicode="S" horiz-adv-x="991" 
d="M479 -29q-174 0 -383 72l-20 291h12l43 -101q53 -127 138.5 -184t211.5 -57q137 0 223.5 84.5t86.5 214.5q0 122 -79 195t-241 126q-74 24 -130 52t-105.5 69t-76 98.5t-26.5 129.5q0 144 106 246t279 102q124 0 252 -47l82 24l18 -313h-12l-135 246q-95 71 -207 71
q-114 0 -187 -68t-73 -173q0 -57 21 -101.5t65 -77.5t92 -56t119 -48q86 -30 148 -62t116.5 -78t82.5 -109.5t28 -143.5q0 -160 -129 -281t-320 -121z" />
    <glyph glyph-name="T" unicode="T" horiz-adv-x="1294" 
d="M365 12l102 8q98 8 98 33v1209h-131q-194 -12 -342 -295l-14 -27h-15l84 340h1018l62 -340h-13l-12 27q-68 154 -146 221.5t-198 73.5h-129v-1215q0 -8 7.5 -12.5t33.5 -8.5t78 -8l80 -6l6 -12h-576z" />
    <glyph glyph-name="U" unicode="U" horiz-adv-x="1363" 
d="M717 -29q-265 0 -382.5 109t-117.5 360v793q0 8 -7 12.5t-34 9.5t-78 9l-80 6l-6 12h576l-6 -12l-103 -8q-98 -8 -98 -35v-760q0 -223 96 -325.5t303 -102.5q383 0 383 471l-2 688q0 47 -184 68l-39 4l-6 12h440l-6 -12l-41 -4q-141 -13 -141 -72l-2 -690
q-3 -533 -465 -533z" />
    <glyph glyph-name="V" unicode="V" horiz-adv-x="1292" 
d="M227 1067q-4 9 -10 26q-43 110 -63 135q-24 31 -79 36q-9 1 -20 2l-59 4l-6 12h532l-6 -12l-72 -2q-37 -2 -56.5 -7.5t-31.5 -18.5t-10.5 -35.5t14.5 -59.5l361 -948h2l293 798q14 40 21 61t15 50t10 41.5t3 31.5t-3 26t-12.5 18t-20 15t-30 10t-39.5 9t-51 7l-43 4
l-6 12h443l-7 -12l-32 -4q-34 -5 -52.5 -9.5t-41 -19t-36.5 -34.5t-35 -61.5t-40.5 -92.5t-50.5 -136l-346 -942h-15z" />
    <glyph glyph-name="W" unicode="W" horiz-adv-x="2025" 
d="M229 1067q-46 125 -74.5 159t-101.5 38l-59 4l-4 12h532l-6 -12l-65 -2q-34 -1 -54 -6t-32.5 -17.5t-11.5 -36t14 -59.5l350 -961h4l295 744l-51 137q-46 122 -76.5 157.5t-104.5 39.5l-57 4l-6 12h530l-6 -12l-63 -2q-36 -2 -56 -7.5t-31.5 -18.5t-9.5 -35t15 -58
l352 -957h4l285 795q22 58 33.5 95t15 69.5t-3.5 50.5t-27.5 32.5t-51 21t-79.5 10.5l-43 4l-6 12h442l-6 -12l-33 -4q-33 -4 -52 -9t-40 -21t-33.5 -34t-32.5 -62.5t-37 -91t-48 -133.5l-342 -942h-19l-350 934h-2l-369 -934h-20z" />
    <glyph glyph-name="X" unicode="X" horiz-adv-x="1298" 
d="M-10 12l37 2q52 4 84.5 14t70.5 43.5t72 77t98 134.5l228 335l-297 447l-27 40.5t-24 36.5t-20 29.5t-19 25.5t-16.5 20t-17 17.5t-16.5 11.5t-19 9.5t-20 5t-24 3.5l-57 4l-9 12h539l-4 -10l-80 -2q-49 0 -65.5 -15t-5 -53t56.5 -110l227 -349h2l182 273q34 54 54 90.5
t27 63.5t4.5 43t-21 26.5t-41 15.5t-62.5 9l-57 6l-6 12h483l-6 -12l-37 -2q-68 -3 -108 -21.5t-85.5 -70t-121.5 -166.5l-193 -285q38 -57 58 -88q19 -30 64 -97t65 -98q131 -200 188 -284q7 -10 22 -33.5t20 -29.5t16.5 -22t17 -20t16.5 -13t20.5 -12t22.5 -6t29 -4l55 -4
l6 -12h-534l6 12l78 2q68 1 80 29t-27 88l-307 467h-2q-54 -78 -109 -160q-49 -70 -108 -162q-52 -79 -74 -126t-14.5 -75t34.5 -39t84 -18l58 -6l6 -12h-483z" />
    <glyph glyph-name="Y" unicode="Y" horiz-adv-x="1249" 
d="M342 12l102 8q99 8 99 33v522l-303 535q-47 86 -83 118t-102 36l-57 4l-6 12h540l-6 -12l-61 -2q-80 -4 -88.5 -34t37.5 -112l278 -493h4l193 364q29 57 45 92t25 67.5t5.5 50t-18 31.5t-40.5 21t-68 11l-52 4l-6 12h451l-6 -12l-45 -4q-42 -2 -67.5 -10.5t-56.5 -37
t-62 -78.5t-76 -139l-211 -395v-557q0 -8 7 -12.5t33 -8.5t78 -8l80 -6l6 -12h-575z" />
    <glyph glyph-name="Z" unicode="Z" horiz-adv-x="1165" 
d="M68 6l813 1249v7h-336q-74 0 -134 -16.5t-102 -43t-76.5 -70t-57.5 -89t-46 -107.5l-10 -25h-13l44 369h927v-8l-811 -1245v-4l365 -5q83 0 147.5 17.5t108 46t80 78.5t59.5 100t51 127l13 29h16l-66 -416h-972v6z" />
    <glyph glyph-name="bracketleft" unicode="[" horiz-adv-x="626" 
d="M109 1280h499v-20h-477v-1745h477v-21h-499v1786z" />
    <glyph glyph-name="backslash" unicode="\" horiz-adv-x="475" 
d="M-12 1290h20l430 -1796h-20z" />
    <glyph glyph-name="bracketright" unicode="]" horiz-adv-x="626" 
d="M18 -485h478v1745h-478v20h500v-1786h-500v21z" />
    <glyph glyph-name="asciicircum" unicode="^" 
d="M377 1366h4l274 -383h-8l-266 229h-4l-266 -229h-9z" />
    <glyph glyph-name="underscore" unicode="_" horiz-adv-x="913" 
d="M45 2h823l6 -59h-835z" />
    <glyph glyph-name="grave" unicode="`" 
d="M80 1389h162l223 -383h-8z" />
    <glyph glyph-name="a" unicode="a" horiz-adv-x="813" 
d="M340 66q100 0 184 84l13 325q-106 -26 -175 -55.5t-103 -63.5t-46 -65.5t-12 -73.5q0 -68 39 -109.5t100 -41.5zM651 -20q-54 0 -89.5 38.5t-39.5 104.5v2q-73 -68 -135 -105.5t-127 -37.5q-90 0 -147.5 55t-57.5 135q0 70 39.5 123.5t147.5 104.5t295 96l2 90
q4 74 -11.5 127t-45 81.5t-64.5 41t-78 12.5q-58 0 -114 -27.5t-56 -48.5q0 -5 13 -19t25.5 -36.5t12.5 -46.5q0 -32 -24 -56t-64 -24q-39 0 -63.5 22t-24.5 58q0 50 65 103.5t157 87.5t169 34q67 0 112 -13.5t78 -46.5t46.5 -92t9.5 -147l-20 -442q-8 -93 67 -93
q36 0 92 56l10 -6q-2 -3 -23.5 -29t-32.5 -37t-33 -30t-44.5 -27t-46.5 -8z" />
    <glyph glyph-name="b" unicode="b" horiz-adv-x="962" 
d="M500 -2q121 0 191.5 116.5t70.5 293.5q0 164 -80.5 274.5t-208.5 110.5q-121 0 -237 -121v-486q37 -81 109 -134.5t155 -53.5zM94 1180q0 62 -15.5 84.5t-68.5 29.5l-47 9l2 10l271 67v-673l4 -5q76 85 152.5 133t168.5 48q156 0 259.5 -118.5t103.5 -305.5
q0 -110 -40 -204t-104.5 -154t-143 -94t-157.5 -34q-144 0 -274 72h-2l-97 -84h-12v1219z" />
    <glyph glyph-name="c" unicode="c" horiz-adv-x="825" 
d="M444 -27q-171 0 -288 128t-117 313q0 132 57 242t162 174.5t236 64.5q127 0 210.5 -51.5t83.5 -136.5q0 -41 -28 -70t-64 -29q-40 0 -66 25t-26 61q0 29 10 51t20.5 34.5t10.5 17.5q0 23 -47 52.5t-100 29.5q-125 0 -214 -114t-89 -286q0 -180 91.5 -291.5t229.5 -111.5
q95 0 158 36.5t119 127.5l16 -7q-71 -128 -158.5 -194t-206.5 -66z" />
    <glyph glyph-name="d" unicode="d" horiz-adv-x="987" 
d="M489 66q129 0 236 120v488q-37 81 -107.5 133.5t-152.5 52.5q-121 0 -192.5 -113.5t-71.5 -291.5q0 -164 80 -276.5t208 -112.5zM725 152l-4 2q-75 -86 -151.5 -133.5t-168.5 -47.5q-155 0 -258.5 120.5t-103.5 309.5q0 110 40 203t105 152t145.5 92t164.5 33
q127 0 229 -54h2v351q0 63 -15 85.5t-67 28.5l-68 9l3 10l290 67v-1267q0 -36 10 -49t42 -17l79 -12l-2 -10l-270 -58z" />
    <glyph glyph-name="e" unicode="e" horiz-adv-x="845" 
d="M635 610q0 113 -45 188.5t-133 75.5q-83 0 -154 -78.5t-96 -189.5zM446 -27q-173 0 -290 128t-117 313q0 131 53 240.5t152.5 175t226.5 65.5q151 0 237.5 -80t86.5 -201l-4 -28l-588 2q-8 -41 -8 -111q0 -179 92 -290t229 -111q96 0 161 36.5t124 127.5l14 -7
q-73 -128 -161.5 -194t-207.5 -66z" />
    <glyph glyph-name="f" unicode="f" horiz-adv-x="565" 
d="M49 12l35 2q67 6 76 11q10 5 10 18v748l-150 2l29 71h119l4 54q10 110 47 196.5t90.5 137.5t114.5 77.5t125 26.5q63 0 95 -26t32 -66q0 -31 -26 -55.5t-62 -24.5q-41 0 -73.5 32t-43.5 80l-4 15l-27 4q-73 -27 -100 -114.5t-27 -242.5v-94h224l-29 -73h-195v-750
q0 -9 5 -14t27 -8.5t65 -4.5l67 -2l6 -12h-440z" />
    <glyph glyph-name="g" unicode="g" horiz-adv-x="909" 
d="M420 315q83 0 138.5 73t55.5 190q0 137 -47.5 216.5t-146.5 79.5q-81 0 -134 -75t-53 -195q0 -133 51 -211t136 -78zM442 -471q137 0 236.5 77t99.5 185q0 174 -262 182q-109 0 -227 -12q-59 -23 -109.5 -83t-50.5 -128q0 -97 87 -159t226 -62zM348 -508
q-154 0 -243 58.5t-89 162.5q0 55 41.5 108t95 87.5t111.5 56.5v4q-107 11 -167 48.5t-60 97.5q0 74 73.5 134t161.5 73v4q-78 26 -133 96.5t-55 161.5q0 130 98 218.5t240 88.5q128 0 223 -76l240 45l-17 -88l-192 19l-2 -7q37 -34 61.5 -83t24.5 -101q0 -129 -99.5 -215
t-246.5 -86q-61 0 -115 14q-61 -11 -98 -42.5t-37 -73.5q0 -49 40 -68.5t132 -19.5q25 0 107.5 3t121.5 3q142 0 221.5 -60t79.5 -166q0 -169 -146 -283t-372 -114z" />
    <glyph glyph-name="h" unicode="h" horiz-adv-x="985" 
d="M16 12l35 2q67 6 76 13q8 6 8 18v1133q0 63 -14.5 84.5t-67.5 31.5l-47 9l2 8l271 67v-665l2 -4q10 8 52 43t66 52t65 42t81.5 36t83.5 11q94 0 151 -57q66 -69 66 -197v-596q0 -7 3.5 -11t27.5 -9.5t71 -8.5l29 -2l6 -12h-410l7 12l36 2q52 4 69 11t17 20v565
q0 181 -178 181q-133 0 -245 -107v-266v-377q0 -12 18.5 -17.5t85.5 -9.5l29 -2l6 -12h-408z" />
    <glyph glyph-name="i" unicode="i" horiz-adv-x="446" 
d="M209 1075q-49 0 -76 32.5t-27 68.5q0 37 27 69.5t76 32.5t74.5 -32.5t25.5 -69.5t-25.5 -69t-74.5 -32zM33 12l37 2q68 7 78 13q8 6 8 18v596q0 94 -15 123.5t-69 36.5l-47 8l2 8l272 72v-848q0 -12 18 -17.5t84 -9.5l29 -2l6 -12h-409z" />
    <glyph glyph-name="j" unicode="j" horiz-adv-x="417" 
d="M197 1075q-49 0 -76 32.5t-27 68.5q0 37 27 69.5t76 32.5t74.5 -32.5t25.5 -69.5t-25.5 -69t-74.5 -32zM-33 -510q-69 0 -105 28t-36 72q0 37 26 60.5t62 23.5q44 0 79 -37t48 -100q102 22 102 270v834q0 94 -15 123.5t-69 36.5l-47 8l2 8l273 72v-946q0 -108 -46.5 -214
t-121.5 -172.5t-152 -66.5z" />
    <glyph glyph-name="k" unicode="k" horiz-adv-x="935" 
d="M16 12l35 2q67 6 76 13q8 6 8 18v1133q0 64 -15 86.5t-67 29.5l-47 9l2 8l271 67v-981l202 199q146 146 146 197q0 48 -109 57l-26 2l-5 12h387l-6 -12l-43 -4q-23 -1 -45 -9.5t-38.5 -18t-44.5 -34.5t-45.5 -42.5t-60 -61t-71.5 -72.5l-20 -20q-3 -3 -6.5 -7.5
t-6.5 -7.5l-6 -6l256 -422q53 -85 77.5 -105.5t88.5 -27.5l23 -2l6 -12h-285l-10 25l-262 440l-96 -92v-332q0 -12 18 -17.5t84 -9.5l29 -2l6 -12h-406z" />
    <glyph glyph-name="l" unicode="l" horiz-adv-x="436" 
d="M25 12l34 2q68 7 78 13q8 6 8 18v1088q0 94 -14.5 121.5t-69.5 39.5l-45 9l2 8l271 67v-1337q0 -13 17.5 -18t84.5 -9l29 -2l6 -12h-406z" />
    <glyph glyph-name="m" unicode="m" horiz-adv-x="1503" 
d="M33 12l37 2q68 7 78 13q8 6 8 18v594q0 95 -15 125t-69 37l-47 8l2 8l274 72l-8 -172l4 -2l46.5 46.5t51 44t65.5 46t68.5 28t81.5 13.5q98 0 160 -62q45 -48 53 -118l2 -2q33 36 61 62t70 56.5t89.5 47t97.5 16.5q98 0 160 -62q63 -63 63 -198v-590q0 -7 3.5 -11
t26.5 -8.5t72 -9.5l27 -2l6 -12h-407l6 12l37 2q51 4 67.5 11t16.5 20v565q0 94 -40.5 137.5t-131.5 43.5q-66 0 -129.5 -31t-83.5 -72l-5 -10v-635q0 -7 4 -11t27 -8.5t72 -9.5l29 -2l6 -12h-406l6 12l37 2q51 4 66.5 11t15.5 20v565q0 93 -40 137t-130 44q-115 0 -219 -97
v-268v-385q0 -12 18 -17.5t84 -9.5l29 -2l6 -12h-409z" />
    <glyph glyph-name="n" unicode="n" horiz-adv-x="1005" 
d="M33 12l37 2q68 7 78 13q8 6 8 18v594q0 95 -15 125t-69 37l-47 8l2 8l274 72l-6 -176l6 -4q1 1 31 26.5t37.5 31.5t37 29t44 31.5t43.5 24.5t50 22.5t49 12.5t54 6q100 0 154 -57q65 -65 65 -199v-594q0 -7 4 -11t27 -8.5t72 -9.5l28 -2l7 -12h-408l6 12l37 2
q51 4 67.5 11t16.5 20v565q0 181 -180 181q-132 0 -244 -107v-266v-377q0 -12 18 -17.5t84 -9.5l29 -2l6 -12h-409z" />
    <glyph glyph-name="o" unicode="o" horiz-adv-x="993" 
d="M500 -10q124 0 203 126.5t79 303.5q0 271 -112 383q-83 76 -176 76q-127 0 -206 -124.5t-79 -297.5q0 -279 117 -396q71 -71 174 -71zM498 -27q-196 0 -327.5 131.5t-131.5 325.5q0 127 59.5 233.5t165.5 169t234 62.5q195 0 325.5 -131.5t130.5 -325.5
q0 -197 -131.5 -331t-324.5 -134z" />
    <glyph glyph-name="p" unicode="p" horiz-adv-x="991" 
d="M530 -2q120 0 190.5 116.5t70.5 293.5q0 165 -79 275t-210 110q-128 0 -236 -121v-494q37 -76 109 -128t155 -52zM0 -506l37 2q69 7 79 13q7 6 7 16v1116q0 94 -15 123.5t-69 36.5l-47 8l2 8l274 72l-2 -182l4 -5q155 181 320 181q156 0 259 -118.5t103 -305.5
q0 -110 -40 -204t-104 -154t-141.5 -94t-156.5 -34q-128 0 -242 54h-2v-506q0 -8 6 -12.5t29.5 -8t67.5 -4.5l69 -2l6 -12h-450z" />
    <glyph glyph-name="q" unicode="q" horiz-adv-x="978" 
d="M489 66q129 0 236 120v482q-37 83 -107.5 137.5t-152.5 54.5q-121 0 -192.5 -112t-71.5 -289q0 -164 80.5 -278.5t207.5 -114.5zM555 -506l68 2q44 1 67 4.5t29 8t6 12.5v631l-4 2q-75 -86 -151.5 -133.5t-168.5 -47.5q-155 0 -258.5 120.5t-103.5 309.5q0 110 40 203
t105 152t145.5 92t164.5 33q148 0 268 -76h2l92 98h12v-1380q0 -15 14.5 -19.5t56.5 -8.5h5t5 -0.5t5 -0.5l37 -2l6 -12h-448z" />
    <glyph glyph-name="r" unicode="r" horiz-adv-x="708" 
d="M33 12l37 2q68 7 78 13q8 6 8 18v594q0 95 -15 125t-69 37l-47 8l2 8l274 72l-6 -340h2q89 344 274 344q53 0 87 -31t34 -74q0 -40 -26.5 -71t-71.5 -31q-42 0 -72.5 31.5t-34.5 93.5q-64 -13 -103.5 -83.5t-84.5 -235.5v-451q0 -9 5 -14t26.5 -8.5t64.5 -4.5l66 -2
l6 -12h-440z" />
    <glyph glyph-name="s" unicode="s" horiz-adv-x="710" 
d="M328 -27q-145 0 -260 47l-23 242l12 2l43 -92q41 -86 103.5 -133t136.5 -47q91 0 146 50.5t55 129.5q0 81 -56 130t-172 87q-49 16 -86 34.5t-74 47.5t-57 72.5t-20 97.5q0 109 83 180.5t203 71.5q103 0 181 -37l65 23l10 -228l-12 -2l-104 168q-71 57 -142 57
q-83 0 -127.5 -42t-44.5 -115q0 -72 50.5 -113.5t156.5 -77.5q43 -15 68.5 -25.5t61 -28t56.5 -37t41.5 -45.5t30 -61t9.5 -77q0 -116 -93 -197.5t-241 -81.5z" />
    <glyph glyph-name="t" unicode="t" horiz-adv-x="628" 
d="M352 -27q-85 0 -137.5 46t-52.5 153l12 619l-160 2l15 43l118 38l115 177l60 -2l-3 -183h293l-28 -71h-265l-14 -607q-1 -64 34 -97.5t97 -33.5q37 0 72 13.5t53.5 27t50.5 39.5l11 -6q-77 -77 -138 -117.5t-133 -40.5z" />
    <glyph glyph-name="u" unicode="u" horiz-adv-x="954" 
d="M696 154h-2q-40 -37 -67.5 -59.5t-75 -55.5t-98 -49.5t-101.5 -16.5q-99 0 -159 60q-62 62 -62 196v596q0 7 -3.5 10.5t-28 8.5t-72.5 8l-29 2l-6 12h282v-610q0 -180 183 -180q125 0 233 98v238v336q0 62 -19 80.5t-83 23.5l-29 2l-6 12h283v-739q0 -36 9.5 -49
t41.5 -17l80 -12l-2 -10l-273 -72z" />
    <glyph glyph-name="v" unicode="v" horiz-adv-x="931" 
d="M147 723q-34 85 -51 104t-63 23l-39 2l-6 12h415l-4 -12l-34 -2q-59 -4 -70.5 -27t12.5 -80l225 -555l166 430q20 51 30.5 84.5t14 60t-1.5 41t-20.5 25t-37.5 14.5t-58 7l-29 2l-6 12h342l-6 -12l-21 -2q-68 -4 -95.5 -42.5t-96.5 -211.5l-240 -616h-20z" />
    <glyph glyph-name="w" unicode="w" horiz-adv-x="1449" 
d="M156 700q-37 100 -56 123t-69 27l-37 2l-4 12h420l-7 -12l-32 -2q-63 -5 -76.5 -23t8.5 -75l217 -568l193 451l-39 98q-29 74 -50 93t-73 24l-33 2l-8 12h416l-4 -12l-35 -2q-59 -4 -70 -24t10 -74l242 -572l150 428q20 60 29 96t10 66t-13 45t-39 23.5t-69 11.5l-27 2
l-6 12h340l-6 -12l-19 -2q-67 -4 -96 -47t-88 -213l-213 -610h-23l-274 632l-268 -632h-23z" />
    <glyph glyph-name="x" unicode="x" horiz-adv-x="907" 
d="M6 12l49 6q49 6 92 41.5t107 126.5l141 207l-227 336q-47 67 -73.5 92t-65.5 29l-27 2l-6 12h412l-7 -12l-43 -4q-47 -4 -52 -30.5t30 -80.5l153 -223h3l126 195q45 67 40 101t-64 38l-49 4l-6 12h338l-7 -12l-47 -4q-49 -5 -92.5 -41.5t-107.5 -132.5l-121 -176
l250 -363q46 -67 72.5 -92t64.5 -29l29 -2l6 -12h-414l6 12l39 4q95 9 20 113l-169 250h-3l-145 -225q-29 -45 -37.5 -74t4 -45t49.5 -19l58 -4l6 -12h-338z" />
    <glyph glyph-name="y" unicode="y" horiz-adv-x="917" 
d="M164 -524q-50 0 -83.5 26.5t-33.5 67.5q0 37 27 64.5t65 27.5q43 0 71 -27.5t36 -70.5q52 10 84 65t78 189l55 168l-2 2l-314 735q-34 84 -51.5 103.5t-64.5 23.5l-39 2l-6 12h415l-4 -12l-35 -2q-59 -4 -69.5 -27t14.5 -80l232 -555l159 435q35 101 38 144.5t-22 60.5
t-98 22l-28 2l-6 12h346l-6 -12l-27 -2q-64 -4 -88.5 -37.5t-79.5 -178.5q-9 -23 -14 -36l-228 -606l-67 -211q-49 -160 -107 -232.5t-147 -72.5z" />
    <glyph glyph-name="z" unicode="z" horiz-adv-x="837" 
d="M39 10l551 836q-27 2 -74 2h-98q-69 0 -115.5 -13t-80.5 -46.5t-55.5 -72t-49.5 -106.5l-19 -41h-10l6 295h668v-10l-555 -834l190 -4q130 0 207 57.5t146 176.5l28 47h8l-67 -297h-680v10z" />
    <glyph glyph-name="braceleft" unicode="{" horiz-adv-x="595" 
d="M573 -547q-176 8 -287.5 91t-111.5 218q0 90 37 237.5t37 211.5q0 45 -19 75.5t-59.5 49t-91 29t-127.5 16.5l-4 8l4 8q65 7 112.5 17t92.5 28.5t68.5 50.5t23.5 76q0 65 -37 211.5t-37 237.5q0 135 111.5 217t287.5 90l5 -12q-159 -20 -224 -71.5t-65 -151.5
q0 -67 39 -215t39 -234q0 -102 -87 -164t-247 -86v-2q160 -24 247 -86t87 -164q0 -86 -39 -233.5t-39 -214.5q0 -100 65.5 -153t223.5 -73z" />
    <glyph glyph-name="bar" unicode="|" horiz-adv-x="313" 
d="M147 1290h19v-1796h-19v1796z" />
    <glyph glyph-name="braceright" unicode="}" horiz-adv-x="595" 
d="M-12 -535q160 20 224 73t64 153q0 67 -38.5 214.5t-38.5 233.5q0 200 333 250v2q-333 50 -333 250q0 86 38.5 234t38.5 215q0 99 -64 151t-224 72l4 12q176 -8 287.5 -90t111.5 -217q0 -91 -37 -237.5t-37 -211.5q0 -36 17 -63.5t43.5 -45.5t67 -31t79.5 -20t90 -12l4 -8
l-4 -8q-77 -6 -127.5 -16.5t-91 -29t-59.5 -49t-19 -75.5q0 -64 37 -211.5t37 -237.5q0 -135 -111.5 -218t-287.5 -91z" />
    <glyph glyph-name="asciitilde" unicode="~" 
d="M530 307q-44 0 -111 30.5t-129 61.5t-95 31q-43 0 -66.5 -20t-28.5 -86h-10q11 107 42.5 153.5t96.5 46.5q44 0 110.5 -30t129 -60.5t96.5 -30.5q40 0 64 22t30 83h11q-11 -106 -43 -153.5t-97 -47.5z" />
    <glyph glyph-name="nbspace" unicode="&#xa0;" horiz-adv-x="327" 
 />
    <glyph glyph-name="exclamdown" unicode="&#xa1;" horiz-adv-x="481" 
d="M240 1087q-46 0 -76.5 30.5t-30.5 72.5q0 43 30.5 74.5t76.5 31.5t77 -32t31 -74t-31 -72.5t-77 -30.5zM238 -43q-41 0 -61 18t-20.5 44t1.5 55l73 831q0 6 8.5 6t8.5 -6l74 -831q2 -29 1 -55t-21 -44t-60 -18h-4z" />
    <glyph glyph-name="cent" unicode="&#xa2;" horiz-adv-x="831" 
d="M608 846q-47 33 -110 33q-125 0 -214 -114t-89 -286q0 -139 58 -239.5t153 -143.5zM334 -170q41 135 41 152q-146 25 -241 147t-95 285q0 132 57 242t162 174.5t236 64.5q60 0 122 -16l97 358h20l-98 -363q68 -21 105.5 -58t37.5 -87q0 -37 -28 -63.5t-64 -26.5
q-37 0 -61.5 24.5t-28.5 65.5l-172 -639q54 -14 92 -14q95 0 158 36.5t119 127.5l16 -7q-71 -128 -158.5 -194t-206.5 -66q-15 0 -51 4l-80 -299h-20z" />
    <glyph glyph-name="sterling" unicode="&#xa3;" horiz-adv-x="1060" 
d="M352 115q-111 69 -192 69q-55 0 -88 -25t-33 -71q0 -43 32.5 -68.5t84.5 -25.5q53 0 105 33t91 88zM123 596l6 20h211q-21 107 -21 168q0 135 58 250.5t168 187.5t248 72q99 0 158 -38t59 -105q0 -33 -27.5 -61.5t-64.5 -28.5q-41 0 -63.5 28.5t-21.5 67t23 68.5
q-56 39 -123 39q-110 0 -190 -84.5t-80 -227.5q0 -51 7 -106t18 -122.5t16 -107.5h262l6 -20h-264q8 -57 8 -131q0 -138 -88 -285q10 -3 81 -25.5t96.5 -29t77.5 -16t95 -9.5q93 0 143 54.5t66 201.5h17q-4 -170 -86 -274.5t-199 -104.5q-27 0 -54.5 3.5t-48.5 7.5t-48 14.5
t-42 16t-42.5 20t-37 20t-38.5 22.5t-35 21q-106 -125 -217 -125q-61 0 -98.5 30.5t-37.5 80.5q0 62 48.5 98.5t142.5 36.5q69 0 184 -33q23 58 23 103q0 47 -9.5 91.5t-33 117t-29.5 94.5h-223z" />
    <glyph glyph-name="currency" unicode="&#xa4;" horiz-adv-x="978" 
d="M592 -29q-171 0 -302 133.5t-163 352.5h-129l6 20h119q-6 67 -6 123q0 71 8 123h-127l6 20h125q27 166 108.5 294t194.5 195.5t238 67.5q124 0 200 -46t76 -121q0 -38 -28.5 -65.5t-65.5 -27.5q-48 0 -72 32.5t-19.5 72.5t32.5 63q-15 29 -49.5 50.5t-88.5 21.5
q-144 0 -253.5 -154t-129.5 -383h408l6 -20h-416q0 -12 -1 -39t-1 -41q0 -73 13 -166h399l6 -20h-399q33 -177 134.5 -282t233.5 -105q101 0 174.5 45t128.5 143l15 -10q-74 -133 -164.5 -205t-216.5 -72z" />
    <glyph glyph-name="yen" unicode="&#xa5;" horiz-adv-x="1218" 
d="M332 12l102 8q98 8 98 33v285h-387l7 20h380v246h-380l-7 21h377l-282 487q-36 61 -56.5 87.5t-51.5 44t-77 20.5l-57 4l-6 12h540l-6 -12l-61 -2q-81 -4 -90 -34t39 -112l274 -475h4l189 361q34 65 50 105.5t20 70t-12 45t-44 24t-78 13.5l-51 4l-6 12h450l-6 -12
l-45 -4q-44 -3 -66.5 -9t-52.5 -32t-58.5 -73.5t-74.5 -135.5l-207 -389h371l-6 -21h-369v-246h369l6 -20h-375v-291q0 -8 7.5 -12.5t33.5 -8.5t78 -8l80 -6l6 -12h-575z" />
    <glyph glyph-name="section" unicode="&#xa7;" horiz-adv-x="790" 
d="M573 336q45 27 75 69.5t30 90.5q0 42 -15.5 76t-52.5 66t-66.5 51t-90.5 54q-23 13 -67 37.5t-66.5 37t-51 32t-47.5 37.5q-45 -25 -76.5 -67.5t-31.5 -90.5q0 -33 12.5 -63.5t29.5 -52.5t50.5 -47.5t60 -41.5t72.5 -43q22 -13 67 -38t66.5 -37.5t51 -32t50.5 -37.5z
M350 -88q-109 0 -179.5 41t-70.5 102q0 32 20.5 57t53.5 25q39 0 60 -26t19 -60.5t-24 -62.5q48 -60 144 -60q81 0 130.5 58.5t49.5 126.5q0 30 -14.5 57.5t-34 48.5t-58.5 46.5t-67 41t-80 43.5q-50 28 -83 48.5t-73 51.5t-63.5 60t-40 67.5t-16.5 79.5q0 151 186 238
q-62 68 -62 152q0 104 81.5 184t207.5 80q107 0 168.5 -41t61.5 -103q0 -31 -24 -56.5t-58 -25.5q-38 0 -58.5 26t-18.5 61.5t23 62.5q-25 32 -49.5 45.5t-66.5 13.5q-82 0 -129 -57.5t-47 -126.5q0 -35 17 -66t49.5 -57t69.5 -48.5t88 -50.5q20 -10 30 -16q52 -29 83 -47.5
t73 -49.5t65 -59t40 -66.5t17 -80.5q0 -141 -186 -243q61 -67 61 -152q0 -102 -84.5 -182t-210.5 -80z" />
    <glyph glyph-name="dieresis" unicode="&#xa8;" 
d="M543 1042q-45 0 -69.5 30.5t-24.5 62.5q0 35 24.5 67.5t69.5 32.5t69.5 -32.5t24.5 -67.5q0 -32 -24.5 -62.5t-69.5 -30.5zM215 1042q-45 0 -69.5 30.5t-24.5 62.5q0 35 24.5 67.5t69.5 32.5t69.5 -32.5t24.5 -67.5q0 -32 -24.5 -62.5t-69.5 -30.5z" />
    <glyph glyph-name="copyright" unicode="&#xa9;" horiz-adv-x="1441" 
d="M739 233q-187 0 -306.5 112t-119.5 290q0 176 120 290.5t310 114.5q121 0 213 -53l68 31l10 -225h-6l-104 182q-70 53 -185 53q-144 0 -230.5 -109t-86.5 -274q0 -176 92.5 -287.5t233.5 -111.5q100 0 160.5 45t115.5 143l31 51h6l-45 -194l-41 -10q-34 -18 -103.5 -33
t-132.5 -15zM721 -10q176 0 325.5 87.5t236.5 237.5t87 326q0 177 -87 327.5t-236.5 238t-325.5 87.5t-325.5 -87.5t-236.5 -238t-87 -327.5q0 -176 87 -326t236.5 -237.5t325.5 -87.5zM721 -29q-137 0 -261 53t-213.5 142.5t-142.5 213.5t-53 261q0 182 89.5 336.5t244 245
t336.5 90.5t336.5 -90.5t244 -245t89.5 -336.5q0 -137 -53 -261t-142.5 -213.5t-213.5 -142.5t-261 -53z" />
    <glyph glyph-name="ordfeminine" unicode="&#xaa;" horiz-adv-x="628" 
d="M268 657q66 0 140 74l8 240q-83 -19 -138 -44t-80 -53t-33.5 -51t-8.5 -51q0 -54 29 -84.5t83 -30.5zM188 586q-67 0 -110 43t-43 102q0 163 381 258l2 68q2 58 -11.5 99.5t-39 62.5t-52.5 29.5t-59 8.5q-46 0 -82.5 -19.5t-36.5 -33.5q0 -5 18.5 -34t18.5 -48
q0 -25 -21 -44t-51 -19q-31 0 -50 18t-19 47q0 38 50.5 79.5t124 69t136.5 27.5q201 0 193 -210l-15 -357q-3 -78 51 -78q34 0 74 47l8 -4q-19 -27 -26.5 -36.5t-29 -32.5t-43 -33t-46.5 -10q-44 0 -71 32.5t-31 94.5v2q-110 -129 -220 -129z" />
    <glyph glyph-name="guillemotleft" unicode="&#xab;" horiz-adv-x="823" 
d="M23 449v12l403 317l6 -6l-252 -317l252 -320l-6 -6zM375 449v12l413 350l7 -6l-263 -350l263 -351l-7 -6z" />
    <glyph glyph-name="registered" unicode="&#xae;" horiz-adv-x="1441" 
d="M700 655q86 0 133.5 45.5t47.5 130.5q0 88 -59 136.5t-167 42.5l-61 -2v-330q64 -23 106 -23zM375 270l61 6q19 2 39.5 9.5t20.5 13.5v694q0 3 -2 5t-9.5 4t-21 4t-37.5 4l-49 4l-4 12h315q146 0 221.5 -51t75.5 -148q0 -68 -53.5 -120t-136.5 -70l178 -272
q24 -37 46 -56t39.5 -25t51.5 -12l14 -2l4 -12h-202l-8 16l-226 363q-64 12 -98 22v-366q0 -6 23.5 -11.5t48.5 -7.5l47 -4l4 -12h-346zM721 -10q176 0 325.5 87.5t236.5 237.5t87 326q0 177 -87 327.5t-236.5 238t-325.5 87.5t-325.5 -87.5t-236.5 -238t-87 -327.5
q0 -176 87 -326t236.5 -237.5t325.5 -87.5zM721 -29q-137 0 -261 53t-213.5 142.5t-142.5 213.5t-53 261q0 182 89.5 336.5t244 245t336.5 90.5t336.5 -90.5t244 -245t89.5 -336.5q0 -137 -53 -261t-142.5 -213.5t-213.5 -142.5t-261 -53z" />
    <glyph glyph-name="macron" unicode="&#xaf;" horiz-adv-x="755" 
d="M127 1118h516l-14 -51h-516z" />
    <glyph glyph-name="degree" unicode="&#xb0;" horiz-adv-x="581" 
d="M291 813q104 0 168.5 68t64.5 170q0 101 -65 171t-168 70q-102 0 -166 -70t-64 -171q0 -102 63 -170t167 -68zM291 793q-114 0 -184 75t-70 183q0 109 69.5 185.5t184.5 76.5t184.5 -76.5t69.5 -185.5q0 -108 -69.5 -183t-184.5 -75z" />
    <glyph glyph-name="plusminus" unicode="&#xb1;" horiz-adv-x="645" 
d="M88 14l70 2q52 2 74 8.5t22 24.5v864q0 9 -5 13.5t-27.5 8.5t-69.5 7l-62 2l-6 14h479l-6 -14l-70 -2q-52 -2 -74 -8.5t-22 -24.5v-864q0 -9 5.5 -13.5t28 -8.5t69.5 -7l61 -2l6 -14h-479z" />
    <glyph glyph-name="acute" unicode="&#xb4;" 
d="M516 1389h162l-377 -383h-8z" />
    <glyph glyph-name="paragraph" unicode="&#xb6;" horiz-adv-x="847" 
d="M725 578q-90 -11 -197 -11q-225 0 -351 94t-126 271q0 172 120 260t357 88h217v-1346h-20v644z" />
    <glyph glyph-name="periodcentered" unicode="&#xb7;" horiz-adv-x="378" 
d="M190 336q-47 0 -78.5 31.5t-31.5 74.5q0 42 32 73.5t78 31.5t76.5 -31.5t30.5 -73.5q0 -44 -30.5 -75t-76.5 -31z" />
    <glyph glyph-name="cedilla" unicode="&#xb8;" 
d="M184 -514q301 52 301 180q0 57 -42.5 84t-114.5 27q-82 0 -140 -23v15l199 227h23l-119 -137q119 21 205 -20.5t86 -123.5q0 -54 -34 -97t-93 -70.5t-124 -44t-143 -25.5z" />
    <glyph glyph-name="ordmasculine" unicode="&#xba;" horiz-adv-x="770" 
d="M387 596q62 0 112 49t76.5 126t26.5 165q0 213 -80 293q-51 59 -139 59q-67 0 -117.5 -48t-75 -123.5t-24.5 -164.5q0 -217 86 -303q53 -53 135 -53zM385 582q-154 0 -258 102.5t-104 251.5q0 153 104.5 260t257.5 107t256.5 -104.5t103.5 -254.5q0 -152 -103.5 -257
t-256.5 -105z" />
    <glyph glyph-name="guillemotright" unicode="&#xbb;" horiz-adv-x="831" 
d="M393 135l252 320l-252 317l6 6l404 -317v-12l-404 -320zM31 104l262 351l-262 350l6 6l414 -350v-12l-414 -351z" />
    <glyph glyph-name="questiondown" unicode="&#xbf;" horiz-adv-x="612" 
d="M319 1104q-46 0 -76 30t-30 72q0 43 30 74t76 31t77.5 -31.5t31.5 -73.5t-31 -72t-78 -30zM424 -29q-106 0 -193 56t-132.5 142.5t-45.5 182.5q0 54 8 87.5t34.5 61.5t57.5 46t95 49q101 45 129 66q41 33 41 79q0 72 -107 179h17q56 -42 111 -118t55 -120
q0 -79 -40.5 -117t-168.5 -96q-122 -53 -164.5 -84t-42.5 -76q0 -33 16 -65.5t49.5 -64t98 -51t149.5 -19.5q80 0 150 20q20 -26 20 -86q0 -35 -31 -53.5t-106 -18.5z" />
    <glyph glyph-name="Agrave" unicode="&#xc0;" horiz-adv-x="1280" 
d="M377 561l-98 -276q-17 -50 -25.5 -76t-16 -58t-7.5 -46.5t4.5 -32t15.5 -24t30.5 -14.5t44 -11.5t62.5 -6.5l43 -4l6 -12h-444l6 12l33 4q35 4 55 9.5t43.5 23t38 40t38.5 73.5t46 109.5t59 160.5l254 707l-20 57q64 23 104 107h19l372 -1088q40 -122 70.5 -158.5
t99.5 -40.5l58 -4l6 -12h-537l6 12l66 4q64 5 84.5 36.5t-0.5 103.5l-135 405h-381zM750 582l-86 262q-53 162 -89 262h-2l-188 -524h365zM313 1731h162l223 -383h-8z" />
    <glyph glyph-name="Aacute" unicode="&#xc1;" horiz-adv-x="1280" 
d="M377 561l-98 -276q-17 -50 -25.5 -76t-16 -58t-7.5 -46.5t4.5 -32t15.5 -24t30.5 -14.5t44 -11.5t62.5 -6.5l43 -4l6 -12h-444l6 12l33 4q35 4 55 9.5t43.5 23t38 40t38.5 73.5t46 109.5t59 160.5l254 707l-20 57q64 23 104 107h19l372 -1088q40 -122 70.5 -158.5
t99.5 -40.5l58 -4l6 -12h-537l6 12l66 4q64 5 84.5 36.5t-0.5 103.5l-135 405h-381zM750 582l-86 262q-53 162 -89 262h-2l-188 -524h365zM790 1731h162l-377 -383h-8z" />
    <glyph glyph-name="Acircumflex" unicode="&#xc2;" horiz-adv-x="1280" 
d="M377 561l-98 -276q-17 -50 -25.5 -76t-16 -58t-7.5 -46.5t4.5 -32t15.5 -24t30.5 -14.5t44 -11.5t62.5 -6.5l43 -4l6 -12h-444l6 12l33 4q35 4 55 9.5t43.5 23t38 40t38.5 73.5t46 109.5t59 160.5l254 707l-20 57q64 23 104 107h19l372 -1088q40 -122 70.5 -158.5
t99.5 -40.5l58 -4l6 -12h-537l6 12l66 4q64 5 84.5 36.5t-0.5 103.5l-135 405h-381zM750 582l-86 262q-53 162 -89 262h-2l-188 -524h365zM658 1708h4l274 -383h-8l-266 229h-4l-266 -229h-9z" />
    <glyph glyph-name="Atilde" unicode="&#xc3;" horiz-adv-x="1280" 
d="M377 561l-98 -276q-17 -50 -25.5 -76t-16 -58t-7.5 -46.5t4.5 -32t15.5 -24t30.5 -14.5t44 -11.5t62.5 -6.5l43 -4l6 -12h-444l6 12l33 4q35 4 55 9.5t43.5 23t38 40t38.5 73.5t46 109.5t59 160.5l254 707l-20 57q64 23 104 107h19l372 -1088q40 -122 70.5 -158.5
t99.5 -40.5l58 -4l6 -12h-537l6 12l66 4q64 5 84.5 36.5t-0.5 103.5l-135 405h-381zM750 582l-86 262q-53 162 -89 262h-2l-188 -524h365zM794 1360q-44 0 -111 31t-129 61.5t-95 30.5q-43 0 -66.5 -20.5t-28.5 -86.5h-10q11 107 42.5 154t96.5 47q44 0 110.5 -30.5
t129 -60.5t96.5 -30q40 0 64 22t30 83h11q-11 -106 -43 -153.5t-97 -47.5z" />
    <glyph glyph-name="Adieresis" unicode="&#xc4;" horiz-adv-x="1280" 
d="M377 561l-98 -276q-17 -50 -25.5 -76t-16 -58t-7.5 -46.5t4.5 -32t15.5 -24t30.5 -14.5t44 -11.5t62.5 -6.5l43 -4l6 -12h-444l6 12l33 4q35 4 55 9.5t43.5 23t38 40t38.5 73.5t46 109.5t59 160.5l254 707l-20 57q64 23 104 107h19l372 -1088q40 -122 70.5 -158.5
t99.5 -40.5l58 -4l6 -12h-537l6 12l66 4q64 5 84.5 36.5t-0.5 103.5l-135 405h-381zM750 582l-86 262q-53 162 -89 262h-2l-188 -524h365zM807 1384q-45 0 -69.5 30.5t-24.5 62.5q0 35 24.5 67.5t69.5 32.5t69.5 -32.5t24.5 -67.5q0 -32 -24.5 -62.5t-69.5 -30.5zM479 1384
q-45 0 -69.5 30.5t-24.5 62.5q0 35 24.5 67.5t69.5 32.5t69.5 -32.5t24.5 -67.5q0 -32 -24.5 -62.5t-69.5 -30.5z" />
    <glyph glyph-name="Aring" unicode="&#xc5;" horiz-adv-x="1280" 
d="M641 1276q73 0 117.5 48t44.5 118q0 69 -44.5 117.5t-117.5 48.5t-117.5 -48.5t-44.5 -117.5q0 -70 44.5 -118t117.5 -48zM377 557l-98 -272q-17 -50 -25.5 -76t-16 -58t-7.5 -46.5t4.5 -32t15.5 -24t30.5 -14.5t44 -11.5t62.5 -6.5l43 -4l6 -12h-444l6 12l33 4
q35 4 55 9.5t43.5 23t38 40t38.5 73.5t46 109.5t59 160.5l301 830q-72 12 -112.5 62.5t-40.5 119.5q0 77 49.5 129.5t132.5 52.5t132.5 -52.5t49.5 -129.5q0 -68 -37.5 -117.5t-103.5 -62.5q-1 0 24 -71.5t72 -207t84 -246.5q39 -113 178 -524q40 -122 70.5 -158.5
t99.5 -40.5l58 -4l6 -12h-537l6 12l66 4q64 5 84.5 36.5t-0.5 103.5l-133 401h-383zM750 582l-86 262q-53 162 -89 262h-2l-188 -524h365z" />
    <glyph glyph-name="AE" unicode="&#xc6;" horiz-adv-x="1736" 
d="M813 582v649h-4l-379 -649h383zM-102 12l79 8q41 5 75 28.5t86 92.5t128 199l498 850q24 38 -15 54q-34 13 -118 16l-80 4l-6 16h1003l39 -365h-10l-12 29q-17 47 -27.5 75.5t-26.5 64t-29 55.5t-32 43.5t-40 35.5t-47.5 23.5t-59 16t-72.5 4.5h-254v-582h135
q73 4 114.5 11t73.5 26t48.5 48t31.5 81l11 28l12 -2l-41 -413l-12 4l-2 24q-3 46 -11 73.5t-22 47t-45 28.5t-68 13t-104 6l-121 4v-628l246 -11q88 2 157 28t118.5 75t83 104t65.5 133l12 29l12 -2l-84 -387h-981l6 14l103 9q98 8 98 32v502h-397l-142 -240
q-34 -60 -53.5 -99t-31.5 -74t-11.5 -55.5t13 -36.5t37 -24t63.5 -12l65 -6l6 -10h-471z" />
    <glyph glyph-name="Ccedilla" unicode="&#xc7;" horiz-adv-x="1374" 
d="M766 -31q-154 0 -285.5 48t-225.5 134t-147 211t-53 273q0 195 90 349t255 241.5t378 87.5q96 0 189 -27t161 -63l111 53l16 -377h-12l-170 311q-44 34 -123.5 57t-173.5 23q-126 0 -229 -50t-170.5 -137t-104 -203t-36.5 -249q0 -293 150.5 -476t385.5 -183h16l5 4h22
q-2 0 -4 -2q80 4 143 25t113.5 62.5t89 91t80.5 122.5l51 86h12l-73 -311l-70 -15q-56 -30 -160 -55t-204 -29l-97 -112q119 21 205 -20.5t86 -123.5q0 -54 -33.5 -97t-92.5 -70.5t-124 -44t-143 -25.5l-4 8q301 52 301 180q0 57 -43 84t-115 27q-81 0 -139 -23v15l176 200
h-4z" />
    <glyph glyph-name="Egrave" unicode="&#xc8;" horiz-adv-x="1181" 
d="M51 12l74 8q102 8 102 33v1180q0 8 -7 12.5t-33 8.5t-78 8l-56 6l-6 12h946l39 -365h-10l-12 29q-31 87 -58.5 140.5t-68 97t-95.5 62t-133 18.5h-264v-582h166q74 4 115 11t73 25.5t48.5 48t31.5 81.5l11 28l12 -2l-41 -413l-12 2l-2 26q-3 46 -11 73t-22 46.5t-45 29
t-68.5 13.5t-103.5 6l-152 4v-630l297 -9q71 2 128.5 20.5t96.5 46.5t73.5 75t56.5 90t49 108l12 29l12 -2l-84 -387h-987zM291 1731h162l223 -383h-8z" />
    <glyph glyph-name="Eacute" unicode="&#xc9;" horiz-adv-x="1181" 
d="M51 12l74 8q102 8 102 33v1180q0 8 -7 12.5t-33 8.5t-78 8l-56 6l-6 12h946l39 -365h-10l-12 29q-31 87 -58.5 140.5t-68 97t-95.5 62t-133 18.5h-264v-582h166q74 4 115 11t73 25.5t48.5 48t31.5 81.5l11 28l12 -2l-41 -413l-12 2l-2 26q-3 46 -11 73t-22 46.5t-45 29
t-68.5 13.5t-103.5 6l-152 4v-630l297 -9q71 2 128.5 20.5t96.5 46.5t73.5 75t56.5 90t49 108l12 29l12 -2l-84 -387h-987zM762 1731h162l-377 -383h-8z" />
    <glyph glyph-name="Ecircumflex" unicode="&#xca;" horiz-adv-x="1181" 
d="M51 12l74 8q102 8 102 33v1180q0 8 -7 12.5t-33 8.5t-78 8l-56 6l-6 12h946l39 -365h-10l-12 29q-31 87 -58.5 140.5t-68 97t-95.5 62t-133 18.5h-264v-582h166q74 4 115 11t73 25.5t48.5 48t31.5 81.5l11 28l12 -2l-41 -413l-12 2l-2 26q-3 46 -11 73t-22 46.5t-45 29
t-68.5 13.5t-103.5 6l-152 4v-630l297 -9q71 2 128.5 20.5t96.5 46.5t73.5 75t56.5 90t49 108l12 29l12 -2l-84 -387h-987zM586 1708h4l274 -383h-8l-266 229h-4l-266 -229h-9z" />
    <glyph glyph-name="Edieresis" unicode="&#xcb;" horiz-adv-x="1181" 
d="M51 12l74 8q102 8 102 33v1180q0 8 -7 12.5t-33 8.5t-78 8l-56 6l-6 12h946l39 -365h-10l-12 29q-31 87 -58.5 140.5t-68 97t-95.5 62t-133 18.5h-264v-582h166q74 4 115 11t73 25.5t48.5 48t31.5 81.5l11 28l12 -2l-41 -413l-12 2l-2 26q-3 46 -11 73t-22 46.5t-45 29
t-68.5 13.5t-103.5 6l-152 4v-630l297 -9q71 2 128.5 20.5t96.5 46.5t73.5 75t56.5 90t49 108l12 29l12 -2l-84 -387h-987zM742 1384q-45 0 -69.5 30.5t-24.5 62.5q0 35 24.5 67.5t69.5 32.5t69.5 -32.5t24.5 -67.5q0 -32 -24.5 -62.5t-69.5 -30.5zM414 1384
q-45 0 -69.5 30.5t-24.5 62.5q0 35 24.5 67.5t69.5 32.5t69.5 -32.5t24.5 -67.5q0 -32 -24.5 -62.5t-69.5 -30.5z" />
    <glyph glyph-name="Igrave" unicode="&#xcc;" horiz-adv-x="659" 
d="M68 12l82 8q98 8 98 33v1180q0 8 -7.5 12.5t-33.5 8.5t-78 8l-59 6l-7 12h535l-6 -12l-82 -8q-98 -8 -98 -33v-1180q0 -8 7 -12.5t33 -8.5t78 -8l60 -6l6 -12h-535zM29 1731h162l223 -383h-8z" />
    <glyph glyph-name="Iacute" unicode="&#xcd;" horiz-adv-x="659" 
d="M68 12l82 8q98 8 98 33v1180q0 8 -7.5 12.5t-33.5 8.5t-78 8l-59 6l-7 12h535l-6 -12l-82 -8q-98 -8 -98 -33v-1180q0 -8 7 -12.5t33 -8.5t78 -8l60 -6l6 -12h-535zM465 1731h162l-377 -383h-8z" />
    <glyph glyph-name="Icircumflex" unicode="&#xce;" horiz-adv-x="659" 
d="M68 12l82 8q98 8 98 33v1180q0 8 -7.5 12.5t-33.5 8.5t-78 8l-59 6l-7 12h535l-6 -12l-82 -8q-98 -8 -98 -33v-1180q0 -8 7 -12.5t33 -8.5t78 -8l60 -6l6 -12h-535zM330 1708h4l274 -383h-8l-266 229h-4l-266 -229h-9z" />
    <glyph glyph-name="Idieresis" unicode="&#xcf;" horiz-adv-x="659" 
d="M68 12l82 8q98 8 98 33v1180q0 8 -7.5 12.5t-33.5 8.5t-78 8l-59 6l-7 12h535l-6 -12l-82 -8q-98 -8 -98 -33v-1180q0 -8 7 -12.5t33 -8.5t78 -8l60 -6l6 -12h-535zM498 1384q-45 0 -69.5 30.5t-24.5 62.5q0 35 24.5 67.5t69.5 32.5t69.5 -32.5t24.5 -67.5
q0 -32 -24.5 -62.5t-69.5 -30.5zM170 1384q-45 0 -69.5 30.5t-24.5 62.5q0 35 24.5 67.5t69.5 32.5t69.5 -32.5t24.5 -67.5q0 -32 -24.5 -62.5t-69.5 -30.5z" />
    <glyph glyph-name="Eth" unicode="&#xd0;" horiz-adv-x="1363" 
d="M707 655l6 -24h-322v-572l154 -36q137 2 246 52.5t176.5 134t103 189t35.5 222.5q0 134 -35 248t-104 203t-182.5 139.5t-260.5 50.5h-133v-607h316zM51 631l6 24h170v578q0 20 -118 29l-66 6l-6 12l518 6q347 4 537 -164.5t190 -453.5q0 -144 -53 -266.5t-152 -212
t-248 -139.5t-333 -50h-461l6 12l88 8q98 8 98 33v578h-176z" />
    <glyph glyph-name="Ntilde" unicode="&#xd1;" horiz-adv-x="1400" 
d="M264 1147h-2l2 -1063q0 -54 170 -68l39 -4l6 -12h-430l6 12l41 4q68 6 107 24.5t39 47.5l4 1077q-22 23 -40 38.5t-59.5 35.5t-91.5 27l-26 4l-6 12h344l804 -1026h3l-3 942q0 47 -170 66l-38 4l-7 12h430l-6 -12l-41 -4q-145 -13 -145 -70l-4 -1204h-14zM892 1360
q-44 0 -111 31t-129 61.5t-95 30.5q-43 0 -66.5 -20.5t-28.5 -86.5h-10q11 107 42.5 154t96.5 47q44 0 110.5 -30.5t129 -60.5t96.5 -30q40 0 64 22t30 83h11q-11 -106 -43 -153.5t-97 -47.5z" />
    <glyph glyph-name="Ograve" unicode="&#xd2;" horiz-adv-x="1464" 
d="M737 -6q227 0 359.5 174t132.5 473q0 188 -65 336.5t-179.5 230.5t-257.5 82q-225 0 -358 -177.5t-133 -477.5q0 -284 140 -462.5t361 -178.5zM729 -29q-191 0 -344.5 84t-241.5 236.5t-88 345.5q0 129 56 253t147.5 216.5t217 148.5t257.5 56q192 0 346 -84.5
t242 -238.5t88 -349q0 -130 -56 -253t-148 -214t-217.5 -146t-258.5 -55zM408 1731h162l223 -383h-8z" />
    <glyph glyph-name="Oacute" unicode="&#xd3;" horiz-adv-x="1464" 
d="M737 -6q227 0 359.5 174t132.5 473q0 188 -65 336.5t-179.5 230.5t-257.5 82q-225 0 -358 -177.5t-133 -477.5q0 -284 140 -462.5t361 -178.5zM729 -29q-191 0 -344.5 84t-241.5 236.5t-88 345.5q0 129 56 253t147.5 216.5t217 148.5t257.5 56q192 0 346 -84.5
t242 -238.5t88 -349q0 -130 -56 -253t-148 -214t-217.5 -146t-258.5 -55zM895 1731h162l-377 -383h-8z" />
    <glyph glyph-name="Ocircumflex" unicode="&#xd4;" horiz-adv-x="1464" 
d="M737 -6q227 0 359.5 174t132.5 473q0 188 -65 336.5t-179.5 230.5t-257.5 82q-225 0 -358 -177.5t-133 -477.5q0 -284 140 -462.5t361 -178.5zM729 -29q-191 0 -344.5 84t-241.5 236.5t-88 345.5q0 129 56 253t147.5 216.5t217 148.5t257.5 56q192 0 346 -84.5
t242 -238.5t88 -349q0 -130 -56 -253t-148 -214t-217.5 -146t-258.5 -55zM735 1708h4l274 -383h-8l-266 229h-4l-266 -229h-9z" />
    <glyph glyph-name="Otilde" unicode="&#xd5;" horiz-adv-x="1464" 
d="M737 -6q227 0 359.5 174t132.5 473q0 188 -65 336.5t-179.5 230.5t-257.5 82q-225 0 -358 -177.5t-133 -477.5q0 -284 140 -462.5t361 -178.5zM729 -29q-191 0 -344.5 84t-241.5 236.5t-88 345.5q0 129 56 253t147.5 216.5t217 148.5t257.5 56q192 0 346 -84.5
t242 -238.5t88 -349q0 -130 -56 -253t-148 -214t-217.5 -146t-258.5 -55zM888 1360q-44 0 -111 31t-129 61.5t-95 30.5q-43 0 -66.5 -20.5t-28.5 -86.5h-10q11 107 42.5 154t96.5 47q44 0 110.5 -30.5t129 -60.5t96.5 -30q40 0 64 22t30 83h11q-11 -106 -43 -153.5
t-97 -47.5z" />
    <glyph glyph-name="Odieresis" unicode="&#xd6;" horiz-adv-x="1464" 
d="M737 -6q227 0 359.5 174t132.5 473q0 188 -65 336.5t-179.5 230.5t-257.5 82q-225 0 -358 -177.5t-133 -477.5q0 -284 140 -462.5t361 -178.5zM729 -29q-191 0 -344.5 84t-241.5 236.5t-88 345.5q0 129 56 253t147.5 216.5t217 148.5t257.5 56q192 0 346 -84.5
t242 -238.5t88 -349q0 -130 -56 -253t-148 -214t-217.5 -146t-258.5 -55zM901 1384q-45 0 -69.5 30.5t-24.5 62.5q0 35 24.5 67.5t69.5 32.5t69.5 -32.5t24.5 -67.5q0 -32 -24.5 -62.5t-69.5 -30.5zM573 1384q-45 0 -69.5 30.5t-24.5 62.5q0 35 24.5 67.5t69.5 32.5
t69.5 -32.5t24.5 -67.5q0 -32 -24.5 -62.5t-69.5 -30.5z" />
    <glyph glyph-name="Oslash" unicode="&#xd8;" horiz-adv-x="1464" 
d="M1032 1165q-126 123 -305 123q-224 0 -357.5 -177t-133.5 -476q0 -166 49 -298.5t141 -219.5zM1047 1151q1 1 -151 -261t-304.5 -524.5t-151.5 -263.5q126 -108 297 -108q227 0 359.5 174t132.5 473q0 160 -47.5 291.5t-134.5 218.5zM1085 1221q152 -88 238 -239t86 -343
q0 -130 -56 -253t-148 -214t-217.5 -146t-258.5 -55q-176 0 -323 72q-11 -19 -35.5 -62.5t-36.5 -62.5q-25 -40 -39 -68h-23q46 75 60 101q13 22 27.5 48t22 39.5t7.5 12.5q-156 86 -245 238.5t-89 347.5q0 129 56 253t147.5 216.5t217 148.5t257.5 56q182 0 336 -80
l105 180h22q-4 -6 -11.5 -19t-14.5 -24.5t-13 -21.5q-12 -19 -36.5 -62t-35.5 -63z" />
    <glyph glyph-name="Ugrave" unicode="&#xd9;" horiz-adv-x="1363" 
d="M717 -29q-265 0 -382.5 109t-117.5 360v793q0 8 -7 12.5t-34 9.5t-78 9l-80 6l-6 12h576l-6 -12l-103 -8q-98 -8 -98 -35v-760q0 -223 96 -325.5t303 -102.5q383 0 383 471l-2 688q0 47 -184 68l-39 4l-6 12h440l-6 -12l-41 -4q-141 -13 -141 -72l-2 -690
q-3 -533 -465 -533zM428 1731h162l223 -383h-8z" />
    <glyph glyph-name="Uacute" unicode="&#xda;" horiz-adv-x="1363" 
d="M717 -29q-265 0 -382.5 109t-117.5 360v793q0 8 -7 12.5t-34 9.5t-78 9l-80 6l-6 12h576l-6 -12l-103 -8q-98 -8 -98 -35v-760q0 -223 96 -325.5t303 -102.5q383 0 383 471l-2 688q0 47 -184 68l-39 4l-6 12h440l-6 -12l-41 -4q-141 -13 -141 -72l-2 -690
q-3 -533 -465 -533zM864 1731h162l-377 -383h-8z" />
    <glyph glyph-name="Ucircumflex" unicode="&#xdb;" horiz-adv-x="1363" 
d="M717 -29q-265 0 -382.5 109t-117.5 360v793q0 8 -7 12.5t-34 9.5t-78 9l-80 6l-6 12h576l-6 -12l-103 -8q-98 -8 -98 -35v-760q0 -223 96 -325.5t303 -102.5q383 0 383 471l-2 688q0 47 -184 68l-39 4l-6 12h440l-6 -12l-41 -4q-141 -13 -141 -72l-2 -690
q-3 -533 -465 -533zM725 1708h4l274 -383h-8l-266 229h-4l-266 -229h-9z" />
    <glyph glyph-name="Udieresis" unicode="&#xdc;" horiz-adv-x="1363" 
d="M717 -29q-265 0 -382.5 109t-117.5 360v793q0 8 -7 12.5t-34 9.5t-78 9l-80 6l-6 12h576l-6 -12l-103 -8q-98 -8 -98 -35v-760q0 -223 96 -325.5t303 -102.5q383 0 383 471l-2 688q0 47 -184 68l-39 4l-6 12h440l-6 -12l-41 -4q-141 -13 -141 -72l-2 -690
q-3 -533 -465 -533zM920 1384q-45 0 -69.5 30.5t-24.5 62.5q0 35 24.5 67.5t69.5 32.5t69.5 -32.5t24.5 -67.5q0 -32 -24.5 -62.5t-69.5 -30.5zM592 1384q-45 0 -69.5 30.5t-24.5 62.5q0 35 24.5 67.5t69.5 32.5t69.5 -32.5t24.5 -67.5q0 -32 -24.5 -62.5t-69.5 -30.5z" />
    <glyph glyph-name="Yacute" unicode="&#xdd;" horiz-adv-x="1249" 
d="M342 12l102 8q99 8 99 33v522l-303 535q-47 86 -83 118t-102 36l-57 4l-6 12h540l-6 -12l-61 -2q-80 -4 -88.5 -34t37.5 -112l278 -493h4l193 364q29 57 45 92t25 67.5t5.5 50t-18 31.5t-40.5 21t-68 11l-52 4l-6 12h451l-6 -12l-45 -4q-42 -2 -67.5 -10.5t-56.5 -37
t-62 -78.5t-76 -139l-211 -395v-557q0 -8 7 -12.5t33 -8.5t78 -8l80 -6l6 -12h-575zM842 1731h162l-377 -383h-8z" />
    <glyph glyph-name="Thorn" unicode="&#xde;" horiz-adv-x="1103" 
d="M569 346q147 0 229.5 85t82.5 233q0 157 -81 240t-263 79l-146 -2v-610q77 -25 178 -25zM27 12l102 8q98 8 98 33v1180q0 8 -7 12.5t-33 8.5t-78 8l-80 6l-6 12h575l-6 -12l-103 -8q-98 -8 -98 -33v-221h123q51 0 78 -2q229 0 346 -83.5t117 -234.5q0 -157 -136.5 -260.5
t-349.5 -103.5q-63 0 -178 16v-291q0 -8 7 -12.5t34 -9t78 -7.5l100 -6l6 -12h-596z" />
    <glyph glyph-name="germandbls" unicode="&#xdf;" horiz-adv-x="1009" 
d="M604 842q63 -32 126.5 -85t117.5 -119t87.5 -146t33.5 -156q0 -144 -92.5 -250t-221.5 -106q-91 0 -154 43.5t-63 109.5q0 47 29 78t72 31q57 0 77 -45.5t-8.5 -88t-87.5 -34.5q12 -33 47.5 -55.5t91.5 -22.5q86 0 134.5 62.5t48.5 172.5q0 159 -100 312.5t-291 267.5v6
q136 24 203 92t67 199q0 95 -56 163t-141 68q-109 0 -160 -81.5t-51 -260.5v-995h-272l6 12l37 2q67 6 76 11q10 5 10 18v746l-150 2l29 71h119l4 51q19 209 118.5 327t250.5 118q147 0 232 -69t85 -187q0 -190 -254 -262z" />
    <glyph glyph-name="agrave" unicode="&#xe0;" horiz-adv-x="813" 
d="M340 66q100 0 184 84l13 325q-106 -26 -175 -55.5t-103 -63.5t-46 -65.5t-12 -73.5q0 -68 39 -109.5t100 -41.5zM651 -20q-54 0 -89.5 38.5t-39.5 104.5v2q-73 -68 -135 -105.5t-127 -37.5q-90 0 -147.5 55t-57.5 135q0 70 39.5 123.5t147.5 104.5t295 96l2 90
q4 74 -11.5 127t-45 81.5t-64.5 41t-78 12.5q-58 0 -114 -27.5t-56 -48.5q0 -5 13 -19t25.5 -36.5t12.5 -46.5q0 -32 -24 -56t-64 -24q-39 0 -63.5 22t-24.5 58q0 50 65 103.5t157 87.5t169 34q67 0 112 -13.5t78 -46.5t46.5 -92t9.5 -147l-20 -442q-8 -93 67 -93
q36 0 92 56l10 -6q-2 -3 -23.5 -29t-32.5 -37t-33 -30t-44.5 -27t-46.5 -8zM105 1389h162l223 -383h-8z" />
    <glyph glyph-name="aacute" unicode="&#xe1;" horiz-adv-x="813" 
d="M340 66q100 0 184 84l13 325q-106 -26 -175 -55.5t-103 -63.5t-46 -65.5t-12 -73.5q0 -68 39 -109.5t100 -41.5zM651 -20q-54 0 -89.5 38.5t-39.5 104.5v2q-73 -68 -135 -105.5t-127 -37.5q-90 0 -147.5 55t-57.5 135q0 70 39.5 123.5t147.5 104.5t295 96l2 90
q4 74 -11.5 127t-45 81.5t-64.5 41t-78 12.5q-58 0 -114 -27.5t-56 -48.5q0 -5 13 -19t25.5 -36.5t12.5 -46.5q0 -32 -24 -56t-64 -24q-39 0 -63.5 22t-24.5 58q0 50 65 103.5t157 87.5t169 34q67 0 112 -13.5t78 -46.5t46.5 -92t9.5 -147l-20 -442q-8 -93 67 -93
q36 0 92 56l10 -6q-2 -3 -23.5 -29t-32.5 -37t-33 -30t-44.5 -27t-46.5 -8zM561 1389h162l-377 -383h-8z" />
    <glyph glyph-name="acircumflex" unicode="&#xe2;" horiz-adv-x="813" 
d="M340 66q100 0 184 84l13 325q-106 -26 -175 -55.5t-103 -63.5t-46 -65.5t-12 -73.5q0 -68 39 -109.5t100 -41.5zM651 -20q-54 0 -89.5 38.5t-39.5 104.5v2q-73 -68 -135 -105.5t-127 -37.5q-90 0 -147.5 55t-57.5 135q0 70 39.5 123.5t147.5 104.5t295 96l2 90
q4 74 -11.5 127t-45 81.5t-64.5 41t-78 12.5q-58 0 -114 -27.5t-56 -48.5q0 -5 13 -19t25.5 -36.5t12.5 -46.5q0 -32 -24 -56t-64 -24q-39 0 -63.5 22t-24.5 58q0 50 65 103.5t157 87.5t169 34q67 0 112 -13.5t78 -46.5t46.5 -92t9.5 -147l-20 -442q-8 -93 67 -93
q36 0 92 56l10 -6q-2 -3 -23.5 -29t-32.5 -37t-33 -30t-44.5 -27t-46.5 -8zM391 1366h4l274 -383h-8l-266 229h-4l-266 -229h-9z" />
    <glyph glyph-name="atilde" unicode="&#xe3;" horiz-adv-x="813" 
d="M340 66q100 0 184 84l13 325q-106 -26 -175 -55.5t-103 -63.5t-46 -65.5t-12 -73.5q0 -68 39 -109.5t100 -41.5zM651 -20q-54 0 -89.5 38.5t-39.5 104.5v2q-73 -68 -135 -105.5t-127 -37.5q-90 0 -147.5 55t-57.5 135q0 70 39.5 123.5t147.5 104.5t295 96l2 90
q4 74 -11.5 127t-45 81.5t-64.5 41t-78 12.5q-58 0 -114 -27.5t-56 -48.5q0 -5 13 -19t25.5 -36.5t12.5 -46.5q0 -32 -24 -56t-64 -24q-39 0 -63.5 22t-24.5 58q0 50 65 103.5t157 87.5t169 34q67 0 112 -13.5t78 -46.5t46.5 -92t9.5 -147l-20 -442q-8 -93 67 -93
q36 0 92 56l10 -6q-2 -3 -23.5 -29t-32.5 -37t-33 -30t-44.5 -27t-46.5 -8zM567 1018q-44 0 -111 31t-129 61.5t-95 30.5q-43 0 -66.5 -20.5t-28.5 -86.5h-10q11 107 42.5 154t96.5 47q44 0 110.5 -30.5t129 -60.5t96.5 -30q40 0 64 22t30 83h11q-11 -106 -43 -153.5
t-97 -47.5z" />
    <glyph glyph-name="adieresis" unicode="&#xe4;" horiz-adv-x="813" 
d="M340 66q100 0 184 84l13 325q-106 -26 -175 -55.5t-103 -63.5t-46 -65.5t-12 -73.5q0 -68 39 -109.5t100 -41.5zM651 -20q-54 0 -89.5 38.5t-39.5 104.5v2q-73 -68 -135 -105.5t-127 -37.5q-90 0 -147.5 55t-57.5 135q0 70 39.5 123.5t147.5 104.5t295 96l2 90
q4 74 -11.5 127t-45 81.5t-64.5 41t-78 12.5q-58 0 -114 -27.5t-56 -48.5q0 -5 13 -19t25.5 -36.5t12.5 -46.5q0 -32 -24 -56t-64 -24q-39 0 -63.5 22t-24.5 58q0 50 65 103.5t157 87.5t169 34q67 0 112 -13.5t78 -46.5t46.5 -92t9.5 -147l-20 -442q-8 -93 67 -93
q36 0 92 56l10 -6q-2 -3 -23.5 -29t-32.5 -37t-33 -30t-44.5 -27t-46.5 -8zM547 1042q-45 0 -69.5 30.5t-24.5 62.5q0 35 24.5 67.5t69.5 32.5t69.5 -32.5t24.5 -67.5q0 -32 -24.5 -62.5t-69.5 -30.5zM219 1042q-45 0 -69.5 30.5t-24.5 62.5q0 35 24.5 67.5t69.5 32.5
t69.5 -32.5t24.5 -67.5q0 -32 -24.5 -62.5t-69.5 -30.5z" />
    <glyph glyph-name="aring" unicode="&#xe5;" horiz-adv-x="813" 
d="M340 66q100 0 184 84l13 325q-106 -26 -175 -55.5t-103 -63.5t-46 -65.5t-12 -73.5q0 -68 39 -109.5t100 -41.5zM651 -20q-54 0 -89.5 38.5t-39.5 104.5v2q-73 -68 -135 -105.5t-127 -37.5q-90 0 -147.5 55t-57.5 135q0 70 39.5 123.5t147.5 104.5t295 96l2 90
q4 74 -11.5 127t-45 81.5t-64.5 41t-78 12.5q-58 0 -114 -27.5t-56 -48.5q0 -5 13 -19t25.5 -36.5t12.5 -46.5q0 -32 -24 -56t-64 -24q-39 0 -63.5 22t-24.5 58q0 50 65 103.5t157 87.5t169 34q67 0 112 -13.5t78 -46.5t46.5 -92t9.5 -147l-20 -442q-8 -93 67 -93
q36 0 92 56l10 -6q-2 -3 -23.5 -29t-32.5 -37t-33 -30t-44.5 -27t-46.5 -8zM416 1038q73 0 117.5 48t44.5 118q0 69 -44.5 117.5t-117.5 48.5t-117.5 -48.5t-44.5 -117.5q0 -70 44.5 -118t117.5 -48zM416 1020q-83 0 -132.5 53t-49.5 131q0 77 49.5 131t132.5 54t132.5 -54
t49.5 -131q0 -78 -49.5 -131t-132.5 -53z" />
    <glyph glyph-name="ae" unicode="&#xe6;" horiz-adv-x="1339" 
d="M1124 612q0 112 -45 187t-133 75q-82 0 -154.5 -78.5t-97.5 -189.5zM344 57q59 0 107 34.5t122 117.5q-43 94 -43 211q0 37 2 53q-104 -26 -172.5 -56.5t-102 -65t-45 -66.5t-11.5 -74q0 -67 41 -110.5t102 -43.5zM266 -27q-90 0 -150.5 57t-60.5 138q0 51 22 94t74 85
t148 79.5t236 69.5l6 90q4 73 -12 126t-46.5 81.5t-65.5 41.5t-77 13q-58 0 -114 -27.5t-56 -48.5q0 -5 13 -19t25.5 -36.5t12.5 -46.5q0 -32 -24 -56t-64 -24q-39 0 -63.5 22t-24.5 58q0 50 64 103.5t158 87.5t177 34q89 0 138.5 -31t72.5 -104q119 135 308 135
q149 0 236 -80t87 -201q0 -4 -0.5 -8t-1.5 -9.5t-2 -10.5q-109 2 -293 2h-299q-6 -31 -6 -111q0 -179 91.5 -290t228.5 -111q97 0 164.5 37t121.5 127l17 -7q-76 -129 -164 -194.5t-207 -65.5q-115 0 -208 59.5t-142 155.5q-109 -115 -177 -165t-143 -50z" />
    <glyph glyph-name="ccedilla" unicode="&#xe7;" horiz-adv-x="825" 
d="M444 -27q-171 0 -288 128t-117 313q0 132 57 242t162 174.5t236 64.5q127 0 210.5 -51.5t83.5 -136.5q0 -41 -28 -70t-64 -29q-40 0 -66 25t-26 61q0 29 10 51t20.5 34.5t10.5 17.5q0 23 -47 52.5t-100 29.5q-125 0 -214 -114t-89 -286q0 -180 91.5 -291.5t229.5 -111.5
q95 0 158 36.5t119 127.5l16 -7q-66 -118 -143.5 -183t-182.5 -75l-100 -116q119 21 205 -20.5t86 -123.5q0 -54 -33.5 -97t-92.5 -70.5t-124 -44t-143 -25.5l-5 8q302 52 302 180q0 57 -43 84t-115 27q-82 0 -139 -23v15l178 204h-15z" />
    <glyph glyph-name="egrave" unicode="&#xe8;" horiz-adv-x="845" 
d="M635 610q0 113 -45 188.5t-133 75.5q-83 0 -154 -78.5t-96 -189.5zM446 -27q-173 0 -290 128t-117 313q0 131 53 240.5t152.5 175t226.5 65.5q151 0 237.5 -80t86.5 -201l-4 -28l-588 2q-8 -41 -8 -111q0 -179 92 -290t229 -111q96 0 161 36.5t124 127.5l14 -7
q-73 -128 -161.5 -194t-207.5 -66zM154 1389h162l223 -383h-8z" />
    <glyph glyph-name="eacute" unicode="&#xe9;" horiz-adv-x="845" 
d="M635 610q0 113 -45 188.5t-133 75.5q-83 0 -154 -78.5t-96 -189.5zM446 -27q-173 0 -290 128t-117 313q0 131 53 240.5t152.5 175t226.5 65.5q151 0 237.5 -80t86.5 -201l-4 -28l-588 2q-8 -41 -8 -111q0 -179 92 -290t229 -111q96 0 161 36.5t124 127.5l14 -7
q-73 -128 -161.5 -194t-207.5 -66zM600 1389h162l-377 -383h-8z" />
    <glyph glyph-name="ecircumflex" unicode="&#xea;" horiz-adv-x="845" 
d="M635 610q0 113 -45 188.5t-133 75.5q-83 0 -154 -78.5t-96 -189.5zM446 -27q-173 0 -290 128t-117 313q0 131 53 240.5t152.5 175t226.5 65.5q151 0 237.5 -80t86.5 -201l-4 -28l-588 2q-8 -41 -8 -111q0 -179 92 -290t229 -111q96 0 161 36.5t124 127.5l14 -7
q-73 -128 -161.5 -194t-207.5 -66zM455 1366h4l274 -383h-8l-266 229h-4l-266 -229h-9z" />
    <glyph glyph-name="edieresis" unicode="&#xeb;" horiz-adv-x="845" 
d="M635 610q0 113 -45 188.5t-133 75.5q-83 0 -154 -78.5t-96 -189.5zM446 -27q-173 0 -290 128t-117 313q0 131 53 240.5t152.5 175t226.5 65.5q151 0 237.5 -80t86.5 -201l-4 -28l-588 2q-8 -41 -8 -111q0 -179 92 -290t229 -111q96 0 161 36.5t124 127.5l14 -7
q-73 -128 -161.5 -194t-207.5 -66zM606 1042q-45 0 -69.5 30.5t-24.5 62.5q0 35 24.5 67.5t69.5 32.5t69.5 -32.5t24.5 -67.5q0 -32 -24.5 -62.5t-69.5 -30.5zM278 1042q-45 0 -69.5 30.5t-24.5 62.5q0 35 24.5 67.5t69.5 32.5t69.5 -32.5t24.5 -67.5q0 -32 -24.5 -62.5
t-69.5 -30.5z" />
    <glyph glyph-name="igrave" unicode="&#xec;" horiz-adv-x="446" 
d="M33 12l37 2q68 7 78 13q8 6 8 18v596q0 94 -15 123.5t-69 36.5l-47 8l2 8l272 72v-848q0 -12 18 -17.5t84 -9.5l29 -2l6 -12h-409zM-76 1389h162l223 -383h-8z" />
    <glyph glyph-name="iacute" unicode="&#xed;" horiz-adv-x="446" 
d="M33 12l37 2q68 7 78 13q8 6 8 18v596q0 94 -15 123.5t-69 36.5l-47 8l2 8l272 72v-848q0 -12 18 -17.5t84 -9.5l29 -2l6 -12h-409zM371 1389h162l-377 -383h-8z" />
    <glyph glyph-name="icircumflex" unicode="&#xee;" horiz-adv-x="446" 
d="M231 1366h5l241 -383h-10l-231 227h-5l-235 -227h-8zM33 12l37 2q68 7 78 13q8 6 8 18v596q0 94 -15 123.5t-69 36.5l-47 8l2 8l272 72v-848q0 -12 18 -17.5t84 -9.5l29 -2l6 -12h-409z" />
    <glyph glyph-name="idieresis" unicode="&#xef;" horiz-adv-x="446" 
d="M33 12l37 2q68 7 78 13q8 6 8 18v596q0 94 -15 123.5t-69 36.5l-47 8l2 8l272 72v-848q0 -12 18 -17.5t84 -9.5l29 -2l6 -12h-409zM398 1042q-45 0 -69.5 30.5t-24.5 62.5q0 35 24.5 67.5t69.5 32.5t69.5 -32.5t24.5 -67.5q0 -32 -24.5 -62.5t-69.5 -30.5zM70 1042
q-45 0 -69.5 30.5t-24.5 62.5q0 35 24.5 67.5t69.5 32.5t69.5 -32.5t24.5 -67.5q0 -32 -24.5 -62.5t-69.5 -30.5z" />
    <glyph glyph-name="eth" unicode="&#xf0;" horiz-adv-x="978" 
d="M489 -10q124 0 198.5 112.5t74.5 317.5q0 210 -75.5 333.5t-203.5 123.5q-123 0 -198.5 -116t-75.5 -304q0 -226 73 -346.5t207 -120.5zM410 1139q1 0 -17 -5.5t-53 -16.5t-64 -21q-70 -25 -135 -43l4 24l238 78q-118 73 -291 100l2 15q197 -18 352 -94l246 81l4 -24
l-217 -72q217 -111 335 -296t118 -378q0 -220 -127.5 -367t-319.5 -147t-319 130t-127 327q0 196 128 329.5t318 133.5q95 0 172 -25q-94 175 -247 271z" />
    <glyph glyph-name="ntilde" unicode="&#xf1;" horiz-adv-x="1005" 
d="M33 12l37 2q68 7 78 13q8 6 8 18v594q0 95 -15 125t-69 37l-47 8l2 8l274 72l-6 -176l6 -4q1 1 31 26.5t37.5 31.5t37 29t44 31.5t43.5 24.5t50 22.5t49 12.5t54 6q100 0 154 -57q65 -65 65 -199v-594q0 -7 4 -11t27 -8.5t72 -9.5l28 -2l7 -12h-408l6 12l37 2
q51 4 67.5 11t16.5 20v565q0 181 -180 181q-132 0 -244 -107v-266v-377q0 -12 18 -17.5t84 -9.5l29 -2l6 -12h-409zM663 1018q-44 0 -111 31t-129 61.5t-95 30.5q-43 0 -66.5 -20.5t-28.5 -86.5h-10q11 107 42.5 154t96.5 47q44 0 110.5 -30.5t129 -60.5t96.5 -30
q40 0 64 22t30 83h11q-11 -106 -43 -153.5t-97 -47.5z" />
    <glyph glyph-name="ograve" unicode="&#xf2;" horiz-adv-x="993" 
d="M500 -10q124 0 203 126.5t79 303.5q0 271 -112 383q-83 76 -176 76q-127 0 -206 -124.5t-79 -297.5q0 -279 117 -396q71 -71 174 -71zM498 -27q-196 0 -327.5 131.5t-131.5 325.5q0 127 59.5 233.5t165.5 169t234 62.5q195 0 325.5 -131.5t130.5 -325.5
q0 -197 -131.5 -331t-324.5 -134zM152 1389h162l223 -383h-8z" />
    <glyph glyph-name="oacute" unicode="&#xf3;" horiz-adv-x="993" 
d="M500 -10q124 0 203 126.5t79 303.5q0 271 -112 383q-83 76 -176 76q-127 0 -206 -124.5t-79 -297.5q0 -279 117 -396q71 -71 174 -71zM498 -27q-196 0 -327.5 131.5t-131.5 325.5q0 127 59.5 233.5t165.5 169t234 62.5q195 0 325.5 -131.5t130.5 -325.5
q0 -197 -131.5 -331t-324.5 -134zM670 1389h162l-377 -383h-8z" />
    <glyph glyph-name="ocircumflex" unicode="&#xf4;" horiz-adv-x="993" 
d="M500 -10q124 0 203 126.5t79 303.5q0 271 -112 383q-83 76 -176 76q-127 0 -206 -124.5t-79 -297.5q0 -279 117 -396q71 -71 174 -71zM498 -27q-196 0 -327.5 131.5t-131.5 325.5q0 127 59.5 233.5t165.5 169t234 62.5q195 0 325.5 -131.5t130.5 -325.5
q0 -197 -131.5 -331t-324.5 -134zM494 1366h4l274 -383h-8l-266 229h-4l-266 -229h-9z" />
    <glyph glyph-name="otilde" unicode="&#xf5;" horiz-adv-x="993" 
d="M500 -10q124 0 203 126.5t79 303.5q0 271 -112 383q-83 76 -176 76q-127 0 -206 -124.5t-79 -297.5q0 -279 117 -396q71 -71 174 -71zM498 -27q-196 0 -327.5 131.5t-131.5 325.5q0 127 59.5 233.5t165.5 169t234 62.5q195 0 325.5 -131.5t130.5 -325.5
q0 -197 -131.5 -331t-324.5 -134zM647 1018q-44 0 -111 31t-129 61.5t-95 30.5q-43 0 -66.5 -20.5t-28.5 -86.5h-10q11 107 42.5 154t96.5 47q44 0 110.5 -30.5t129 -60.5t96.5 -30q40 0 64 22t30 83h11q-11 -106 -43 -153.5t-97 -47.5z" />
    <glyph glyph-name="odieresis" unicode="&#xf6;" horiz-adv-x="993" 
d="M500 -10q124 0 203 126.5t79 303.5q0 271 -112 383q-83 76 -176 76q-127 0 -206 -124.5t-79 -297.5q0 -279 117 -396q71 -71 174 -71zM498 -27q-196 0 -327.5 131.5t-131.5 325.5q0 127 59.5 233.5t165.5 169t234 62.5q195 0 325.5 -131.5t130.5 -325.5
q0 -197 -131.5 -331t-324.5 -134zM660 1042q-45 0 -69.5 30.5t-24.5 62.5q0 35 24.5 67.5t69.5 32.5t69.5 -32.5t24.5 -67.5q0 -32 -24.5 -62.5t-69.5 -30.5zM332 1042q-45 0 -69.5 30.5t-24.5 62.5q0 35 24.5 67.5t69.5 32.5t69.5 -32.5t24.5 -67.5q0 -32 -24.5 -62.5
t-69.5 -30.5z" />
    <glyph glyph-name="divide" unicode="&#xf7;" horiz-adv-x="1114" 
d="M555 -2q203 0 340 139t137 348q0 206 -137 348t-336 142q-201 0 -339 -142.5t-138 -351.5q0 -207 135 -345t338 -138zM555 -20q-213 0 -353.5 142.5t-140.5 358.5q0 217 142.5 364.5t355.5 147.5q210 0 352 -146t142 -362q0 -218 -142 -361.5t-356 -143.5z" />
    <glyph glyph-name="oslash" unicode="&#xf8;" horiz-adv-x="993" 
d="M694 772q1 1 -26 -47t-75.5 -131.5t-94.5 -161.5q-90 -157 -199 -340q16 -20 27 -31q71 -71 174 -71q124 0 203 126.5t79 303.5q0 237 -88 352zM682 788q-3 6 -12 15q-83 76 -176 76q-127 0 -206 -124.5t-79 -297.5q0 -229 78 -348zM248 43q-98 61 -153.5 162.5
t-55.5 224.5q0 127 59.5 233.5t165.5 169t234 62.5q119 0 215 -51l196 338h23q-12 -19 -25 -41t-28 -48.5t-23 -41.5q-110 -190 -127 -217q105 -61 165 -164.5t60 -231.5q0 -197 -131.5 -331t-324.5 -134q-129 0 -234 60l-170 -295h-22z" />
    <glyph glyph-name="ugrave" unicode="&#xf9;" horiz-adv-x="954" 
d="M696 154h-2q-40 -37 -67.5 -59.5t-75 -55.5t-98 -49.5t-101.5 -16.5q-99 0 -159 60q-62 62 -62 196v596q0 7 -3.5 10.5t-28 8.5t-72.5 8l-29 2l-6 12h282v-610q0 -180 183 -180q125 0 233 98v238v336q0 62 -19 80.5t-83 23.5l-29 2l-6 12h283v-739q0 -36 9.5 -49
t41.5 -17l80 -12l-2 -10l-273 -72zM201 1389h162l223 -383h-8z" />
    <glyph glyph-name="uacute" unicode="&#xfa;" horiz-adv-x="954" 
d="M696 154h-2q-40 -37 -67.5 -59.5t-75 -55.5t-98 -49.5t-101.5 -16.5q-99 0 -159 60q-62 62 -62 196v596q0 7 -3.5 10.5t-28 8.5t-72.5 8l-29 2l-6 12h282v-610q0 -180 183 -180q125 0 233 98v238v336q0 62 -19 80.5t-83 23.5l-29 2l-6 12h283v-739q0 -36 9.5 -49
t41.5 -17l80 -12l-2 -10l-273 -72zM637 1389h162l-377 -383h-8z" />
    <glyph glyph-name="ucircumflex" unicode="&#xfb;" horiz-adv-x="954" 
d="M696 154h-2q-40 -37 -67.5 -59.5t-75 -55.5t-98 -49.5t-101.5 -16.5q-99 0 -159 60q-62 62 -62 196v596q0 7 -3.5 10.5t-28 8.5t-72.5 8l-29 2l-6 12h282v-610q0 -180 183 -180q125 0 233 98v238v336q0 62 -19 80.5t-83 23.5l-29 2l-6 12h283v-739q0 -36 9.5 -49
t41.5 -17l80 -12l-2 -10l-273 -72zM475 1366h4l274 -383h-8l-266 229h-4l-266 -229h-9z" />
    <glyph glyph-name="udieresis" unicode="&#xfc;" horiz-adv-x="954" 
d="M696 154h-2q-40 -37 -67.5 -59.5t-75 -55.5t-98 -49.5t-101.5 -16.5q-99 0 -159 60q-62 62 -62 196v596q0 7 -3.5 10.5t-28 8.5t-72.5 8l-29 2l-6 12h282v-610q0 -180 183 -180q125 0 233 98v238v336q0 62 -19 80.5t-83 23.5l-29 2l-6 12h283v-739q0 -36 9.5 -49
t41.5 -17l80 -12l-2 -10l-273 -72zM649 1042q-45 0 -69.5 30.5t-24.5 62.5q0 35 24.5 67.5t69.5 32.5t69.5 -32.5t24.5 -67.5q0 -32 -24.5 -62.5t-69.5 -30.5zM321 1042q-45 0 -69.5 30.5t-24.5 62.5q0 35 24.5 67.5t69.5 32.5t69.5 -32.5t24.5 -67.5q0 -32 -24.5 -62.5
t-69.5 -30.5z" />
    <glyph glyph-name="yacute" unicode="&#xfd;" horiz-adv-x="917" 
d="M164 -524q-50 0 -83.5 26.5t-33.5 67.5q0 37 27 64.5t65 27.5q43 0 71 -27.5t36 -70.5q52 10 84 65t78 189l55 168l-2 2l-314 735q-34 84 -51.5 103.5t-64.5 23.5l-39 2l-6 12h415l-4 -12l-35 -2q-59 -4 -69.5 -27t14.5 -80l232 -555l159 435q35 101 38 144.5t-22 60.5
t-98 22l-28 2l-6 12h346l-6 -12l-27 -2q-64 -4 -88.5 -37.5t-79.5 -178.5q-9 -23 -14 -36l-228 -606l-67 -211q-49 -160 -107 -232.5t-147 -72.5zM612 1319h154l-356 -365h-9z" />
    <glyph glyph-name="thorn" unicode="&#xfe;" horiz-adv-x="962" 
d="M496 -2q125 0 195.5 115t70.5 293q0 164 -79.5 275.5t-209.5 111.5q-121 0 -237 -121v-494q38 -77 109.5 -128.5t150.5 -51.5zM-29 -506l37 2q68 7 78 13q8 6 8 18v1651q0 62 -15.5 84.5t-68.5 29.5l-47 8l2 11l271 67v-671l4 -5q76 85 152.5 133t168.5 48
q156 0 259.5 -118.5t103.5 -305.5q0 -110 -40 -204t-104.5 -154t-144 -94t-160.5 -34q-121 0 -235 54h-4v-506q0 -8 6.5 -12.5t30 -8t67.5 -4.5l70 -2l6 -12h-451z" />
    <glyph glyph-name="ydieresis" unicode="&#xff;" horiz-adv-x="917" 
d="M164 -524q-50 0 -83.5 26.5t-33.5 67.5q0 37 27 64.5t65 27.5q43 0 71 -27.5t36 -70.5q52 10 84 65t78 189l55 168l-2 2l-314 735q-34 84 -51.5 103.5t-64.5 23.5l-39 2l-6 12h415l-4 -12l-35 -2q-59 -4 -69.5 -27t14.5 -80l232 -555l159 435q35 101 38 144.5t-22 60.5
t-98 22l-28 2l-6 12h346l-6 -12l-27 -2q-64 -4 -88.5 -37.5t-79.5 -178.5q-9 -23 -14 -36l-228 -606l-67 -211q-49 -160 -107 -232.5t-147 -72.5zM641 1042q-45 0 -69.5 30.5t-24.5 62.5q0 35 24.5 67.5t69.5 32.5t69.5 -32.5t24.5 -67.5q0 -32 -24.5 -62.5t-69.5 -30.5z
M313 1042q-45 0 -69.5 30.5t-24.5 62.5q0 35 24.5 67.5t69.5 32.5t69.5 -32.5t24.5 -67.5q0 -32 -24.5 -62.5t-69.5 -30.5z" />
    <glyph glyph-name="dotlessi" unicode="&#x131;" horiz-adv-x="446" 
d="M33 12l37 2q68 7 78 13q8 6 8 18v596q0 94 -15 123.5t-69 36.5l-47 8l2 8l272 72v-848q0 -12 18 -17.5t84 -9.5l29 -2l6 -12h-409z" />
    <glyph glyph-name="Lslash" unicode="&#x141;" horiz-adv-x="1118" 
d="M23 516v25l204 67v625q0 8 -7 12.5t-33 8.5t-78 8l-66 6l-6 12h581l-6 -12l-123 -8q-98 -8 -98 -33v-565l207 67l4 -24l-211 -68v-608l242 -11q51 0 94.5 9.5t75.5 23.5t61.5 42t48.5 51.5t42 67t36.5 74t36.5 85.5l12 26h15l-80 -397h-940l6 12l88 8q98 8 98 33v531z
" />
    <glyph glyph-name="lslash" unicode="&#x142;" horiz-adv-x="428" 
d="M2 489l4 23l139 45v576q0 93 -15 122.5t-69 36.5l-45 8l2 11l271 67v-774l133 45l4 -22l-137 -45v-541q0 -13 17.5 -18t84.5 -9l29 -2l6 -12h-406l5 12l34 2q68 7 78 13q8 6 8 18v490z" />
    <glyph glyph-name="OE" unicode="&#x152;" horiz-adv-x="1880" 
d="M946 27v1200l-151 28q-111 -2 -204.5 -34.5t-159 -87.5t-111.5 -129.5t-67.5 -159.5t-21.5 -178q0 -134 35 -248t104 -203t183 -139.5t262 -50.5zM784 0q-348 -4 -538.5 164.5t-190.5 453.5q0 144 53.5 265t152.5 208.5t248.5 137t334.5 49.5l848 2l39 -365h-11l-12 29
q-31 86 -60 140.5t-71 97.5t-98.5 61.5t-135.5 18.5h-233v-582h135q142 8 196.5 38t82.5 128l10 28l12 -2l-41 -413l-12 2l-2 26q-3 45 -12.5 73t-25 47t-48 28.5t-70.5 13.5t-104 6l-121 4v-628l266 -11q71 2 129.5 20.5t99 47t76.5 75t59.5 90.5t49.5 107l12 29l13 -2
l-84 -387h-947z" />
    <glyph glyph-name="oe" unicode="&#x153;" horiz-adv-x="1591" 
d="M1380 612q0 112 -45 187t-133 75q-85 0 -154.5 -77.5t-95.5 -190.5zM500 -10q124 0 203 126t79 304q0 263 -110 379q-80 80 -178 80q-85 0 -151 -59.5t-100 -156.5t-34 -212q0 -124 30.5 -226.5t86.5 -161.5q67 -73 174 -73zM498 -27q-196 0 -327.5 131t-131.5 324
q0 127 59.5 234t165.5 170t234 63q121 0 217.5 -54t152.5 -149q56 95 146 149t205 54q148 0 234.5 -80t86.5 -201q0 -4 -0.5 -8t-1.5 -9.5t-2 -10.5q-109 2 -291 2h-297q-8 -41 -8 -111q0 -178 92 -289.5t230 -111.5q96 0 161.5 36.5t124.5 127.5l15 -7q-148 -260 -375 -260
q-202 0 -324 199q-61 -94 -155.5 -146.5t-210.5 -52.5z" />
    <glyph glyph-name="Scaron" unicode="&#x160;" horiz-adv-x="991" 
d="M479 -29q-174 0 -383 72l-20 291h12l43 -101q53 -127 138.5 -184t211.5 -57q137 0 223.5 84.5t86.5 214.5q0 122 -79 195t-241 126q-74 24 -130 52t-105.5 69t-76 98.5t-26.5 129.5q0 144 106 246t279 102q124 0 252 -47l82 24l18 -313h-12l-135 246q-95 71 -207 71
q-114 0 -187 -68t-73 -173q0 -57 21 -101.5t65 -77.5t92 -56t119 -48q86 -30 148 -62t116.5 -78t82.5 -109.5t28 -143.5q0 -160 -129 -281t-320 -121zM243 1749h9l266 -229h4l266 229h8l-274 -383h-4z" />
    <glyph glyph-name="scaron" unicode="&#x161;" horiz-adv-x="710" 
d="M328 -27q-145 0 -260 47l-23 242l12 2l43 -92q41 -86 103.5 -133t136.5 -47q91 0 146 50.5t55 129.5q0 81 -56 130t-172 87q-49 16 -86 34.5t-74 47.5t-57 72.5t-20 97.5q0 109 83 180.5t203 71.5q103 0 181 -37l65 23l10 -228l-12 -2l-104 168q-71 57 -142 57
q-83 0 -127.5 -42t-44.5 -115q0 -72 50.5 -113.5t156.5 -77.5q43 -15 68.5 -25.5t61 -28t56.5 -37t41.5 -45.5t30 -61t9.5 -77q0 -116 -93 -197.5t-241 -81.5zM79 1348h9l266 -229h4l266 229h8l-274 -383h-4z" />
    <glyph glyph-name="Ydieresis" unicode="&#x178;" horiz-adv-x="1249" 
d="M342 12l102 8q99 8 99 33v522l-303 535q-47 86 -83 118t-102 36l-57 4l-6 12h540l-6 -12l-61 -2q-80 -4 -88.5 -34t37.5 -112l278 -493h4l193 364q29 57 45 92t25 67.5t5.5 50t-18 31.5t-40.5 21t-68 11l-52 4l-6 12h451l-6 -12l-45 -4q-42 -2 -67.5 -10.5t-56.5 -37
t-62 -78.5t-76 -139l-211 -395v-557q0 -8 7 -12.5t33 -8.5t78 -8l80 -6l6 -12h-575zM797 1384q-45 0 -69.5 30.5t-24.5 62.5q0 35 24.5 67.5t69.5 32.5t69.5 -32.5t24.5 -67.5q0 -32 -24.5 -62.5t-69.5 -30.5zM469 1384q-45 0 -69.5 30.5t-24.5 62.5q0 35 24.5 67.5
t69.5 32.5t69.5 -32.5t24.5 -67.5q0 -32 -24.5 -62.5t-69.5 -30.5z" />
    <glyph glyph-name="Zcaron" unicode="&#x17d;" horiz-adv-x="1165" 
d="M68 6l813 1249v7h-336q-74 0 -134 -16.5t-102 -43t-76.5 -70t-57.5 -89t-46 -107.5l-10 -25h-13l44 369h927v-8l-811 -1245v-4l365 -5q83 0 147.5 17.5t108 46t80 78.5t59.5 100t51 127l13 29h16l-66 -416h-972v6zM315 1718h9l266 -229h4l266 229h8l-274 -383h-4z" />
    <glyph glyph-name="zcaron" unicode="&#x17e;" horiz-adv-x="837" 
d="M39 10l551 836q-27 2 -74 2h-98q-69 0 -115.5 -13t-80.5 -46.5t-55.5 -72t-49.5 -106.5l-19 -41h-10l6 295h668v-10l-555 -834l190 -4q130 0 207 57.5t146 176.5l28 47h8l-67 -297h-680v10zM137 1348h9l266 -229h4l266 229h8l-274 -383h-4z" />
    <glyph glyph-name="florin" unicode="&#x192;" horiz-adv-x="987" 
d="M147 -145q-72 0 -114.5 31t-42.5 79q0 37 26 63.5t64 26.5q33 0 57 -23t25 -58t-29 -76q44 -19 60 -19q51 0 87 45t77 181t92 399l49 254l-219 4l24 61l215 4q73 279 184 390q94 94 224 94q73 0 120.5 -33t47.5 -84q0 -39 -29.5 -65.5t-63.5 -26.5q-39 0 -63 24.5
t-18.5 63.5t45.5 74q-2 1 -10 6t-13 8q-22 14 -53 14q-30 0 -53.5 -11.5t-43.5 -39.5t-36 -62t-32.5 -92t-30 -115.5t-31.5 -146.5l251 -2l-10 -65h-256l-59 -258q-50 -221 -109.5 -357t-134.5 -211q-72 -77 -197 -77z" />
    <glyph glyph-name="circumflex" unicode="&#x2c6;" 
d="M377 1366h4l274 -383h-8l-266 229h-4l-266 -229h-9z" />
    <glyph glyph-name="caron" unicode="&#x2c7;" 
d="M102 1366h9l266 -229h4l266 229h8l-274 -383h-4z" />
    <glyph glyph-name="breve" unicode="&#x2d8;" 
d="M379 995q-27 0 -50.5 6.5t-42 16.5t-36 28.5t-29.5 35t-24.5 43.5t-20 46.5t-17 52t-15 52t-13.5 53.5h10q45 -117 102.5 -176t139.5 -59t140.5 60t101.5 175h10q-13 -52 -21 -81t-24 -74.5t-33.5 -72t-43 -54t-59 -40t-75.5 -12.5z" />
    <glyph glyph-name="dotaccent" unicode="&#x2d9;" 
d="M379 1075q-45 0 -69.5 30t-24.5 62q0 35 24.5 67t69.5 32t69.5 -32t24.5 -67q0 -32 -24.5 -62t-69.5 -30z" />
    <glyph glyph-name="ring" unicode="&#x2da;" 
d="M379 1038q73 0 117.5 48t44.5 118q0 69 -44.5 117.5t-117.5 48.5t-117.5 -48.5t-44.5 -117.5q0 -70 44.5 -118t117.5 -48zM379 1020q-83 0 -132.5 53t-49.5 131q0 77 49.5 131t132.5 54t132.5 -54t49.5 -131q0 -78 -49.5 -131t-132.5 -53z" />
    <glyph glyph-name="ogonek" unicode="&#x2db;" 
d="M365 -465q-76 0 -129.5 50.5t-53.5 123.5q0 46 22.5 91.5t56 79.5t78 66t82 52t73.5 35h28q-239 -116 -239 -285q0 -68 39.5 -108.5t101.5 -40.5q70 0 139 73l8 -6q-89 -131 -206 -131z" />
    <glyph glyph-name="tilde" unicode="&#x2dc;" 
d="M530 1018q-44 0 -111 31t-129 61.5t-95 30.5q-43 0 -66.5 -20.5t-28.5 -86.5h-10q11 107 42.5 154t96.5 47q44 0 110.5 -30.5t129 -60.5t96.5 -30q40 0 64 22t30 83h11q-11 -106 -43 -153.5t-97 -47.5z" />
    <glyph glyph-name="hungarumlaut" unicode="&#x2dd;" 
d="M653 1389h150l-350 -383h-15zM362 1389h150l-352 -383h-15z" />
    <glyph glyph-name="pi" unicode="&#x3c0;" horiz-adv-x="1441" 
d="M766 618q92 0 140 49t48 142q0 94 -48.5 141t-160.5 47h-86v-364q62 -15 107 -15zM438 256l62 6q59 6 59 21v694q0 8 -11.5 11t-60.5 7l-47 4l-4 13h342q138 0 208.5 -51.5t70.5 -141.5q0 -92 -84 -153.5t-207 -61.5q-65 0 -107 10v-335q0 -5 4 -7.5t20 -5.5t46 -6l62 -4
l4 -12h-359zM721 -10q176 0 325.5 87.5t236.5 237.5t87 326q0 177 -87 327.5t-236.5 238t-325.5 87.5t-325.5 -87.5t-236.5 -238t-87 -327.5q0 -176 87 -326t236.5 -237.5t325.5 -87.5zM721 -29q-137 0 -261 53t-213.5 142.5t-142.5 213.5t-53 261q0 182 89.5 336.5t244 245
t336.5 90.5t336.5 -90.5t244 -245t89.5 -336.5q0 -137 -53 -261t-142.5 -213.5t-213.5 -142.5t-261 -53z" />
    <glyph glyph-name="endash" unicode="&#x2013;" horiz-adv-x="870" 
d="M14 520h848l-6 -61h-848z" />
    <glyph glyph-name="emdash" unicode="&#x2014;" horiz-adv-x="1835" 
d="M14 520h1813l-6 -61h-1813z" />
    <glyph glyph-name="quoteleft" unicode="&#x2018;" horiz-adv-x="342" 
d="M193 877q-64 0 -106 43t-42 118q0 84 69.5 164.5t176.5 122.5l8 -8q-160 -97 -160 -217q0 -39 18.5 -65t44 -34.5t52.5 -12.5t43 1q13 -36 -17 -74t-87 -38z" />
    <glyph glyph-name="quoteright" unicode="&#x2019;" horiz-adv-x="339" 
d="M41 883q160 93 160 213q0 38 -18.5 64t-44 35t-52.5 13.5t-43 -0.5q-9 36 19.5 75.5t84.5 39.5q64 0 106 -46t42 -122q0 -84 -69.5 -162.5t-176.5 -120.5z" />
    <glyph glyph-name="quotesinglbase" unicode="&#x201a;" horiz-adv-x="339" 
d="M41 -213q160 93 160 215q0 38 -18.5 64.5t-44 35t-52.5 13.5t-43 0q-9 36 19.5 75t84.5 39q64 0 106 -46t42 -122q0 -85 -69.5 -163.5t-176.5 -120.5z" />
    <glyph glyph-name="quotedblleft" unicode="&#x201c;" horiz-adv-x="659" 
d="M193 877q-64 0 -106 43t-42 118q0 84 69.5 164.5t176.5 122.5l8 -8q-160 -97 -160 -217q0 -39 18.5 -65t44 -34.5t52.5 -12.5t43 1q13 -36 -17 -74t-87 -38zM510 877q-64 0 -106 43t-42 118q0 84 69.5 164.5t176.5 122.5l8 -8q-159 -97 -159 -217q0 -39 18.5 -65
t44 -34.5t52 -12.5t42.5 1q13 -36 -17 -74t-87 -38z" />
    <glyph glyph-name="quotedblright" unicode="&#x201d;" horiz-adv-x="657" 
d="M358 883q160 93 160 213q0 38 -18.5 64t-43.5 35t-51.5 13.5t-42.5 -0.5q-13 34 17 74.5t86 40.5q64 0 105.5 -45.5t41.5 -122.5q0 -84 -69 -162.5t-176 -120.5zM41 883q160 93 160 213q0 38 -18.5 64t-44 35t-52.5 13.5t-43 -0.5q-9 36 19.5 75.5t84.5 39.5
q64 0 106 -46t42 -122q0 -84 -69.5 -162.5t-176.5 -120.5z" />
    <glyph glyph-name="quotedblbase" unicode="&#x201e;" horiz-adv-x="657" 
d="M358 -213q160 93 160 215q0 38 -18.5 64.5t-43.5 35t-51.5 13.5t-42.5 0q-13 34 17 74t86 40q64 0 105.5 -45.5t41.5 -122.5q0 -85 -69 -163.5t-176 -120.5zM41 -213q160 93 160 215q0 38 -18.5 64.5t-44 35t-52.5 13.5t-43 0q-9 36 19.5 75t84.5 39q64 0 106 -46
t42 -122q0 -85 -69.5 -163.5t-176.5 -120.5z" />
    <glyph glyph-name="dagger" unicode="&#x2020;" horiz-adv-x="886" 
d="M432 848h-414l-2 20h416v412h23v-412h415l-2 -20h-413v-1167h-23v1167z" />
    <glyph glyph-name="daggerdbl" unicode="&#x2021;" horiz-adv-x="886" 
d="M432 74h-416l2 20h414v770h-414l-2 21h416v395h23v-395h415l-2 -21h-413v-770h413l2 -20h-415v-393h-23v393z" />
    <glyph glyph-name="bullet" unicode="&#x2022;" horiz-adv-x="870" 
d="M434 80q-44 0 -145.5 42.5t-130.5 74.5q-31 36 -74 135t-43 143q0 43 43 145.5t74 133.5t133 72.5t145 41.5t147.5 -41.5t131.5 -72.5q31 -27 72.5 -131.5t41.5 -147.5q0 -45 -41 -145.5t-73 -132.5q-28 -33 -131.5 -75t-149.5 -42z" />
    <glyph glyph-name="ellipsis" unicode="&#x2026;" horiz-adv-x="1134" 
d="M569 -25q-47 0 -78.5 31.5t-31.5 75.5q0 42 32 73t78 31t76.5 -31t30.5 -73q0 -44 -30.5 -75.5t-76.5 -31.5zM180 -25q-46 0 -78 31.5t-32 75.5q0 42 32 73t78 31t76.5 -31t30.5 -73q0 -44 -30.5 -75.5t-76.5 -31.5zM956 -25q-46 0 -77 31.5t-31 75.5q0 42 31 73t77 31
t76.5 -31t30.5 -73q0 -44 -30.5 -75.5t-76.5 -31.5z" />
    <glyph glyph-name="perthousand" unicode="&#x2030;" horiz-adv-x="1673" 
d="M270 809q104 0 168 69t64 171q0 101 -64.5 172t-167.5 71q-102 0 -165.5 -71t-63.5 -172q0 -102 63 -171t166 -69zM270 791q-115 0 -184.5 75t-69.5 183q0 109 69.5 185.5t184.5 76.5q116 0 186 -76.5t70 -185.5q0 -108 -70 -183t-186 -75zM811 -8q104 0 167.5 67.5
t63.5 169.5q0 103 -64 174.5t-167 71.5q-102 0 -165.5 -71.5t-63.5 -174.5q0 -102 62.5 -169.5t166.5 -67.5zM811 -27q-115 0 -184.5 74.5t-69.5 181.5q0 110 69.5 187.5t184.5 77.5q116 0 186 -77.5t70 -187.5q0 -107 -70 -181.5t-186 -74.5zM1401 -8q104 0 167.5 67.5
t63.5 169.5q0 103 -64 174.5t-167 71.5q-102 0 -166 -71.5t-64 -174.5q0 -102 63 -169.5t167 -67.5zM1401 -27q-115 0 -184.5 74.5t-69.5 181.5q0 110 69.5 187.5t184.5 77.5q116 0 186 -77.5t70 -187.5q0 -107 -70 -181.5t-186 -74.5zM965 1311h24l-876 -1340h-25z" />
    <glyph glyph-name="guilsinglleft" unicode="&#x2039;" horiz-adv-x="477" 
d="M23 449v12l413 350l6 -6l-262 -350l262 -351l-6 -6z" />
    <glyph glyph-name="guilsinglright" unicode="&#x203a;" horiz-adv-x="477" 
d="M35 104l262 351l-260 350l6 6l412 -350v-12l-414 -351z" />
    <glyph glyph-name="fraction" unicode="&#x2044;" horiz-adv-x="940" 
d="M936 1313h29l-961 -1340h-29z" />
    <glyph glyph-name="Euro" unicode="&#x20ac;" horiz-adv-x="978" 
d="M592 -29q-171 0 -302 133.5t-163 352.5h-129l6 20h119q-6 67 -6 123q0 71 8 123h-127l6 20h125q27 166 108.5 294t194.5 195.5t238 67.5q124 0 200 -46t76 -121q0 -38 -28.5 -65.5t-65.5 -27.5q-48 0 -72 32.5t-19.5 72.5t32.5 63q-15 29 -49.5 50.5t-88.5 21.5
q-144 0 -253.5 -154t-129.5 -383h408l6 -20h-416q0 -12 -1 -39t-1 -41q0 -73 13 -166h399l6 -20h-399q33 -177 134.5 -282t233.5 -105q101 0 174.5 45t128.5 143l15 -10q-74 -133 -164.5 -205t-216.5 -72z" />
    <glyph glyph-name="trademark" unicode="&#x2122;" horiz-adv-x="827" 
d="M385 965h10q25 0 32 6t7 30l6 252q-10 16 -34 19l-15 2l-2 6h111l88 -238h2l90 238h115l-2 -6l-25 -2q-23 -3 -23 -8l7 -291q0 -3 4 -3q10 0 24 -3l15 -2l2 -7h-156v7l25 2q20 3 20 8l-4 280h-2l-115 -297h-6l-110 285l-3 2l-4 -248q0 -22 8 -27t39 -5h11l2 -7h-119z
M121 965l22 2q25 3 25 8v299h-25q-22 -1 -41 -15t-28 -27.5t-25 -39.5l-4 -6h-4l16 94h287l10 -94h-2l-4 8q-39 80 -92 80h-25v-301q0 -3 4 -3q11 0 25 -3l16 -2v-7h-157z" />
    <glyph glyph-name="Omega" unicode="&#x2126;" horiz-adv-x="1085" 
d="M47 12l37 2q68 7 78 13q8 6 8 18v746l-150 2l29 71h119l4 31q28 221 142.5 331.5t273.5 110.5q79 0 120.5 -29.5t41.5 -78.5q0 -32 -24.5 -57t-61.5 -25q-49 0 -83 43.5t-26 97.5l-61 21q-100 -28 -140.5 -117.5t-40.5 -251.5v-76h377l2 49q10 111 47 198t91 139
t115.5 79t125.5 27q60 0 92.5 -26.5t32.5 -65.5q0 -31 -25.5 -55.5t-60.5 -24.5q-42 0 -77 32.5t-42 79.5l-2 15l-28 4q-74 -33 -100.5 -118.5t-26.5 -238.5v-94h225l-29 -73h-196v-750q0 -9 5 -14t26.5 -8.5t64.5 -4.5l67 -2l7 -12h-441l6 12l37 2q67 6 76 13q8 6 8 18v748
h-377v-752q0 -10 4.5 -14.5t26 -8.5t64.5 -4l65 -2l6 -12h-438z" />
    <glyph glyph-name="Delta" unicode="&#x2206;" horiz-adv-x="909" 
d="M315 -23q-75 0 -131 15.5t-85.5 41.5t-43.5 54t-14 57q0 44 29 75.5t75 31.5q43 0 71 -28.5t28 -65.5q0 -79 -88 -95q47 -67 161 -67q113 0 160 69t47 238v932q0 8 -7 12.5t-33.5 9t-77.5 7.5l-80 6l-7 12h576l-6 -12l-103 -8q-98 -8 -98 -33v-973q0 -37 -30.5 -85
t-79.5 -91t-120 -73t-143 -30z" />
    <glyph glyph-name="radical" unicode="&#x221a;" horiz-adv-x="1505" 
d="M1354 1378v-1337q0 -12 18.5 -17.5t85.5 -9.5l29 -2l6 -12h-408l7 12l34 2q68 7 78 13q8 6 8 18v748h-378v-752q0 -9 4.5 -14t25.5 -8.5t64 -4.5l67 -2l4 -12h-436l6 12l37 2q67 6 76 13q8 6 8 18v748h-377v-752q0 -10 4.5 -14.5t26 -8.5t64.5 -4l65 -2l6 -12h-438l6 12
l37 2q68 7 78 13q8 6 8 18v746l-150 2l29 71h119l4 31q28 221 142.5 331.5t273.5 110.5q79 0 120.5 -29.5t41.5 -78.5q0 -32 -24.5 -57t-61.5 -25q-50 0 -83 43t-26 98l-61 21q-100 -28 -140.5 -117.5t-40.5 -251.5v-76h377l2 51q10 111 49.5 198t99 139.5t129.5 79
t146 26.5q73 0 123 -29zM1212 1161h-8q-57 0 -91 42.5t-28 103.5l-65 20q-101 -28 -143.5 -118.5t-42.5 -250.5v-94h378v297z" />
    <glyph glyph-name="approxequal" unicode="&#x2248;" horiz-adv-x="1505" 
d="M47 12l37 2q68 7 78 13q8 6 8 18v746l-150 2l29 71h119l4 31q28 221 142.5 331.5t273.5 110.5q79 0 120.5 -29.5t41.5 -78.5q0 -32 -24.5 -57t-61.5 -25q-49 0 -83 44t-26 97l-61 21q-100 -28 -140.5 -117.5t-40.5 -251.5v-76h377l2 51q10 111 50 198t99.5 139.5t130 79
t146.5 26.5q78 0 123 -32.5t45 -88.5q0 -33 -25.5 -57.5t-60.5 -24.5q-56 0 -90.5 46t-26.5 108l-61 18q-101 -28 -144.5 -119t-43.5 -250v-94h376l144 23v-846q0 -12 18.5 -17.5t85.5 -9.5l29 -2l6 -12h-408l7 12l36 2q29 3 40.5 4.5t24 5t16 9t3.5 14.5v746h-378v-752
q0 -9 4.5 -14t25.5 -8.5t64 -4.5l67 -2l4 -12h-436l6 12l37 2q67 6 76 13q8 6 8 18v748h-377v-752q0 -10 4.5 -14.5t26 -8.5t64.5 -4l65 -2l6 -12h-438z" />
    <glyph glyph-name="apple" unicode="&#xf8ff;" horiz-adv-x="1552" 
d="M905 346l393 -213l-211 395l422 129l-422 125l211 394l-393 -211l-127 424l-131 -424l-391 211l211 -394l-426 -127l426 -131l-211 -391l391 213l127 -426zM602 236l-383 -140l139 383l-370 176l370 170l-139 387l383 -141l176 371l170 -371l387 141l-141 -387l369 -168
l-369 -174l141 -387l-387 142l-174 -371z" />
    <glyph glyph-name="fi" unicode="&#xfb01;" horiz-adv-x="989" 
d="M47 12l37 2q68 7 78 13q8 6 8 18v746l-150 2l29 71h119l4 51q10 111 49.5 198t99 139.5t129.5 79t146 26.5q78 0 123 -32.5t45 -88.5q0 -33 -25 -57.5t-61 -24.5q-55 0 -89 46t-26 108l-63 18q-101 -28 -144 -118.5t-43 -250.5v-94h377l144 23v-846q0 -12 18.5 -17.5
t85.5 -9.5l29 -2l4 -12h-408l6 12l37 2q67 6 76 13q8 6 8 18v748h-377v-752q0 -10 4.5 -14.5t26 -8.5t64.5 -4l65 -2l6 -12h-438z" />
    <glyph glyph-name="fl" unicode="&#xfb02;" horiz-adv-x="983" 
d="M713 1327q1 0 61 27q21 7 60 24v-1337q0 -12 18.5 -17.5t85.5 -9.5l29 -2l4 -12h-408l6 12l35 2q68 7 78 13q8 6 8 18v748h-377v-752q0 -10 4.5 -14.5t26 -8.5t64.5 -4l65 -2l6 -12h-438l6 12l37 2q68 7 78 13q8 6 8 18v746l-150 2l29 71h119l4 51q10 111 49.5 198
t99 139.5t129 79t144.5 26.5q77 0 119 -31zM690 1163q-4 -2 -16 -2q-56 0 -91 43t-28 103l-57 20q-101 -28 -143 -118.5t-42 -250.5v-94h377v299z" />
    </font>
</defs>
</svg>
