<?xml version="1.0" standalone="no"?>
<!DOCTYPE svg PUBLIC "-//W3C//DTD SVG 1.1//EN" "http://www.w3.org/Graphics/SVG/1.1/DTD/svg11.dtd" >
<svg xmlns="http://www.w3.org/2000/svg" xmlns:xlink="http://www.w3.org/1999/xlink" version="1.1">
<metadata>
Created by FontForge 20170731 at Fri Jan 15 08:43:49 2021
 By Aleksey,,,
Copyright (c) Joshua Darden &#38; Phil's Fonts, Inc, 2005. All rights reserved.
</metadata>
<defs>
<font id="Freight-BigLight" horiz-adv-x="757" >
  <font-face 
    font-family="Freight"
    font-weight="300"
    font-stretch="normal"
    units-per-em="2048"
    panose-1="2 0 6 3 9 0 0 2 0 4"
    ascent="1638"
    descent="-410"
    x-height="864"
    cap-height="1280"
    bbox="-168 -571 2001 1733"
    underline-thickness="40"
    underline-position="-312"
    unicode-range="U+0020-FB02"
  />
<missing-glyph horiz-adv-x="1024" 
 />
    <glyph glyph-name=".notdef" horiz-adv-x="1024" 
 />
    <glyph glyph-name=".null" horiz-adv-x="0" 
 />
    <glyph glyph-name=".null" horiz-adv-x="0" 
 />
    <glyph glyph-name="nonmarkingreturn" horiz-adv-x="682" 
 />
    <glyph glyph-name="space" unicode=" " horiz-adv-x="266" 
 />
    <glyph glyph-name="exclam" unicode="!" horiz-adv-x="450" 
d="M156 1184q-2 29 -3 58t17 50t57 21h4q38 0 55.5 -21t16 -50t-3.5 -58l-61 -819q0 -5 -4 -7t-7.5 0t-3.5 7zM229 -31q-40 0 -68 27t-28 63t27.5 61t68.5 25q38 0 63 -25t25 -61t-25.5 -63t-62.5 -27z" />
    <glyph glyph-name="quotedbl" unicode="&#x22;" horiz-adv-x="569" 
d="M508 1323h2l61 -29l-323 -469zM2 838l254 485h4l62 -29zM-4 825h-2l8 13z" />
    <glyph glyph-name="numbersign" unicode="#" horiz-adv-x="1011" 
d="M614 412l119 452h-334l-118 -452h333zM254 395h-285v17h289l119 452h-285v17h289l108 413h23l-109 -413h334l109 413h22l-108 -413h282v-17h-286l-119 -452h283v-17h-287l-107 -405h-22l106 405h-334l-106 -405h-23z" />
    <glyph glyph-name="dollar" unicode="$" horiz-adv-x="890" 
d="M268 -12q-129 25 -198 53l-33 278h14l33 -83q65 -165 192 -218l82 308q18 65 38.5 144t30.5 120.5t11 40.5q-6 2 -14 6q-66 21 -115.5 45t-98.5 62t-75 94t-26 127q0 149 102.5 245.5t265.5 96.5q71 0 133 -19l62 230h20l-61 -234q1 0 67 -29l90 27l33 -291h-14l-139 236
q-26 18 -45 28l-129 -493q1 -1 10 -4q60 -22 104 -41.5t96.5 -53.5t85.5 -73t55.5 -97t22.5 -128q0 -164 -126 -278t-308 -114q-65 0 -145 13q1 0 -4.5 -23t-15.5 -61t-21 -76q-6 -25 -43 -160h-21zM604 1264q-57 26 -131 26q-123 0 -199.5 -71t-76.5 -181q0 -54 20 -96
t61.5 -74t85 -53.5t111.5 -46.5q3 0 66 248q8 34 29.5 117t33.5 131zM295 12q71 -22 143 -22q149 0 240.5 84.5t91.5 218.5q0 124 -78 202t-235 132q1 1 -39 -153.5t-81 -308.5t-42 -153z" />
    <glyph glyph-name="percent" unicode="%" horiz-adv-x="1083" 
d="M270 811q104 0 168 68t64 170q0 101 -64.5 171t-167.5 70q-102 0 -165.5 -70t-63.5 -171q0 -102 63 -170t166 -68zM270 791q-115 0 -184.5 75t-69.5 183q0 109 69.5 185.5t184.5 76.5q116 0 186 -76.5t70 -185.5q0 -108 -70 -183t-186 -75zM811 -6q104 0 167.5 67.5
t63.5 169.5q0 101 -64 171.5t-167 70.5q-102 0 -165.5 -70.5t-63.5 -171.5q0 -102 62.5 -169.5t166.5 -67.5zM811 -27q-115 0 -184.5 74.5t-69.5 181.5q0 110 69.5 187.5t184.5 77.5q116 0 186 -77.5t70 -187.5q0 -107 -70 -181.5t-186 -74.5zM965 1311h24l-876 -1340h-25z
" />
    <glyph glyph-name="ampersand" unicode="&#x26;" horiz-adv-x="1392" 
d="M528 836q100 50 136 108.5t36 138.5q0 81 -56.5 147t-137.5 66q-80 0 -135.5 -60t-55.5 -146q0 -89 47.5 -144t165.5 -110zM444 61q58 0 107 17t95.5 55t82.5 75.5t91 101.5q14 17 22 26q-81 151 -191 269.5t-229 170.5q-137 -61 -211 -165.5t-74 -215.5
q0 -153 84.5 -243.5t222.5 -90.5zM354 -27q-145 0 -242.5 102t-97.5 244q0 145 102.5 271.5t286.5 193.5q-99 55 -146.5 114t-47.5 132q0 61 39.5 127t110 112t147.5 46q142 0 220.5 -71.5t78.5 -153.5q0 -73 -62.5 -143t-195.5 -118q109 -64 209 -168.5t168 -220.5
q227 274 227 340q0 25 -39 42.5t-137 27.5l-21 2l-6 12h465l-6 -12l-29 -2q-24 -1 -43 -4.5t-32.5 -6t-28.5 -12.5t-22.5 -14t-23 -21.5t-21 -24t-25.5 -32.5t-29 -37l-217 -274q128 -237 152 -276q52 -83 98 -102q23 -9 53 -9q86 0 170 115l14 -7q-5 -6 -27.5 -31
t-35.5 -38.5t-39 -36t-47 -35t-51 -22t-60 -9.5q-56 0 -95.5 23t-92.5 99.5t-125 226.5q-34 -42 -47 -58t-43.5 -53t-45.5 -52t-43.5 -44.5t-46.5 -42t-46 -33t-51 -29t-52 -19.5t-59 -14.5t-62 -3.5z" />
    <glyph glyph-name="quotesingle" unicode="'" horiz-adv-x="282" 
d="M2 838l254 485h4l62 -29zM2 838l-8 -13h2z" />
    <glyph glyph-name="parenleft" unicode="(" horiz-adv-x="647" 
d="M639 -571q-70 38 -140 97t-142 147.5t-127 191.5t-89.5 237t-34.5 275q0 143 34.5 278t89.5 238t127 191.5t142.5 146.5t139.5 94l10 -16q-68 -38 -137 -97t-139 -146.5t-123.5 -188.5t-87 -232t-33.5 -268q0 -139 33.5 -270.5t87 -232t124 -187.5t139 -145.5
t136.5 -96.5z" />
    <glyph glyph-name="parenright" unicode=")" horiz-adv-x="647" 
d="M-2 -555q68 38 136.5 96.5t139 145.5t124 187.5t87 232t33.5 270.5q0 137 -33.5 268t-87 232t-123.5 188.5t-139 146.5t-137 97l10 16q69 -36 139.5 -94t142.5 -146.5t127 -191.5t89.5 -238t34.5 -278q0 -141 -34.5 -275t-89.5 -237t-127 -191.5t-142 -147.5t-140 -97z
" />
    <glyph glyph-name="asterisk" unicode="*" horiz-adv-x="620" 
d="M313 791l-16 198q0 7 -5 8q-2 0 -3 -4l-125 -151l-111 -23q-8 0 -4 4l53 101l181 73q7 10 0 13l-181 82l-57 96q-3 8 4 8l115 -20l123 -160q2 -8 7 -3l3 7l22 207l78 76q3 3 4 2l21 -111l-117 -178q-4 -4 -1.5 -9t7.5 -3l201 51l100 -51q3 1 4 0q1 -2 -2 -4q-1 -1 -2 -1
l-100 -47l-201 49q-5 2 -7.5 -2t1.5 -10l109 -174l-13 -108h-8z" />
    <glyph glyph-name="plus" unicode="+" horiz-adv-x="886" 
d="M432 475h-418l4 21h414v417h23v-417h413l4 -21h-415l-2 -426h-23v426z" />
    <glyph glyph-name="comma" unicode="," horiz-adv-x="301" 
d="M45 -193q55 28 99 78t44 125q0 60 -40.5 84.5t-94.5 -4.5q-24 43 1 82t83 39q56 0 93.5 -41.5t37.5 -106.5q0 -80 -62 -157t-153 -109z" />
    <glyph glyph-name="hyphen" unicode="-" horiz-adv-x="573" 
d="M43 520h494l-7 -41h-493z" />
    <glyph glyph-name="period" unicode="." horiz-adv-x="346" 
d="M176 -27q-41 0 -68.5 26.5t-27.5 63.5q0 36 28 63.5t68 27.5q37 0 63.5 -27.5t26.5 -63.5q0 -37 -26 -63.5t-64 -26.5z" />
    <glyph glyph-name="slash" unicode="/" horiz-adv-x="509" 
d="M463 1290h20l-430 -1796h-20z" />
    <glyph glyph-name="zero" unicode="0" horiz-adv-x="1052" 
d="M532 -10q140 0 236 137.5t96 339.5q0 223 -94 363.5t-246 140.5q-90 0 -167.5 -62t-123 -168.5t-45.5 -230.5q0 -245 92 -382.5t252 -137.5zM526 -23q-197 0 -331 143.5t-134 358.5q0 214 136.5 363t332.5 149q192 0 326.5 -148t134.5 -360q0 -221 -131.5 -363.5
t-333.5 -142.5z" />
    <glyph glyph-name="one" unicode="1" horiz-adv-x="628" 
d="M119 16l69 2q50 2 69 9t19 26v844l-213 25l7 10l313 49v-932q0 -9 7.5 -14t32 -9.5t71.5 -7.5l61 -2l6 -16h-448z" />
    <glyph glyph-name="two" unicode="2" horiz-adv-x="833" 
d="M33 16q175 145 274 234.5t160.5 165t80.5 129.5t19 123q0 105 -55 167t-152 62q-89 0 -155 -44t-125 -146l-14 6q67 130 160.5 203t197.5 73q111 0 184.5 -66.5t73.5 -168.5q0 -132 -113.5 -269.5t-396.5 -375.5v-3l490 -2q50 0 135 226l8 20l14 -2l-78 -348h-702z" />
    <glyph glyph-name="three" unicode="3" horiz-adv-x="792" 
d="M219 -412q-109 0 -159 41t-50 99q0 37 24 62.5t60 25.5q56 0 83 -52t13 -126q26 -10 29 -11q21 -8 55 -8q67 0 128 21t113 63.5t83 115.5t31 167q0 132 -77.5 217.5t-223.5 85.5q-80 0 -176 -47l-9 8q53 35 75.5 50t64.5 44t59.5 43t49 38.5t44 39t33 37t28 39.5
t17.5 39.5t13 44.5t3 47q0 103 -62 164t-163 61q-168 0 -262 -186l-14 10q67 136 153 202t205 66q107 0 180.5 -73.5t73.5 -178.5q0 -55 -22.5 -106t-65.5 -96t-87 -80t-104 -74v-2q179 4 277 -90t98 -252q0 -88 -39 -169.5t-106.5 -143.5t-165 -99t-207.5 -37z" />
    <glyph glyph-name="four" unicode="4" horiz-adv-x="919" 
d="M545 117v678h-2l-443 -678h445zM545 23h-527v4l615 942h16v-852l246 -4l-37 -90h-209v-400h-104v400z" />
    <glyph glyph-name="five" unicode="5" horiz-adv-x="749" 
d="M145 -412q-196 0 -196 119q0 32 23.5 54t60.5 22q44 0 69.5 -41t30.5 -102q53 -17 96 -17q63 0 126.5 30.5t113 81t80.5 120.5t31 145q0 163 -132.5 276t-357.5 150l139 532h473l-28 -110h-453l-84 -320q241 -37 388 -162t147 -298q0 -89 -43 -176t-113.5 -154
t-168.5 -108.5t-202 -41.5z" />
    <glyph glyph-name="six" unicode="6" horiz-adv-x="950" 
d="M492 -4q132 0 210 98t78 268q0 152 -79 253.5t-205 101.5q-182 0 -308 -168q-4 -46 -4 -76q0 -205 88.5 -341t219.5 -136zM492 -20q-196 0 -316.5 141t-120.5 373q0 150 65.5 296t177 260.5t268 192.5t329.5 96l2 -12q-125 -21 -235 -75t-189.5 -128t-140.5 -165.5
t-96 -186.5t-48 -192l2 -2q73 92 169.5 149t197.5 57q157 0 251.5 -108.5t94.5 -267.5q0 -123 -60 -223t-153.5 -152.5t-197.5 -52.5z" />
    <glyph glyph-name="seven" unicode="7" horiz-adv-x="813" 
d="M745 846l-2 10h-538q-63 0 -89.5 -34t-52.5 -132l-6 -18l-12 2l33 284h713l2 -6l-519 -1329h-104z" />
    <glyph glyph-name="eight" unicode="8" horiz-adv-x="909" 
d="M530 707q80 42 129.5 118t49.5 166q0 130 -76.5 216.5t-192.5 86.5q-99 0 -173 -72.5t-74 -172.5q0 -63 25 -114t75.5 -92.5t103.5 -71t133 -64.5zM475 -8q127 0 209 75t82 191q0 68 -29 125.5t-85 104t-114 80t-141 71.5q-103 -38 -169 -127.5t-66 -202.5
q0 -144 84 -230.5t229 -86.5zM457 -27q-170 0 -285 96.5t-115 239.5q0 103 90 199t232 137v2q-68 39 -109.5 67t-84 68t-62 85.5t-19.5 101.5q0 134 109.5 240t245.5 106q150 0 251 -92.5t101 -231.5q0 -78 -73.5 -159t-190.5 -132v-2q73 -38 122.5 -72t94 -78t66.5 -98.5
t22 -119.5q0 -146 -117.5 -251.5t-277.5 -105.5z" />
    <glyph glyph-name="nine" unicode="9" horiz-adv-x="950" 
d="M453 254q182 0 307 164q1 9 4.5 37t3.5 43q0 202 -91 341.5t-220 139.5q-130 0 -209.5 -97t-79.5 -261q0 -155 80 -261t205 -106zM51 -348q156 26 286 101t215.5 178.5t138 220.5t69.5 239h-2q-74 -94 -168 -151.5t-195 -57.5q-158 0 -252 113.5t-94 275.5q0 123 60 223
t154 152.5t198 52.5q192 0 312 -146.5t120 -379.5q0 -151 -65.5 -295t-177 -256t-268 -188t-329.5 -94z" />
    <glyph glyph-name="colon" unicode=":" horiz-adv-x="342" 
d="M176 598q-40 0 -68 28t-28 66q0 33 28 59.5t68 26.5q37 0 63.5 -26.5t26.5 -59.5q0 -37 -26 -65.5t-64 -28.5zM176 -27q-41 0 -68.5 26.5t-27.5 63.5q0 33 28 60t68 27q37 0 63.5 -27t26.5 -60q0 -37 -26 -63.5t-64 -26.5z" />
    <glyph glyph-name="semicolon" unicode=";" horiz-adv-x="301" 
d="M160 598q-41 0 -69 27t-28 63t28 63t69 27q38 0 64 -27t26 -63t-26 -63t-64 -27zM45 -193q29 18 46 30.5t43.5 38.5t40 60t13.5 74q0 60 -40.5 84.5t-94.5 -4.5q-24 43 1 80t83 37q56 0 93.5 -40.5t37.5 -105.5q0 -79 -62 -153.5t-153 -106.5z" />
    <glyph glyph-name="less" unicode="&#x3c;" horiz-adv-x="860" 
d="M10 471v23l815 401l11 -23l-793 -387v-4l793 -391l-11 -22z" />
    <glyph glyph-name="equal" unicode="=" horiz-adv-x="876" 
d="M31 672h815l-6 -21h-803zM37 313h803l6 -20h-815z" />
    <glyph glyph-name="greater" unicode="&#x3e;" horiz-adv-x="860" 
d="M25 90l792 391v4l-792 387l10 23l815 -401v-23l-815 -403z" />
    <glyph glyph-name="question" unicode="?" horiz-adv-x="612" 
d="M289 365q-65 55 -117.5 122.5t-52.5 120.5q0 71 43 113t166 98q122 53 164.5 84t42.5 76q0 34 -17 69.5t-52 70.5t-100 57t-149 22q-79 0 -149 -20q-17 24 -17 69q0 33 30.5 49.5t106.5 16.5q152 0 261.5 -109.5t109.5 -261.5q0 -93 -34.5 -130t-142.5 -89q-6 -3 -9.5 -5
t-8.5 -4.5t-10 -4.5q-42 -19 -56.5 -25.5t-44 -22.5t-39.5 -27.5t-20 -30t-10 -40.5q0 -40 35 -95.5t82 -102.5h-12zM297 -27q-38 0 -65 26.5t-27 63.5q0 33 27.5 60t64.5 27q40 0 66 -26.5t26 -60.5q0 -38 -26 -64t-66 -26z" />
    <glyph glyph-name="at" unicode="@" horiz-adv-x="1568" 
d="M588 233q66 0 153.5 100.5t178.5 268.5q49 89 49 137q0 51 -52 106.5t-98 55.5q-45 0 -112 -57q-86 -77 -154 -218.5t-68 -260.5q0 -51 31 -91.5t72 -40.5zM795 -211q-162 0 -300.5 52t-236 143.5t-152.5 221.5t-55 283q0 167 63.5 320t170 263.5t253.5 176.5t308 66
q192 0 345.5 -80.5t240 -225t86.5 -325.5q0 -111 -41 -215t-107 -177.5t-151 -118t-170 -44.5q-98 0 -149.5 48t-51.5 136q0 96 59 211h-2q-133 -199 -216 -284.5t-157 -85.5q-64 0 -109.5 49t-45.5 116q0 74 30.5 154t82.5 153t103.5 131t111.5 113q94 84 174 84
q119 0 116 -172h2l76 226l105 -9l-158 -411l-41 -107q-36 -93 -44.5 -155t10 -94.5t51.5 -45t87 -12.5q71 0 144.5 39t133.5 105.5t98 163t38 202.5q0 264 -184.5 438t-466.5 174q-157 0 -300.5 -64.5t-247 -173.5t-165 -258t-61.5 -311q0 -197 91.5 -352.5t256.5 -242.5
t375 -87q215 0 399 111.5t262 278.5l19 -9q-84 -172 -270.5 -285.5t-409.5 -113.5z" />
    <glyph glyph-name="A" unicode="A" horiz-adv-x="1282" 
d="M379 561q1 0 -3.5 -12.5t-15 -40.5t-18.5 -49t-23 -62q-10 -25 -29.5 -81.5t-29.5 -84.5q-12 -33 -18 -50t-13 -40t-8.5 -34t-1.5 -25.5t4 -20.5t12.5 -14.5t19.5 -11.5t29 -7.5t38 -6.5t49 -5l43 -4l6 -12h-426l6 12l33 4q27 3 43.5 6t35 13t29 17.5t26.5 31.5
t25.5 42.5t28.5 63t33 81t41 108.5l285 784l-19 54q14 5 24.5 11.5t20.5 19.5t14.5 20t16.5 28h16l408 -1138q34 -87 59 -112.5t92 -29.5l58 -4l6 -12h-492l7 12l65 2q54 6 82.5 20.5t17.5 49.5l-168 477h-409zM782 580l-194 550h-2q-32 -84 -101 -274l-100 -276h397z" />
    <glyph glyph-name="B" unicode="B" horiz-adv-x="1110" 
d="M471 715q170 4 258 80t88 194q0 268 -328 268h-129v-544zM555 20q21 3 25 3q86 6 149.5 35.5t98 76t50 99.5t15.5 114q0 150 -110.5 248t-288.5 98q-101 0 -134 -6v-637l166 -35zM55 12l74 8q98 8 98 31v1180q0 8 -7 12.5t-33.5 9.5t-77.5 9l-52 6l-6 12h477
q205 0 320 -71t115 -199q0 -114 -84.5 -190.5t-288.5 -106.5v-4q220 -12 332 -107.5t112 -243.5q0 -166 -133 -262t-366 -96h-486z" />
    <glyph glyph-name="C" unicode="C" horiz-adv-x="1349" 
d="M752 -29q-203 0 -361.5 82.5t-247 233t-88.5 344.5q0 195 88.5 350t249 242.5t365.5 87.5q192 0 346 -90l100 47l27 -350h-12l-150 284q-47 36 -129.5 63t-179.5 27q-171 0 -298.5 -83t-194 -228.5t-66.5 -333.5q0 -295 149.5 -476t399.5 -181q90 0 160 19t124.5 59
t95.5 91t82 126l52 86h12l-74 -295l-72 -15q-69 -36 -172.5 -63t-205.5 -27z" />
    <glyph glyph-name="D" unicode="D" horiz-adv-x="1302" 
d="M530 23q143 2 255.5 52.5t181.5 134.5t105 188.5t36 222.5q0 140 -37.5 256t-110.5 202.5t-188 134.5t-262 48h-150v-1213zM55 12l74 8q98 8 98 31v1184q0 6 -3.5 9t-16 6.5t-35.5 6t-63 5.5l-52 6l-6 12l490 6q330 0 520 -165.5t190 -452.5q0 -199 -95.5 -351
t-270.5 -234.5t-404 -82.5h-432z" />
    <glyph glyph-name="E" unicode="E" horiz-adv-x="1150" 
d="M47 12l82 8q98 8 98 31v1184q0 6 -3.5 9t-16 6.5t-35.5 6t-63 5.5l-60 6l-6 12h909l49 -330l-8 2l-14 29q-62 157 -127.5 220t-169.5 63h-322v-574h238q48 2 78 7.5t51 14t34.5 28.5t22 42.5t19.5 63.5l10 26l10 -2l-39 -389l-10 2l-2 23q-3 40 -5.5 60.5t-10.5 41.5
t-17.5 29t-32.5 15.5t-49.5 9.5t-72.5 4l-224 4v-643l342 -9q73 2 129 24t97.5 66.5t71 94.5t61.5 127l12 28l12 -2l-94 -356h-950z" />
    <glyph glyph-name="F" unicode="F" horiz-adv-x="1073" 
d="M47 12l82 8q98 8 98 31v1184q0 6 -3.5 9t-16 6.5t-35.5 6t-63 5.5l-60 6l-6 12h915l48 -346l-13 -2l-10 24q-27 82 -52 132.5t-64 94t-94.5 62.5t-133.5 19h-279v-586h197q60 2 93.5 9t56 28t32 44.5t23.5 76.5l10 22l10 -2l-39 -387l-10 2l-2 23q-2 32 -3.5 47.5
t-6 35.5t-8.5 28t-14.5 18.5t-22 14t-32.5 7.5t-43 5.5t-58 2.5l-183 4v-604q0 -8 7 -13t34 -9.5t78 -7.5l101 -7l6 -16h-545z" />
    <glyph glyph-name="G" unicode="G" horiz-adv-x="1374" 
d="M752 -31q-200 0 -358.5 81t-248.5 229.5t-90 338.5q0 146 52 274.5t143.5 221.5t223.5 147t286 54q175 0 344 -94l100 47l6 -342h-14l-129 276q-48 37 -129 63.5t-184 26.5q-165 0 -291.5 -86t-194 -235t-67.5 -336q0 -288 158 -465.5t407 -177.5q78 0 164.5 19t124.5 50
v451q0 8 -9 12.5t-36.5 8t-79.5 6.5l-80 6l-6 12h516l-6 -12l-74 -8q-98 -8 -98 -31v-416l135 21l2 -9q-126 -54 -285.5 -93.5t-281.5 -39.5z" />
    <glyph glyph-name="H" unicode="H" horiz-adv-x="1441" 
d="M55 12l74 8q98 8 98 31v1184q0 6 -3.5 9t-16 6.5t-35.5 6t-63 5.5l-52 6l-6 12h496l-6 -12l-82 -8q-99 -8 -99 -31v-567h721v573q0 6 -3.5 9t-16 6.5t-35.5 6t-63 5.5l-60 6l-6 12h496l-7 -12l-73 -8q-99 -8 -99 -31v-1184q0 -6 3.5 -9t16.5 -6.5t36 -6t63 -5.5l51 -6
l7 -12h-496l6 12l82 8q98 8 98 31v590h-721v-596q0 -6 3.5 -9t16.5 -6.5t36 -6t63 -5.5l60 -6l6 -12h-496z" />
    <glyph glyph-name="I" unicode="I" horiz-adv-x="628" 
d="M68 12l82 8q98 8 98 31v1184q0 6 -3.5 9t-16.5 6.5t-36 6t-63 5.5l-59 6l-7 12h504l-6 -12l-82 -8q-98 -8 -98 -31v-1184q0 -6 3.5 -9t16.5 -6.5t36 -6t63 -5.5l59 -6l6 -12h-504z" />
    <glyph glyph-name="J" unicode="J" horiz-adv-x="587" 
d="M12 -338q-67 0 -106 25t-39 71q0 38 26 64t66 26q42 0 66.5 -28t20.5 -66t-36 -65q98 -13 157.5 78t59.5 286v1182q0 8 -7 12t-33 8t-78 7l-60 6l-6 12h504l-6 -12l-82 -8q-99 -8 -99 -31v-1209q0 -20 -17.5 -61.5t-51 -92t-75 -96.5t-96.5 -77t-108 -31z" />
    <glyph glyph-name="K" unicode="K" horiz-adv-x="1316" 
d="M55 12l74 8q98 8 98 31v1184q0 6 -3.5 9t-16 6.5t-35.5 6t-63 5.5l-52 6l-6 12h496l-6 -12l-82 -8q-99 -8 -99 -31v-690l357 362q207 207 246 270q34 54 -4 73q-24 11 -105 18l-78 6l-6 12h485l-6 -12l-24 -2q-8 0 -21 -1q-81 -4 -123 -34t-219 -212q-82 -84 -133 -136
l-51 -52l407 -671q26 -44 43 -67.5t29 -39t30.5 -22.5t29.5 -9t45 -6l47 -4l6 -12h-486l9 12l59 4q45 3 64.5 22.5t18 42t-14.5 44.5l-371 623l-234 -236v-467q0 -6 3.5 -9t16.5 -6.5t36 -6t63 -5.5l60 -6l6 -12h-496z" />
    <glyph glyph-name="L" unicode="L" horiz-adv-x="1081" 
d="M55 12l74 8q98 8 98 31v1184q0 6 -3.5 9t-16 6.5t-35.5 6t-63 5.5l-52 6l-6 12h537l-6 -12l-123 -8q-99 -8 -99 -35v-1198l283 -9q58 2 105.5 18t83 41t67 66t54.5 84.5t48 104.5l13 24h12l-94 -356h-883z" />
    <glyph glyph-name="M" unicode="M" horiz-adv-x="1662" 
d="M47 12l55 2q73 6 109.5 20t36.5 42l28 1155q-31 21 -143 33l-55 4l-6 12h338l438 -1098h2l448 1098h316l-6 -12l-103 -8q-84 -7 -84 -31l21 -1184q0 -10 19 -14.5t95 -12.5l60 -6l6 -12h-502l6 12l99 8q84 7 84 31l-23 1141h-2l-491 -1192h-13l-452 1141q-8 26 -35 63
l-21 -1132q0 -21 52 -37.5t145 -20.5l37 -2l6 -12h-471z" />
    <glyph glyph-name="N" unicode="N" horiz-adv-x="1419" 
d="M287 1167h-2l2 -1095q0 -12 15.5 -23t55.5 -20t99 -13l39 -4l6 -12h-430l6 12l41 4q147 13 147 62l2 1110q-52 55 -192 76l-27 4l-6 12h322l825 -1067h2l-2 999q0 17 -38.5 29.5t-131.5 22.5l-39 4l-6 12h430l-6 -12l-41 -4q-75 -7 -111.5 -19t-36.5 -39l-2 -1214h-12z
" />
    <glyph glyph-name="O" unicode="O" horiz-adv-x="1433" 
d="M723 -8q237 0 373.5 173t136.5 468q0 289 -147 475t-373 186q-234 0 -373 -177.5t-139 -477.5q0 -286 146.5 -466.5t375.5 -180.5zM721 -27q-190 0 -341.5 84.5t-238 237.5t-86.5 346q0 107 36.5 210t100.5 185.5t146 145.5t179 97t194 34q143 0 266.5 -50t211.5 -139
t138.5 -215.5t50.5 -273.5q0 -133 -56 -256.5t-147.5 -212t-211 -141t-242.5 -52.5z" />
    <glyph glyph-name="P" unicode="P" horiz-adv-x="1073" 
d="M555 639q161 0 244.5 80.5t83.5 234.5q0 156 -84 235t-277 75l-162 -2v-596q83 -27 195 -27zM27 12l102 8q98 8 98 31v1184q0 6 -3.5 9t-16 6.5t-35.5 6t-63 5.5l-80 6l-6 12h555q217 0 331.5 -77.5t114.5 -225.5q0 -159 -129.5 -256.5t-339.5 -97.5q-80 0 -195 16v-594
q0 -8 7.5 -12t33.5 -8t78 -7l101 -6l6 -12h-566z" />
    <glyph glyph-name="Q" unicode="Q" horiz-adv-x="1433" 
d="M723 -8q237 0 373.5 173t136.5 468q0 190 -67 341t-185.5 235.5t-267.5 84.5q-233 0 -372.5 -178t-139.5 -477q0 -286 146.5 -466.5t375.5 -180.5zM1262 -365q-64 0 -118 6.5t-119.5 28t-118 57t-102.5 98.5t-83 148q-190 0 -341.5 84.5t-238 237.5t-86.5 346
q0 107 36.5 210t100.5 185.5t146 145.5t179 97t194 34q190 0 342.5 -86.5t238.5 -241.5t86 -350q0 -148 -68 -282.5t-179.5 -226.5t-245.5 -130q64 -152 150 -229.5t194 -92t250 1.5l4 -8q-38 -12 -109.5 -22.5t-111.5 -10.5z" />
    <glyph glyph-name="R" unicode="R" horiz-adv-x="1234" 
d="M561 651q136 0 218.5 84t82.5 226t-104 225t-285 76l-113 -5v-573q98 -33 201 -33zM27 12l102 8q98 14 98 31v1184q0 6 -3.5 9t-16 6.5t-35.5 6t-63 5.5l-80 6l-6 12h501q228 0 354 -83.5t126 -231.5q0 -119 -93 -209t-231 -119l311 -481q60 -89 96 -113t105 -29l27 -2
l8 -12h-285l-14 27l-379 602q-83 3 -189 35v-619q0 -5 7 -8.5t22.5 -6.5t26.5 -4.5t33.5 -4t29.5 -3.5l80 -6l6 -12h-545z" />
    <glyph glyph-name="S" unicode="S" horiz-adv-x="970" 
d="M473 -27q-192 0 -364 68l-33 278h12l33 -81q51 -128 136.5 -188t219.5 -60q149 0 240.5 84.5t91.5 220.5q0 131 -85.5 209.5t-260.5 132.5q-52 17 -92.5 34t-84.5 45t-73 61.5t-47.5 81.5t-18.5 106q0 149 103 247.5t266 98.5q131 0 221 -51l90 22l33 -291h-14l-139 240
q-79 63 -195 63q-123 0 -199.5 -71t-76.5 -181q0 -47 16.5 -86t41 -66t68 -52.5t82.5 -42t99 -37.5q61 -22 105 -41t96.5 -53t85 -72t55 -95t22.5 -126q0 -167 -126 -282.5t-308 -115.5z" />
    <glyph glyph-name="T" unicode="T" horiz-adv-x="1243" 
d="M354 12l103 8q98 8 98 31v1213h-174q-89 -10 -154 -76.5t-135 -190.5l-14 -26h-15l93 309h952l68 -309h-13l-12 26q-63 147 -127 203t-168 64h-168v-1219q0 -6 3.5 -9t16.5 -6.5t36 -6t63 -5.5l80 -6l6 -12h-545z" />
    <glyph glyph-name="U" unicode="U" horiz-adv-x="1325" 
d="M705 -27q-254 0 -371 106.5t-117 348.5v803q0 8 -7 12.5t-34 9.5t-78 9l-80 6l-6 12h545l-6 -12l-102 -8q-99 -8 -99 -35v-789q0 -210 97 -304.5t313 -94.5q191 0 282 110t91 347l-3 718q0 18 -51 32t-143 20l-39 4l-6 12h450l-6 -12l-41 -4q-74 -7 -108.5 -19t-34.5 -39
v-719q0 -514 -446 -514z" />
    <glyph glyph-name="V" unicode="V" horiz-adv-x="1298" 
d="M207 1120q-33 88 -59 114t-93 30l-59 4l-6 12h489l-6 -12l-63 -2q-17 -2 -28.5 -3.5t-26.5 -5.5t-23 -8.5t-16.5 -12.5t-8.5 -18t2 -24l404 -1038h2l327 891q14 39 21.5 60.5t14 46.5t6.5 37t-5.5 26t-15.5 19.5t-29 12t-42 9.5t-58 6l-43 4l-6 12h424l-6 -12l-33 -4
q-27 -3 -43.5 -6t-35.5 -12.5t-29 -16.5t-26.5 -31t-25.5 -42t-27.5 -63.5t-32 -82l-40.5 -109.5l-342 -926h-13z" />
    <glyph glyph-name="W" unicode="W" horiz-adv-x="2025" 
d="M209 1120q-15 39 -23.5 57t-20.5 38t-25.5 28t-33.5 13.5t-49 7.5l-59 4l-2 12h489l-6 -12l-65 -2q-36 -4 -57 -9t-35.5 -21t-6.5 -42l390 -1042h4l307 776l-72 192q-28 84 -57.5 112t-98.5 32l-55 4l-6 12h490l-7 -12l-65 -2q-52 -5 -80 -21t-16 -51l383 -1038h4
l313 880q19 55 26.5 87t6.5 60.5t-19 42.5t-50 23.5t-87 14.5l-43 4l-6 12h424l-6 -12l-33 -4q-25 -3 -40 -5.5t-31.5 -10.5t-25.5 -14t-22 -25t-20 -33.5t-21 -49.5t-24 -63t-29 -84q-6 -16 -9 -25.5t-8 -24.5t-10 -28l-329 -926h-17l-350 930h-2l-367 -930h-20z" />
    <glyph glyph-name="X" unicode="X" horiz-adv-x="1267" 
d="M-12 12l37 2q71 5 109.5 22.5t82 65.5t119.5 162l242 365l-322 487q-6 9 -19.5 29t-18 26t-15.5 21t-15.5 19.5t-14 15t-15.5 13.5t-15.5 9t-18.5 8t-20 4t-24 3l-55 4l-7 12h510l-6 -8l-80 -2q-69 -2 -80.5 -30.5t29.5 -100.5l262 -406h2l205 311q63 103 71 148
t-16.5 55.5t-105.5 15.5q-8 1 -12 1l-58 4l-6 12h484l-7 -12l-36 -2q-32 -1 -44.5 -2t-35 -5t-32 -9t-28.5 -17t-31.5 -27t-33.5 -40.5t-41 -55.5t-49 -74l-211 -321q47 -71 57 -86q20 -29 62.5 -96t60.5 -95q64 -98 182 -276q9 -13 26.5 -41.5t23.5 -37t20.5 -25t26.5 -22
t31.5 -12t45.5 -8.5l56 -4l4 -12h-506l8 12l76 2q70 2 82.5 29t-29.5 96l-305 469h-2q0 1 -15.5 -22.5l-46.5 -70.5t-55 -83q-46 -67 -117 -176q-34 -54 -53.5 -90t-26.5 -63t-4 -42t22 -24.5t43 -13.5t66 -7l58 -4l6 -12h-483z" />
    <glyph glyph-name="Y" unicode="Y" horiz-adv-x="1218" 
d="M342 12l102 8q99 8 99 31v527l-305 534q-25 45 -38.5 65.5t-35.5 43.5t-47.5 32t-63.5 11l-55 4l-6 12h506l-6 -12l-76 -2q-69 -2 -78.5 -25.5t31.5 -95.5l295 -520h4l211 397q27 52 42 85t21.5 61t2 43.5t-22.5 27.5t-45 17.5t-72 9.5l-55 2l-7 12h463l-6 -12l-35 -2
q-37 -2 -55 -4t-42 -10.5t-37.5 -21.5t-35.5 -42t-42 -66t-52 -98l-225 -422v-557q0 -6 3.5 -9t16.5 -6.5t36 -6t63 -5.5l79 -6l7 -12h-545z" />
    <glyph glyph-name="Z" unicode="Z" horiz-adv-x="1144" 
d="M74 6l821 1251v7h-459q-99 0 -166 -77t-133 -247l-12 -27h-12l51 367h889v-6l-820 -1247v-7l480 -4q72 0 126.5 24.5t93.5 76t66 114t54 154.5l12 29h16l-65 -414h-942v6z" />
    <glyph glyph-name="bracketleft" unicode="[" horiz-adv-x="626" 
d="M109 1280h499v-20h-477v-1745h477v-21h-499v1786z" />
    <glyph glyph-name="backslash" unicode="\" horiz-adv-x="475" 
d="M-12 1290h20l430 -1796h-20z" />
    <glyph glyph-name="bracketright" unicode="]" horiz-adv-x="626" 
d="M18 -485h478v1745h-478v20h500v-1786h-500v21z" />
    <glyph glyph-name="asciicircum" unicode="^" 
d="M631 983h-6l-244 234h-4l-244 -234h-6l252 363z" />
    <glyph glyph-name="underscore" unicode="_" horiz-adv-x="913" 
d="M45 4h823l6 -59h-835z" />
    <glyph glyph-name="grave" unicode="`" 
d="M80 1391h131l256 -383h-6z" />
    <glyph glyph-name="a" unicode="a" horiz-adv-x="780" 
d="M319 49q103 0 203 92l10 328q-93 -24 -159.5 -50.5t-104.5 -51t-59.5 -54.5t-28 -55t-6.5 -59q0 -73 37 -111.5t108 -38.5zM633 -18q-44 0 -79 38t-36 93v4q-155 -133 -264 -133q-90 0 -144.5 53.5t-54.5 130.5q0 71 42 123t146.5 100.5t288.5 97.5l5 121q4 74 -13 125
t-48.5 75.5t-63.5 34t-70 9.5q-63 0 -124.5 -34t-61.5 -58q0 -6 12 -17t24.5 -30t12.5 -43q0 -30 -22 -52t-56 -22q-78 0 -78 78q0 45 61 97t148.5 86t159.5 34q118 0 177 -59.5t52 -210.5l-20 -496q-4 -46 12 -62t51 -16q40 0 98 62l11 -7q-4 -4 -23.5 -28.5t-30 -35
t-30.5 -27.5t-40 -24t-42 -7z" />
    <glyph glyph-name="b" unicode="b" horiz-adv-x="935" 
d="M477 -4q130 0 209.5 115.5t79.5 300.5q0 171 -84 285t-217 114q-78 0 -134.5 -34t-123.5 -101v-516q38 -70 111.5 -117t158.5 -47zM94 1167q0 82 -15.5 110t-68.5 32l-47 4l2 12l242 57v-673l4 -7q161 181 321 181q155 0 260 -118t105 -304q0 -133 -62 -246.5
t-159.5 -176.5t-202.5 -63q-85 0 -160.5 24t-128.5 60h-2l-76 -96h-12v1204z" />
    <glyph glyph-name="c" unicode="c" horiz-adv-x="817" 
d="M440 -25q-165 0 -283 130t-118 311q0 132 58 241.5t161.5 172.5t230.5 63q122 0 202.5 -54t80.5 -134q0 -36 -26 -63.5t-56 -27.5q-35 0 -57.5 21t-22.5 53q0 23 6.5 40.5t14 25.5t14 15.5t6.5 12.5q0 24 -51 59.5t-113 35.5q-131 0 -227 -114.5t-96 -285.5
q0 -182 95 -302t233 -120q99 0 163.5 38.5t120.5 129.5l19 -6q-67 -118 -152.5 -180t-202.5 -62z" />
    <glyph glyph-name="d" unicode="d" horiz-adv-x="960" 
d="M471 45q79 0 136 35t120 102v514q-37 71 -110 118.5t-156 47.5q-133 0 -211 -109t-78 -294q0 -175 83.5 -294.5t215.5 -119.5zM727 1167q0 82 -15 110t-67 32l-67 4l2 12l262 57v-1276q0 -38 12 -53.5t57 -19.5l62 -4l-2 -13l-242 -47l-2 178l-4 3q-76 -82 -151.5 -128.5
t-168.5 -46.5q-154 0 -259 122.5t-105 312.5q0 101 37.5 190t99 150.5t142.5 97t167 35.5q123 0 242 -68v352z" />
    <glyph glyph-name="e" unicode="e" horiz-adv-x="825" 
d="M641 610q0 113 -51 187.5t-144 74.5q-86 0 -161 -74t-107 -190zM442 -25q-109 0 -202 60t-147 161.5t-54 219.5q0 130 51 238t148 173.5t221 65.5q146 0 230.5 -82.5t84.5 -194.5q0 -4 -0.5 -8t-1.5 -10l-2 -12l-596 2q-10 -55 -10 -113q0 -182 95 -301t233 -119
q99 0 163 38t125 130l15 -6q-71 -119 -154 -180.5t-199 -61.5z" />
    <glyph glyph-name="f" unicode="f" horiz-adv-x="532" 
d="M49 12l35 2q9 1 19.5 1.5t17 1t14 1.5t11.5 1.5t8.5 2t7 3t4.5 4t3 5.5t1 7v758l-139 2l18 63h119l4 47q10 112 44.5 200t84 140t106 78.5t115.5 26.5q52 0 81.5 -23.5t29.5 -60.5q0 -27 -22 -47.5t-52 -20.5q-37 0 -66.5 27.5t-37.5 66.5l-4 15l-27 4
q-139 -42 -139 -365v-88h202l-20 -65h-182v-760q0 -9 2.5 -13t23 -8t62.5 -4l67 -2l6 -12h-403z" />
    <glyph glyph-name="g" unicode="g" horiz-adv-x="894" 
d="M412 313q89 0 151 75t62 194q0 136 -56 214t-155 78q-87 0 -148 -77.5t-61 -194.5q0 -127 59 -208t148 -81zM424 -475q90 0 173 34.5t136 97t53 136.5q0 182 -258 191q-113 0 -241 -13q-64 -25 -124.5 -89.5t-60.5 -141.5q0 -94 88 -154.5t234 -60.5zM348 -510
q-149 0 -240.5 61t-91.5 166q0 80 77.5 152t168.5 106v2q-225 16 -225 134q0 73 75.5 134t166.5 74v3q-83 26 -139 97t-56 163q0 132 97.5 220.5t234.5 88.5q119 0 209 -70l231 41l-12 -71l-191 8l-2 -4q94 -87 94 -197q0 -129 -98.5 -215t-240.5 -86q-65 0 -107 14
q-63 -12 -106 -48t-43 -79q0 -51 39 -72.5t135 -21.5q25 0 108.5 3t122.5 3q139 0 220 -58t81 -157q0 -167 -144 -279t-364 -112z" />
    <glyph glyph-name="h" unicode="h" horiz-adv-x="958" 
d="M16 12l35 2q8 1 23 2q38 3 49.5 7.5t11.5 19.5v1120q0 85 -14.5 112t-67.5 34l-47 4l2 8l242 57v-676v-2q11 9 52 44.5t66.5 54t66.5 44.5t82.5 38t84.5 12q91 0 146 -55q65 -71 65 -189v-608q0 -8 3.5 -11.5t27 -8t71.5 -7.5l31 -2l6 -12h-381l7 12l36 2q54 4 70 10
t16 19v578q0 186 -176 186q-138 0 -274 -129v-258v-381q0 -12 17.5 -16.5t86.5 -8.5l29 -2l6 -12h-379z" />
    <glyph glyph-name="i" unicode="i" horiz-adv-x="417" 
d="M195 1087q-43 0 -66 28.5t-23 58.5q0 32 23 61t66 29t63.5 -28.5t20.5 -61.5q0 -30 -22 -58.5t-62 -28.5zM33 12l37 2q67 6 76 11q10 5 10 18v610q0 94 -15.5 124t-68.5 34l-47 6l2 8l243 64v-850q0 -12 17.5 -16t85.5 -9l28 -2l7 -12h-381z" />
    <glyph glyph-name="j" unicode="j" horiz-adv-x="380" 
d="M174 1087q-43 0 -64.5 28t-21.5 59q0 32 21.5 61t64.5 29t64.5 -29t21.5 -61q0 -30 -23 -58.5t-63 -28.5zM-33 -510q-68 0 -101.5 26t-33.5 66q0 30 22 49t54 19q39 0 66.5 -31.5t37.5 -93.5q125 22 125 276v852q0 94 -15.5 124t-68.5 34l-47 6l2 8l244 64v-946
q0 -113 -38 -217.5t-104.5 -170t-142.5 -65.5z" />
    <glyph glyph-name="k" unicode="k" horiz-adv-x="903" 
d="M16 12l35 2q8 1 23 2q38 3 49.5 7.5t11.5 19.5v1120q0 86 -14.5 114t-67.5 32l-47 4l2 8l242 57v-983l207 205q141 153 141 195q0 46 -106 55l-27 2l-4 12h381l-6 -12l-45 -4q-27 -2 -49.5 -10t-53 -33t-49 -43.5t-69.5 -71t-83 -84.5l-20 -20q-18 -18 -18 -23l264 -430
q35 -55 50 -73t37.5 -29t69.5 -17l23 -2l6 -12h-252l-10 25l-275 456l-112 -110v-332q0 -12 17 -16.5t83 -8.5l29 -2l6 -12h-375z" />
    <glyph glyph-name="l" unicode="l" horiz-adv-x="407" 
d="M25 12l34 2q67 6 76 11q10 5 10 18v1104q0 95 -14.5 125t-69.5 37l-45 4l2 8l242 57v-1339q0 -12 17 -16.5t85 -8.5l29 -2l6 -12h-377z" />
    <glyph glyph-name="m" unicode="m" horiz-adv-x="1478" 
d="M33 12l37 2q67 6 76 11q10 5 10 18v606q0 95 -15.5 126.5t-68.5 35.5l-47 6l2 8l245 64l-10 -178h2q36 36 61 58.5t69.5 55.5t92 50.5t95.5 17.5q101 0 157 -62q48 -55 56 -122h2q33 35 61 60.5t71 57t91 49t96 17.5q94 0 158 -64q63 -63 63 -184v-604q0 -6 1.5 -9t12 -6
t30.5 -5.5t59 -6.5l26 -2l7 -12h-379l6 12l37 2q52 4 68 10t16 19v578q0 186 -179 186q-71 0 -138.5 -33.5t-98.5 -83.5l-2 -2v-647q0 -6 1.5 -8.5t11.5 -6t30 -6t59 -6.5l29 -2l6 -12h-377l6 12l37 2q51 4 66.5 10t15.5 19v578q0 186 -176 186q-129 0 -242 -113v-270v-385
q0 -12 18 -16t87 -9l26 -2l9 -12h-383z" />
    <glyph glyph-name="n" unicode="n" horiz-adv-x="978" 
d="M33 12l37 2q67 6 76 11q10 5 10 18v606q0 95 -15.5 126.5t-68.5 35.5l-47 6l2 8l245 64l-6 -184l4 -7q3 3 35 31.5t44 38t44 34.5t54 36.5t53 27t61 21.5t60 6q95 0 147 -55q68 -74 68 -193v-604q0 -6 1.5 -9t12 -6t29.5 -5.5t57 -6.5l31 -2l6 -12h-379l6 12l37 2
q52 4 69 10.5t17 18.5v578q0 91 -46.5 138.5t-133.5 47.5q-137 0 -273 -129v-258v-381q0 -12 18 -16t87 -9l26 -2l9 -12h-383z" />
    <glyph glyph-name="o" unicode="o" horiz-adv-x="966" 
d="M487 -12q128 0 216 124.5t88 305.5q0 262 -115 377q-76 82 -195 82q-130 0 -219.5 -120t-89.5 -298q0 -129 33 -234t94 -166q71 -71 188 -71zM485 -25q-188 0 -317 131.5t-129 321.5q0 126 59.5 233t162 169.5t224.5 62.5q185 0 314 -131.5t129 -321.5
q0 -195 -129.5 -330t-313.5 -135z" />
    <glyph glyph-name="p" unicode="p" horiz-adv-x="964" 
d="M508 -4q131 0 208 115t77 301q0 173 -81.5 287t-217.5 114q-78 0 -136 -35.5t-120 -101.5v-531q37 -64 110 -106.5t160 -42.5zM0 -506l37 2q69 7 76 10q10 6 10 17v1130q0 94 -15.5 124t-68.5 34l-47 6l2 8l246 64l-2 -180l4 -7q157 181 319 181q155 0 260 -118t105 -304
q0 -100 -36.5 -191.5t-95.5 -155.5t-136 -101.5t-156 -37.5q-140 0 -262 64h-2v-520q0 -8 6 -12t28.5 -7t67.5 -4l70 -2l6 -12h-422z" />
    <glyph glyph-name="q" unicode="q" horiz-adv-x="952" 
d="M471 45q79 0 136 35t120 102v510q-36 74 -109 122t-157 48q-133 0 -211 -108.5t-78 -292.5q0 -176 83.5 -296t215.5 -120zM559 -506l66 2q45 1 67.5 4t28.5 7t6 12v628l-4 3q-76 -82 -151.5 -128.5t-168.5 -46.5q-154 0 -259 122.5t-105 312.5q0 100 37.5 189t99 150.5
t142.5 97.5t167 36q71 0 144.5 -26t124.5 -64h2l73 112h13v-1382q0 -14 12 -18t49 -7q16 -1 25 -2l37 -2l6 -12h-418z" />
    <glyph glyph-name="r" unicode="r" horiz-adv-x="673" 
d="M33 12l37 2q67 6 76 11q10 5 10 18v606q0 95 -15.5 126.5t-68.5 35.5l-47 6l2 8l245 64l-8 -359h2q43 171 112 267t163 96q51 0 79.5 -28t28.5 -66q0 -35 -22.5 -62.5t-61.5 -27.5q-37 0 -61.5 30t-28.5 88q-71 -15 -114.5 -89t-90.5 -251v-448q0 -9 2.5 -13t23 -8
t62.5 -4l68 -2l6 -12h-405z" />
    <glyph glyph-name="s" unicode="s" horiz-adv-x="692" 
d="M324 -25q-141 0 -252 48l-27 225h12l43 -92q39 -81 103 -123.5t131 -42.5q94 0 151.5 52t57.5 138q0 87 -58 138t-180 88q-229 73 -229 239q0 103 82 175.5t192 72.5q90 0 174 -41l66 22l10 -206l-14 -2l-94 157q-25 18 -38 25.5t-43 18t-61 10.5q-86 0 -133 -43
t-47 -121q0 -42 14 -72.5t44.5 -53.5t62 -37.5t84.5 -33.5q35 -12 56 -19.5t53 -21.5t51 -27.5t42.5 -34.5t36 -44t21 -55t8.5 -70q0 -113 -92 -191t-227 -78z" />
    <glyph glyph-name="t" unicode="t" horiz-adv-x="600" 
d="M340 -25q-172 0 -172 181l14 647l-157 2l20 61h139l4 176h113l-2 -178h276l-20 -61h-256l-14 -625q-4 -71 32.5 -105t88.5 -34q28 0 56 11t41 20t43 35t36 30l12 -4q-82 -82 -113 -105q-69 -51 -141 -51z" />
    <glyph glyph-name="u" unicode="u" horiz-adv-x="927" 
d="M700 160h-2q-2 -2 -30.5 -26.5t-37 -31t-37.5 -29t-44.5 -31.5t-44 -25t-50 -23t-49 -13t-53.5 -6q-100 0 -159 56q-62 62 -62 188v606q0 6 -3.5 9t-28 8t-72.5 8l-29 2l-6 12h252l2 -618q0 -189 182 -189q73 0 135.5 31t128.5 90v193v372q0 64 -19 83t-83 24l-29 2
l-6 12h254v-753q0 -38 13.5 -54t58.5 -20l59 -2l-2 -12l-246 -54z" />
    <glyph glyph-name="v" unicode="v" horiz-adv-x="919" 
d="M150 721q-23 61 -36.5 84.5t-29 32.5t-49.5 12l-39 2l-6 12h385l-4 -12l-35 -2q-60 -4 -72 -26.5t12 -82.5l232 -579l178 454q21 53 31.5 85.5t15.5 61t1 42.5t-18 25t-35.5 14.5t-57.5 5.5l-29 2l-6 12h332l-7 -12l-12 -2q-67 -4 -97 -42.5t-98 -197.5q-1 -3 -2 -5
t-2 -4.5t-2 -4.5l-241 -616h-15z" />
    <glyph glyph-name="w" unicode="w" horiz-adv-x="1419" 
d="M152 713q-20 63 -34.5 90t-30 35.5t-50.5 11.5l-37 2l-2 12h385l-8 -12l-31 -2q-62 -5 -75 -26t10 -81l217 -581l202 477l-32 86q-34 83 -52 101.5t-69 23.5l-37 2l-8 12h385l-4 -12l-35 -2q-59 -4 -70.5 -25.5t12.5 -81.5l246 -587l154 458q18 51 27 82.5t12.5 59.5
t-1.5 43t-19.5 26.5t-37.5 16.5t-59 8l-25 2l-6 12h328l-6 -12l-8 -2q-50 -5 -76.5 -25t-50.5 -69t-64 -166l-205 -610h-14l-272 634l-271 -634h-14z" />
    <glyph glyph-name="x" unicode="x" horiz-adv-x="880" 
d="M6 12l49 6q46 5 85.5 34.5t82.5 94.5l168 252l-241 363q-33 47 -56.5 65.5t-62.5 22.5l-29 2l-6 12h387l-6 -12l-41 -4q-88 -9 -53 -74l182 -266h2l151 237q26 38 17 68.5t-60 34.5l-55 4l-6 12h332l-6 -12l-45 -4q-48 -5 -87.5 -35.5t-86.5 -101.5l-144 -217l266 -392
q32 -49 53.5 -66.5t61.5 -21.5l31 -2l6 -12h-387l6 12l39 4q43 5 55.5 26t-10.5 52l-197 293h-2l-172 -272q-26 -36 -18 -65.5t59 -33.5l60 -4l6 -12h-334z" />
    <glyph glyph-name="y" unicode="y" horiz-adv-x="890" 
d="M141 -524q-49 0 -79.5 23t-30.5 59q0 34 23 59t59 25t61 -27t29 -74q69 11 109.5 79t97.5 245l41 125v4l-304 727q-23 61 -36 84.5t-28.5 32.5t-49.5 12l-39 2l-6 12h383l-2 -12l-35 -2q-59 -4 -70.5 -26.5t12.5 -82.5l238 -583l176 463q21 62 30 96.5t10.5 62.5
t-13.5 40.5t-39 19.5t-68 10l-28 2l-7 12h340l-6 -12l-22 -2q-66 -4 -93.5 -42.5t-87.5 -195.5q-4 -10 -6 -16l-233 -610l-55 -174q-56 -179 -116.5 -257.5t-154.5 -78.5z" />
    <glyph glyph-name="z" unicode="z" horiz-adv-x="819" 
d="M39 10l557 840h-236q-70 0 -115 -25t-71 -68t-59 -128l-17 -37h-10l12 272h631v-10l-563 -836l272 -4q99 0 160 50.5t129 164.5l29 47h8l-72 -276h-655v10z" />
    <glyph glyph-name="braceleft" unicode="{" horiz-adv-x="575" 
d="M33 389q319 -48 319 -250q0 -86 -42 -233.5t-42 -214.5q0 -101 65.5 -154.5t223.5 -73.5l-4 -10q-176 11 -277.5 91.5t-101.5 217.5q0 90 39 237.5t39 211.5q0 84 -73.5 121.5t-227.5 50.5l-4 6l4 6q65 7 113 17t94 29.5t70 52t24 77.5q0 65 -39 211.5t-39 237.5
q0 137 101 215.5t278 89.5l4 -10q-159 -20 -224 -71.5t-65 -151.5q0 -67 42 -215t42 -234q0 -206 -319 -254z" />
    <glyph glyph-name="bar" unicode="|" horiz-adv-x="313" 
d="M147 1290h19v-1796h-19v1796z" />
    <glyph glyph-name="braceright" unicode="}" horiz-adv-x="575" 
d="M543 389q-320 48 -320 254q0 86 42 234t42 215q0 99 -64.5 151t-224.5 72l5 10q177 -11 277.5 -89.5t100.5 -215.5q0 -91 -38.5 -237.5t-38.5 -211.5q0 -45 24 -77.5t70 -52t94 -29.5t113 -17l4 -6l-4 -6q-154 -13 -227.5 -50.5t-73.5 -121.5q0 -64 38.5 -211.5
t38.5 -237.5q0 -137 -101 -217.5t-277 -91.5l-5 10q160 20 224.5 73.5t64.5 154.5q0 67 -42 214.5t-42 233.5q0 202 320 250z" />
    <glyph glyph-name="asciitilde" unicode="~" 
d="M522 307q-45 0 -160 59.5t-155 59.5q-39 0 -61.5 -21.5t-28.5 -80.5h-8q18 184 131 184q47 0 161 -59.5t154 -59.5q34 0 59 25t29 78h8q-11 -95 -41 -140t-88 -45z" />
    <glyph glyph-name="nbspace" unicode="&#xa0;" horiz-adv-x="266" 
 />
    <glyph glyph-name="exclamdown" unicode="&#xa1;" horiz-adv-x="450" 
d="M225 1118q-40 0 -66 26t-26 60q0 38 26 66t66 28q38 0 65 -28.5t27 -65.5q0 -33 -27.5 -59.5t-64.5 -26.5zM223 -41q-39 0 -56.5 20.5t-16 48.5t3.5 56l63 823q0 5 7 5t7 -5l66 -823q0 -5 0.5 -23t0 -25.5t-2 -22.5t-6.5 -22t-12.5 -16t-20 -12.5t-29.5 -3.5h-4z" />
    <glyph glyph-name="cent" unicode="&#xa2;" horiz-adv-x="827" 
d="M594 854q-37 23 -107 23q-131 0 -227 -114.5t-96 -285.5q0 -145 60 -252t159 -149zM317 -168q41 135 41 154q-137 33 -228 153t-91 277q0 132 58 241.5t161.5 172.5t230.5 63q63 0 113 -12l96 358h21l-98 -362q131 -34 131 -127q0 -33 -25 -53.5t-57 -20.5
q-35 0 -55.5 25t-22.5 69l-191 -700q58 -15 91 -15q99 0 163.5 38.5t120.5 129.5l19 -6q-67 -118 -152.5 -180t-202.5 -62q-23 0 -63 7l-80 -301h-21z" />
    <glyph glyph-name="sterling" unicode="&#xa3;" horiz-adv-x="1030" 
d="M348 111q-95 57 -180 57q-125 0 -125 -84q0 -41 29.5 -64.5t77.5 -23.5q55 0 107.5 31.5t90.5 83.5zM123 596l6 20h217q-24 101 -24 193q0 130 55.5 241.5t155 178.5t219.5 67q99 0 163 -39t64 -102q0 -28 -19.5 -52t-50.5 -24q-35 0 -53.5 22.5t-15 57t27.5 66.5
q-65 45 -155 45q-115 0 -197 -91t-82 -225q0 -44 4 -92.5t9 -80t13.5 -86.5t12.5 -79h262l6 -20h-264q12 -80 12 -162q0 -149 -83 -282q73 -27 107.5 -39t96 -25.5t115.5 -13.5q95 0 156 59t77 201h15q-3 -110 -45.5 -193t-105.5 -123.5t-134 -40.5q-28 0 -54 3t-53 12
t-45 14.5t-46.5 21t-39.5 21.5t-43 25.5t-38 23.5q-96 -121 -219 -121q-56 0 -91.5 29t-35.5 76q0 56 43.5 85.5t123.5 29.5q88 0 189 -37q35 65 35 133q0 44 -8.5 89t-29 117.5t-26.5 96.5h-227z" />
    <glyph glyph-name="currency" unicode="&#xa4;" horiz-adv-x="948" 
d="M578 -27q-174 0 -296.5 133t-154.5 351h-129l6 20h119q-6 58 -6 119q0 75 8 127h-127l6 20h125q38 247 175 406.5t325 159.5q122 0 203 -54t81 -133q0 -37 -26.5 -62.5t-57.5 -25.5q-48 0 -67.5 35t-6 74.5t47.5 52.5q-22 41 -66.5 69.5t-107.5 28.5q-93 0 -176 -75
t-138 -200.5t-71 -275.5h405l6 -20h-415q1 -14 -0.5 -42.5t-1.5 -35.5q0 -91 14 -168h397l6 -20h-399q34 -187 128.5 -300.5t236.5 -113.5q98 0 173.5 53.5t120.5 151.5l13 -10q-29 -58 -61 -102.5t-74.5 -83t-96.5 -59t-118 -20.5z" />
    <glyph glyph-name="yen" unicode="&#xa5;" horiz-adv-x="1198" 
d="M342 12l102 8q99 8 99 31v277h-398l7 20h391v246h-391l-7 20h390l-297 498q-25 45 -38.5 65.5t-35.5 43.5t-47.5 32t-63.5 11l-55 4l-6 12h506l-6 -12l-76 -2q-69 0 -78.5 -24.5t31.5 -96.5l301 -510h4l205 387q26 51 40.5 83t21 60.5t2 44t-21.5 28t-44.5 18.5t-71.5 10
l-55 2l-7 12h463l-6 -12l-35 -2q-37 -2 -55 -4t-42 -10.5t-37.5 -21.5t-35.5 -42t-42 -66t-52 -98l-219 -410h369l-7 -20h-368v-246h368l7 -20h-375v-283q0 -6 3.5 -9t16.5 -6.5t36 -6t63 -5.5l79 -6l7 -12h-545z" />
    <glyph glyph-name="section" unicode="&#xa7;" horiz-adv-x="808" 
d="M563 334q49 23 94 76.5t45 105.5q0 38 -16 72t-36 57t-61 50.5t-68 42t-79 40.5q-143 69 -192 107q-52 -12 -99 -66t-47 -108q0 -38 16 -72t37 -58t61 -51.5t68.5 -43t78.5 -40.5q133 -65 198 -112zM375 -86q-109 0 -185.5 46.5t-76.5 102.5q0 27 17 48.5t46 21.5
q50 0 62 -45.5t-27 -89.5q55 -74 172 -74q82 0 134 61.5t52 141.5q0 29 -15 56.5t-35.5 48t-58 44.5t-66.5 39.5t-77 38.5q-130 72 -174 107q-106 83 -106 188q0 78 57.5 142t141.5 106q-66 66 -66 156q0 99 72.5 179.5t183.5 80.5q105 0 168 -48t63 -106q0 -27 -18 -48
t-47 -21q-50 0 -62 45.5t27 89.5q-30 40 -57 56.5t-82 16.5q-85 0 -132.5 -60t-47.5 -142q0 -28 14 -55t32 -46t53.5 -43t60 -37.5t70.5 -37.5q14 -7 21 -11q41 -22 59.5 -32t55.5 -32t55.5 -36.5t44.5 -39t38.5 -46t22 -50t9.5 -59.5q0 -75 -54.5 -134t-144.5 -113
q66 -66 66 -156q0 -95 -78 -174.5t-188 -79.5z" />
    <glyph glyph-name="dieresis" unicode="&#xa8;" 
d="M522 1044q-38 0 -59 23.5t-21 50.5q0 29 21.5 57.5t58.5 28.5t58.5 -28.5t21.5 -57.5q0 -27 -21 -50.5t-59 -23.5zM236 1044q-38 0 -59 23.5t-21 50.5q0 29 21.5 57.5t58.5 28.5t58 -28.5t21 -57.5q0 -27 -20.5 -50.5t-58.5 -23.5z" />
    <glyph glyph-name="copyright" unicode="&#xa9;" horiz-adv-x="1441" 
d="M739 236q-184 0 -300.5 112t-116.5 289q0 174 116 289.5t295 115.5q126 0 217 -59l62 29l16 -209h-4l-94 164q-88 63 -201 63q-139 0 -229 -108t-90 -275q0 -176 95 -287.5t243 -111.5q97 0 157 43.5t115 138.5l31 53h4l-45 -186l-41 -10q-122 -51 -230 -51zM721 -10
q176 0 325.5 87.5t236.5 237.5t87 326q0 177 -87 327.5t-236.5 238t-325.5 87.5t-325.5 -87.5t-236.5 -238t-87 -327.5q0 -176 87 -326t236.5 -237.5t325.5 -87.5zM721 -29q-137 0 -261 53t-213.5 142.5t-142.5 213.5t-53 261q0 182 89.5 336.5t244 245t336.5 90.5
t336.5 -90.5t244 -245t89.5 -336.5q0 -137 -53 -261t-142.5 -213.5t-213.5 -142.5t-261 -53z" />
    <glyph glyph-name="ordfeminine" unicode="&#xaa;" horiz-adv-x="598" 
d="M246 639q73 0 155 74l7 256q-89 -22 -147.5 -47t-85.5 -53.5t-36.5 -54t-9.5 -58.5q0 -56 29 -86.5t88 -30.5zM193 588q-69 0 -112.5 42.5t-43.5 100.5q0 54 32 96.5t115.5 83.5t223.5 76l4 92q4 56 -9 95.5t-38 58.5t-50.5 27t-54.5 8q-49 0 -96 -26t-47 -44
q0 -4 18.5 -27t18.5 -43q0 -23 -17 -39t-43 -16q-61 0 -61 57q0 36 47 77t115 68.5t124 27.5q92 0 138.5 -48t42.5 -163l-17 -387q-1 -36 11 -50t38 -14q29 0 78 49l6 -4q-3 -3 -18 -22.5t-23 -28t-23 -22t-30.5 -19.5t-32.5 -6q-36 0 -62 28.5t-30 75.5l2 4
q-121 -108 -206 -108z" />
    <glyph glyph-name="guillemotleft" unicode="&#xab;" horiz-adv-x="753" 
d="M20 451v8l361 307l6 -4l-240 -305l242 -312l-6 -4zM336 451v8l381 348l6 -4l-260 -346l262 -353l-6 -4z" />
    <glyph glyph-name="registered" unicode="&#xae;" horiz-adv-x="1441" 
d="M700 653q87 0 137 48.5t50 134.5q0 87 -62 136t-170 42l-67 -2v-336q58 -23 112 -23zM387 272l62 7q19 2 39 9t20 13v692q0 5 -3 7.5t-18 5.5t-45 6l-51 4l-6 12h301q136 0 211.5 -50.5t75.5 -141.5q0 -70 -56 -123.5t-137 -71.5l185 -289q10 -15 19 -26t18.5 -19
t15 -12.5t17.5 -8.5l15 -5t19.5 -3.5t20.5 -3.5l12 -2l6 -12h-174l-8 16l-226 359q-66 10 -112 22v-364q0 -12 71 -17l48 -4l4 -12h-328zM721 -10q176 0 325.5 87.5t236.5 237.5t87 326q0 177 -87 327.5t-236.5 238t-325.5 87.5t-325.5 -87.5t-236.5 -238t-87 -327.5
q0 -176 87 -326t236.5 -237.5t325.5 -87.5zM721 -29q-137 0 -261 53t-213.5 142.5t-142.5 213.5t-53 261q0 182 89.5 336.5t244 245t336.5 90.5t336.5 -90.5t244 -245t89.5 -336.5q0 -137 -53 -261t-142.5 -213.5t-213.5 -142.5t-261 -53z" />
    <glyph glyph-name="macron" unicode="&#xaf;" horiz-adv-x="755" 
d="M127 1118h516l-14 -51h-516z" />
    <glyph glyph-name="degree" unicode="&#xb0;" horiz-adv-x="581" 
d="M291 813q104 0 168.5 68t64.5 170q0 101 -65 171t-168 70q-102 0 -166 -70t-64 -171q0 -102 63 -170t167 -68zM291 793q-114 0 -184 75t-70 183q0 109 69.5 185.5t184.5 76.5t184.5 -76.5t69.5 -185.5q0 -108 -69.5 -183t-184.5 -75z" />
    <glyph glyph-name="plusminus" unicode="&#xb1;" horiz-adv-x="614" 
d="M88 16l70 2q96 3 96 35v856q0 9 -5 14t-28 9.5t-69 7.5l-62 2l-6 16h448l-6 -16l-69 -2q-97 -3 -97 -35v-856q0 -9 5.5 -14t28.5 -9.5t69 -7.5l61 -2l6 -16h-448z" />
    <glyph glyph-name="acute" unicode="&#xb4;" 
d="M547 1391h131l-381 -383h-6z" />
    <glyph glyph-name="paragraph" unicode="&#xb6;" horiz-adv-x="813" 
d="M690 629q-70 -11 -186 -11q-218 0 -335.5 87t-117.5 251q0 324 451 324h209v-1346h-21v695z" />
    <glyph glyph-name="periodcentered" unicode="&#xb7;" horiz-adv-x="344" 
d="M176 334q-41 0 -68.5 26.5t-27.5 63.5q0 36 28 63t68 27q38 0 64 -27t26 -63q0 -37 -26 -63.5t-64 -26.5z" />
    <glyph glyph-name="cedilla" unicode="&#xb8;" 
d="M184 -494q133 12 214 60.5t81 114.5q0 50 -37 76t-106 26q-70 0 -141 -23v15l194 225h25l-129 -150q107 21 186.5 -17t79.5 -114q0 -63 -52 -111t-132 -74t-179 -34z" />
    <glyph glyph-name="ordmasculine" unicode="&#xba;" horiz-adv-x="737" 
d="M375 598q97 0 166 97t69 239q0 203 -88 291q-59 65 -157 65q-99 0 -168.5 -93.5t-69.5 -233.5q0 -101 25.5 -183t72.5 -129q53 -53 150 -53zM371 584q-147 0 -247.5 103t-100.5 251q0 153 101 260t245 107q145 0 245.5 -105t100.5 -254q0 -151 -100.5 -256.5
t-243.5 -105.5z" />
    <glyph glyph-name="guillemotright" unicode="&#xbb;" horiz-adv-x="772" 
d="M365 145l241 312l-239 305l6 4l360 -307v-8l-362 -310zM29 104l262 353l-260 346l6 4l381 -348v-8l-383 -351z" />
    <glyph glyph-name="questiondown" unicode="&#xbf;" horiz-adv-x="612" 
d="M315 1137q-40 0 -66 26t-26 60q0 38 26 64t66 26q38 0 65.5 -26.5t27.5 -63.5q0 -33 -28 -59.5t-65 -26.5zM424 -27q-151 0 -261 110t-110 261q0 50 9.5 82.5t33 56t54 41t82.5 42.5q6 2 9 3.5l8 4l9 4.5q101 45 129 66q41 33 41 79q0 40 -35.5 96.5t-81.5 102.5h13
q62 -47 116 -119t54 -125q0 -71 -43 -113t-166 -98q-122 -53 -164.5 -84t-42.5 -76q0 -34 17 -69.5t51.5 -70.5t99.5 -57t149 -22q76 0 150 21q16 -22 16 -70q0 -33 -30.5 -49.5t-106.5 -16.5z" />
    <glyph glyph-name="Agrave" unicode="&#xc0;" horiz-adv-x="1282" 
d="M379 561q1 0 -3.5 -12.5t-15 -40.5t-18.5 -49t-23 -62q-10 -25 -29.5 -81.5t-29.5 -84.5q-12 -33 -18 -50t-13 -40t-8.5 -34t-1.5 -25.5t4 -20.5t12.5 -14.5t19.5 -11.5t29 -7.5t38 -6.5t49 -5l43 -4l6 -12h-426l6 12l33 4q27 3 43.5 6t35 13t29 17.5t26.5 31.5
t25.5 42.5t28.5 63t33 81t41 108.5l285 784l-19 54q14 5 24.5 11.5t20.5 19.5t14.5 20t16.5 28h16l408 -1138q34 -87 59 -112.5t92 -29.5l58 -4l6 -12h-492l7 12l65 2q54 6 82.5 20.5t17.5 49.5l-168 477h-409zM782 580l-194 550h-2q-32 -84 -101 -274l-100 -276h397z
M313 1733h131l256 -383h-6z" />
    <glyph glyph-name="Aacute" unicode="&#xc1;" horiz-adv-x="1282" 
d="M379 561q1 0 -3.5 -12.5t-15 -40.5t-18.5 -49t-23 -62q-10 -25 -29.5 -81.5t-29.5 -84.5q-12 -33 -18 -50t-13 -40t-8.5 -34t-1.5 -25.5t4 -20.5t12.5 -14.5t19.5 -11.5t29 -7.5t38 -6.5t49 -5l43 -4l6 -12h-426l6 12l33 4q27 3 43.5 6t35 13t29 17.5t26.5 31.5
t25.5 42.5t28.5 63t33 81t41 108.5l285 784l-19 54q14 5 24.5 11.5t20.5 19.5t14.5 20t16.5 28h16l408 -1138q34 -87 59 -112.5t92 -29.5l58 -4l6 -12h-492l7 12l65 2q54 6 82.5 20.5t17.5 49.5l-168 477h-409zM782 580l-194 550h-2q-32 -84 -101 -274l-100 -276h397z
M821 1733h131l-381 -383h-6z" />
    <glyph glyph-name="Acircumflex" unicode="&#xc2;" horiz-adv-x="1282" 
d="M379 561q1 0 -3.5 -12.5t-15 -40.5t-18.5 -49t-23 -62q-10 -25 -29.5 -81.5t-29.5 -84.5q-12 -33 -18 -50t-13 -40t-8.5 -34t-1.5 -25.5t4 -20.5t12.5 -14.5t19.5 -11.5t29 -7.5t38 -6.5t49 -5l43 -4l6 -12h-426l6 12l33 4q27 3 43.5 6t35 13t29 17.5t26.5 31.5
t25.5 42.5t28.5 63t33 81t41 108.5l285 784l-19 54q14 5 24.5 11.5t20.5 19.5t14.5 20t16.5 28h16l408 -1138q34 -87 59 -112.5t92 -29.5l58 -4l6 -12h-492l7 12l65 2q54 6 82.5 20.5t17.5 49.5l-168 477h-409zM782 580l-194 550h-2q-32 -84 -101 -274l-100 -276h397z
M912 1325h-6l-244 234h-4l-244 -234h-6l252 363z" />
    <glyph glyph-name="Atilde" unicode="&#xc3;" horiz-adv-x="1282" 
d="M379 561q1 0 -3.5 -12.5t-15 -40.5t-18.5 -49t-23 -62q-10 -25 -29.5 -81.5t-29.5 -84.5q-12 -33 -18 -50t-13 -40t-8.5 -34t-1.5 -25.5t4 -20.5t12.5 -14.5t19.5 -11.5t29 -7.5t38 -6.5t49 -5l43 -4l6 -12h-426l6 12l33 4q27 3 43.5 6t35 13t29 17.5t26.5 31.5
t25.5 42.5t28.5 63t33 81t41 108.5l285 784l-19 54q14 5 24.5 11.5t20.5 19.5t14.5 20t16.5 28h16l408 -1138q34 -87 59 -112.5t92 -29.5l58 -4l6 -12h-492l7 12l65 2q54 6 82.5 20.5t17.5 49.5l-168 477h-409zM782 580l-194 550h-2q-32 -84 -101 -274l-100 -276h397z
M786 1360q-45 0 -160 59.5t-155 59.5q-39 0 -61.5 -22t-28.5 -81h-8q18 185 131 185q47 0 161 -59.5t154 -59.5q34 0 59 24.5t29 77.5h8q-11 -95 -40.5 -139.5t-88.5 -44.5z" />
    <glyph glyph-name="Adieresis" unicode="&#xc4;" horiz-adv-x="1282" 
d="M379 561q1 0 -3.5 -12.5t-15 -40.5t-18.5 -49t-23 -62q-10 -25 -29.5 -81.5t-29.5 -84.5q-12 -33 -18 -50t-13 -40t-8.5 -34t-1.5 -25.5t4 -20.5t12.5 -14.5t19.5 -11.5t29 -7.5t38 -6.5t49 -5l43 -4l6 -12h-426l6 12l33 4q27 3 43.5 6t35 13t29 17.5t26.5 31.5
t25.5 42.5t28.5 63t33 81t41 108.5l285 784l-19 54q14 5 24.5 11.5t20.5 19.5t14.5 20t16.5 28h16l408 -1138q34 -87 59 -112.5t92 -29.5l58 -4l6 -12h-492l7 12l65 2q54 6 82.5 20.5t17.5 49.5l-168 477h-409zM782 580l-194 550h-2q-32 -84 -101 -274l-100 -276h397z
M786 1386q-38 0 -59 23.5t-21 50.5q0 29 21.5 57.5t58.5 28.5t58.5 -28.5t21.5 -57.5q0 -27 -21 -50.5t-59 -23.5zM500 1386q-38 0 -59 23.5t-21 50.5q0 29 21.5 57.5t58.5 28.5t58 -28.5t21 -57.5q0 -27 -20.5 -50.5t-58.5 -23.5z" />
    <glyph glyph-name="Aring" unicode="&#xc5;" horiz-adv-x="1282" 
d="M639 1276q73 0 117.5 48t44.5 118q0 69 -44.5 117.5t-117.5 48.5t-117.5 -48.5t-44.5 -117.5q0 -70 44.5 -118t117.5 -48zM379 561q1 0 -3.5 -12.5t-15 -40.5t-18.5 -49t-23 -62q-10 -25 -29.5 -81.5t-29.5 -84.5q-12 -33 -18 -50t-13 -40t-8.5 -34t-1.5 -25.5t4 -20.5
t12.5 -14.5t19.5 -11.5t29 -7.5t38 -6.5t49 -5l43 -4l6 -12h-426l6 12l33 4q27 3 43.5 6t35 13t29 17.5t26.5 31.5t25.5 42.5t28.5 63t33 81t41 108.5l323 878q-74 7 -117.5 59t-43.5 126q0 77 49.5 130.5t132.5 53.5t132.5 -53.5t49.5 -130.5q0 -70 -41 -121t-112 -61
l393 -1102q34 -87 59 -112.5t92 -29.5l58 -4l6 -12h-492l7 12l65 2q54 6 82.5 20.5t17.5 49.5l-168 477h-409zM782 580l-194 550h-2q-32 -84 -101 -274l-100 -276h397z" />
    <glyph glyph-name="AE" unicode="&#xc6;" horiz-adv-x="1716" 
d="M813 580v651h-4l-381 -651h385zM-102 12l84 8q43 6 72 23t80 82t126 194l522 895q2 6 2.5 12t-9 12t-25 10.5t-46 8t-73.5 5.5l-80 4l-6 14h973l49 -330l-8 2l-15 29q-62 157 -127.5 220t-169.5 63h-301v-574h197q114 4 157 35t68 123l10 26l11 -4l-39 -389l-11 4l-2 23
q-3 37 -7 60.5t-14.5 42t-22.5 27.5t-38 15.5t-52.5 8.5t-74.5 4l-182 4v-641l281 -9q273 8 399 310l12 28l13 -2l-95 -356h-950l6 16l103 9q98 8 98 34v502h-395l-156 -264q-84 -149 -96 -184q-21 -57 14 -78q26 -14 96 -21l80 -6l6 -8h-471z" />
    <glyph glyph-name="Ccedilla" unicode="&#xc7;" horiz-adv-x="1349" 
d="M752 -29q-203 0 -361.5 82.5t-247 233t-88.5 344.5q0 195 88.5 350t249 242.5t365.5 87.5q192 0 346 -90l100 47l27 -350h-12l-150 284q-47 36 -129.5 63t-179.5 27q-171 0 -298.5 -83t-194 -228.5t-66.5 -333.5q0 -295 149.5 -476t399.5 -181h38l9 10h24l-6 -8
q140 11 231 84t166 209l52 86h12l-74 -295l-72 -15q-61 -32 -150 -57t-181 -31q0 -1 -7 -9t-21.5 -24t-25.5 -28l-53 -62q107 21 186.5 -17t79.5 -114q0 -63 -52 -111t-131.5 -74t-178.5 -34l-4 6q133 12 214 60.5t81 114.5q0 50 -37.5 76t-106.5 26q-70 0 -141 -23v15
l170 196h-20z" />
    <glyph glyph-name="Egrave" unicode="&#xc8;" horiz-adv-x="1150" 
d="M47 12l82 8q98 8 98 31v1184q0 6 -3.5 9t-16 6.5t-35.5 6t-63 5.5l-60 6l-6 12h909l49 -330l-8 2l-14 29q-62 157 -127.5 220t-169.5 63h-322v-574h238q48 2 78 7.5t51 14t34.5 28.5t22 42.5t19.5 63.5l10 26l10 -2l-39 -389l-10 2l-2 23q-3 40 -5.5 60.5t-10.5 41.5
t-17.5 29t-32.5 15.5t-49.5 9.5t-72.5 4l-224 4v-643l342 -9q73 2 129 24t97.5 66.5t71 94.5t61.5 127l12 28l12 -2l-94 -356h-950zM291 1733h131l256 -383h-6z" />
    <glyph glyph-name="Eacute" unicode="&#xc9;" horiz-adv-x="1150" 
d="M47 12l82 8q98 8 98 31v1184q0 6 -3.5 9t-16 6.5t-35.5 6t-63 5.5l-60 6l-6 12h909l49 -330l-8 2l-14 29q-62 157 -127.5 220t-169.5 63h-322v-574h238q48 2 78 7.5t51 14t34.5 28.5t22 42.5t19.5 63.5l10 26l10 -2l-39 -389l-10 2l-2 23q-3 40 -5.5 60.5t-10.5 41.5
t-17.5 29t-32.5 15.5t-49.5 9.5t-72.5 4l-224 4v-643l342 -9q73 2 129 24t97.5 66.5t71 94.5t61.5 127l12 28l12 -2l-94 -356h-950zM785 1733h131l-381 -383h-6z" />
    <glyph glyph-name="Ecircumflex" unicode="&#xca;" horiz-adv-x="1150" 
d="M47 12l82 8q98 8 98 31v1184q0 6 -3.5 9t-16 6.5t-35.5 6t-63 5.5l-60 6l-6 12h909l49 -330l-8 2l-14 29q-62 157 -127.5 220t-169.5 63h-322v-574h238q48 2 78 7.5t51 14t34.5 28.5t22 42.5t19.5 63.5l10 26l10 -2l-39 -389l-10 2l-2 23q-3 40 -5.5 60.5t-10.5 41.5
t-17.5 29t-32.5 15.5t-49.5 9.5t-72.5 4l-224 4v-643l342 -9q73 2 129 24t97.5 66.5t71 94.5t61.5 127l12 28l12 -2l-94 -356h-950zM817 1325h-6l-244 234h-4l-244 -234h-6l252 363z" />
    <glyph glyph-name="Edieresis" unicode="&#xcb;" horiz-adv-x="1150" 
d="M47 12l82 8q98 8 98 31v1184q0 6 -3.5 9t-16 6.5t-35.5 6t-63 5.5l-60 6l-6 12h909l49 -330l-8 2l-14 29q-62 157 -127.5 220t-169.5 63h-322v-574h238q48 2 78 7.5t51 14t34.5 28.5t22 42.5t19.5 63.5l10 26l10 -2l-39 -389l-10 2l-2 23q-3 40 -5.5 60.5t-10.5 41.5
t-17.5 29t-32.5 15.5t-49.5 9.5t-72.5 4l-224 4v-643l342 -9q73 2 129 24t97.5 66.5t71 94.5t61.5 127l12 28l12 -2l-94 -356h-950zM698 1386q-38 0 -59 23.5t-21 50.5q0 29 21.5 57.5t58.5 28.5t58.5 -28.5t21.5 -57.5q0 -27 -21 -50.5t-59 -23.5zM412 1386q-38 0 -59 23.5
t-21 50.5q0 29 21.5 57.5t58.5 28.5t58 -28.5t21 -57.5q0 -27 -20.5 -50.5t-58.5 -23.5z" />
    <glyph glyph-name="Igrave" unicode="&#xcc;" horiz-adv-x="628" 
d="M68 12l82 8q98 8 98 31v1184q0 6 -3.5 9t-16.5 6.5t-36 6t-63 5.5l-59 6l-7 12h504l-6 -12l-82 -8q-98 -8 -98 -31v-1184q0 -6 3.5 -9t16.5 -6.5t36 -6t63 -5.5l59 -6l6 -12h-504zM17 1733h131l256 -383h-6z" />
    <glyph glyph-name="Iacute" unicode="&#xcd;" horiz-adv-x="628" 
d="M68 12l82 8q98 8 98 31v1184q0 6 -3.5 9t-16.5 6.5t-36 6t-63 5.5l-59 6l-7 12h504l-6 -12l-82 -8q-98 -8 -98 -31v-1184q0 -6 3.5 -9t16.5 -6.5t36 -6t63 -5.5l59 -6l6 -12h-504zM484 1733h131l-381 -383h-6z" />
    <glyph glyph-name="Icircumflex" unicode="&#xce;" horiz-adv-x="628" 
d="M68 12l82 8q98 8 98 31v1184q0 6 -3.5 9t-16.5 6.5t-36 6t-63 5.5l-59 6l-7 12h504l-6 -12l-82 -8q-98 -8 -98 -31v-1184q0 -6 3.5 -9t16.5 -6.5t36 -6t63 -5.5l59 -6l6 -12h-504zM568 1325h-6l-244 234h-4l-244 -234h-6l252 363z" />
    <glyph glyph-name="Idieresis" unicode="&#xcf;" horiz-adv-x="628" 
d="M68 12l82 8q98 8 98 31v1184q0 6 -3.5 9t-16.5 6.5t-36 6t-63 5.5l-59 6l-7 12h504l-6 -12l-82 -8q-98 -8 -98 -31v-1184q0 -6 3.5 -9t16.5 -6.5t36 -6t63 -5.5l59 -6l6 -12h-504zM459 1386q-38 0 -59 23.5t-21 50.5q0 29 21.5 57.5t58.5 28.5t58.5 -28.5t21.5 -57.5
q0 -27 -21 -50.5t-59 -23.5zM173 1386q-38 0 -59 23.5t-21 50.5q0 29 21.5 57.5t58.5 28.5t58 -28.5t21 -57.5q0 -27 -20.5 -50.5t-58.5 -23.5z" />
    <glyph glyph-name="Eth" unicode="&#xd0;" horiz-adv-x="1363" 
d="M676 653l6 -20h-322v-584l170 -26q143 2 255.5 52.5t181.5 134.5t105 188.5t36 222.5q0 140 -37.5 256t-110.5 202.5t-188 134.5t-262 48h-150v-609h316zM72 633l6 20h149v582q0 6 -3.5 9t-16.5 6.5t-35.5 6t-62.5 5.5l-52 6l-6 12l490 6q330 0 520 -165.5t190 -452.5
q0 -199 -95.5 -351t-270.5 -234.5t-404 -82.5h-432l6 12l74 8q98 8 98 31v582h-155z" />
    <glyph glyph-name="Ntilde" unicode="&#xd1;" horiz-adv-x="1419" 
d="M287 1167h-2l2 -1095q0 -12 15.5 -23t55.5 -20t99 -13l39 -4l6 -12h-430l6 12l41 4q147 13 147 62l2 1110q-52 55 -192 76l-27 4l-6 12h322l825 -1067h2l-2 999q0 17 -38.5 29.5t-131.5 22.5l-39 4l-6 12h430l-6 -12l-41 -4q-75 -7 -111.5 -19t-36.5 -39l-2 -1214h-12z
M884 1360q-45 0 -160 59.5t-155 59.5q-39 0 -61.5 -22t-28.5 -81h-8q18 185 131 185q47 0 161 -59.5t154 -59.5q34 0 59 24.5t29 77.5h8q-11 -95 -40.5 -139.5t-88.5 -44.5z" />
    <glyph glyph-name="Ograve" unicode="&#xd2;" horiz-adv-x="1433" 
d="M723 -8q237 0 373.5 173t136.5 468q0 289 -147 475t-373 186q-234 0 -373 -177.5t-139 -477.5q0 -286 146.5 -466.5t375.5 -180.5zM721 -27q-190 0 -341.5 84.5t-238 237.5t-86.5 346q0 107 36.5 210t100.5 185.5t146 145.5t179 97t194 34q143 0 266.5 -50t211.5 -139
t138.5 -215.5t50.5 -273.5q0 -133 -56 -256.5t-147.5 -212t-211 -141t-242.5 -52.5zM377 1733h131l256 -383h-6z" />
    <glyph glyph-name="Oacute" unicode="&#xd3;" horiz-adv-x="1433" 
d="M723 -8q237 0 373.5 173t136.5 468q0 289 -147 475t-373 186q-234 0 -373 -177.5t-139 -477.5q0 -286 146.5 -466.5t375.5 -180.5zM721 -27q-190 0 -341.5 84.5t-238 237.5t-86.5 346q0 107 36.5 210t100.5 185.5t146 145.5t179 97t194 34q143 0 266.5 -50t211.5 -139
t138.5 -215.5t50.5 -273.5q0 -133 -56 -256.5t-147.5 -212t-211 -141t-242.5 -52.5zM926 1733h131l-381 -383h-6z" />
    <glyph glyph-name="Ocircumflex" unicode="&#xd4;" horiz-adv-x="1433" 
d="M723 -8q237 0 373.5 173t136.5 468q0 289 -147 475t-373 186q-234 0 -373 -177.5t-139 -477.5q0 -286 146.5 -466.5t375.5 -180.5zM721 -27q-190 0 -341.5 84.5t-238 237.5t-86.5 346q0 107 36.5 210t100.5 185.5t146 145.5t179 97t194 34q143 0 266.5 -50t211.5 -139
t138.5 -215.5t50.5 -273.5q0 -133 -56 -256.5t-147.5 -212t-211 -141t-242.5 -52.5zM969 1325h-6l-244 234h-4l-244 -234h-6l252 363z" />
    <glyph glyph-name="Otilde" unicode="&#xd5;" horiz-adv-x="1433" 
d="M723 -8q237 0 373.5 173t136.5 468q0 289 -147 475t-373 186q-234 0 -373 -177.5t-139 -477.5q0 -286 146.5 -466.5t375.5 -180.5zM721 -27q-190 0 -341.5 84.5t-238 237.5t-86.5 346q0 107 36.5 210t100.5 185.5t146 145.5t179 97t194 34q143 0 266.5 -50t211.5 -139
t138.5 -215.5t50.5 -273.5q0 -133 -56 -256.5t-147.5 -212t-211 -141t-242.5 -52.5zM860 1360q-45 0 -160 59.5t-155 59.5q-39 0 -61.5 -22t-28.5 -81h-8q18 185 131 185q47 0 161 -59.5t154 -59.5q34 0 59 24.5t29 77.5h8q-11 -95 -40.5 -139.5t-88.5 -44.5z" />
    <glyph glyph-name="Odieresis" unicode="&#xd6;" horiz-adv-x="1433" 
d="M723 -8q237 0 373.5 173t136.5 468q0 289 -147 475t-373 186q-234 0 -373 -177.5t-139 -477.5q0 -286 146.5 -466.5t375.5 -180.5zM721 -27q-190 0 -341.5 84.5t-238 237.5t-86.5 346q0 107 36.5 210t100.5 185.5t146 145.5t179 97t194 34q143 0 266.5 -50t211.5 -139
t138.5 -215.5t50.5 -273.5q0 -133 -56 -256.5t-147.5 -212t-211 -141t-242.5 -52.5zM860 1386q-38 0 -59 23.5t-21 50.5q0 29 21.5 57.5t58.5 28.5t58.5 -28.5t21.5 -57.5q0 -27 -21 -50.5t-59 -23.5zM574 1386q-38 0 -59 23.5t-21 50.5q0 29 21.5 57.5t58.5 28.5t58 -28.5
t21 -57.5q0 -27 -20.5 -50.5t-58.5 -23.5z" />
    <glyph glyph-name="Oslash" unicode="&#xd8;" horiz-adv-x="1433" 
d="M406 111q2 2 309 532q51 88 157.5 272.5t149.5 258.5q-138 116 -309 116q-233 0 -372.5 -177t-139.5 -474q0 -171 53.5 -305.5t151.5 -222.5zM1036 1159q0 1 -153.5 -265t-307.5 -532t-155 -266q132 -104 303 -104q237 0 373.5 173t136.5 468q0 166 -52 302.5t-145 223.5
zM1069 1217q144 -89 226.5 -241t82.5 -341q0 -133 -56 -256.5t-147.5 -212t-211 -141t-242.5 -52.5q-183 0 -326 76q-12 -19 -36 -63t-35 -62l-43 -71h-23q8 16 23.5 41.5t19.5 33.5q6 11 34.5 59.5t41.5 71.5q-151 87 -236.5 237.5t-85.5 344.5q0 107 36.5 210t100.5 185.5
t146 145.5t179 97t194 34q189 0 342 -86l106 186h23q-23 -37 -41 -70q-45 -80 -72 -126z" />
    <glyph glyph-name="Ugrave" unicode="&#xd9;" horiz-adv-x="1325" 
d="M705 -27q-254 0 -371 106.5t-117 348.5v803q0 8 -7 12.5t-34 9.5t-78 9l-80 6l-6 12h545l-6 -12l-102 -8q-99 -8 -99 -35v-789q0 -210 97 -304.5t313 -94.5q191 0 282 110t91 347l-3 718q0 18 -51 32t-143 20l-39 4l-6 12h450l-6 -12l-41 -4q-74 -7 -108.5 -19t-34.5 -39
v-719q0 -514 -446 -514zM428 1733h131l256 -383h-6z" />
    <glyph glyph-name="Uacute" unicode="&#xda;" horiz-adv-x="1325" 
d="M705 -27q-254 0 -371 106.5t-117 348.5v803q0 8 -7 12.5t-34 9.5t-78 9l-80 6l-6 12h545l-6 -12l-102 -8q-99 -8 -99 -35v-789q0 -210 97 -304.5t313 -94.5q191 0 282 110t91 347l-3 718q0 18 -51 32t-143 20l-39 4l-6 12h450l-6 -12l-41 -4q-74 -7 -108.5 -19t-34.5 -39
v-719q0 -514 -446 -514zM895 1733h131l-381 -383h-6z" />
    <glyph glyph-name="Ucircumflex" unicode="&#xdb;" horiz-adv-x="1325" 
d="M705 -27q-254 0 -371 106.5t-117 348.5v803q0 8 -7 12.5t-34 9.5t-78 9l-80 6l-6 12h545l-6 -12l-102 -8q-99 -8 -99 -35v-789q0 -210 97 -304.5t313 -94.5q191 0 282 110t91 347l-3 718q0 18 -51 32t-143 20l-39 4l-6 12h450l-6 -12l-41 -4q-74 -7 -108.5 -19t-34.5 -39
v-719q0 -514 -446 -514zM979 1325h-6l-244 234h-4l-244 -234h-6l252 363z" />
    <glyph glyph-name="Udieresis" unicode="&#xdc;" horiz-adv-x="1325" 
d="M705 -27q-254 0 -371 106.5t-117 348.5v803q0 8 -7 12.5t-34 9.5t-78 9l-80 6l-6 12h545l-6 -12l-102 -8q-99 -8 -99 -35v-789q0 -210 97 -304.5t313 -94.5q191 0 282 110t91 347l-3 718q0 18 -51 32t-143 20l-39 4l-6 12h450l-6 -12l-41 -4q-74 -7 -108.5 -19t-34.5 -39
v-719q0 -514 -446 -514zM866 1386q-38 0 -59 23.5t-21 50.5q0 29 21.5 57.5t58.5 28.5t58.5 -28.5t21.5 -57.5q0 -27 -21 -50.5t-59 -23.5zM580 1386q-38 0 -59 23.5t-21 50.5q0 29 21.5 57.5t58.5 28.5t58 -28.5t21 -57.5q0 -27 -20.5 -50.5t-58.5 -23.5z" />
    <glyph glyph-name="Yacute" unicode="&#xdd;" horiz-adv-x="1218" 
d="M342 12l102 8q99 8 99 31v527l-305 534q-25 45 -38.5 65.5t-35.5 43.5t-47.5 32t-63.5 11l-55 4l-6 12h506l-6 -12l-76 -2q-69 -2 -78.5 -25.5t31.5 -95.5l295 -520h4l211 397q27 52 42 85t21.5 61t2 43.5t-22.5 27.5t-45 17.5t-72 9.5l-55 2l-7 12h463l-6 -12l-35 -2
q-37 -2 -55 -4t-42 -10.5t-37.5 -21.5t-35.5 -42t-42 -66t-52 -98l-225 -422v-557q0 -6 3.5 -9t16.5 -6.5t36 -6t63 -5.5l79 -6l7 -12h-545zM862 1733h131l-381 -383h-6z" />
    <glyph glyph-name="Thorn" unicode="&#xde;" horiz-adv-x="1073" 
d="M555 356q328 0 328 312q0 154 -84 231.5t-277 73.5l-162 -2v-588q83 -27 195 -27zM27 12l102 8q98 8 98 31v1184q0 6 -3.5 9t-16 6.5t-35.5 6t-63 5.5l-80 6l-6 12h544l-6 -12l-102 -8q-99 -8 -99 -31v-236q33 2 134 2q55 0 84 -2q217 0 331.5 -79t114.5 -228
q0 -157 -130 -255.5t-339 -98.5q-52 0 -195 20v-307q0 -8 7.5 -12t33.5 -8t78 -7l101 -6l6 -12h-566z" />
    <glyph glyph-name="germandbls" unicode="&#xdf;" horiz-adv-x="964" 
d="M567 838q62 -34 123.5 -88t114.5 -120t86 -145t33 -153q0 -147 -85 -248.5t-210 -101.5q-91 0 -155 42t-64 109q0 41 25.5 68.5t62.5 27.5q50 0 66 -43q14 -41 -14 -73q-27 -29 -77 -25q42 -94 158 -94q90 0 140 67t50 181q0 159 -96 308.5t-287 262.5v4
q136 24 204.5 92.5t68.5 198.5q0 98 -56 168t-147 70q-223 0 -223 -353v-993h-242l6 12l35 2q9 1 19.5 1.5t17 1t14 1.5t11.5 1.5t8.5 2t7 3t4.5 4t3 5.5t1 7v758l-139 2l18 63h119l4 47q18 214 110.5 332.5t231.5 118.5q140 0 221.5 -71t81.5 -185q0 -101 -70.5 -168
t-179.5 -100z" />
    <glyph glyph-name="agrave" unicode="&#xe0;" horiz-adv-x="780" 
d="M319 49q103 0 203 92l10 328q-93 -24 -159.5 -50.5t-104.5 -51t-59.5 -54.5t-28 -55t-6.5 -59q0 -73 37 -111.5t108 -38.5zM633 -18q-44 0 -79 38t-36 93v4q-155 -133 -264 -133q-90 0 -144.5 53.5t-54.5 130.5q0 71 42 123t146.5 100.5t288.5 97.5l5 121q4 74 -13 125
t-48.5 75.5t-63.5 34t-70 9.5q-63 0 -124.5 -34t-61.5 -58q0 -6 12 -17t24.5 -30t12.5 -43q0 -30 -22 -52t-56 -22q-78 0 -78 78q0 45 61 97t148.5 86t159.5 34q118 0 177 -59.5t52 -210.5l-20 -496q-4 -46 12 -62t51 -16q40 0 98 62l11 -7q-4 -4 -23.5 -28.5t-30 -35
t-30.5 -27.5t-40 -24t-42 -7zM72 1391h131l256 -383h-6z" />
    <glyph glyph-name="aacute" unicode="&#xe1;" horiz-adv-x="780" 
d="M319 49q103 0 203 92l10 328q-93 -24 -159.5 -50.5t-104.5 -51t-59.5 -54.5t-28 -55t-6.5 -59q0 -73 37 -111.5t108 -38.5zM633 -18q-44 0 -79 38t-36 93v4q-155 -133 -264 -133q-90 0 -144.5 53.5t-54.5 130.5q0 71 42 123t146.5 100.5t288.5 97.5l5 121q4 74 -13 125
t-48.5 75.5t-63.5 34t-70 9.5q-63 0 -124.5 -34t-61.5 -58q0 -6 12 -17t24.5 -30t12.5 -43q0 -30 -22 -52t-56 -22q-78 0 -78 78q0 45 61 97t148.5 86t159.5 34q118 0 177 -59.5t52 -210.5l-20 -496q-4 -46 12 -62t51 -16q40 0 98 62l11 -7q-4 -4 -23.5 -28.5t-30 -35
t-30.5 -27.5t-40 -24t-42 -7zM578 1391h131l-381 -383h-6z" />
    <glyph glyph-name="acircumflex" unicode="&#xe2;" horiz-adv-x="780" 
d="M319 49q103 0 203 92l10 328q-93 -24 -159.5 -50.5t-104.5 -51t-59.5 -54.5t-28 -55t-6.5 -59q0 -73 37 -111.5t108 -38.5zM633 -18q-44 0 -79 38t-36 93v4q-155 -133 -264 -133q-90 0 -144.5 53.5t-54.5 130.5q0 71 42 123t146.5 100.5t288.5 97.5l5 121q4 74 -13 125
t-48.5 75.5t-63.5 34t-70 9.5q-63 0 -124.5 -34t-61.5 -58q0 -6 12 -17t24.5 -30t12.5 -43q0 -30 -22 -52t-56 -22q-78 0 -78 78q0 45 61 97t148.5 86t159.5 34q118 0 177 -59.5t52 -210.5l-20 -496q-4 -46 12 -62t51 -16q40 0 98 62l11 -7q-4 -4 -23.5 -28.5t-30 -35
t-30.5 -27.5t-40 -24t-42 -7zM623 983h-6l-244 234h-4l-244 -234h-6l252 363z" />
    <glyph glyph-name="atilde" unicode="&#xe3;" horiz-adv-x="780" 
d="M319 49q103 0 203 92l10 328q-93 -24 -159.5 -50.5t-104.5 -51t-59.5 -54.5t-28 -55t-6.5 -59q0 -73 37 -111.5t108 -38.5zM633 -18q-44 0 -79 38t-36 93v4q-155 -133 -264 -133q-90 0 -144.5 53.5t-54.5 130.5q0 71 42 123t146.5 100.5t288.5 97.5l5 121q4 74 -13 125
t-48.5 75.5t-63.5 34t-70 9.5q-63 0 -124.5 -34t-61.5 -58q0 -6 12 -17t24.5 -30t12.5 -43q0 -30 -22 -52t-56 -22q-78 0 -78 78q0 45 61 97t148.5 86t159.5 34q118 0 177 -59.5t52 -210.5l-20 -496q-4 -46 12 -62t51 -16q40 0 98 62l11 -7q-4 -4 -23.5 -28.5t-30 -35
t-30.5 -27.5t-40 -24t-42 -7zM559 1018q-45 0 -160 59.5t-155 59.5q-39 0 -61.5 -22t-28.5 -81h-8q18 185 131 185q47 0 161 -59.5t154 -59.5q34 0 59 24.5t29 77.5h8q-11 -95 -40.5 -139.5t-88.5 -44.5z" />
    <glyph glyph-name="adieresis" unicode="&#xe4;" horiz-adv-x="780" 
d="M319 49q103 0 203 92l10 328q-93 -24 -159.5 -50.5t-104.5 -51t-59.5 -54.5t-28 -55t-6.5 -59q0 -73 37 -111.5t108 -38.5zM633 -18q-44 0 -79 38t-36 93v4q-155 -133 -264 -133q-90 0 -144.5 53.5t-54.5 130.5q0 71 42 123t146.5 100.5t288.5 97.5l5 121q4 74 -13 125
t-48.5 75.5t-63.5 34t-70 9.5q-63 0 -124.5 -34t-61.5 -58q0 -6 12 -17t24.5 -30t12.5 -43q0 -30 -22 -52t-56 -22q-78 0 -78 78q0 45 61 97t148.5 86t159.5 34q118 0 177 -59.5t52 -210.5l-20 -496q-4 -46 12 -62t51 -16q40 0 98 62l11 -7q-4 -4 -23.5 -28.5t-30 -35
t-30.5 -27.5t-40 -24t-42 -7zM514 1044q-38 0 -59 23.5t-21 50.5q0 29 21.5 57.5t58.5 28.5t58.5 -28.5t21.5 -57.5q0 -27 -21 -50.5t-59 -23.5zM228 1044q-38 0 -59 23.5t-21 50.5q0 29 21.5 57.5t58.5 28.5t58 -28.5t21 -57.5q0 -27 -20.5 -50.5t-58.5 -23.5z" />
    <glyph glyph-name="aring" unicode="&#xe5;" horiz-adv-x="780" 
d="M319 49q103 0 203 92l10 328q-93 -24 -159.5 -50.5t-104.5 -51t-59.5 -54.5t-28 -55t-6.5 -59q0 -73 37 -111.5t108 -38.5zM633 -18q-44 0 -79 38t-36 93v4q-155 -133 -264 -133q-90 0 -144.5 53.5t-54.5 130.5q0 71 42 123t146.5 100.5t288.5 97.5l5 121q4 74 -13 125
t-48.5 75.5t-63.5 34t-70 9.5q-63 0 -124.5 -34t-61.5 -58q0 -6 12 -17t24.5 -30t12.5 -43q0 -30 -22 -52t-56 -22q-78 0 -78 78q0 45 61 97t148.5 86t159.5 34q118 0 177 -59.5t52 -210.5l-20 -496q-4 -46 12 -62t51 -16q40 0 98 62l11 -7q-4 -4 -23.5 -28.5t-30 -35
t-30.5 -27.5t-40 -24t-42 -7zM416 1038q73 0 117.5 48t44.5 118q0 69 -44.5 117.5t-117.5 48.5t-117.5 -48.5t-44.5 -117.5q0 -70 44.5 -118t117.5 -48zM416 1020q-83 0 -132.5 53t-49.5 131q0 77 49.5 131t132.5 54t132.5 -54t49.5 -131q0 -78 -49.5 -131t-132.5 -53z" />
    <glyph glyph-name="ae" unicode="&#xe6;" horiz-adv-x="1320" 
d="M1130 610q0 114 -50.5 188t-147.5 74q-87 0 -162.5 -73.5t-107.5 -190.5zM330 41q116 0 243 168q-45 91 -45 207v53q-113 -30 -186.5 -62.5t-108.5 -68.5t-47 -67.5t-12 -73.5q0 -72 42 -114t114 -42zM266 -25q-90 0 -150.5 57t-60.5 134q0 105 104.5 180t370.5 146
l11 118q6 71 -11.5 121.5t-50.5 75.5t-66.5 36t-70.5 11q-63 0 -124.5 -34t-61.5 -58q0 -6 12 -17t24.5 -30t12.5 -43q0 -30 -22 -52t-56 -22q-78 0 -78 78q0 45 61 97t148.5 86t159.5 34q98 0 148 -35t67 -117q58 76 132.5 114t182.5 38q146 0 231 -82.5t85 -194.5
q0 -4 -0.5 -8t-1.5 -10l-2 -12q-113 2 -302 2h-301q-6 -33 -6 -113q0 -182 93.5 -301t230.5 -119q101 0 170.5 39t122.5 129l16 -6q-71 -119 -155 -180.5t-201 -61.5q-109 0 -200.5 58.5t-141.5 156.5q-84 -100 -161.5 -157.5t-158.5 -57.5z" />
    <glyph glyph-name="ccedilla" unicode="&#xe7;" horiz-adv-x="817" 
d="M438 -25q-108 0 -200.5 60.5t-145.5 162t-53 218.5q0 132 58 241.5t161.5 172.5t230.5 63q122 0 202.5 -54t80.5 -134q0 -36 -26 -63.5t-56 -27.5q-35 0 -57.5 21t-22.5 53q0 23 6.5 40.5t14 25.5t14 15.5t6.5 12.5q0 24 -51 59.5t-113 35.5q-131 0 -227 -114.5
t-96 -285.5q0 -182 95 -302t233 -120q99 0 163.5 38.5t120.5 129.5l19 -6q-65 -113 -144 -174.5t-188 -67.5l-109 -125q107 21 187 -17t80 -114q0 -63 -52 -111t-132 -74t-179 -34l-4 6q133 12 214 60.5t81 114.5q0 50 -37.5 76t-105.5 26q-71 0 -142 -23v15z" />
    <glyph glyph-name="egrave" unicode="&#xe8;" horiz-adv-x="825" 
d="M641 610q0 113 -51 187.5t-144 74.5q-86 0 -161 -74t-107 -190zM442 -25q-109 0 -202 60t-147 161.5t-54 219.5q0 130 51 238t148 173.5t221 65.5q146 0 230.5 -82.5t84.5 -194.5q0 -4 -0.5 -8t-1.5 -10l-2 -12l-596 2q-10 -55 -10 -113q0 -182 95 -301t233 -119
q99 0 163 38t125 130l15 -6q-71 -119 -154 -180.5t-199 -61.5zM133 1391h131l256 -383h-6z" />
    <glyph glyph-name="eacute" unicode="&#xe9;" horiz-adv-x="825" 
d="M641 610q0 113 -51 187.5t-144 74.5q-86 0 -161 -74t-107 -190zM442 -25q-109 0 -202 60t-147 161.5t-54 219.5q0 130 51 238t148 173.5t221 65.5q146 0 230.5 -82.5t84.5 -194.5q0 -4 -0.5 -8t-1.5 -10l-2 -12l-596 2q-10 -55 -10 -113q0 -182 95 -301t233 -119
q99 0 163 38t125 130l15 -6q-71 -119 -154 -180.5t-199 -61.5zM621 1391h131l-381 -383h-6z" />
    <glyph glyph-name="ecircumflex" unicode="&#xea;" horiz-adv-x="825" 
d="M641 610q0 113 -51 187.5t-144 74.5q-86 0 -161 -74t-107 -190zM442 -25q-109 0 -202 60t-147 161.5t-54 219.5q0 130 51 238t148 173.5t221 65.5q146 0 230.5 -82.5t84.5 -194.5q0 -4 -0.5 -8t-1.5 -10l-2 -12l-596 2q-10 -55 -10 -113q0 -182 95 -301t233 -119
q99 0 163 38t125 130l15 -6q-71 -119 -154 -180.5t-199 -61.5zM694 983h-6l-244 234h-4l-244 -234h-6l252 363z" />
    <glyph glyph-name="edieresis" unicode="&#xeb;" horiz-adv-x="825" 
d="M641 610q0 113 -51 187.5t-144 74.5q-86 0 -161 -74t-107 -190zM442 -25q-109 0 -202 60t-147 161.5t-54 219.5q0 130 51 238t148 173.5t221 65.5q146 0 230.5 -82.5t84.5 -194.5q0 -4 -0.5 -8t-1.5 -10l-2 -12l-596 2q-10 -55 -10 -113q0 -182 95 -301t233 -119
q99 0 163 38t125 130l15 -6q-71 -119 -154 -180.5t-199 -61.5zM575 1044q-38 0 -59 23.5t-21 50.5q0 29 21.5 57.5t58.5 28.5t58.5 -28.5t21.5 -57.5q0 -27 -21 -50.5t-59 -23.5zM289 1044q-38 0 -59 23.5t-21 50.5q0 29 21.5 57.5t58.5 28.5t58 -28.5t21 -57.5
q0 -27 -20.5 -50.5t-58.5 -23.5z" />
    <glyph glyph-name="igrave" unicode="&#xec;" horiz-adv-x="417" 
d="M33 12l37 2q67 6 76 11q10 5 10 18v610q0 94 -15.5 124t-68.5 34l-47 6l2 8l243 64v-850q0 -12 17.5 -16t85.5 -9l28 -2l7 -12h-381zM-90 1391h131l256 -383h-6z" />
    <glyph glyph-name="iacute" unicode="&#xed;" horiz-adv-x="417" 
d="M33 12l37 2q67 6 76 11q10 5 10 18v610q0 94 -15.5 124t-68.5 34l-47 6l2 8l243 64v-850q0 -12 17.5 -16t85.5 -9l28 -2l7 -12h-381zM377 1391h131l-381 -383h-6z" />
    <glyph glyph-name="icircumflex" unicode="&#xee;" horiz-adv-x="417" 
d="M33 12l37 2q67 6 76 11q10 5 10 18v610q0 94 -15.5 124t-68.5 34l-47 6l2 8l243 64v-850q0 -12 17.5 -16t85.5 -9l28 -2l7 -12h-381zM436 983h-6l-219 229h-4l-223 -229h-7l232 363z" />
    <glyph glyph-name="idieresis" unicode="&#xef;" horiz-adv-x="417" 
d="M33 12l37 2q67 6 76 11q10 5 10 18v610q0 94 -15.5 124t-68.5 34l-47 6l2 8l243 64v-850q0 -12 17.5 -16t85.5 -9l28 -2l7 -12h-381zM352 1044q-38 0 -59 23.5t-21 50.5q0 29 21.5 57.5t58.5 28.5t58.5 -28.5t21.5 -57.5q0 -27 -21 -50.5t-59 -23.5zM66 1044
q-38 0 -59 23.5t-21 50.5q0 29 21.5 57.5t58.5 28.5t58 -28.5t21 -57.5q0 -27 -20.5 -50.5t-58.5 -23.5z" />
    <glyph glyph-name="eth" unicode="&#xf0;" horiz-adv-x="972" 
d="M485 -12q130 0 214.5 114.5t84.5 315.5q0 210 -83.5 333t-223.5 123q-130 0 -217.5 -118.5t-87.5 -296.5q0 -226 82 -348.5t231 -122.5zM139 1061l4 24l236 78q-113 64 -289 94l2 15q188 -21 336 -92l238 80l4 -25l-211 -70q216 -112 337.5 -299t121.5 -383
q0 -216 -127 -362t-312 -146q-187 0 -313.5 130.5t-126.5 322.5t128 327.5t312 135.5q112 0 203 -43q-97 198 -274 301z" />
    <glyph glyph-name="ntilde" unicode="&#xf1;" horiz-adv-x="978" 
d="M33 12l37 2q67 6 76 11q10 5 10 18v606q0 95 -15.5 126.5t-68.5 35.5l-47 6l2 8l245 64l-6 -184l4 -7q3 3 35 31.5t44 38t44 34.5t54 36.5t53 27t61 21.5t60 6q95 0 147 -55q68 -74 68 -193v-604q0 -6 1.5 -9t12 -6t29.5 -5.5t57 -6.5l31 -2l6 -12h-379l6 12l37 2
q52 4 69 10.5t17 18.5v578q0 91 -46.5 138.5t-133.5 47.5q-137 0 -273 -129v-258v-381q0 -12 18 -16t87 -9l26 -2l9 -12h-383zM631 1018q-45 0 -160 59.5t-155 59.5q-39 0 -61.5 -22t-28.5 -81h-8q18 185 131 185q47 0 161 -59.5t154 -59.5q34 0 59 24.5t29 77.5h8
q-11 -95 -40.5 -139.5t-88.5 -44.5z" />
    <glyph glyph-name="ograve" unicode="&#xf2;" horiz-adv-x="966" 
d="M487 -12q128 0 216 124.5t88 305.5q0 262 -115 377q-76 82 -195 82q-130 0 -219.5 -120t-89.5 -298q0 -129 33 -234t94 -166q71 -71 188 -71zM485 -25q-188 0 -317 131.5t-129 321.5q0 126 59.5 233t162 169.5t224.5 62.5q185 0 314 -131.5t129 -321.5
q0 -195 -129.5 -330t-313.5 -135zM111 1391h131l256 -383h-6z" />
    <glyph glyph-name="oacute" unicode="&#xf3;" horiz-adv-x="966" 
d="M487 -12q128 0 216 124.5t88 305.5q0 262 -115 377q-76 82 -195 82q-130 0 -219.5 -120t-89.5 -298q0 -129 33 -234t94 -166q71 -71 188 -71zM485 -25q-188 0 -317 131.5t-129 321.5q0 126 59.5 233t162 169.5t224.5 62.5q185 0 314 -131.5t129 -321.5
q0 -195 -129.5 -330t-313.5 -135zM701 1391h131l-381 -383h-6z" />
    <glyph glyph-name="ocircumflex" unicode="&#xf4;" horiz-adv-x="966" 
d="M487 -12q128 0 216 124.5t88 305.5q0 262 -115 377q-76 82 -195 82q-130 0 -219.5 -120t-89.5 -298q0 -129 33 -234t94 -166q71 -71 188 -71zM485 -25q-188 0 -317 131.5t-129 321.5q0 126 59.5 233t162 169.5t224.5 62.5q185 0 314 -131.5t129 -321.5
q0 -195 -129.5 -330t-313.5 -135zM733 983h-6l-244 234h-4l-244 -234h-6l252 363z" />
    <glyph glyph-name="otilde" unicode="&#xf5;" horiz-adv-x="966" 
d="M487 -12q128 0 216 124.5t88 305.5q0 262 -115 377q-76 82 -195 82q-130 0 -219.5 -120t-89.5 -298q0 -129 33 -234t94 -166q71 -71 188 -71zM485 -25q-188 0 -317 131.5t-129 321.5q0 126 59.5 233t162 169.5t224.5 62.5q185 0 314 -131.5t129 -321.5
q0 -195 -129.5 -330t-313.5 -135zM624 1018q-45 0 -160 59.5t-155 59.5q-39 0 -61.5 -22t-28.5 -81h-8q18 185 131 185q47 0 161 -59.5t154 -59.5q34 0 59 24.5t29 77.5h8q-11 -95 -40.5 -139.5t-88.5 -44.5z" />
    <glyph glyph-name="odieresis" unicode="&#xf6;" horiz-adv-x="966" 
d="M487 -12q128 0 216 124.5t88 305.5q0 262 -115 377q-76 82 -195 82q-130 0 -219.5 -120t-89.5 -298q0 -129 33 -234t94 -166q71 -71 188 -71zM485 -25q-188 0 -317 131.5t-129 321.5q0 126 59.5 233t162 169.5t224.5 62.5q185 0 314 -131.5t129 -321.5
q0 -195 -129.5 -330t-313.5 -135zM624 1044q-38 0 -59 23.5t-21 50.5q0 29 21.5 57.5t58.5 28.5t58.5 -28.5t21.5 -57.5q0 -27 -21 -50.5t-59 -23.5zM338 1044q-38 0 -59 23.5t-21 50.5q0 29 21.5 57.5t58.5 28.5t58 -28.5t21 -57.5q0 -27 -20.5 -50.5t-58.5 -23.5z" />
    <glyph glyph-name="divide" unicode="&#xf7;" horiz-adv-x="1114" 
d="M555 -2q203 0 340 139t137 348q0 206 -137 348t-336 142q-201 0 -339 -142.5t-138 -351.5q0 -207 135 -345t338 -138zM555 -20q-213 0 -353.5 142.5t-140.5 358.5q0 217 142.5 364.5t355.5 147.5q210 0 352 -146t142 -362q0 -218 -142 -361.5t-356 -143.5z" />
    <glyph glyph-name="oslash" unicode="&#xf8;" horiz-adv-x="966" 
d="M279 82q6 -9 20 -23q71 -71 188 -71q128 0 216 124.5t88 305.5q0 246 -105 366zM672 799q-78 78 -191 78q-130 0 -219.5 -120t-89.5 -298q0 -230 94 -361zM238 49q-93 61 -146 159.5t-53 219.5q0 126 59.5 233t162 169.5t224.5 62.5q114 0 209 -53l201 344h23l-205 -355
q99 -61 157 -164t58 -225q0 -195 -129.5 -330t-313.5 -135q-127 0 -231 64l-174 -299h-23z" />
    <glyph glyph-name="ugrave" unicode="&#xf9;" horiz-adv-x="927" 
d="M700 160h-2q-2 -2 -30.5 -26.5t-37 -31t-37.5 -29t-44.5 -31.5t-44 -25t-50 -23t-49 -13t-53.5 -6q-100 0 -159 56q-62 62 -62 188v606q0 6 -3.5 9t-28 8t-72.5 8l-29 2l-6 12h252l2 -618q0 -189 182 -189q73 0 135.5 31t128.5 90v193v372q0 64 -19 83t-83 24l-29 2
l-6 12h254v-753q0 -38 13.5 -54t58.5 -20l59 -2l-2 -12l-246 -54zM209 1391h131l256 -383h-6z" />
    <glyph glyph-name="uacute" unicode="&#xfa;" horiz-adv-x="927" 
d="M700 160h-2q-2 -2 -30.5 -26.5t-37 -31t-37.5 -29t-44.5 -31.5t-44 -25t-50 -23t-49 -13t-53.5 -6q-100 0 -159 56q-62 62 -62 188v606q0 6 -3.5 9t-28 8t-72.5 8l-29 2l-6 12h252l2 -618q0 -189 182 -189q73 0 135.5 31t128.5 90v193v372q0 64 -19 83t-83 24l-29 2
l-6 12h254v-753q0 -38 13.5 -54t58.5 -20l59 -2l-2 -12l-246 -54zM676 1391h131l-381 -383h-6z" />
    <glyph glyph-name="ucircumflex" unicode="&#xfb;" horiz-adv-x="927" 
d="M700 160h-2q-2 -2 -30.5 -26.5t-37 -31t-37.5 -29t-44.5 -31.5t-44 -25t-50 -23t-49 -13t-53.5 -6q-100 0 -159 56q-62 62 -62 188v606q0 6 -3.5 9t-28 8t-72.5 8l-29 2l-6 12h252l2 -618q0 -189 182 -189q73 0 135.5 31t128.5 90v193v372q0 64 -19 83t-83 24l-29 2
l-6 12h254v-753q0 -38 13.5 -54t58.5 -20l59 -2l-2 -12l-246 -54zM715 983h-6l-244 234h-4l-244 -234h-6l252 363z" />
    <glyph glyph-name="udieresis" unicode="&#xfc;" horiz-adv-x="927" 
d="M700 160h-2q-2 -2 -30.5 -26.5t-37 -31t-37.5 -29t-44.5 -31.5t-44 -25t-50 -23t-49 -13t-53.5 -6q-100 0 -159 56q-62 62 -62 188v606q0 6 -3.5 9t-28 8t-72.5 8l-29 2l-6 12h252l2 -618q0 -189 182 -189q73 0 135.5 31t128.5 90v193v372q0 64 -19 83t-83 24l-29 2
l-6 12h254v-753q0 -38 13.5 -54t58.5 -20l59 -2l-2 -12l-246 -54zM606 1044q-38 0 -59 23.5t-21 50.5q0 29 21.5 57.5t58.5 28.5t58.5 -28.5t21.5 -57.5q0 -27 -21 -50.5t-59 -23.5zM320 1044q-38 0 -59 23.5t-21 50.5q0 29 21.5 57.5t58.5 28.5t58 -28.5t21 -57.5
q0 -27 -20.5 -50.5t-58.5 -23.5z" />
    <glyph glyph-name="yacute" unicode="&#xfd;" horiz-adv-x="890" 
d="M141 -524q-49 0 -79.5 23t-30.5 59q0 34 23 59t59 25t61 -27t29 -74q69 11 109.5 79t97.5 245l41 125v4l-304 727q-23 61 -36 84.5t-28.5 32.5t-49.5 12l-39 2l-6 12h383l-2 -12l-35 -2q-59 -4 -70.5 -26.5t12.5 -82.5l238 -583l176 463q21 62 30 96.5t10.5 62.5
t-13.5 40.5t-39 19.5t-68 10l-28 2l-7 12h340l-6 -12l-22 -2q-66 -4 -93.5 -42.5t-87.5 -195.5q-4 -10 -6 -16l-233 -610l-55 -174q-56 -179 -116.5 -257.5t-154.5 -78.5zM633 1321h123l-361 -365h-6z" />
    <glyph glyph-name="thorn" unicode="&#xfe;" horiz-adv-x="935" 
d="M469 -4q137 0 217 114.5t80 297.5q0 175 -82.5 290t-218.5 115q-54 0 -103.5 -21.5t-79.5 -46t-75 -69.5v-531q38 -63 110.5 -106t151.5 -43zM-29 -506l37 2q8 1 22 2q39 3 51.5 8t12.5 21v1638q0 82 -15.5 110t-68.5 32l-47 4l2 10l242 57v-669l4 -7q161 181 321 181
q155 0 260 -118t105 -304q0 -134 -62.5 -247t-161.5 -176t-208 -63q-132 0 -254 64h-4v-520q0 -8 6.5 -12t29.5 -7t68 -4l70 -2l6 -12h-422z" />
    <glyph glyph-name="ydieresis" unicode="&#xff;" horiz-adv-x="890" 
d="M141 -524q-49 0 -79.5 23t-30.5 59q0 34 23 59t59 25t61 -27t29 -74q69 11 109.5 79t97.5 245l41 125v4l-304 727q-23 61 -36 84.5t-28.5 32.5t-49.5 12l-39 2l-6 12h383l-2 -12l-35 -2q-59 -4 -70.5 -26.5t12.5 -82.5l238 -583l176 463q21 62 30 96.5t10.5 62.5
t-13.5 40.5t-39 19.5t-68 10l-28 2l-7 12h340l-6 -12l-22 -2q-66 -4 -93.5 -42.5t-87.5 -195.5q-4 -10 -6 -16l-233 -610l-55 -174q-56 -179 -116.5 -257.5t-154.5 -78.5zM606 1044q-38 0 -59 23.5t-21 50.5q0 29 21.5 57.5t58.5 28.5t58.5 -28.5t21.5 -57.5
q0 -27 -21 -50.5t-59 -23.5zM320 1044q-38 0 -59 23.5t-21 50.5q0 29 21.5 57.5t58.5 28.5t58 -28.5t21 -57.5q0 -27 -20.5 -50.5t-58.5 -23.5z" />
    <glyph glyph-name="dotlessi" unicode="&#x131;" horiz-adv-x="417" 
d="M33 12l37 2q67 6 76 11q10 5 10 18v610q0 94 -15.5 124t-68.5 34l-47 6l2 8l243 64v-850q0 -12 17.5 -16t85.5 -9l28 -2l7 -12h-381z" />
    <glyph glyph-name="Lslash" unicode="&#x141;" horiz-adv-x="1097" 
d="M23 518l-5 21l209 67v629q0 6 -3.5 9t-16 6.5t-35.5 6t-63 5.5l-52 6l-6 12h537l-6 -12l-123 -8q-99 -8 -99 -35v-574l207 68l4 -25l-211 -67v-600l283 -9q58 2 105.5 18t83 41t67 66t54.5 84.5t48 104.5l13 24h12l-94 -356h-883l6 12l74 8q98 8 98 31v533z" />
    <glyph glyph-name="lslash" unicode="&#x142;" horiz-adv-x="391" 
d="M2 496l4 22l139 45v586q0 95 -15 124.5t-69 33.5l-45 4l2 10l242 57v-778l125 41l4 -23l-129 -40v-539q0 -12 17 -16.5t85 -8.5l29 -2l6 -12h-377l5 12l34 2q67 6 76 11q10 5 10 18v498z" />
    <glyph glyph-name="OE" unicode="&#x152;" horiz-adv-x="1849" 
d="M946 25v1208l-166 18q-115 -2 -211.5 -34t-164 -86.5t-114.5 -128.5t-69 -158.5t-22 -177.5q0 -140 37.5 -256t110.5 -202.5t189 -134.5t265 -48h145zM770 0q-333 0 -524 165.5t-191 452.5q0 300 211.5 478t562.5 178l822 6l49 -330l-8 2l-15 29q-58 154 -133.5 218.5
t-183.5 64.5h-281v-574h197q115 4 157.5 34t67.5 122l10 26l11 -2l-39 -389l-10 2l-3 23q-4 56 -12 84.5t-33 46t-59 22.5t-104 7l-183 4v-641l301 -9q141 4 229 83t150 227l13 28l12 -2l-94 -356h-920z" />
    <glyph glyph-name="oe" unicode="&#x153;" horiz-adv-x="1579" 
d="M1397 610q0 113 -51.5 187.5t-145.5 74.5q-89 0 -164 -74.5t-104 -189.5zM487 -12q128 0 216 124.5t88 305.5q0 260 -115 375q-81 84 -195 84q-130 0 -219.5 -121t-89.5 -301q0 -125 33.5 -229.5t93.5 -164.5q73 -73 188 -73zM485 -25q-188 0 -317 131.5t-129 323.5
q0 124 59 230.5t162 169.5t225 63q126 0 224.5 -63.5t148.5 -174.5q51 112 142 175t217 63q142 0 226.5 -83t84.5 -194q0 -4 -0.5 -8t-1.5 -10l-2 -12l-596 2q-10 -55 -10 -113q0 -182 94.5 -301t232.5 -119q99 0 165 38.5t126 129.5l14 -6q-71 -118 -157 -180t-203 -62
q-110 0 -197.5 64.5t-136.5 171.5q-55 -110 -151.5 -173t-219.5 -63z" />
    <glyph glyph-name="Scaron" unicode="&#x160;" horiz-adv-x="970" 
d="M473 -27q-192 0 -364 68l-33 278h12l33 -81q51 -128 136.5 -188t219.5 -60q149 0 240.5 84.5t91.5 220.5q0 131 -85.5 209.5t-260.5 132.5q-52 17 -92.5 34t-84.5 45t-73 61.5t-47.5 81.5t-18.5 106q0 149 103 247.5t266 98.5q131 0 221 -51l90 22l33 -291h-14l-139 240
q-79 63 -195 63q-123 0 -199.5 -71t-76.5 -181q0 -47 16.5 -86t41 -66t68 -52.5t82.5 -42t99 -37.5q61 -22 105 -41t96.5 -53t85 -72t55 -95t22.5 -126q0 -167 -126 -282.5t-308 -115.5zM258 1729h6l244 -234h4l244 234h6l-252 -363z" />
    <glyph glyph-name="scaron" unicode="&#x161;" horiz-adv-x="692" 
d="M324 -25q-141 0 -252 48l-27 225h12l43 -92q39 -81 103 -123.5t131 -42.5q94 0 151.5 52t57.5 138q0 87 -58 138t-180 88q-229 73 -229 239q0 103 82 175.5t192 72.5q90 0 174 -41l66 22l10 -206l-14 -2l-94 157q-25 18 -38 25.5t-43 18t-61 10.5q-86 0 -133 -43
t-47 -121q0 -42 14 -72.5t44.5 -53.5t62 -37.5t84.5 -33.5q35 -12 56 -19.5t53 -21.5t51 -27.5t42.5 -34.5t36 -44t21 -55t8.5 -70q0 -113 -92 -191t-227 -78zM94 1346h6l244 -234h4l244 234h6l-252 -363z" />
    <glyph glyph-name="Ydieresis" unicode="&#x178;" horiz-adv-x="1218" 
d="M342 12l102 8q99 8 99 31v527l-305 534q-25 45 -38.5 65.5t-35.5 43.5t-47.5 32t-63.5 11l-55 4l-6 12h506l-6 -12l-76 -2q-69 -2 -78.5 -25.5t31.5 -95.5l295 -520h4l211 397q27 52 42 85t21.5 61t2 43.5t-22.5 27.5t-45 17.5t-72 9.5l-55 2l-7 12h463l-6 -12l-35 -2
q-37 -2 -55 -4t-42 -10.5t-37.5 -21.5t-35.5 -42t-42 -66t-52 -98l-225 -422v-557q0 -6 3.5 -9t16.5 -6.5t36 -6t63 -5.5l79 -6l7 -12h-545zM776 1386q-38 0 -59 23.5t-21 50.5q0 29 21.5 57.5t58.5 28.5t58.5 -28.5t21.5 -57.5q0 -27 -21 -50.5t-59 -23.5zM490 1386
q-38 0 -59 23.5t-21 50.5q0 29 21.5 57.5t58.5 28.5t58 -28.5t21 -57.5q0 -27 -20.5 -50.5t-58.5 -23.5z" />
    <glyph glyph-name="Zcaron" unicode="&#x17d;" horiz-adv-x="1144" 
d="M74 6l821 1251v7h-459q-99 0 -166 -77t-133 -247l-12 -27h-12l51 367h889v-6l-820 -1247v-7l480 -4q72 0 126.5 24.5t93.5 76t66 114t54 154.5l12 29h16l-65 -414h-942v6zM320 1688h6l244 -234h4l244 234h6l-252 -363z" />
    <glyph glyph-name="zcaron" unicode="&#x17e;" horiz-adv-x="819" 
d="M39 10l557 840h-236q-70 0 -115 -25t-71 -68t-59 -128l-17 -37h-10l12 272h631v-10l-563 -836l272 -4q99 0 160 50.5t129 164.5l29 47h8l-72 -276h-655v10zM145 1346h6l244 -234h4l244 234h6l-252 -363z" />
    <glyph glyph-name="florin" unicode="&#x192;" horiz-adv-x="954" 
d="M143 -143q-76 0 -114.5 28.5t-38.5 73.5q0 39 23.5 59.5t56.5 20.5q49 0 62.5 -42t-38.5 -99q7 -3 19.5 -9t17 -8t13 -4t16.5 -2q49 0 79.5 18.5t65 83t66.5 190.5t73 339l52 254l-209 4l18 53l209 4q74 300 182 402q51 51 99.5 70.5t109.5 19.5q69 0 117.5 -34.5
t48.5 -82.5q0 -37 -23.5 -59.5t-54.5 -22.5q-32 0 -53.5 20t-17 55t42.5 71q-12 9 -27 18q-27 18 -64 18q-38 0 -65 -14.5t-50 -44t-43 -89t-38.5 -134.5t-42.5 -195h254l-21 -59h-247l-58 -258q-95 -428 -239 -572q-76 -73 -181 -73z" />
    <glyph glyph-name="circumflex" unicode="&#x2c6;" 
d="M631 983h-6l-244 234h-4l-244 -234h-6l252 363z" />
    <glyph glyph-name="caron" unicode="&#x2c7;" 
d="M127 1346h6l244 -234h4l244 234h6l-252 -363z" />
    <glyph glyph-name="breve" unicode="&#x2d8;" 
d="M379 997q-44 0 -80.5 18.5t-59.5 45t-43 69.5t-30.5 76.5t-22.5 81.5h9q47 -100 102.5 -157.5t128.5 -57.5q137 0 231 215h9q-12 -48 -22.5 -81.5t-31 -76.5t-44.5 -69.5t-61.5 -45t-84.5 -18.5z" />
    <glyph glyph-name="dotaccent" unicode="&#x2d9;" 
d="M379 1075q-38 0 -59 25t-21 53t21.5 55t58.5 27t58.5 -27t21.5 -55t-21 -53t-59 -25z" />
    <glyph glyph-name="ring" unicode="&#x2da;" 
d="M379 1038q73 0 117.5 48t44.5 118q0 69 -44.5 117.5t-117.5 48.5t-117.5 -48.5t-44.5 -117.5q0 -70 44.5 -118t117.5 -48zM379 1020q-83 0 -132.5 53t-49.5 131q0 77 49.5 131t132.5 54t132.5 -54t49.5 -131q0 -78 -49.5 -131t-132.5 -53z" />
    <glyph glyph-name="ogonek" unicode="&#x2db;" 
d="M348 -444q-67 0 -116.5 46t-49.5 111q0 46 22.5 90.5t56 78.5t78 65t81.5 50.5t74 35.5h24q-244 -119 -244 -289q0 -62 33 -98.5t84 -36.5q86 0 148 90l8 -4q-23 -33 -38 -52t-40.5 -42t-55 -34t-65.5 -11z" />
    <glyph glyph-name="tilde" unicode="&#x2dc;" 
d="M522 1018q-45 0 -160 59.5t-155 59.5q-39 0 -61.5 -22t-28.5 -81h-8q18 185 131 185q47 0 161 -59.5t154 -59.5q34 0 59 24.5t29 77.5h8q-11 -95 -40.5 -139.5t-88.5 -44.5z" />
    <glyph glyph-name="hungarumlaut" unicode="&#x2dd;" 
d="M674 1391h119l-355 -383h-10zM403 1391h119l-356 -383h-10z" />
    <glyph glyph-name="pi" unicode="&#x3c0;" horiz-adv-x="1441" 
d="M762 627q105 0 153 47.5t48 146.5q0 88 -53 131t-169 43h-94v-352q61 -16 115 -16zM442 254l62 6q59 6 59 23v690q0 6 -4 8.5t-19 5.5t-48 6l-48 4l-4 13h334q131 0 199.5 -46.5t68.5 -138.5q0 -93 -82 -153t-198 -60q-17 0 -40 2t-45.5 5t-29.5 4v-344q0 -15 68 -21
l63 -4l4 -12h-342zM721 -10q176 0 325.5 87.5t236.5 237.5t87 326q0 177 -87 327.5t-236.5 238t-325.5 87.5t-325.5 -87.5t-236.5 -238t-87 -327.5q0 -176 87 -326t236.5 -237.5t325.5 -87.5zM721 -29q-137 0 -261 53t-213.5 142.5t-142.5 213.5t-53 261q0 182 89.5 336.5
t244 245t336.5 90.5t336.5 -90.5t244 -245t89.5 -336.5q0 -137 -53 -261t-142.5 -213.5t-213.5 -142.5t-261 -53z" />
    <glyph glyph-name="endash" unicode="&#x2013;" horiz-adv-x="870" 
d="M14 520h848l-6 -41h-848z" />
    <glyph glyph-name="emdash" unicode="&#x2014;" horiz-adv-x="1835" 
d="M14 520h1813l-6 -41h-1813z" />
    <glyph glyph-name="quoteleft" unicode="&#x2018;" horiz-adv-x="313" 
d="M176 907q-57 0 -94 37.5t-37 106.5q0 75 66 152.5t149 117.5l8 -6q-8 -7 -29 -22.5t-34 -25.5t-31.5 -29t-29.5 -37t-19 -43.5t-8 -53.5q0 -61 38.5 -83t106.5 -5q22 -27 -4.5 -68t-81.5 -41z" />
    <glyph glyph-name="quoteright" unicode="&#x2019;" horiz-adv-x="309" 
d="M41 905q9 7 35.5 25.5t42 32.5t35 36t29.5 50.5t10 62.5q0 61 -38.5 83.5t-107.5 4.5q-19 29 7.5 71t78.5 42q57 0 94 -41t37 -111q0 -77 -65.5 -151t-149.5 -115z" />
    <glyph glyph-name="quotesinglbase" unicode="&#x201a;" horiz-adv-x="309" 
d="M41 -195q5 3 21.5 14.5t25 17.5t24.5 19t25 23t21.5 26t19 31t11 35t4.5 41q0 61 -38.5 83.5t-107.5 4.5q-19 29 7.5 71t78.5 42q57 0 94 -41t37 -111q0 -77 -65.5 -151t-149.5 -115z" />
    <glyph glyph-name="quotedblleft" unicode="&#x201c;" horiz-adv-x="589" 
d="M176 907q-57 0 -94 37.5t-37 106.5q0 75 66 152.5t149 117.5l8 -6q-8 -7 -29 -22.5t-34 -25.5t-31.5 -29t-29.5 -37t-19 -43.5t-8 -53.5q0 -61 38.5 -83t106.5 -5q22 -27 -4.5 -68t-81.5 -41zM453 907q-57 0 -94 37.5t-37 106.5q0 75 66 152.5t149 117.5l8 -6
q-7 -5 -35 -26t-42.5 -34.5t-35 -37t-30 -52t-9.5 -61.5q0 -61 38.5 -83.5t107.5 -4.5q22 -27 -4.5 -68t-81.5 -41z" />
    <glyph glyph-name="quotedblright" unicode="&#x201d;" horiz-adv-x="585" 
d="M317 905q9 7 35.5 25.5t42 32.5t35 36t29.5 50.5t10 62.5q0 61 -37 83t-104 5q-23 27 4 70t78 43q57 0 94 -41t37 -111q0 -77 -65.5 -151t-149.5 -115zM41 905q9 7 35.5 25.5t42 32.5t35 36t29.5 50.5t10 62.5q0 61 -38.5 83.5t-107.5 4.5q-19 29 7.5 71t78.5 42
q57 0 94 -41t37 -111q0 -77 -65.5 -151t-149.5 -115z" />
    <glyph glyph-name="quotedblbase" unicode="&#x201e;" horiz-adv-x="585" 
d="M317 -195q5 3 21.5 14.5t25 17.5t24.5 19t25 23t21.5 26t19 31t11 35t4.5 41q0 61 -37 83t-104 5q-23 27 4 70t78 43q57 0 94 -41t37 -111q0 -77 -65.5 -151t-149.5 -115zM41 -195q5 3 21.5 14.5t25 17.5t24.5 19t25 23t21.5 26t19 31t11 35t4.5 41q0 61 -38.5 83.5
t-107.5 4.5q-19 29 7.5 71t78.5 42q57 0 94 -41t37 -111q0 -77 -65.5 -151t-149.5 -115z" />
    <glyph glyph-name="dagger" unicode="&#x2020;" horiz-adv-x="886" 
d="M432 848h-414l-2 20h416v412h23v-412h415l-2 -20h-413v-1167h-23v1167z" />
    <glyph glyph-name="daggerdbl" unicode="&#x2021;" horiz-adv-x="886" 
d="M432 74h-416l2 20h414v770h-414l-2 21h416v395h23v-395h415l-2 -21h-413v-770h413l2 -20h-415v-393h-23v393z" />
    <glyph glyph-name="bullet" unicode="&#x2022;" horiz-adv-x="870" 
d="M434 80q-43 0 -145 43.5t-131 75.5q-31 36 -74 134t-43 142q0 43 43 145.5t74 133.5t133 72.5t145 41.5t147.5 -41.5t131.5 -72.5q31 -27 72.5 -131.5t41.5 -147.5q0 -45 -41 -144.5t-73 -131.5q-29 -33 -132 -76t-149 -43z" />
    <glyph glyph-name="ellipsis" unicode="&#x2026;" horiz-adv-x="1034" 
d="M520 -27q-41 0 -68.5 26.5t-27.5 63.5q0 36 28 63.5t68 27.5q37 0 63.5 -27.5t26.5 -63.5q0 -37 -26 -63.5t-64 -26.5zM174 -27q-41 0 -68.5 26.5t-27.5 63.5q0 36 28 63.5t68 27.5t65 -27t25 -64q0 -38 -25 -64t-65 -26zM862 -27q-38 0 -65 26.5t-27 63.5q0 36 27 63.5
t65 27.5q40 0 65 -27t25 -64q0 -38 -25 -64t-65 -26z" />
    <glyph glyph-name="perthousand" unicode="&#x2030;" horiz-adv-x="1673" 
d="M270 809q104 0 168 69t64 171q0 101 -64.5 172t-167.5 71q-102 0 -165.5 -71t-63.5 -172q0 -102 63 -171t166 -69zM270 791q-115 0 -184.5 75t-69.5 183q0 109 69.5 185.5t184.5 76.5q116 0 186 -76.5t70 -185.5q0 -108 -70 -183t-186 -75zM811 -8q104 0 167.5 67.5
t63.5 169.5q0 103 -64 174.5t-167 71.5q-102 0 -165.5 -71.5t-63.5 -174.5q0 -102 62.5 -169.5t166.5 -67.5zM811 -27q-115 0 -184.5 74.5t-69.5 181.5q0 110 69.5 187.5t184.5 77.5q116 0 186 -77.5t70 -187.5q0 -107 -70 -181.5t-186 -74.5zM1401 -8q104 0 167.5 67.5
t63.5 169.5q0 103 -64 174.5t-167 71.5q-102 0 -166 -71.5t-64 -174.5q0 -102 63 -169.5t167 -67.5zM1401 -27q-115 0 -184.5 74.5t-69.5 181.5q0 110 69.5 187.5t184.5 77.5q116 0 186 -77.5t70 -187.5q0 -107 -70 -181.5t-186 -74.5zM965 1311h24l-876 -1340h-25z" />
    <glyph glyph-name="guilsinglleft" unicode="&#x2039;" horiz-adv-x="438" 
d="M20 451v8l381 348l7 -4l-261 -346l263 -353l-7 -4z" />
    <glyph glyph-name="guilsinglright" unicode="&#x203a;" horiz-adv-x="438" 
d="M29 104l262 353l-260 346l6 4l381 -348v-8l-383 -351z" />
    <glyph glyph-name="fraction" unicode="&#x2044;" horiz-adv-x="940" 
d="M936 1313h29l-961 -1340h-29z" />
    <glyph glyph-name="Euro" unicode="&#x20ac;" horiz-adv-x="948" 
d="M578 -27q-174 0 -296.5 133t-154.5 351h-129l6 20h119q-6 58 -6 119q0 75 8 127h-127l6 20h125q38 247 175 406.5t325 159.5q122 0 203 -54t81 -133q0 -37 -26.5 -62.5t-57.5 -25.5q-48 0 -67.5 35t-6 74.5t47.5 52.5q-22 41 -66.5 69.5t-107.5 28.5q-93 0 -176 -75
t-138 -200.5t-71 -275.5h405l6 -20h-415q1 -14 -0.5 -42.5t-1.5 -35.5q0 -91 14 -168h397l6 -20h-399q34 -187 128.5 -300.5t236.5 -113.5q98 0 173.5 53.5t120.5 151.5l13 -10q-29 -58 -61 -102.5t-74.5 -83t-96.5 -59t-118 -20.5z" />
    <glyph glyph-name="trademark" unicode="&#x2122;" horiz-adv-x="823" 
d="M385 965h10q24 0 31.5 5t7.5 25l6 260q-10 14 -34 17l-15 2l-2 6h105l92 -246h2l94 246h106l-2 -6l-24 -2q-21 -3 -21 -8l7 -291v-1q0 -2 2 -2q10 0 26 -3l12 -2l3 -7h-148v7l25 2q20 3 20 8l-4 280h-2l-117 -297h-4l-112 285q-1 2 -3 4l-4 -254q0 -18 8.5 -23t38.5 -5
h11l2 -7h-119zM123 965l22 2q25 3 25 8v299h-29q-29 -1 -48 -19.5t-40 -54.5l-4 -4h-4l16 84h277l10 -86h-2l-4 8q-28 72 -86 72h-29v-301q0 -3 4 -3q11 0 25 -3l16 -2v-7h-151z" />
    <glyph glyph-name="Omega" unicode="&#x2126;" horiz-adv-x="1040" 
d="M47 12l37 2q67 6 76 11q10 5 10 18v756l-139 2l18 63h119l4 27q10 114 45.5 201.5t89 139.5t118 78.5t136.5 26.5q150 0 150 -98q0 -26 -20.5 -47t-51.5 -21q-38 0 -66.5 38t-21.5 81l-62 23q-112 -22 -158 -114.5t-46 -262.5v-72h393v39q10 113 45 202.5t85 142.5
t107 80.5t115 27.5q52 0 81.5 -23.5t29.5 -60.5q0 -26 -22.5 -47t-51.5 -21q-37 0 -67.5 28t-36.5 66l-2 15l-31 4q-75 -33 -107 -126t-32 -239v-88h206l-20 -65h-186v-760q0 -10 3.5 -13.5t23 -7t63.5 -4.5l65 -2l8 -12h-403l6 12l37 2q8 1 23 2q38 3 49.5 7.5t11.5 19.5
v758h-393v-762q0 -10 2 -13.5t22.5 -7.5t63.5 -4l67 -2l6 -12h-405z" />
    <glyph glyph-name="Delta" unicode="&#x2206;" horiz-adv-x="909" 
d="M315 -20q-70 -2 -123 13.5t-81.5 41.5t-42 53t-13.5 53q0 38 25 66.5t65 28.5q37 0 62.5 -24.5t25.5 -55.5q0 -14 -2.5 -24t-10.5 -24.5t-28 -25t-51 -16.5q61 -72 176 -72q111 0 159 68t48 231v942q0 8 -7 12t-33 8t-78 7l-80 6l-7 16h545l-6 -16l-102 -8
q-99 -8 -99 -31v-983q0 -38 -25.5 -83t-68 -86.5t-109 -69t-139.5 -27.5z" />
    <glyph glyph-name="radical" unicode="&#x221a;" horiz-adv-x="1452" 
d="M1298 1378v-1339q0 -12 18 -16t87 -9l31 -2l6 -12h-381l6 12l35 2q9 1 24 2q40 3 52 7.5t12 19.5v758h-397v-762q0 -10 2 -13.5t22.5 -7.5t63.5 -4l69 -2l4 -12h-401l6 12l37 2q8 1 23 2q38 3 49.5 7.5t11.5 19.5v758h-393v-762q0 -10 2 -13.5t22.5 -7.5t63.5 -4l67 -2
l6 -12h-405l6 12l37 2q67 6 76 11q10 5 10 18v756l-139 2l18 63h119l4 27q10 114 45.5 201.5t89 139.5t118 78.5t136.5 26.5q150 0 150 -98q0 -26 -20.5 -47t-51.5 -21q-38 0 -66.5 36.5t-21.5 82.5l-62 23q-112 -22 -158 -114.5t-46 -262.5v-72h393v45q10 114 46.5 201.5
t91.5 141t121.5 80t141.5 26.5q95 0 138 -37zM1188 1176h-10q-48 0 -77.5 37.5t-25.5 93.5l-71 24q-112 -23 -162.5 -117t-50.5 -260v-90h397v312z" />
    <glyph glyph-name="approxequal" unicode="&#x2248;" horiz-adv-x="1445" 
d="M47 12l37 2q67 6 76 11q10 5 10 18v756l-139 2l18 63h119l4 27q10 114 45.5 201.5t89 139.5t118 78.5t136.5 26.5q150 0 150 -98q0 -26 -20.5 -47t-51.5 -21q-38 0 -66.5 38t-21.5 81l-62 23q-112 -22 -158 -114.5t-46 -262.5v-72h393v45q10 114 46.5 201.5t92 140.5
t122.5 80t142 27q77 0 118.5 -31.5t41.5 -87.5q0 -29 -22 -49.5t-52 -20.5q-48 0 -78 41.5t-20 100.5l-61 20q-114 -23 -165.5 -117t-51.5 -260v-90h383l124 21v-846q0 -12 18 -16t87 -9l29 -2l6 -12h-379l6 10l37 2q29 3 41 4.5t25 5t16.5 9t3.5 14.5v756h-397v-762
q0 -10 2 -13.5t22.5 -7.5t63.5 -4l69 -2l4 -12h-401l6 12l37 2q8 1 23 2q38 3 49.5 7.5t11.5 19.5v758h-393v-762q0 -10 2 -13.5t22.5 -7.5t63.5 -4l67 -2l6 -12h-405z" />
    <glyph glyph-name="apple" unicode="&#xf8ff;" horiz-adv-x="1552" 
d="M905 346l393 -213l-211 395l422 129l-422 125l211 394l-393 -211l-127 424l-131 -424l-391 211l211 -394l-426 -127l426 -131l-211 -391l391 213l127 -426zM602 236l-383 -140l139 383l-370 176l370 170l-139 387l383 -141l176 371l170 -371l387 141l-141 -387l369 -168
l-369 -174l141 -387l-387 142l-174 -371z" />
    <glyph glyph-name="fi" unicode="&#xfb01;" horiz-adv-x="946" 
d="M47 12l37 2q67 6 76 11q10 5 10 18v756l-139 2l18 63h119l4 45q10 114 46.5 202t92 140.5t122 79.5t140.5 27q77 0 117.5 -31.5t40.5 -87.5q0 -29 -21.5 -49.5t-50.5 -20.5q-48 0 -78 41.5t-20 100.5l-63 20q-112 -23 -162.5 -117t-50.5 -260v-90h383l123 21v-846
q0 -12 18.5 -16t87.5 -9l29 -2l4 -12h-379l6 12l37 2q8 1 23 2q38 3 49.5 7.5t11.5 19.5v758h-393v-762q0 -10 2 -13.5t22.5 -7.5t63.5 -4l67 -2l6 -12h-405z" />
    <glyph glyph-name="fl" unicode="&#xfb02;" horiz-adv-x="942" 
d="M791 1378v-1339q0 -12 18.5 -16t87.5 -9l29 -2l4 -12h-379l6 12l35 2q67 6 76 11q10 6 10 18v758h-393v-762q0 -10 2 -13.5t22.5 -7.5t63.5 -4l67 -2l6 -12h-405l6 12l37 2q67 6 76 11q10 5 10 18v756l-139 2l18 63h119l4 45q10 114 46.5 202t92 140.5t121.5 79.5t139 27
q93 0 136 -37zM678 1176h-8q-48 0 -78.5 37.5t-26.5 93.5l-69 24q-112 -23 -161.5 -116.5t-49.5 -260.5v-90h393v312z" />
    <glyph glyph-name="_226" horiz-adv-x="1024" 
 />
    </font>
</defs>
</svg>
