<svg id="Capa_1" enable-background="new 0 0 487.707 487.707" height="512" viewBox="0 0 487.707 487.707" width="512" xmlns="http://www.w3.org/2000/svg"><g><g><path d="m418.204 303.964-127.017-31.529v-33.604c-23.159 20.194-52.883 33.376-52.883 33.376s-29.218-13.083-52.117-33.149v33.377l-126.902 31.523c-26.753 6.645-45.535 30.665-45.535 58.23v118.018h450v-118.01c-.001-27.569-18.789-51.591-45.546-58.232z" fill="#e54696"/><path d="m418.204 303.964-127.017-31.529v-33.604c-6.42 5.598-13.344 10.656-20 15.045v34.202l142.199 35.297c17.878 4.438 30.363 20.401 30.363 38.821v118.01h20v-118.01c0-27.569-18.788-51.591-45.545-58.232z" fill="#ae2c6d"/><path d="m238.303 272.207s-79-35.37-79-79v-83.495c0-43.84 35.54-79.38 79.38-79.38h.007c43.84 0 79.38 35.54 79.38 79.38v83.495c0 43.63-79.767 79-79.767 79z" fill="#e54696"/><g fill="#ae2c6d"><path d="m260.923 33.511c22.311 14.051 37.147 38.886 37.147 67.201v83.495c0 40.145-67.526 73.294-78.316 78.334 10.723 6.161 18.549 9.666 18.549 9.666s79.767-35.37 79.767-79v-83.495c0-36.12-24.132-66.584-57.147-76.201z"/><path d="m159.303 167.863h-15.125c-16.569 0-30-13.431-30-30v-55.063h15.125c16.569 0 30 13.431 30 30"/><path d="m318.07 167.863h15.125c16.569 0 30-13.431 30-30v-55.063h-15.125c-16.569 0-30 13.431-30 30"/></g><path d="m196.81 42.281-24.106-30.255c-4.374-4.994-11.75-6.019-17.32-2.408-5.57 3.611-7.644 10.764-4.87 16.795l21.128 40.818c6.406-10.089 15.017-18.634 25.168-24.95z" fill="#a9baca"/><path d="m322.365 9.618c-5.57-3.611-12.947-2.586-17.32 2.408l-24.233 30.414c10.151 6.37 18.753 14.968 25.127 25.115l21.296-41.142c2.775-6.031.7-13.184-4.87-16.795z" fill="#a9baca"/><path d="m428.749 90.332 39.496 82.803-39.496-7.866-39.496 7.866z" fill="#ae2c6d"/></g><g><path d="m445.569 330.458c6.987 9.205 10.681 20.18 10.681 31.739v110.51h-60.056l.056-67.431-15-.013-.056 67.444h-285.132v-67.438h-15v67.438h-59.813v-52.5h-15v67.5h465v-125.51c0-14.861-4.749-28.972-13.733-40.808z"/><path d="m21.249 362.188c0-24.172 16.384-45.125 39.843-50.951l117.595-29.211v18.181h15v-45.593c.242.176.476.353.72.529 20.145 14.583 39.997 23.535 40.833 23.909l3.05 1.366 3.055-1.355c.843-.374 20.879-9.322 41.213-23.899.383-.274.752-.549 1.13-.823v45.866h15v-18.182l117.71 29.219c7.354 1.826 14.081 5.132 19.993 9.829l9.33-11.745c-7.605-6.042-16.256-10.295-25.71-12.642l-38.761-9.621v-26.794c0-6.893 5.607-12.5 12.5-12.5h15c15.163 0 27.5-12.336 27.5-27.5v-45.861l45.208 9.003-52.709-110.502-52.708 110.502 45.208-9.003v45.859c0 6.893-5.607 12.5-12.5 12.5h-15c-15.163 0-27.5 12.336-27.5 27.5v23.071l-67.562-16.77v-24.363c17.85-16.265 26.883-32.694 26.883-49v-17.844h7.625c20.678 0 37.5-16.822 37.5-37.5v-62.563h-22.625c-10.028 0-19.142 3.964-25.878 10.398-1.862-6.464-4.458-12.62-7.688-18.374l19.392-37.464.154-.314c4.3-9.35 1.03-20.623-7.604-26.221-8.636-5.599-20.262-3.982-27.042 3.759l-20.454 25.659c-12.044-6.325-25.743-9.912-40.266-9.912-14.414 0-28.017 3.533-39.996 9.771l-20.12-25.25-.224-.268c-6.781-7.741-18.408-9.358-27.042-3.759-8.635 5.598-11.904 16.871-7.604 26.221l19.367 37.429c-3.322 5.854-5.984 12.128-7.884 18.723-6.736-6.434-15.849-10.398-25.878-10.398h-22.625v62.562c0 20.678 16.822 37.5 37.5 37.5h7.625v17.844c0 16.374 9.033 32.875 26.883 49.214v24.149l-121.21 30.109c-30.162 7.492-51.228 34.43-51.228 65.509v43.081h15v-43.08zm407.5-254.436 26.284 55.104-26.284-5.235-26.284 5.235zm-80.679-17.452h7.625v47.562c0 12.407-10.094 22.5-22.5 22.5h-7.625v-47.562c0-12.406 10.093-22.5 22.5-22.5zm-37.29-73.436c1.917-2.085 5.118-2.5 7.506-.953 2.387 1.548 3.314 4.639 2.192 7.241l-15.668 30.27c-3.94-4.622-8.355-8.825-13.169-12.538zm-153.509 6.288c-1.122-2.602-.194-5.693 2.192-7.241 2.387-1.548 5.588-1.132 7.506.953l18.996 23.841c-4.809 3.683-9.225 7.853-13.169 12.441zm-13.092 137.211c-12.406 0-22.5-10.093-22.5-22.5v-47.563h7.625c12.406 0 22.5 10.093 22.5 22.5v47.562h-7.625zm22.625 32.844v-83.495c0-39.635 32.245-71.88 71.886-71.88 39.635 0 71.88 32.245 71.88 71.88v83.495c0 30.291-49.531 60.008-72.253 70.743-22.509-10.723-71.513-40.396-71.513-70.743z"/><path d="m231.209 428.65-113.324 14.114 1.854 14.885 119.01-14.822 119.011 14.822 1.854-14.885-113.405-14.124.058-38.422-15-.023z"/><path d="m231.3 360.238h15v15h-15z"/><path d="m197.546 127.083h14.999v23.776h-14.999z" transform="matrix(.311 -.95 .95 .311 9.143 290.559)"/><path d="m260.686 131.471h23.657v14.999h-23.657z" transform="matrix(.95 -.313 .313 .95 -29.8 92.25)"/><path d="m238.749 184.685-9.708-9.668-10.584 10.629 20.292 20.208 20.292-20.208-10.584-10.629z"/><path d="m286.113 112.387-4.727-14.236-42.637 14.153-42.636-14.153-4.727 14.236 47.363 15.722z"/></g></g></svg>